<?xml version="1.0" encoding="iso-8859-1"?>
<!-- Generator: Adobe Illustrator 19.0.0, SVG Export Plug-In . SVG Version: 6.00 Build 0)  -->
<svg version="1.1" id="Capa_1" xmlns="http://www.w3.org/2000/svg" xmlns:xlink="http://www.w3.org/1999/xlink" x="0px" y="0px"
	 viewBox="0 0 463.003 463.003" style="enable-background:new 0 0 463.003 463.003;" xml:space="preserve">
<path d="M359.418,189.996c12.73-3.407,35.161-10.159,42.347-17.101c5.774-5.578,7.161-13.759,3.62-21.351
	c-5.167-11.076-18.691-17.164-34.458-15.502c-10.467,1.102-33.561,7.968-58.011,15.238c-20.258,6.023-44.515,13.235-57.914,15.777
	v-7.556c0-1.22-0.094-2.419-0.274-3.589l24.98-14.988c9.434-5.66,15.294-16.01,15.294-27.011V89.579l46.932-78.219
	c2.131-3.552,0.979-8.159-2.573-10.29c-3.552-2.131-8.159-0.98-10.29,2.572l-48,80c-0.699,1.166-1.068,2.5-1.068,3.859v26.412
	c0,5.762-3.069,11.184-8.011,14.148l-24.203,14.522c-2.473-2.381-5.463-4.226-8.786-5.348V71.501c0-4.142-3.357-7.5-7.5-7.5
	s-7.5,3.358-7.5,7.5v65.734c-3.322,1.122-6.313,2.966-8.786,5.348l-24.203-14.522c-4.941-2.965-8.011-8.386-8.011-14.148V87.501
	c0-1.359-0.369-2.693-1.068-3.859l-48-80c-2.133-3.552-6.738-4.702-10.29-2.572c-3.552,2.131-4.704,6.738-2.573,10.29l46.932,78.219
	v24.334c0,11.001,5.86,21.351,15.294,27.011l24.98,14.988c-0.18,1.171-0.274,2.369-0.274,3.589v7.556
	c-13.399-2.542-37.656-9.754-57.914-15.777c-24.45-7.27-47.544-14.136-58.011-15.238c-15.763-1.658-29.29,4.427-34.458,15.502
	c-3.541,7.591-2.154,15.772,3.62,21.351c7.186,6.942,29.616,13.694,42.347,17.101c21.07,5.639,41.239,9.005,53.951,9.005
	c10.197,0,21.08-1.139,30.733-2.57l-16.829,14.024c-6.79,5.659-11.857,13.083-14.653,21.47l-19.979,59.936l-63.164,78.956
	c-2.588,3.234-2.063,7.954,1.171,10.542c1.383,1.106,3.038,1.644,4.681,1.644c2.2,0,4.38-0.964,5.861-2.815l64-80
	c0.553-0.691,0.979-1.474,1.259-2.313l20.401-61.205c1.913-5.738,5.38-10.818,10.026-14.69l26.957-22.464v5.356l-21.591,26.989
	c-6.712,8.389-10.409,18.927-10.409,29.673v56.292l-63.286,134.483c-1.764,3.748-0.155,8.216,3.593,9.979
	c1.032,0.486,2.118,0.716,3.188,0.716c2.814,0,5.513-1.593,6.791-4.309l64-136c0.47-0.999,0.714-2.089,0.714-3.193v-57.969
	c0-7.353,2.529-14.563,7.122-20.303l9.878-12.348v26.619c0,22.519,10.103,39.5,23.5,39.5s23.5-16.981,23.5-39.5v-26.619
	l9.878,12.348c4.593,5.74,7.122,12.95,7.122,20.302v57.969c0,1.104,0.244,2.194,0.714,3.193l64,136
	c1.278,2.716,3.976,4.309,6.791,4.309c1.069,0,2.156-0.23,3.188-0.716c3.748-1.764,5.356-6.232,3.593-9.979l-63.286-134.483v-56.292
	c0-10.746-3.697-21.284-10.409-29.673l-21.591-26.989v-5.356l26.957,22.464c4.646,3.872,8.113,8.952,10.026,14.689l20.401,61.205
	c0.28,0.839,0.706,1.623,1.259,2.313l64,80c1.481,1.852,3.661,2.815,5.861,2.815c1.643,0,3.298-0.538,4.681-1.644
	c3.234-2.587,3.759-7.307,1.171-10.542l-63.164-78.956l-19.979-59.937c-2.796-8.386-7.863-15.81-14.653-21.469l-16.829-14.024
	c9.653,1.431,20.536,2.57,30.733,2.57C318.178,199.001,338.347,195.635,359.418,189.996z M317.19,165.658
	c22.722-6.756,46.217-13.742,55.307-14.698c10.576-1.115,17.312,2.677,19.294,6.926c0.809,1.733,0.657,3.153-0.448,4.221
	c-6.067,5.861-58.5,21.894-85.876,21.894c-13.068,0-27.758-2.11-38.832-4.132C279.162,176.881,296.154,171.913,317.19,165.658z
	 M223.002,200.001v-18.597c2.638,1.027,5.503,1.597,8.5,1.597s5.862-0.57,8.5-1.597v18.597H223.002z M240.002,215.001v17h-17v-17
	H240.002z M231.502,151.001c4.687,0,8.5,3.813,8.5,8.5s-3.813,8.5-8.5,8.5s-8.5-3.813-8.5-8.5S226.815,151.001,231.502,151.001z
	 M71.661,162.107c-1.105-1.068-1.257-2.488-0.448-4.221c1.744-3.739,7.168-7.123,15.653-7.123c1.157,0,2.372,0.063,3.641,0.197
	c9.09,0.956,32.585,7.942,55.307,14.698c21.036,6.255,38.028,11.223,50.556,14.211c-11.074,2.021-25.764,4.132-38.832,4.132
	C130.161,184.001,77.728,167.969,71.661,162.107z M231.502,280.001c-2.116,0-8.5-8.689-8.5-24.5v-8.5h17v8.5
	C240.002,271.312,233.618,280.001,231.502,280.001z"/>
<g>
</g>
<g>
</g>
<g>
</g>
<g>
</g>
<g>
</g>
<g>
</g>
<g>
</g>
<g>
</g>
<g>
</g>
<g>
</g>
<g>
</g>
<g>
</g>
<g>
</g>
<g>
</g>
<g>
</g>
</svg>
