<svg width="47" height="111" viewBox="0 0 47 111" fill="none" xmlns="http://www.w3.org/2000/svg">
<path d="M31.0357 58.3089L31.1152 58.338L31.1258 58.3446L31.538 58.6007L32.9165 59.868L34.0983 60.9549L35.2731 62.3655L36.7256 64.1058L37.959 65.5854L39.1157 66.9735L40.0212 68.7249L41.1904 70.2109L42.608 72.0132L43.0954 72.6329L43.5861 73.2571L44.2433 73.9261L44.401 74.1294L44.4791 74.3674L44.6172 77.2879L44.7065 77.412L44.8809 77.4396L45.1711 77.4308L44.6647 78.6351L44.2935 79.5191L43.6391 81.0639L43.5498 81.4137L43.554 81.7404L43.609 81.9674L43.9252 83.2748L44.3103 84.8476L44.271 85.4231L44.2702 85.436L44.1945 86.5461L44.0745 88.2973L43.9894 89.5395L43.854 91.558L43.7171 92.0827L43.6238 92.4403L43.6294 92.6623L43.7047 93.0904L43.6908 93.3111L43.5624 93.6145L43.3587 93.8467L42.3806 94.5306L42.2383 94.6031L42.1141 94.6147L41.8588 94.5668L41.7193 94.574L40.4314 94.9647L40.1049 94.9982L40.038 95.0809L39.9975 95.2988L39.9096 95.4281L39.7408 95.4209L39.5608 95.3338L39.445 95.225L39.3473 94.9896L39.1241 94.8385L38.8464 94.7616L38.5799 94.747L38.2743 94.827L38.0204 95.0012L37.08 95.8597L37.0017 95.9533L36.7047 96.3087L36.4563 96.8363L36.3642 97.4875L36.3949 97.6358L36.5568 98.0313L36.5038 98.1738L36.1856 98.5607L36.1661 98.631L36.1131 98.821L36.1173 99.3811L36.0433 99.6328L35.8577 99.8292L34.9159 100.461L34.7443 100.582L34.9662 101.208L35.1824 101.556L35.2382 101.701L35.3164 101.819L35.4671 101.868L35.5912 101.89L35.887 102.005L35.9735 102.053L36.0349 102.12L36.1047 102.266L36.1577 102.342L36.1996 102.37L36.314 102.421L36.3517 102.447L36.6768 102.805L36.7186 102.879L36.7577 103.812L36.8121 104.092L37.0828 104.641L37.1512 104.993L36.8135 105.281L36.7814 105.579L36.8121 106.114L36.7689 106.179L36.6865 106.242L36.621 106.314L36.6265 106.403L36.6893 106.468L37.126 106.729L37.207 106.85L37.1386 107.034L36.9949 107.292L36.9781 107.52L37.0967 108.051L37.1149 108.337L37.08 108.572L37.0061 108.766L36.9042 108.927L36.9006 108.928L36.1324 109.011L34.7706 108.965L34.0604 108.852L33.8539 108.651L33.8958 108.287L33.4563 107.607L33.5623 107.166L33.8553 106.921L34.1972 106.752L34.4944 106.539L34.652 106.153L34.6925 105.699L34.6841 105.187L34.56 104.75L34.2558 104.522L33.8107 104.509L33.4089 104.549L33.0238 104.484L32.6261 104.167L32.3778 103.831L32.262 103.705L32.0778 103.569L31.9857 103.534L31.7792 103.496L31.6871 103.444L31.6257 103.337L31.5825 103.065L31.5252 102.948L31.4322 102.88L31.309 102.789L31.0718 102.687L30.8653 102.564L30.7327 102.348L30.6351 102.044L30.5262 101.85L29.8984 101.314L29.7616 101.127L29.5203 100.655L29.3458 100.461L28.4905 100.003L28.3887 99.9651L28.305 99.9011L28.1389 99.4836L28.0678 99.354L27.9771 99.2535L27.5404 98.9205L27.3715 98.7532L27.2264 98.5352L26.8483 97.5609L26.5469 97.2469L25.9484 97.1582L25.4837 97.1409L25.22 96.869L24.6633 95.6396L24.7178 95.1616L24.9842 94.2539L24.9242 93.859L24.6968 93.5397L23.5708 92.3482L23.3741 92.2262L22.9248 92.0115L22.7574 91.8634L22.6109 91.4731L22.5858 90.9726L22.6541 90.4825L22.7993 90.1301L23.183 89.7125L23.4229 89.5269L23.6518 89.4167L23.9308 89.3298L24.0773 89.2429L24.0829 89.2351L24.9173 88.0647L25.0777 87.6198L25.121 87.0621L24.9982 86.2164L24.9996 85.7444L25.1684 85.5098L25.4112 85.3838L25.6763 84.9539L25.9484 84.786L26.0377 84.6124L26.1046 84.2578L26.1674 84.0842L26.3209 83.8787L26.4869 83.7629L26.6627 83.6688L26.8441 83.5315L27.0925 83.1683L27.1455 82.8024L27.0106 81.8091L26.8651 80.7392L26.8972 80.5008L27.0213 80.3475L26.9864 80.1886L26.9013 80.0138L26.8706 79.8159L26.9502 79.6194L27.225 79.2351L27.3241 79.0286L27.3492 78.7932L27.2515 78.5809L27.1036 78.3714L26.9823 78.1476L26.9027 77.8689L26.8706 77.6351L26.8665 76.6044L26.7911 76.1643L26.646 75.7531L26.42 75.303L26.2916 74.8254L26.4744 73.9946L26.4576 73.5288L26.2372 73.0861L25.534 72.3855L25.22 71.9964L24.7791 71.0873L24.5988 70.8266L24.4861 70.6637L24.108 70.4606L23.9894 70.4808L23.8876 70.5469L23.7899 70.6277L23.6866 70.6954L23.5792 70.717L23.3629 70.6925L23.2611 70.7054L21.9258 71.1866L20.9422 71.2139L20.5096 71.3983L20.4106 71.541L20.2543 71.8926L20.1483 71.9631L18.7279 71.7714L18.333 71.77L17.9633 71.8651L17.1791 72.3464L16.7954 72.4878L16.4145 72.4489L15.6884 71.8868L15.4024 71.9777L15.1981 72.2918L15.0828 72.6969L15.0814 73.1782L15.0382 73.4276L14.9056 73.5226L14.6684 73.4491L14.508 73.305L14.3936 73.119L14.3115 72.8926L14.1201 72.3652L14.0057 72.1894L13.8508 72.0668L13.4881 71.8968L13.3332 71.7742L13.2188 71.594L13.1498 71.4196L13.0613 71.2539L12.8813 71.0955L12.312 70.8376L12.1376 70.6964L11.8921 70.3666L11.2092 68.9727L10.972 68.6402L10.7842 68.2755L10.7468 68.2025L10.6499 68.1118L10.5299 68.0644L10.3365 67.9378L10.2235 67.8096L9.88588 67.2497L9.82728 66.9994L9.89565 66.3073L9.74635 65.9119L9.44358 65.6731L8.6999 65.2589L8.46968 64.9798L8.04971 64.1833L7.85716 64.0223L7.72182 64.0998L7.59206 64.452L7.47008 64.5728L7.00206 64.711L6.8137 64.8116L6.63092 65.0187L6.20896 65.709L5.9614 65.768L5.64607 65.3595L5.5763 65.1483L5.62374 64.4466L5.64885 64.3675L5.64327 64.2942L5.56653 64.1764L5.4577 64.1204L5.21353 64.1333L5.10191 64.0398L5.01959 63.8214L4.99029 63.6145L4.93647 63.4032L4.26475 62.5712L4.06603 62.3974L3.65223 62.2437L3.15412 62.1431L2.76484 61.9679L2.6881 61.5929L2.83321 61.4379L3.32913 61.2009L3.44414 61.05L3.36879 60.8833L2.85673 60.1568L2.49954 59.9975L2.00422 59.9932L1.57727 59.8955L1.41821 59.4548L1.47681 59.1664L1.60657 59.0587L1.80052 59.0775L2.05166 59.1636L2.22188 59.1363L2.58605 58.8233L2.76663 58.7071L3.26395 58.6326L3.43975 58.5092L3.49975 58.1949L3.49138 57.9423L3.52068 57.7243L3.63369 57.5736L3.88205 57.5349L4.26575 57.3284L4.50713 56.7962L4.68751 56.0549L4.87827 55.2704L5.12464 54.73L5.46009 54.3015L5.86612 54.1825L5.93867 53.9889L5.89681 53.8285L5.68055 53.5098L5.5759 53.2748L5.51949 53.0427L5.50335 52.8022L5.71404 51.2682L6.08378 50.422L6.14656 50.0369L6.03136 49.7005L5.70008 49.3927L5.33592 49.1623L5.24801 49.012L5.16849 47.9961L5.21592 47.7543L5.39731 47.3782L5.88426 46.6488L6.29865 45.8208L6.44097 45.6335L6.63212 45.4633L6.74235 45.416L6.83583 45.4375L6.90838 45.5133L6.96559 45.6219L7.06046 45.712L7.17767 45.6562L7.30045 45.5518L7.40789 45.4888L7.62136 45.4316L7.72322 45.4202L7.85218 45.4559L7.94646 45.5518L8.10691 45.8577L8.16412 45.9279L8.30225 45.9221L8.36643 45.8535L8.41108 45.7593L8.49201 45.6777L8.56038 45.6319L8.62037 45.5819L8.70269 45.5318L8.83863 45.4876L9.02759 45.356L9.25223 44.8814L9.4071 44.7042L9.51593 44.657L9.87452 44.597L10.0433 44.61L10.1745 44.6757L10.2875 44.7473L10.3949 44.783L10.6935 44.7144L11.0019 44.5187L11.2788 44.2386L11.49 43.9199L11.6435 43.7784L12.0529 43.6125L12.1721 43.4483L12.1833 43.1083L12.2447 43.0054L12.4498 42.9683L12.5474 42.7397L12.9002 42.5246L12.9577 42.4896L13.079 42.2667L13.0581 41.9853L12.9032 41.9267L12.6772 41.9338L12.1498 41.7481L11.155 42.0508L10.6806 41.8838L10.4197 41.474L10.1811 40.5117L10.0122 40.0606L9.85598 39.8708L9.47646 39.5055L9.37461 39.2814L9.35508 38.8162L9.40391 38.3582L9.93471 37.0971L10.0609 36.3924L10.1382 36.1728L10.1837 35.9575L10.1306 35.7608L9.97856 35.4586L9.97717 35.2376L10.1558 34.7173L10.2018 34.2128L10.0483 31.973L9.96879 31.7508L9.78602 31.5415L9.56557 31.503L9.32837 31.5329L9.10373 31.5315L8.8777 31.4476L8.83305 31.3408L9.03118 30.9122L9.11908 30.6545L9.13443 30.4851L9.07164 29.3121L9.19861 29.1171L9.54245 29.4018L9.65605 29.2138L9.65885 29.0374L9.63234 28.8594L9.65466 28.6659L9.71606 28.5919L9.92255 28.5022L9.99789 28.4382L10.016 28.3543L9.9694 28.1992L9.98972 28.1096L10.9371 26.6427L11.1227 26.2572L11.2399 25.8462L10.8073 25.084L10.5068 24.7812L10.257 24.4358L10.0625 24.0549L9.93132 23.6413L9.89066 23.2369L9.849 22.8213L9.74715 22.388L9.55181 22.2203L9.36624 22.2472H9.19741L9.09077 22.1719L9.10254 21.9744L9.22193 21.7328L9.3483 21.6887L9.48923 21.7272L9.65387 21.7314L9.85259 21.6092L10.1057 21.2227L10.2704 21.0792L10.4532 21.0166L10.7936 20.9498L10.9812 20.8745L11.1675 20.8418L11.6146 20.9299L11.8217 20.9413L11.9989 20.8603L12.2445 20.6146L12.4496 20.5763L12.7258 20.4059L12.8745 20.1673L13.0942 19.615L13.7514 18.8739L13.9313 18.7547L14.1044 18.6766L14.6332 18.2919L14.8425 18.1003L15.0643 17.7668L15.0595 17.7122L15.0551 17.6616L15.0434 17.5269L14.9477 17.2771L14.9457 16.9167L14.5782 16.8685L14.3695 16.6273L14.1058 16.0116L14.0025 15.8938L13.6258 15.5561L13.5114 15.3959L13.157 14.5492L13.1081 14.2201L13.1933 13.4529L13.1618 13.0204L12.9686 12.7977L12.7007 12.6091L12.4496 12.2775L12.0994 12.1541L11.8552 11.9514L11.6347 11.709L11.3515 11.4666L10.2492 10.9749L10.0679 10.7241L10.0762 10.3699L10.1474 10.0243L10.4013 9.37692L10.8018 8.75224L10.898 8.46322L10.8115 8.08091L10.5995 7.53995L10.5116 7.43371L10.012 7.24954L9.84741 7.16183L9.68556 7.01732L9.56975 6.85169L9.37441 6.47935L9.22651 6.31929L8.88826 6.1098L8.7607 5.91586L8.72442 5.71335L8.76827 5.58459L8.83803 5.47416L8.87571 5.32706L8.85537 5.11897L8.79538 4.93638L8.60064 4.59255L8.33075 4.4016L7.60243 4.36333L7.28988 4.21184L7.21175 4.56704L7.1671 4.97166L7.0485 5.22221L6.74992 5.11319L6.67876 4.98303L6.64806 4.81739L6.59365 4.67168L6.44515 4.60232L6.26317 4.64756L6.11388 4.75081L5.96458 4.81878L5.78599 4.75939L5.62135 4.38725L5.85994 3.3996L5.85436 3.02607L5.73436 2.96946L5.53903 2.78688L5.44834 2.73167L5.29146 2.73864L5.20137 2.80522L5.11905 2.83352L4.9879 2.72469L4.92372 2.53932L4.89442 1.74023L5.10231 1.51818L5.35904 1.38663L5.62234 1.37646L5.85954 1.51499L6.53485 2.18971L7.36642 2.83611L7.48921 2.88554L7.85258 2.96607L8.24803 3.12314L8.29827 3.15284L8.42105 3.11038L8.60662 2.9563L8.69592 2.91245L8.88428 2.91106L9.16472 2.99597L9.32658 3.01152L9.44238 2.97464L9.65586 2.83312L9.77585 2.8104L10.0172 2.89531L10.7763 3.43707L11.026 3.67327L11.2582 4.18115L11.4207 4.43728L11.6286 4.58438L11.8895 4.66511L12.4504 4.70477L12.8703 4.60292L13.1885 4.41615L13.5164 4.27882L13.974 4.32685L14.3856 4.45701L14.7402 4.5194L14.747 4.5206L15.0902 4.47535L15.4474 4.27304L15.8805 4.15284L16.2503 4.38346L16.5949 4.73288L16.9451 4.96349L17.2618 5.09365L17.6442 5.32287L17.9692 5.59894L18.1158 5.87061L18.2734 5.98523L18.173 6.08688L18.1094 6.53436L18.2126 7.48195L18.5305 8.2322L18.6338 8.28462L18.741 8.29678L18.8245 8.33704L18.8564 8.47019V8.9382L19.0075 9.87423L19.401 10.7943L20.5136 12.409L21.2647 13.1681L21.6898 13.483L21.9083 13.6769L21.9996 13.8709L22.0632 14.0768L22.2103 14.2908L22.691 14.8442L22.7983 15.0339L22.9374 15.5107L23.0923 15.8541L23.1202 15.8946L23.0367 16.0401L22.9531 16.0563L22.8616 16.0361L22.7464 16.0806L22.52 16.2745L22.4445 16.3999L22.4684 16.8322L22.5001 16.9494L22.5517 17.0587L22.5597 17.1597L22.4682 17.2568L22.1423 17.4507L22.047 17.5396L21.9358 17.7782L22.0153 17.9925L22.1742 18.2028L22.2854 18.4332L22.2814 18.599L22.1979 19.0722L22.1899 19.2865L22.3767 20.0306L22.6071 22.6766L22.5555 24.4091L22.643 24.8626L22.8337 25.1217L22.4602 25.7858L22.3647 26.1343L22.5158 26.4906L22.5914 26.6202L22.5954 26.7619L22.5597 27.1064L22.5993 27.3252L22.6946 27.4426L22.8178 27.5277L22.937 27.6615L23.2073 28.4436L23.2986 30.1666L23.5609 31.1439L23.5569 31.5455L23.6205 31.6874L23.7118 31.8253L23.7793 32.0201L23.8509 32.3892L23.8389 32.8355L23.7237 33.1114L23.1714 33.639L23.0243 33.7243L22.9368 33.8096L22.8852 33.8949L22.8375 34.0653L22.7899 34.1385L22.6388 34.2563L22.3209 34.4431L22.1897 34.5688L22.0386 34.8774L21.9314 35.2916V35.6936L22.0982 35.9739L20.5644 37.1598L20.3936 37.3833L20.3061 37.6231L20.2385 38.1513L20.0797 38.8381L20.0281 39.2812L19.8692 39.952L19.8732 40.1959L19.9964 41.0905L20.2387 41.7535L20.2587 41.8876L20.2666 42.0421L20.3103 42.1682L20.5527 42.2659L20.6242 42.3718L20.6442 42.5019L20.6165 42.6078L20.9264 42.6809L21.1927 42.6361H21.459L21.7729 42.8396L22.1901 44.0726L22.2378 44.3819L22.2298 44.5081L22.1423 44.6385L22.0151 44.785L21.9555 44.9111L21.9159 45.2532L21.9198 45.5952L21.9794 45.9454L22.1901 46.5807L22.4722 47.0939L22.6789 47.3343L23.1875 47.5584L23.2035 47.8557L23.0207 48.5281L23.1042 48.8175L23.5134 49.1842L23.6645 49.4288L23.6725 49.6082L23.589 49.9303L23.6207 50.0975L23.7239 50.1912L23.8232 50.1097L23.8947 49.9506L23.9344 49.8121L23.9741 50.0078L23.8708 50.4196L23.8509 50.656L24.0098 51.3535L24.0337 53.6056L24.1608 54.5648L24.0933 54.9527L23.8033 55.3651L23.6324 55.7571L23.6801 56.2186L23.8509 56.672L24.586 57.8937L24.872 58.5231L25.1343 58.8379L25.2456 59.0095L25.3767 59.1484L25.5635 59.2056L25.8138 59.1606L26.235 59.0011L26.4457 59.0215L26.6245 59.144L26.7277 59.3075L26.9025 59.696L27.0853 59.9005L27.4828 60.2603L27.5623 60.4524L27.6655 60.5955L27.8762 60.755L28.0311 60.9431L27.9675 61.1682L27.8164 61.4217V61.6141L27.8641 61.8104L27.8362 62.0681L27.7686 62.1746L27.5382 62.3545L27.4626 62.4568L27.4507 62.5919L27.5461 62.8212L27.5621 62.9316L27.3277 63.5784L27.2364 63.738L26.8868 64.1148L26.6721 64.4138L26.6045 64.7699L26.835 65.9701L26.9025 66.1668L27.3833 66.7323L27.4628 66.8798L27.4945 67.0642L27.578 67.2896L27.6853 67.4987L27.7885 67.6462L28.0229 67.8184L28.2217 67.8758L28.4284 67.8963L28.6667 67.9824L28.8932 68.1873L28.8852 68.3677L28.8136 68.5481L28.8416 68.7532L29.0363 68.8926L29.251 68.8393L29.4734 68.7164L29.6881 68.6466L29.8828 68.6097L30.1292 68.5154L30.3399 68.3801L30.4274 68.2202L30.4473 68.1014L30.5029 68.0359L30.654 67.9374L30.6779 67.8226L30.5944 67.6833L30.4872 67.5397L30.4276 67.4128L30.5587 67.0357L30.8687 66.6956L31.1071 66.3679L31.0196 66.036L30.8049 65.6388L30.8565 65.2824L31.1148 65.1022L31.524 65.221L31.6989 65.3643L31.9968 65.6757L32.1796 65.7863L32.0604 66.2657L32.1756 66.8433L32.4776 67.2286L32.9147 67.118L32.9783 67.1999L33.1374 67.335L33.201 67.413L33.5109 67.3637L33.8408 67.6587L34.0991 68.1096L34.2063 68.5073L34.2859 68.6426L34.6197 69.0403L34.6754 69.1264L34.9018 69.2043L35.0646 69.3929L35.319 69.7989L35.9668 70.3691L35.9945 70.4226L36.0302 70.5129L36.0818 70.6032L36.1494 70.6566L36.2725 70.6442L36.4713 70.5007L36.5745 70.4638L36.6698 70.3614L36.773 70.1318L36.8486 69.8898V69.7502L36.6301 69.418L36.0738 68.278L35.9387 67.8599L35.8831 67.3598L35.4579 66.6958L35.3467 66.4664L35.3586 66.2328L35.4023 66.0034L35.4103 65.7863L35.2592 65.4136L34.7784 64.6641L34.6752 64.2669L34.6475 63.7879L34.6038 63.5218L34.5083 63.2067L34.4924 62.9734L34.4447 62.8834L34.2739 62.6786L34.1228 62.4576L33.964 61.9748L33.8924 61.5822L33.7017 61.3203L33.193 61.2222L31.7941 61.2672L31.5954 61.2427L31.3411 61.1199L31.0351 60.8008L30.9675 60.4368L31.063 59.5455L30.9715 58.638L31.0034 58.4173L31.0357 58.3089ZM29.0572 38.2697L29.1605 37.8918L29.3036 37.774L29.6811 37.9609L29.4664 38.0787L29.4585 38.2332L29.5101 38.408L29.4505 38.5828L29.3034 38.6478L29.1523 38.6071L29.0251 38.5136L28.9456 38.4323L29.0572 38.2697ZM20.523 3.14128L20.5407 3.15304L20.6691 3.30572L20.523 3.14128ZM22.0325 4.46L22.0392 4.46299L23.3522 5.85567L22.0325 4.46ZM29.18 26.8072L29.3 27.0747L29.4756 27.2764L29.4706 27.2736L29.2958 27.0711L29.18 26.8072ZM31.5336 29.0296L31.5908 29.1335L31.8434 29.3442L31.5846 29.1297L31.5336 29.0296Z" fill="#E6F7ED" stroke="#3CB371" stroke-width="2" strokeLinejoin="round"/>
</svg>
