<svg width="64" height="114" viewBox="0 0 64 114" fill="none" xmlns="http://www.w3.org/2000/svg">
<path d="M42.4082 68.0037L42.3531 67.8528L42.3726 67.4682L42.3584 67.2937L42.2608 67.0838L41.7668 66.4263L41.4614 66.1724L41.4145 66.0961V65.6135L41.3411 65.2836L41.2155 65.0716L40.3582 64.2398L40.3456 64.1705L40.5162 64.1869L40.4274 64.0655L40.1592 63.8537L40.168 63.7756V63.7246L40.049 63.7919L39.9366 63.818L39.849 63.8673L39.8159 64.004L39.9201 64.6945L40.0102 64.8704L40.0243 64.923L39.9982 65.0048H39.9372L39.8607 64.9707L39.7908 64.9489L39.7635 64.9163L39.7701 64.7557L39.766 64.6945L39.6334 64.5261L39.4297 64.3789L39.2071 64.2626L38.4253 63.9869L38.3098 63.9148L38.2068 63.9008L38.1215 64.0293H38.0771L37.9137 63.9571L37.8734 63.9275L37.845 63.8638L37.8498 63.8069L37.8664 63.759L37.8736 63.7244L37.8233 63.5748L37.6919 63.3505L37.6759 63.2159L37.8714 63.2652L38.0543 63.2032L38.2076 63.0825L38.3213 62.9616L38.3793 62.7873L38.3226 62.6371L38.2148 62.5709L38.1219 62.6514L38.1805 62.6769L38.2231 62.7121L38.2527 62.7557L38.2716 62.8042L38.1674 62.9306L38.0181 63.0169L37.8831 63.0034L37.8239 62.8297L37.8428 62.4995L37.8872 62.3417L37.9731 62.1889H37.9281L37.8818 62.2471L37.7741 62.4483H37.7256L37.6954 62.3575L37.6781 62.2642L37.6847 62.1737L37.7256 62.0921L37.6415 62.1554L37.5248 62.1974L37.4218 62.1865L37.3774 62.0921L37.2578 62.1264L37.2234 62.1431L37.2933 62.1867L37.3207 62.2467L37.3135 62.3186L37.2779 62.3974H37.3223L37.4769 62.2907L37.5254 62.3723L37.5585 62.4451L37.5638 62.518L37.5264 62.6005L37.6744 62.7133L37.7503 62.9431L37.6876 63.0915L37.4218 62.9614L36.9747 62.4991L36.7568 62.3797L36.6656 62.3141L36.6775 62.2444L36.5603 62.088L36.3951 61.9104L36.2843 61.7332L36.3293 61.5786L36.356 61.6393L36.3862 61.6598L36.4265 61.6652L36.4787 61.6804L36.3827 61.6152L36.4312 61.553L36.5295 61.4769L36.578 61.3698H36.5229L36.4845 61.4432L36.4372 61.4732L36.3827 61.466L36.3295 61.4259L36.4029 61.3589L36.4397 61.3386L36.4787 61.324L36.1091 61.3322L36.076 61.2709L36.23 61.1203L35.9227 61.1367L35.8285 61.1667V61.2222L35.9245 61.2917L35.9903 61.3932L36.0756 61.4724L36.2302 61.4767L36.1946 61.5696L36.1792 61.6685L36.1757 61.8839L35.9247 61.5024L35.8265 61.3938L35.7044 61.3513L35.5681 61.339L35.4758 61.3702V61.0469L35.4616 60.9677L35.429 60.8927L35.3965 60.8551L35.3811 60.8894L35.3681 60.9346L35.3029 60.9832L35.2828 61.0239L35.3776 61.3445L35.3811 61.4263L35.1358 61.237L35.0304 61.1281L34.9794 61.0236L35.1286 61.0695L35.1019 60.9453L35.0522 60.918L34.9917 60.9283L34.9294 60.9168L34.8702 60.8608L34.8406 60.8049L34.8182 60.7412L34.7804 60.6623L34.6608 60.4954L34.5257 60.3591L34.3664 60.2462L34.1798 60.148L34.0589 60.1124L33.61 60.0972L33.4786 60.1404L33.4028 60.2411L33.3483 60.3591L33.2856 60.4538L33.1584 60.519L33.011 60.5317L32.7125 60.5093L32.6574 60.5305L32.6468 60.579L32.6509 60.6302L32.6396 60.6621L32.6058 60.6684L32.5259 60.6602L32.4069 60.6652L32.1884 60.6111L31.8685 60.6608L31.7069 60.7167L31.6371 60.7868L31.605 60.9252L31.5269 60.9342L31.3433 60.8144L30.8383 60.5875L30.2952 60.4536L29.1227 60.3007L28.9694 60.3332L28.7178 60.4771L28.4016 60.5338L28.3245 60.6066L28.3221 60.6092L28.2984 60.7361V60.9163L27.9467 60.7591V60.7124L28.0534 60.6304L28.0084 60.5073L27.8853 60.4351L27.7539 60.5091L27.6746 60.4637L27.6106 60.4682L27.5432 60.4937L27.4509 60.5091L27.4853 60.4843L27.5161 60.4522L27.5381 60.4096L27.5494 60.3517H27.4014L27.4263 60.3077L27.476 60.1924L27.4996 60.1478L27.4392 60.1457L27.3019 60.0972L27.4285 59.7663L27.5239 59.6255L27.6548 59.6898H27.6999L27.7514 59.6078L27.8148 59.5404L27.8717 59.4575L27.9025 59.3284L27.8918 59.2137L27.854 59.1087L27.802 59.0131L27.5297 58.6174L27.5 58.5177L27.5262 58.4472L27.5794 58.4045L27.6417 58.3652L27.7003 58.305L27.7179 58.2493L27.734 58.1122L27.7547 58.0495L27.8174 58.0852L27.8945 58.0482L27.9644 57.9728L28.0022 57.8961L27.9987 57.7193L27.926 57.5972L27.8407 57.491L27.7998 57.3613L27.7689 57.3148L27.7003 57.2934L27.6328 57.261L27.5997 57.1824L27.7549 56.9785L27.8727 56.7602L28.0273 56.5425L28.0865 56.4161L28.0818 56.2733L28.0024 56.0044L27.9687 55.9327L27.8698 55.7723L27.8485 55.7215L27.8651 55.6428L27.8982 55.5951L27.9325 55.559L27.9936 55.3906L28.1009 55.3433L28.2335 55.3125L28.3496 55.234L28.3792 55.1293L28.3922 54.9565L28.3774 54.7951L28.2738 54.6494L28.3282 54.4872L28.4549 54.2594V54.2082L28.3683 54.2695L28.2956 54.338L28.2191 54.3937L28.1266 54.4171H27.6772L27.4959 54.3928L27.1317 54.2841L26.8213 54.2457L26.6645 54.1803L26.1557 54.1106L25.936 54.0282L25.6488 53.8241L25.5169 53.7716L25.4992 53.7159L25.5134 53.6444L25.5508 53.561L25.5668 53.4574L25.559 53.3396L25.4796 53.4911L25.4523 53.6111L25.4599 53.9279L25.3989 54.0333L25.2537 54.0985L24.337 54.2598L23.9816 54.2434L23.8021 54.2572L23.6617 54.3155L23.3176 54.1423L23.2099 54.0551L23.1365 54.1982L23.0512 54.2861L22.934 54.3493L22.3028 54.5986L22.031 54.6543L21.8557 54.7339L21.713 54.798L21.5947 54.8305L21.4911 54.9075L21.436 55.0625L21.3661 55.1779L21.2181 55.1374L21.3223 55.1834L21.3097 55.3143L21.2534 55.4305L21.1622 55.5135L21.0438 55.546L20.9371 55.6019L20.9223 55.7324L20.9235 55.7388L20.9691 55.9822L21.1977 56.2883L21.6193 56.6453L21.6436 56.68L21.6939 56.7218L21.7466 56.7765L21.7685 56.8515L21.7745 56.9183L21.8467 57.1993L21.9675 57.4895L21.9499 57.6199L21.8853 57.7385L21.6454 58.0649L21.5938 58.1705L21.5211 58.4119L21.4216 58.9496L21.3825 59.0596L21.1184 59.482L21.0211 59.7749L20.9537 60.0812L20.9206 60.3963L20.9231 60.6329L20.9243 60.7133L21.0487 61.1951L21.0688 61.3474L21.0415 61.8206L21.0688 61.9861L21.2886 62.5182L21.2974 62.6264L21.2353 62.7363L21.0754 63.2876L21.083 63.3581L21.1482 63.44L21.2209 63.5082L21.276 63.5766L21.3097 63.6541L21.3328 63.8075L21.3517 63.8663L21.3541 63.9372L21.3221 64.0293L21.2843 64.0692L21.1671 64.1612L21.1186 64.2324L21.0736 64.4992L21.044 64.5652L20.8834 64.8316L20.1556 65.6059L19.9802 65.9309L19.9222 66.2733L20.0217 66.535L19.9987 66.5778L19.8957 66.5878L19.8441 66.6197L19.8246 66.6754L19.8228 66.7582L19.8772 67.0398L19.8618 67.0836L19.8388 67.1387L19.8334 67.2072L19.8772 67.2937L19.6108 67.3247L19.4024 67.5282L18.8114 68.5089L18.7746 68.5912L18.7438 68.7083L18.6022 68.9145L18.5707 69.0477L18.56 69.222L18.5304 69.3795L18.4848 69.5291L18.2971 69.9468L18.2782 70.0157L18.2461 70.0954L18.1064 70.2449L18.0743 70.3197L18.0519 70.7475L18.0743 70.9018L18.1968 71.211V71.3497L18.0743 71.4683L18.0211 71.3216L17.9055 71.3253L17.7777 71.4112L17.6811 71.5144L17.6291 71.5941L17.5793 71.6936L17.5431 71.8114L17.5271 71.9473L17.552 72.1066L17.6574 72.3744L17.6811 72.506L17.6603 72.6542L17.5945 72.8186L17.5602 72.9058L17.5271 73.038L17.5413 73.2102L17.6537 73.5202L17.6809 73.675L17.6537 73.7874L17.5933 73.7837L17.5395 73.7319L17.5269 73.7003L17.3902 73.6949L17.2872 73.7054L17.218 73.721L17.1563 73.7578L17.1308 73.8269V74.1305L17.0971 74.2655L16.6601 74.9309L16.6334 74.9969L16.6504 75.0746L16.6724 75.127L16.6554 75.1574L16.5587 75.1667L16.4309 75.2018L16.3119 75.2913L16.2099 75.409L16.1318 75.5299L16.0862 75.6789L16.0286 76.0341L15.9552 76.1591L15.8759 76.1914L15.7846 76.2043L15.7112 76.2399L15.6804 76.3382L15.6971 76.393L15.7433 76.4261L15.8085 76.4409L15.8837 76.4395L15.8305 76.5386L15.763 76.6189L15.7057 76.7049L15.6808 76.8187L15.7271 76.9154L15.9521 77.0658L16.0327 77.1513L16.0457 77.2459L16.0368 77.382L16.0054 77.503L15.9556 77.5557L15.8514 77.5559L15.7959 77.5647L15.6342 77.6568L15.6093 77.562L15.556 77.4965L15.4808 77.4471L15.386 77.3996L15.2746 77.4529L15.1793 77.4605L15.0993 77.4773L15.0335 77.5559L15.0317 77.6375L15.0833 77.9602L15.1597 78.071L15.4315 78.3181L15.5647 78.4804L15.6481 78.5031L15.7832 78.4652L15.689 78.6126L15.3953 78.6412L15.3314 78.7475L15.2894 78.9238L15.094 79.2498L15.0335 79.4336L15.0471 79.6377L15.117 79.7718L15.1963 79.8809L15.2319 80.011L15.2095 80.0982L15.1065 80.1734L15.0835 80.2678L15.1332 80.5934V81.1759L15.1439 81.1975L15.1669 81.2189L15.1846 81.2513L15.1828 81.3042L15.155 81.3469L15.0637 81.4185L15.0335 81.46L15.0086 81.5334L14.9939 81.6037L14.985 81.7402L14.9838 81.7624L15.0068 81.9161L15.1085 82.2135L15.147 82.5013L15.1879 82.6705L15.25 82.8327L15.4732 83.1688L15.5147 83.2835L15.5308 83.4535L15.5538 83.5753L15.8605 84.1406L16.2845 84.6899L16.2272 84.7043L16.191 84.7024L16.1567 84.695L16.1057 84.6899L16.0459 84.7008L16.0405 84.7277L16.0494 84.762L16.0311 84.7953L15.8498 84.895L15.7828 84.946L15.6436 85.0973L15.6052 85.2194L15.6335 85.5255L15.7856 85.863L16.1256 85.936L16.4821 85.9612L16.6817 86.1547L16.9203 86.1294L17.1596 86.132L17.3847 86.0953L17.5808 85.953L17.6359 85.8408L17.6733 85.71L17.7249 85.5871L17.8291 85.5004L17.9191 85.4897L18.249 85.5509L18.3699 85.5279L18.4675 85.4776L18.5421 85.4272L18.5966 85.4044L18.8227 85.3495L18.9446 85.2632L18.9471 85.2488L19.2225 85.2646L19.2694 85.2761L19.3115 85.2147L19.4079 85.22L19.5465 85.2753L19.6176 85.3039L19.6561 85.2714L19.7348 85.2307L19.7763 85.1988L19.8639 85.2835L20.141 85.4054L20.1482 85.4759L20.1375 85.5577L20.1854 85.6774L20.3173 85.908L20.3771 85.8576L20.3806 86.4135L20.4168 86.5578L20.476 86.6538L20.5424 86.7366L20.5975 86.8256L20.6205 86.9399V87.2943L20.6366 87.3693L20.7071 87.4897L20.72 87.573L20.7058 87.5783L20.6721 87.6174L20.6384 87.6719L20.6205 87.7241V87.9027L20.7058 88.4686L20.6703 88.5837L20.7644 88.8113L20.9101 90.2456L20.9675 90.481L21.0912 90.6742L21.5034 90.9233L21.5679 91.0308L21.5975 91.1581L21.7591 91.4763L21.8769 91.6527L21.9231 91.7996L21.9657 91.8642L22.0214 91.8975L22.1819 91.9665L22.2146 91.9871L22.2561 92.0763L22.3531 92.0991L22.4693 92.0724L22.5622 92.0146L22.4952 91.8013L22.4804 91.5053L22.4058 91.2483L22.1605 91.1513L22.3026 91.0896L22.5223 91.2496L22.7225 91.4816L22.8107 91.6358L23.1819 92.604L23.4105 94.0636L23.6983 95.3847L23.8796 96.2162L24.4095 98.7756L24.8492 99.8249L25.2406 100.442L25.3337 100.592L25.3876 100.741L25.383 100.845L25.195 100.83L25.1033 100.734L24.842 100.498L24.7008 100.413L24.6439 100.376L24.4395 100.384L24.3028 100.312L24.4005 100.117L24.3285 99.8808L24.2802 99.5591L24.1768 99.4952L24.1906 98.9108L24.1616 98.4019L24.0416 98.119L23.819 98.0278L23.5762 98.0582L23.412 98.3063L23.3593 98.4317L23.3143 98.4711L23.2362 98.4294L23.1912 98.3768L23.1698 98.3295L23.1632 98.2709V98.1832L23.2124 98.0397L23.4599 97.8874L23.5612 97.7503L23.5867 97.4651L23.5398 97.0779L23.4409 96.7112L23.3084 96.4877L23.1698 96.4357L23.03 96.4608L22.888 96.5134L22.74 96.5422L22.6689 96.6053L22.3455 96.8912L22.2609 96.9938L22.2473 97.1363L22.3326 97.7546L22.4635 98.1053L22.5114 98.3756L22.5564 98.5001L22.6376 98.5521L22.6572 98.5766L22.8117 98.7071L22.8455 98.7552L22.865 98.791L23.103 99.3852L23.2362 99.6157L23.4122 99.7589L23.5715 99.7801L23.7528 99.7836L23.9008 99.8319L23.9629 99.9888L23.9635 100L23.9682 100.162L23.9811 100.25L24.0085 100.319L24.073 100.376L24.176 100.378L24.2465 100.413L24.3135 100.473L24.1955 100.534L24.1316 100.559L24.0831 100.595L24.0623 100.64L24.0854 100.722L24.137 100.782L24.197 100.815L24.2959 101.017L24.384 101.098L24.4864 101.133L24.5993 101.119L24.6839 101.2L24.744 101.246L24.8077 101.27L24.991 101.278L25.0757 101.264L25.2521 101.211L25.4336 101.042L25.4905 100.955L25.4692 100.752L25.4671 100.626L25.654 100.859L26.7749 102.395L26.9153 102.513L27.1103 102.583L27.2275 102.625L27.3919 102.549L27.5122 102.659L27.7297 102.86L28.1062 103.145L28.4662 103.322L28.6781 103.324L28.9788 103.314L29.8765 103.284L30.1684 103.149L30.2611 102.989L30.5047 103.032L30.6054 103.116L30.74 103.148L30.7916 103.181L30.8064 103.166L31.0403 103.181L30.984 103.033L30.8728 102.873L30.3943 102.676L30.6066 102.604L30.8181 102.643L31.0064 102.795L31.2868 102.966L31.5359 103.045L31.6628 103.076L31.7723 103.089L31.9127 103.121L32.0352 103.163L32.0885 103.206L32.2893 103.291L32.5399 103.431L32.6044 103.501L33.3471 104.773L33.7485 105.39L34.099 105.93L34.366 106.195L35.0961 106.653L35.9062 107.432L36.29 107.709L36.2925 107.711L36.2456 108.097L36.2791 108.669L36.1971 108.902L36.0039 109.095L35.4651 109.511L35.2857 109.729L35.1767 110.033L35.1732 110.345L35.127 110.625L34.8898 110.832L34.809 110.884L34.7728 110.946L34.7479 111.011L34.7035 111.076L34.4908 111.206L34.4524 111.251L34.3944 111.406L34.3087 111.498L34.1899 111.511L34.0349 111.428L33.9718 111.349L33.9259 111.261L33.8688 111.188L33.7726 111.158L33.685 111.184L33.56 111.299L33.553 111.305L33.4809 111.342L33.3298 111.31L33.2166 111.186L33.0741 110.851L33.0778 110.785L33.1004 110.712L33.0982 110.652L33.0289 110.624L32.9438 110.61L32.8875 110.575L32.8484 110.517L32.8145 110.434L32.6994 110.281L32.5438 110.244L32.3746 110.283L32.1238 110.381L31.3413 110.685L31.086 110.851L30.805 110.985L30.5193 111.037L30.2958 111.154L30.206 111.485L30.1838 111.648L30.1213 111.796L30.0288 111.926L29.9164 112.033L29.5753 112.239L29.3729 112.304L29.251 112.247L29.1675 112.064L29.0569 111.88L28.919 111.721L28.7554 111.611L28.6832 111.597L28.5449 111.603L28.4738 111.575L28.4238 111.517L28.3385 111.345L28.2832 111.258L28.2452 111.198L28.2312 111.115L28.2489 111.029L28.2966 110.947L28.595 110.34L28.7153 110.263L28.8686 110.232L29.001 110.183L29.0567 110.049L29.0689 109.911L29.12 109.672L29.1313 109.255L29.1698 108.969L29.118 108.824L28.9825 108.722L28.866 108.612L28.8728 108.443L28.9706 108.321L29.0662 108.277L29.1328 108.214L29.1463 108.036L29.1264 107.887L29.0783 107.792L28.9858 107.76L28.652 107.833L28.5313 107.794L28.297 107.601L28.1578 107.63L27.9669 107.835L27.83 107.871L27.5268 107.795L27.4298 107.782L27.3403 107.811L27.3005 107.861L27.2688 107.864L27.2076 107.756L27.1899 107.694L27.1853 107.483L27.1989 107.418L27.2014 107.411L27.2244 107.349L27.2398 107.281L27.2258 107.221L27.1389 107.072L27.1066 106.992L27.0902 106.908L27.0694 106.56L27.0018 106.42L26.8341 106.322L26.7514 106.31L26.6766 106.311L26.609 106.302L26.5477 106.256L26.5282 106.195L26.5304 106.031L26.5191 105.986L26.3946 105.987L25.9257 106.323L25.7966 106.341L25.6655 106.309L25.4165 106.198L24.9725 106.069L24.8398 106.007L24.6075 105.839L24.4991 105.813L24.3111 105.835L24.1886 105.824L24.0264 105.775L23.9557 105.74L23.7456 105.639L23.6031 105.513L23.5207 105.375L23.2506 104.552L23.2009 104.499L23.1234 104.471L23.0391 104.463L22.9729 104.469L22.8627 104.538V104.552L22.7525 104.55L22.6901 104.516L22.6568 104.475L22.6383 104.453L22.5721 104.413L22.4683 104.446L22.4212 104.507L22.4008 104.59L22.3914 104.756L22.3429 105.053L22.3507 105.178L22.4091 105.348L22.4237 105.452L22.3801 105.515L22.3161 105.57L22.2672 105.647L22.2609 105.712L22.2845 105.839L22.2876 105.903L22.2576 106.086L22.1936 106.246L22.1334 106.359L22.0802 106.206L21.9942 106.086L21.8627 106.047L21.9515 105.811L21.9603 105.693L21.8876 105.642L21.7934 105.666L21.7377 105.727L21.6678 105.888L21.4251 105.682L21.2166 105.442L21.1918 105.378L21.1716 105.294L21.1432 105.219L21.0917 105.187L20.9994 105.236L20.9461 105.25L20.9231 105.215L20.9391 105.162L21.0049 105.073L21.0179 105.037L21.0002 104.964L20.9375 104.84L20.9233 104.76L20.8912 104.735L20.822 104.739L20.7515 104.729L20.7206 104.66L20.6869 104.525L20.607 104.432L20.4174 104.287L20.2433 104.012L20.1284 103.911L19.9975 103.957L19.9329 103.961L19.8803 103.865L19.8217 103.677L19.7701 103.61L19.7317 103.579L19.1023 103.341L18.921 103.171L18.9228 102.877L18.9549 102.745L18.994 102.729L19.0988 102.727L19.1255 102.696L19.1183 102.626L19.0768 102.558L18.9975 102.527L18.8856 102.465L18.8945 102.326L18.9241 102.174L18.8731 102.076L18.9915 101.833L19.0661 101.719L19.1467 101.671L19.1697 101.623L19.374 101.348L19.3196 101.267L19.1946 101.306L19.0595 101.383L18.9726 101.421L18.8612 101.368L18.8197 101.279L18.8231 101.02L18.5697 101.166L18.4501 101.267L18.3991 101.27L18.3754 101.166H18.3222L18.1802 101.125L17.99 100.824L17.8603 100.482L17.8994 100.319L18.0546 100.233L18.189 100.023L18.285 99.7587L18.3222 99.5133H18.2772L18.0712 99.9092L17.9296 100.059L17.7483 99.989L17.7181 99.8743L17.7536 99.5583L17.7253 99.4586L17.6282 99.4488L17.553 99.5526L17.5033 99.6977L17.4819 99.8138L17.5121 100.073L17.4837 100.177L17.3559 100.219L17.2794 100.198L17.1699 100.147L17.0726 100.088L17.0307 100.039L16.9916 100.017L16.7855 99.9822L16.6825 99.918L16.5931 99.8048L16.3799 99.4582L16.4473 99.3376L16.4586 99.1655L16.4338 98.8317L16.4177 98.7821L16.3454 98.6633L16.3306 98.5791L16.2969 98.5684L16.1382 98.5702L16.0812 98.5517L16.1778 98.3965L16.1672 98.2352L16.1139 98.0508L16.0607 97.7184L16.0109 97.7104L15.9464 97.7418L15.8831 97.7498L15.8192 97.7174L15.748 97.6666L15.726 97.6199L15.8083 97.5996L15.8385 97.5527L15.7912 97.4491L15.7036 97.3457L15.6076 97.2991L15.4905 97.283L15.4313 97.2394L15.3318 97.0984L15.1867 96.9916L15.0446 96.9112L14.9316 96.8109L14.8806 96.6427H14.835L14.8177 96.8937L14.7466 97.096L14.5961 97.1963L14.3379 97.1443L14.172 96.9689L14.1318 96.4836L14.0351 96.2918L14.3377 96.0542L14.3834 95.966L14.3969 95.8283L14.4419 95.6096L14.4366 95.485L14.2962 95.6277L14.2263 95.6542L14.1344 95.6402L14.097 95.5975L13.9852 95.4098L13.9319 95.3551L13.8148 95.3208L13.6958 95.255L13.6425 95.1068L13.6507 95.0326L13.6637 94.9874L13.6672 94.9459L13.6423 94.8834L13.5913 94.8196L13.4742 94.7545L13.4166 94.7054L13.3747 94.6289L13.3634 94.5767L13.3332 94.5561L13.2409 94.5777L13.1946 94.6196L13.1414 94.7506L13.1165 94.7787L13.0047 94.8102L12.8964 94.8715L12.7921 94.9124L12.6892 94.8836L12.6536 94.8279L12.6039 94.6647L12.5677 94.6028L12.477 94.5481L12.4361 94.5771L12.4166 94.6377L12.3917 94.678L12.297 94.7611L12.2585 94.7592L12.2425 94.6527L12.223 94.587L12.1288 94.4912L12.092 94.4314L12.0754 94.2895L12.092 93.9294L12.0665 93.8313L12.092 93.5956V93.4687L12.0684 93.3532L11.944 93.0669L11.8398 93.2724H11.7948L11.7699 92.7384L11.7202 92.665L11.5816 92.7043L11.3703 92.8389L11.2928 92.8159H11.2443V92.8663H11.1946L11.1804 92.7801L11.2106 92.3888L11.2497 92.3275L11.3687 92.2387L11.4231 92.1423L11.3259 92.0958L11.1697 92.0644L11.0453 92.013L11.0116 92.177L10.9115 92.2208L10.7837 92.2288L10.6706 92.2866L10.596 92.3674L10.4817 92.4607L10.368 92.4989L10.2957 92.4101H10.2459L10.2336 92.4979L10.1952 92.5448L10.1454 92.5386L10.0969 92.465H10.0472V92.5608L9.89669 92.5435L9.77006 92.6034L9.72628 92.6815L9.95137 92.7721L9.97809 92.8934L9.97624 93.0348L10.0206 93.145L10.0225 93.3448L9.90038 93.6463L9.74643 93.8426L9.6492 93.7244H9.6048L9.59945 93.7927L9.57931 93.8385L9.5012 93.93L9.38444 93.825L9.25124 93.5738L9.06419 93.5L9.04178 93.4465L9.01157 93.3931L8.92811 93.3692L8.84815 93.3639L8.78833 93.347L8.74146 93.3175L8.70179 93.2735L8.67404 93.1645V92.8498L8.62965 92.7439L8.56325 92.6344L8.41525 91.9454L8.10547 91.0045L8.09479 90.845L8.13096 90.7139L8.18009 90.658L8.20497 90.7235L8.22326 90.865L8.27773 90.9601L8.45369 91.1505L8.49562 91.0025L8.43169 90.9127L8.32871 90.8411L8.25471 90.7486L8.25122 90.7009L8.27075 90.6641L8.29315 90.6327L8.30446 90.6025L8.30034 90.482L8.30446 90.4473L8.38626 90.2193L8.40394 90.1457L8.38976 89.984L8.27547 89.6943L8.25471 89.5924L8.28493 89.5254L8.33652 89.4847L8.39757 89.4481L8.45389 89.3917L8.47877 89.3441L8.49356 89.2964L8.5207 88.8388L8.55749 88.676L8.71741 88.4234L8.78443 88.1329L8.92605 87.9342L9.01835 87.7582L9.07755 87.7228L9.10489 87.7407L9.2126 87.7689L9.30325 87.7677L9.27837 87.6976L9.26008 87.6053L9.33121 87.5021L9.50181 87.3156L9.28393 87.4061L9.14661 87.4414L9.07549 87.3837L9.05473 87.1921L9.14353 87.1123L9.31764 87.1049L9.43439 87.046L9.35258 86.8126L9.13942 86.5308L9.04404 86.3647L9.00499 86.1818L8.99964 86.033L9.03335 86.0749L9.12626 86.1037L9.18546 86.0815L9.24343 86.0291L9.35238 85.907L9.21795 85.8373L9.21507 85.7232L9.28207 85.599L9.30345 85.4998L9.39061 85.3783L9.44385 85.2426L9.54457 84.7836L9.60192 84.6504L9.75053 84.3875L9.87963 83.7361L9.98158 83.5316L10.1972 83.6826L10.4377 83.4929L10.5193 83.4019L10.5004 83.3297L10.4447 83.3172L10.3055 83.3361L10.247 83.3297L10.2174 83.2964L10.19 83.1986L10.1721 83.1784L10.0264 83.119L10.0868 82.9957L10.2219 82.8939L10.2965 82.8972L10.3125 82.8687L10.3799 82.7813L10.396 82.748L10.3765 82.6939L10.2467 82.5192L10.3658 82.5128L10.3888 82.4516L10.3409 82.3722L10.2467 82.3128L10.2965 82.2668L10.4067 82.3385L10.5216 82.3848L10.6128 82.3659L10.6496 82.2394L10.6805 82.2323L10.7391 82.1698L10.7715 82.0991L10.7243 82.0651L10.575 82.0633L10.5099 82.0477L10.4459 82.0105L10.4128 82.0608L10.4046 82.0828L10.3964 82.1155H10.3514L10.3596 82.0555L10.3573 81.8908L10.3514 81.8631L10.4124 81.8012L10.4692 81.7862L10.5277 81.7837L10.5952 81.7621L10.6965 81.6898L10.7746 81.6014L10.8385 81.4933L10.8971 81.3588L10.8385 81.4123L10.7183 81.5644L10.6496 81.6067L10.5845 81.5942L10.5454 81.5422L10.5134 81.4863L10.3855 81.403L10.4441 81.2731L10.5612 81.1364L10.6494 81.0569L10.6825 81.1089L10.7288 81.136L10.7832 81.1346L10.8472 81.1025L10.8057 81.0536L10.9146 80.9743L10.9467 80.8968L10.9218 80.8682L10.8667 80.8534L10.8141 80.8228L10.8283 80.7829L10.9029 80.7132L10.9621 80.6217L11.0194 80.5814L11.1812 80.5839L11.2451 80.5477L11.2618 80.4719L11.1919 80.4406L11.1119 80.4497L11.0959 80.493L11.0178 80.3915L11.019 80.3428L11.0462 80.2456L11.3695 79.686L11.4737 79.5683L11.6727 79.0007L11.8421 78.6794L11.8972 78.5137L11.9327 78.3386L11.9451 78.1875L11.9724 78.042L12.0848 77.7663L12.0931 77.607L12.2314 77.1583L12.3052 76.7817L12.4059 76.4993L12.4127 76.3501L12.3105 75.8851L12.2632 75.8056L12.1233 75.6843L12.097 75.5897L12.1617 75.2717L12.2339 75.1038L12.5558 74.6752L12.6949 74.5498L12.7642 74.5286L12.9192 74.5192L12.9726 74.5027L13.0244 74.438L13.0524 74.3671L13.0844 74.2857L13.1461 74.2166L13.2431 74.173L13.3108 74.1887L13.3733 74.2197L13.4514 74.2226L13.7108 74.1085L13.7453 74.1005L13.7994 74.0396L13.8302 73.981L13.8573 73.832L13.8565 73.7231L13.7985 73.5724L13.7827 73.4822L13.7872 73.4053L13.8045 73.3243L13.8339 73.2474L13.8752 73.1833L13.9422 73.1118L13.9716 73.1029L14.0084 73.122L14.1009 73.1358L14.1835 73.1611L14.2602 73.2016L14.3318 73.2034L14.3942 73.1132L14.459 72.8895L14.4907 72.8234L14.6095 72.7013L14.8997 72.55L14.9568 72.5054L15.0352 72.4441L15.0824 72.3726L15.1509 72.2192L15.205 72.1491L15.2765 72.1082L15.4315 72.056L15.481 71.995L15.7014 71.3318L15.7953 71.1662L16.0301 70.8819L16.118 70.7162L16.2286 70.4182L16.3061 70.3037L16.5822 70.0031L16.6272 69.8798L16.6385 69.7497L16.6792 69.5667L16.7476 69.4477L16.9575 69.2348L17.0469 69.111L17.1139 68.9641L17.1411 68.8399L17.1275 68.539L17.1374 68.3655L17.2044 68.243L17.3232 68.1673L17.4909 68.134L17.7933 68.1155L17.8798 68.0444L18.3477 67.4113L18.4094 67.2349L18.5162 66.7416L18.5012 66.6701L18.3779 66.6343L18.2381 66.5445L18.1072 66.4296L18.017 66.3167L17.9635 66.1523L17.9876 65.9993L18.1004 65.6996L18.1086 65.5477L18.0574 65.4213L17.9582 65.3307L17.8198 65.2856L17.7041 65.1787L17.7282 64.9724L17.8439 64.6213L17.856 64.5364L17.8868 64.4605L17.9033 64.3904L17.8733 64.3251L17.8093 64.2963L17.7349 64.2986L17.3251 64.434L17.2227 64.4089L17.1978 64.2761L17.2363 64.2042L17.307 64.1469L17.3664 64.0796L17.3791 63.9781L17.3528 63.9027L17.2747 63.7561L17.2469 63.678L17.241 63.5986L17.2582 63.4632L17.2387 63.3824L17.189 63.3008L17.077 63.1653L17.0371 63.0741L17.013 62.9316L16.9927 62.5174L16.9446 62.3546L16.7791 62.0557L16.7483 61.9024L16.7664 61.8274L16.8445 61.6672L16.873 61.5879L16.894 61.423L16.8954 61.2648L16.8769 61.1494L16.8661 61.0824L16.7968 60.9792L16.4381 60.7782L16.3575 60.7135L16.2862 60.639L16.2395 60.5609L16.1842 60.5036L16.0136 60.4551L15.9452 60.4136L15.9203 60.3542L15.9036 60.2031L15.8714 60.1356L15.7955 60.0863L15.6292 60.059L15.5639 60.0265L15.4886 59.8982L15.4818 59.7642L15.4909 59.622L15.4637 59.4684L15.408 59.3819L15.2637 59.2423L15.2058 59.1613L15.1809 59.0875L15.156 58.8579L15.0604 58.6312L15.0446 58.5636L15.0522 58.4661L15.0794 58.3962L15.117 58.3313L15.1478 58.2466L15.1297 58.1009L15.0296 57.957L14.8942 57.8355L14.7694 57.7582L14.6084 57.6318L14.5731 57.4821L14.613 57.3154L14.6761 57.1382L14.6964 56.9497L14.6738 56.7837L14.673 56.6379L14.7601 56.5127L14.8993 56.4599L15.1873 56.4274L15.287 56.3374L15.2927 56.3323L15.3137 56.2032L15.2837 56.05L15.192 55.7701L15.1875 55.6691L15.2175 55.5988L15.2596 55.5359L15.2905 55.458V55.3861L15.2664 55.2424L15.304 54.8689L15.2972 54.725L15.0362 53.5663L15.0181 52.9371L15.0422 52.7669L15.0399 52.571L14.998 52.505L14.9579 52.4419L14.7217 52.2127L14.666 52.0918L14.5834 51.7336L14.5811 51.6043L14.5984 51.5142L14.6006 51.4569L14.5848 51.408L14.5472 51.3449L14.5141 51.3222L14.4125 51.2939L14.3741 51.2737L14.3455 51.2283L14.3087 51.1161L14.2765 51.0715L14.0479 50.8994L13.9817 50.8116L13.9079 50.6468L13.8191 50.5045L13.5874 50.2238L13.5484 50.086L13.5317 49.9154L13.4588 49.7935L13.3309 49.7111L13.1564 49.6595L13.0008 49.5902L12.1374 48.9325L11.9728 48.7569L11.7975 48.4079L11.7276 48.3974L11.6419 48.4272L11.5313 48.4233L11.4817 48.3861L11.3884 48.2619L11.3411 48.2151L11.2877 48.1902L11.1757 48.1643L11.1245 48.1437L11.0297 48.0798L10.9695 48.02L10.6385 47.5988L10.1325 46.5556L10.0377 46.5042L9.94828 46.4689L9.89484 46.3638L9.85496 46.1817L9.79185 46.0195L9.69627 45.8713L8.81793 45.0162L8.42388 44.3852L8.36591 44.2388L8.39079 44.1292L8.39305 44.0922L8.36982 44.0441L8.29171 43.9796L8.26992 43.9397L8.25718 43.7816L8.26622 43.5107L8.2173 43.3457L8.073 43.0865L8.04443 43.0071L8.04504 42.9689L8.04607 42.9091L8.07772 42.8371L8.1176 42.7724L8.14083 42.6949L8.10177 42.5306L8.10034 42.5292L7.87669 42.2942L7.82119 42.1164L7.85429 41.9699L8.00537 41.7062L8.04155 41.5674L7.99756 41.462L7.94823 41.344V41.3429L7.94308 41.255L8.16509 41.2654L8.22141 41.2681L8.34844 41.2083L8.45595 41.1018L8.7131 40.7318L8.80108 40.7119L8.96655 40.7392L9.09893 40.7906L9.34785 40.9433L9.4568 40.9861L9.50798 40.9711L9.52607 40.9207V40.8062L9.50654 40.7629L9.46296 40.7285L9.41856 40.7024L9.40048 40.6827L9.41034 40.6436L9.42761 40.6058L9.4457 40.5783L9.45392 40.57L9.51785 40.533L9.55773 40.4915L9.56677 40.4245L9.53676 40.2967L9.54211 40.2354L9.58938 40.2025L9.85105 40.146L9.9676 40.1003L10.1068 40.0261L10.2556 40.0917L10.4044 40.1772L10.5119 40.296L10.536 40.4603L10.7278 40.2389L10.7939 39.8855L10.7804 39.5051L10.6096 38.3801L10.6246 37.9484L10.6122 37.824L10.5847 37.5453L10.605 37.3683L10.8328 36.6075L10.8494 36.47L10.796 36.1527L10.7907 35.9707L10.8786 35.676L10.9012 35.5411L10.8515 35.3903L10.656 35.1078L10.6334 35.0073L10.6981 34.9467L10.7839 34.9584L10.8733 34.9974L10.9471 35.02L11.0418 35.0196L11.1035 35.0114L11.1584 34.9806L11.2388 34.9125L11.3403 34.7639L11.3855 34.6124L11.4464 34.4864L11.5983 34.4116L11.7261 34.4061L12.1722 34.4644L12.2587 34.5047L12.3 34.5575L12.3512 34.5913L12.4633 34.576L12.5272 34.5298L12.6986 34.3399L12.7325 34.2722L12.7272 34.0965L12.7414 33.9351L12.788 33.7859L12.8791 33.6475L13.0836 33.4066L13.1198 33.2868L13.1543 32.9433L13.2265 32.613L13.2205 32.4751L13.0949 32.2888L12.9264 32.1791L12.7903 32.0446L12.7625 31.7862L12.6106 31.9137L12.5504 32.0352L12.4896 32.3489L12.3917 32.5287L11.9524 32.8798L11.7352 33.2081L11.6186 33.295L11.4795 33.1951L11.4336 33.0815L11.3276 32.5355L11.2336 32.3151L11.2246 32.2325L11.2975 32.074L11.3089 31.9941L11.2494 31.8565L10.8042 31.2613L10.7592 31.1823L10.7578 31.1007L10.7818 31.0203L10.7849 30.9505L10.7707 30.8818L10.7399 30.8045L10.6346 30.6647L10.3812 30.489L10.2805 30.3439L10.2293 30.1362L10.1925 30.0507L9.97665 29.882L9.96246 29.7469L10.0196 29.6016L10.1068 29.476L10.2137 29.445L10.3316 29.3695L10.4196 29.2756L10.4414 29.1911L10.388 29.1299L10.3164 29.1009L10.2511 29.0616L10.2194 28.9701L10.2375 28.862L10.2961 28.8254L10.3787 28.8478L10.4704 28.915L10.4079 28.6982L10.3606 28.594L10.2922 28.5465L10.1785 28.4934L10.1514 28.3818L10.1491 28.2548L10.1064 28.1545L10.0274 28.0542L9.90409 27.8053L9.82742 27.6893L9.69421 27.5563L9.56328 27.4718L9.41651 27.4289L9.05926 27.4207L8.93284 27.3814L8.83355 27.2846L8.73571 27.1119L8.76428 27.086L8.8019 27.0176L8.79512 26.9586L8.60559 26.9573L8.58977 26.8916L8.62368 26.8046L8.68309 26.7376L8.51761 26.6231L8.26108 26.2488L8.1211 26.1351L8.00763 26.0702L7.385 25.4728L7.32704 25.3996L7.31121 25.3004L7.33752 25.1396L7.34204 25.0459L7.29847 24.938L7.21193 24.8829L7.10586 24.8463L7.0074 24.7951L6.9112 24.6923L6.86084 24.5875L6.7856 24.3692L6.62465 24.1145L6.59238 24.0006L6.52763 23.9264L6.45096 23.8787L6.2787 23.7971L6.1712 23.7254L5.98353 23.5494L4.97178 22.6004L4.90189 22.5064L4.85688 22.4002L4.84701 22.3031L4.84557 22.2156L4.83138 22.1371L4.7689 22.0581L4.59295 21.9085L4.55163 21.8205L4.51771 21.7177L4.44474 21.6273L4.35368 21.551L4.29653 21.4456L4.46344 21.4228L4.36498 21.0606L4.41082 20.9467L4.61617 20.5826L4.81618 20.447L4.84022 20.426L4.86345 20.3849L4.84701 20.2951L4.81391 20.2052L4.79068 20.1645L4.75985 20.1255L4.65379 19.8667L4.63117 19.7736L4.61617 19.7419L4.51688 19.6942L4.48605 19.6747L4.45378 19.6831L4.42829 19.6772L4.41781 19.6114L4.4246 19.573L4.45625 19.5L4.46385 19.4541L4.4472 19.3705L4.37957 19.2309L4.36375 19.1407V19.0751L4.35614 19.0297L4.32757 18.9797L3.95387 18.4572L3.8735 18.2977L3.89385 18.2255L4.0028 18.1756L4.05768 18.0574L4.06138 17.9172L4.01636 17.8021L3.92242 17.7478L3.55242 17.597L3.46979 17.6167L3.45622 17.6339L3.32076 18.0021L3.2891 18.0607L3.22147 18.1164L3.07409 18.0303L2.91684 17.9108L2.77172 17.7628L2.67018 17.5928L2.62804 17.4035L2.62578 17.2282L2.6009 17.0582L2.4159 16.7684L2.24817 16.4158L2.21816 16.3028L2.13553 16.1572L1.9791 16.0105L1.93408 15.9239L2.09051 15.9435L2.14313 15.95L2.20706 15.9924L2.35588 16.2294L2.37623 16.2933L2.4085 16.347L2.48744 16.3969L2.56493 16.4076L2.74479 16.3743L3.08478 16.3834L3.36763 16.2469L3.8737 15.9085L4.01513 15.8614L4.40013 15.8721L4.74691 15.7753L4.78226 15.7848L4.80343 15.771L4.84783 15.6834L4.9058 15.3739L4.85379 15.0618L4.77116 14.7568L4.73498 14.4692L4.73128 14.2996L4.70867 14.1623L4.61925 13.877L4.61247 13.8137L4.64104 13.6131L4.61021 13.5156L4.53354 13.4345L4.35758 13.3015L4.19355 13.1376L4.16416 13.0457L4.23857 12.9709L4.39129 12.8607L4.4951 12.7483L4.5469 12.6289L4.59418 12.3333L4.67311 12.189L5.12513 11.8387L5.22811 11.7203L5.27703 11.6106L5.30869 11.007L5.28998 10.8691L5.23654 10.7236L5.17179 10.6516L4.97774 10.493L4.93704 10.4227L4.96562 10.34L5.03325 10.3285L5.11587 10.3353L5.18576 10.3069L5.24291 10.1552L5.17672 10.022L5.07517 9.87772L5.02852 9.69252L5.01721 9.61564L4.96315 9.46682L4.95863 9.41152L5.20077 9.0777L5.44209 8.86207L5.50458 8.77964L5.55268 8.667L5.54816 8.62383L5.52041 8.5856L5.49636 8.48817L5.48135 8.33421L5.48814 8.19361L5.55206 8.09843L5.70109 8.07644L5.82278 8.05856L6.27562 7.82977L6.3342 7.77612L6.44027 7.64827L6.5042 7.59112L6.58395 7.56625L6.65467 7.56831L6.71407 7.54652L6.75251 7.44888L6.75477 7.31218L6.69455 7.03242L6.68694 6.89121L6.78396 6.38492L6.83206 6.27988L6.9854 6.24391L7.09435 6.34998L7.18376 6.47845L7.27852 6.51031L7.46353 6.47948L7.61543 6.56519L7.90506 6.8318L8.15173 6.90971L8.20517 6.93848L8.23908 7.01413L8.23005 7.17261L8.24813 7.2536L8.38195 7.34857L8.56551 7.30869L8.88967 7.15308L9.183 7.14815L9.52361 7.18124L9.85229 7.17056L10.1066 7.03468L10.1304 7.03222L10.2104 7.02399L10.2743 7.07024L10.3292 7.14137L10.4044 7.20427L10.5292 7.26244L10.5578 7.25278L10.5682 7.20016L10.6435 7.13253L10.7886 7.07579L10.9518 7.04414L11.0075 7.00549L11.1317 6.84557L11.1925 6.78576L11.3204 6.7282L11.9664 6.63262L12.1056 6.58472L12.5319 6.25193L12.7508 6.35327L12.8524 6.42603L12.944 6.50969L13.084 6.72429L13.1975 6.69983L13.4577 6.50764L13.7398 6.39479L13.8405 6.30743L13.9367 6.1399L13.9938 5.94729L13.9856 5.80053L13.9494 5.65582L13.9254 5.46897L13.9404 5.39044L13.9749 5.33577L14.0094 5.29507L14.0284 5.25827L14.023 5.18653L13.9809 5.04552L13.9726 4.96885L14.0524 4.43728L14.1953 4.17273L14.4645 3.97067L14.785 3.84241L15.0829 3.7978L15.2235 3.81137L15.5236 3.89934L15.6506 3.95916L15.9334 4.19576L16.0816 4.27078L16.2675 4.24159L17.1421 3.96779L17.3828 3.76265L17.4776 3.66049L17.5633 3.61691L17.6322 3.57107L17.6439 3.56326L17.7183 3.43027L17.7567 3.23478L17.7064 3.11083L17.4687 2.85245L17.3867 2.40064L17.3242 2.25757L17.0566 1.97432L16.9912 1.84338L17.1318 1.79199L17.2348 1.83125L17.5898 2.07874L18.1485 2.26477L18.2184 2.26847L18.3514 2.24997L18.4274 2.25593L18.4928 2.28409L18.6034 2.36117L18.6741 2.37679L18.8147 2.3511L19.085 2.23558L19.2355 2.20824L19.5303 2.20906L19.6581 2.16507L19.7806 2.04934L19.846 1.92293L19.943 1.64255L20.0256 1.52251L20.1566 1.43535L20.3184 1.38047L20.7155 1.32147L20.7496 1.30359L20.7854 1.31119L20.8606 1.37142L20.9073 1.43967L20.9241 1.51469L20.9504 1.58602L21.0203 1.64666L21.1046 1.75376L21.1831 1.78109L21.2684 1.78048L21.3737 1.80227L21.4699 1.86167L21.5172 1.92642L21.5533 2.00042L21.6105 2.08614L21.9293 2.29087L21.9147 2.55912L21.956 2.71144L22.0553 2.83231L22.1864 2.90137L22.3166 2.90096L22.4271 2.78873L22.4226 2.48636L22.4903 2.42428L22.5129 2.40989L22.6746 2.34904L22.7145 2.34267L22.7289 2.32828L22.8128 2.04893L22.956 1.86393L23.1733 1.71634L23.4372 1.65529L23.7125 1.73073L23.8584 1.89374L24.2747 2.81524L24.4619 3.06458L24.4969 3.12502L24.5345 3.23232L24.5616 3.27631L24.618 3.31495L24.7405 3.36881L24.7645 3.41094L24.8186 3.47672L24.9382 3.55093L25.0578 3.59389L25.1119 3.56491L25.1503 3.46213L25.1834 3.45288L25.1993 3.52955L25.2132 3.92874L25.1606 4.23831L24.9802 4.7894L24.7917 5.28314L24.7573 5.5516L24.7283 5.67761L24.6576 5.79642L24.5949 5.83958L24.4539 5.89878L24.3972 5.93681L24.346 6.00588L24.2667 6.22109L24.1731 6.34628L23.9974 6.58143L23.9657 6.72203L23.9996 6.82769L24.0449 6.88648L24.1207 6.98494L24.1701 7.07538L24.1937 7.19666L24.2114 7.44929L24.2545 7.58228L24.3144 7.67931L24.463 7.86492L24.5216 7.96606L24.5464 8.09432V8.21971L24.5682 8.33338L24.6576 8.42691L24.7855 8.50811L24.9949 8.59958L25.2036 8.66186L25.33 8.65343L25.389 8.55538L25.4706 8.4193L25.6237 8.30378L25.8147 8.29412L26.4077 8.52352L26.513 8.58375L26.5779 8.65796L26.6314 8.73524L26.6858 8.75518L26.7557 8.65446L27.0894 8.33749L27.3845 7.98229L27.4733 7.82731L27.5011 7.79216L27.5706 7.74755L27.6086 7.74241L27.6511 7.75125L28.296 7.74323L28.5017 7.76543L28.66 7.82525L28.9796 8.02402L29.1805 8.10008L29.3903 8.11693L29.594 8.09186L29.77 8.04252L29.8535 7.99627L29.9188 7.94899L29.9963 7.92823L30.1205 7.96174L30.2167 8.01601L30.2746 8.07706L30.31 8.15414L30.3377 8.25568L30.3528 8.44377L30.3147 8.66248L30.2167 8.83329L30.0498 8.87913L29.8866 8.98376L29.7768 9.25838L29.7373 9.57329L29.7817 9.8029L29.8294 9.83867L29.9527 9.86436L29.9949 9.89499L30.0204 9.95912L30.0177 10.0033L30.0056 10.0422L30.0074 10.0899L30.1556 10.7343L30.133 11.1863L30.1503 11.3678L30.198 11.487L30.2833 11.582L30.6015 11.8652L30.7959 12.0874L30.858 12.3152L30.5488 12.6159L30.4985 12.7269L30.4278 12.9779L30.3548 13.093L30.1776 13.299L30.1192 13.4371L30.1075 13.5853L30.1462 14.0456L30.1123 14.1769L30.0047 14.4246L29.9803 14.5494L30.0198 14.689L30.1908 14.8612L30.2294 14.9829L30.1904 15.0997L30.097 15.2257L29.8948 15.4195L29.8308 15.4522L29.703 15.4997L29.653 15.55L29.6331 15.6255L29.6403 15.7965L29.6128 15.8808L29.5161 15.9761L29.0491 16.2362L29.0193 16.2719L29.0057 16.3494L28.9531 16.497L28.7414 16.7161L28.7028 16.8699L28.7517 17.0029L28.8536 17.1408L29.0216 17.3007L29.0812 17.3575L29.5414 17.5719L29.6132 17.6742L29.5914 17.7242L29.4676 17.8621L29.4292 17.9176L29.4134 17.9959L29.4165 18.2658L29.4409 18.3185L29.4985 18.4728L29.5412 18.5166L29.5938 18.5466L29.6411 18.5851L29.6666 18.6521L29.6502 18.7729L29.5418 19.0607L29.5124 19.1984L29.5369 19.3456L29.6613 19.6311L29.6839 19.7384L29.6282 19.8377L29.3947 19.9841L29.2991 20.0607L29.1722 20.2667L29.0783 20.4659L28.9632 20.6521L28.7714 20.8201L28.542 20.9485L28.488 21.0283L28.4608 21.1829L28.4838 21.4435L28.444 21.5412L28.2947 21.6059L28.2421 21.6474L28.2285 21.6947L28.247 21.7453L28.2947 21.7989L28.3015 21.8147L28.3038 21.831L28.3015 21.8476L28.2947 21.8639L28.2263 21.9013L28.1804 21.9506L28.1646 22.0133L28.1815 22.0906L28.1957 22.245L28.1607 22.3829L28.1457 22.4419L27.9938 22.7876L27.7502 23.0746L27.6499 23.2355L27.6526 23.4043L27.7683 23.4945L28.0287 23.5437L28.3474 23.6037L28.488 23.6754L28.6203 23.7638L28.74 23.8707L28.8407 23.9996L28.9632 24.0263L29.1805 24.1556L29.3887 24.2419L29.4195 24.2633L29.4444 24.2594L29.5137 24.2177L29.5527 24.1772L29.6769 23.9998L29.695 23.8861L29.7694 23.8419L29.8664 23.8243L29.9529 23.7903L29.9992 23.7285L30.1456 23.4446L30.2794 23.2639L31.0819 22.6006L31.1733 22.5689L31.2286 22.5728L31.2745 22.5554L31.4042 22.3893L31.4151 22.3679L31.4218 22.3212L31.3834 22.3091L31.3078 22.3044L31.2607 22.282L31.3051 22.2164L31.4058 22.1825L31.516 22.1932L31.6253 22.1837L31.7215 22.0906L31.7546 22.0641L31.7814 22.0507L31.8001 22.0571L31.8095 22.0906L31.8223 22.1387L31.8893 22.2848L31.9047 22.2678L31.9322 22.2065L31.9672 22.15L31.9962 22.0904L32.1399 21.9408L32.3857 21.8357L32.5294 21.7362L32.3676 21.6032L32.4511 21.5718L32.5857 21.521L32.633 21.4554L32.6661 21.3722L32.6842 21.2719V21.1557L32.8505 21.2608L32.9286 21.1755L32.9921 21.0293L33.1109 20.9514L33.7866 20.8186L33.812 20.6669L33.9892 20.1637L34.0536 19.8385L34.113 19.699L34.233 19.5841H34.2785L34.3469 19.6698L34.6316 19.7483L34.9124 19.9113L35.0616 19.8632L36.162 18.6747L36.2765 18.5509L36.3291 18.5104L36.5394 18.5213L36.8752 18.5388L37.0091 18.614L37.0561 18.7236L37.0833 18.8519L37.1521 18.9832L37.3721 19.1399L37.3994 19.166L37.4543 19.1968L37.6249 19.4274L37.9898 19.7534L38.2068 19.8638L38.4241 19.8505L38.5606 20.0244L38.7577 20.1917L38.9999 20.3175L39.2656 20.368L39.8876 20.3703L40.1212 20.4901L40.2137 20.7952L40.0918 21.2939L40.0895 21.3646L40.1925 21.3938L40.5662 21.5781L40.7271 21.5995V21.5438L40.6577 21.4336L40.6159 21.2939L40.655 21.1769L40.7551 21.1144L41.0131 21.0511L41.1237 20.9851L41.3907 20.738L41.8114 20.5056L41.8563 20.4242L41.9631 20.3608L42.588 20.0786L42.7068 20.0542L42.8378 20.0877L43.0627 20.2344L43.1837 20.2677L43.3108 20.2184L43.3942 20.1088L43.459 19.9997L43.5311 19.9499L43.5665 19.8753L43.5063 19.4274L43.5176 19.2881L43.5537 19.1861L43.6164 19.1154L43.673 19.0856L43.7052 19.0687L43.7097 19.0663L43.6939 19.0996L43.6902 19.1049L43.6853 19.1121L43.683 19.1154L43.8358 19.0615L43.9564 18.9847L44.0434 18.871L44.0906 18.708L44.1328 18.4514L44.1794 18.3324L44.2588 18.2348L44.3209 18.1957L44.3825 18.1735L44.5988 18.1388L44.7575 18.0798L45.0253 18.0333L45.1186 18.0007L45.1844 17.9437L45.1926 17.8738L45.1482 17.8107L44.8444 17.6L44.7827 17.5743L44.7669 17.5316L44.7474 17.5032L44.7353 17.4726L44.7375 17.4226L44.8109 17.2364L44.9324 17.082L45.0911 16.964L45.2679 16.8865L45.8484 16.7655L45.9221 16.7659L46.3207 16.8894L46.4545 16.9149L46.4899 16.9135L46.5941 16.896L46.657 16.9013L46.842 16.9478L47.0284 16.9653L47.4529 17.0804L47.5563 17.1542L47.6188 17.2119L47.6819 17.2524L48.0963 17.442L48.1948 17.4689L48.6174 17.4921L48.7442 17.5135L48.8663 17.5567L48.9818 17.6173L49.0898 17.6915L49.1636 17.7801L49.2129 17.8779L49.2768 17.9536L49.3946 17.9785L49.448 17.9694L49.482 17.9497L49.5079 17.9178L49.5383 17.8712L49.6571 17.7328L49.7973 17.6387L49.957 17.5974L50.133 17.6152L50.312 17.709L50.4475 17.8572L50.8096 18.4987L51.1192 19.271L51.2023 19.4186L51.2993 19.538L51.7536 19.952L51.7916 20.005L51.8465 20.0817L52.1684 20.7981L52.2354 21.0301L52.279 21.1115L52.3369 21.1831L52.3641 21.2073L52.4048 21.2437L52.8781 21.5296L52.9883 21.6729L53.1524 22.0047L53.2584 22.1362L53.2878 22.1839L53.3078 22.232L53.353 22.3833L53.3853 22.4429L53.6015 22.7015L53.8138 22.8964L54.9432 23.4917L55.0792 23.5402L55.4252 23.7599L55.5117 23.8518L55.6554 24.0682L55.7674 24.2874L55.8192 24.3501L55.8764 24.3922L56.0001 24.4619L56.0532 24.51L56.0805 24.5517L56.2532 24.9384L56.2741 25.0278L56.2791 25.1203L56.2532 25.4925L56.2671 25.9485L56.239 26.3004L56.2059 26.4708L55.7358 27.5888L55.6996 27.758L55.7432 28.2073L55.7672 28.4562L55.7917 28.5395L55.8634 28.6976L55.8889 28.7804L55.8939 28.8719L55.8803 28.959L55.8309 29.1319L55.827 29.1549L55.8155 29.2234L55.8188 29.3101L55.9757 29.9381L55.9806 30.0213L55.9701 30.1038L55.8694 30.3868L55.7915 30.7054L55.758 31.031L55.7658 31.2025L55.8022 31.3575L55.8797 31.4909L56.0075 31.5992L56.416 31.822L56.537 31.9256L56.6349 32.0444L56.7115 32.1702L56.7718 32.3063L56.8394 32.5427L56.8725 32.6206L56.9196 32.6895L56.987 32.7487L57.1819 32.8603L57.2402 32.9088L57.3817 33.0613L57.4384 33.1045L57.5019 33.14L57.6431 33.219L57.7017 33.2708L57.7811 33.4153L57.8055 33.5793L57.7991 33.9168L57.8263 34.1154L57.898 34.2959L58.0119 34.4494L58.1661 34.5688L58.3675 34.6414L59.3153 34.9826L59.3893 34.9952L59.6886 35.0085L60.5355 35.225L60.605 35.2523L60.6603 35.2926L60.6687 35.3292L60.6738 35.3512L60.6317 35.4071L60.5534 35.4513L60.4015 35.5128L60.2266 35.7095L60.213 35.9773L60.2999 36.2591L60.5873 36.8822L60.6671 37.0022L60.7592 37.0949L60.8486 37.1461L60.9534 37.1617L61.2521 37.1362L61.4122 37.1566L61.7259 37.2633L62.0488 37.4742L62.2527 37.7726L62.3261 38.1307L62.2523 38.5182L62.0733 38.9869L62.0424 39.1515L62.0303 39.4709L61.9859 39.6066L61.8983 39.6946L61.8702 39.7229L61.6114 39.8872L61.2722 39.9961L61.1271 40.0919L61.0632 40.2586L61.1057 40.3966L61.22 40.4708L61.3682 40.4981L61.5078 40.4946L61.6496 40.4673L61.6749 40.4993L61.6989 40.6611L61.693 40.8642L61.6659 40.8763L61.4572 41.0124L61.256 41.1771L60.9589 41.4909L60.8958 41.5958L60.8469 41.7483L60.8183 41.9103L60.8173 42.0794L60.878 42.2044L61.0375 42.2357L61.2153 42.4202L61.2537 42.4295L61.3481 42.4126L61.3797 42.4202L61.3964 42.4577L61.3941 42.5415L61.4046 42.5724L61.6173 42.8784L61.709 42.9493H61.7105H61.7113L61.9049 42.988L61.8356 43.0875L61.5472 43.2721L61.4761 43.4158L61.596 43.6546L61.5407 43.8217L61.5012 43.8374L61.3869 43.8322L61.3569 43.84L61.3429 43.8852L61.3507 43.9991L61.4025 44.1046L61.4048 44.1444L61.3731 44.1728L61.2724 44.1958L61.2385 44.2191L61.1826 44.3572L61.1483 44.5278L61.1596 44.6974L61.2385 44.8318L61.2644 44.904L61.2081 45.2495L61.1964 45.4793L61.3008 45.978L61.2821 46.2L61.1941 46.4025L60.9628 46.7118L60.7933 46.8668L60.746 46.9225L60.7098 46.9959L60.6473 47.1684L60.6157 47.2214L60.5408 47.2598L60.3482 47.296L60.264 47.3238L60.2058 47.3708L60.0689 47.5073L60.0272 47.5402L59.9334 47.5351L59.8056 47.4463L59.7334 47.4397L59.6822 47.4833L59.5951 47.6424L59.5433 47.7004L59.4113 47.7542L59.0312 47.844L58.9301 47.8401L58.717 47.9548L58.5511 48.3285L58.327 48.7053L57.9334 48.8289L57.7737 48.7516L57.6454 48.6054L57.4141 48.1754L57.402 48.1115L57.4363 47.7711L57.4345 47.6693L57.3987 47.5781L57.2626 47.5357L56.9753 47.4837L56.8483 47.4607L56.7903 47.4309L56.6741 47.3532L56.618 47.3291L56.551 47.3265L56.4137 47.3466L56.3621 47.3443L56.2433 47.2835L56.1471 47.2066L56.0482 47.1454L55.9276 47.133L55.8275 47.1842L55.6094 47.3577L55.4996 47.3809L55.4511 47.3404L55.4135 47.2064L55.3541 47.177L55.2943 47.2027L55.2221 47.3223L55.1759 47.36L55.0521 47.3653L54.8716 47.2874L54.7543 47.2897L54.6391 47.3571L54.5579 47.4636L54.4881 47.5783L54.4075 47.6689L54.2624 47.7297L54.1435 47.7061L54.0293 47.6535L53.8969 47.6274L53.8194 47.6483L53.7608 47.6899L53.7141 47.732L53.6738 47.7544L53.6486 47.7548L53.6058 47.7556L53.5577 47.7425L53.5082 47.7219L52.6802 47.6003L52.2861 47.4391L52.1133 47.4239L52.0035 47.4837L51.9073 47.5608L51.7772 47.5974L51.6892 47.5649L51.6479 47.4964L51.6411 47.4292L51.6637 47.4021L51.601 47.4005L51.5848 47.422L51.5735 47.4621L51.393 47.6605L51.3381 47.6876L51.2469 47.6849L51.1953 47.6465L51.1581 47.6015L51.1149 47.5791L50.8493 47.6518L50.6456 47.753L50.6409 47.7554L50.5745 47.7883L50.3229 47.8449L50.1235 47.6779L49.7294 47.6983L49.6618 47.7608L49.6433 47.8204L49.6053 47.8646L49.477 47.8798L49.3691 47.8584L49.2879 47.8107L49.2158 47.7546L49.1372 47.7073L49.0324 47.6724L48.9703 47.673L48.9105 47.6878L48.8153 47.6965L48.6774 47.6804L48.2503 47.5711L48.0005 47.554L47.9471 47.5339L47.9238 47.4654L47.9397 47.2872L47.9224 47.2103L47.878 47.1624L47.8182 47.1232L47.7456 47.102L47.6718 47.1071L47.6019 47.1482L47.5802 47.2025L47.5689 47.2633L47.5245 47.323L47.374 47.3996L47.2683 47.3766L47.1703 47.3125L47.0402 47.2681L46.9177 47.289L46.6371 47.4327L46.3618 47.6245L46.3084 47.6459L46.2325 47.6362L46.1762 47.6013L46.1378 47.5639L46.1106 47.5464L46.0058 47.5766L45.8031 47.7248L45.6767 47.782L45.5203 47.8013L45.0278 47.8001L44.8066 47.8687L44.4814 47.9694L44.0421 48.0352L43.8952 48.0841L43.6549 48.2149L43.1595 48.6424L43.0717 48.7183L42.9476 48.7917L42.6791 48.8694L42.5566 48.9269L42.4441 49.043L42.4106 49.1643L42.41 49.1974L42.4084 49.2963L42.3907 49.4439L42.3385 49.565L42.187 49.7828L42.1358 49.9L42.1113 50.0721L42.1146 50.1843L42.0887 50.2803L41.9812 50.4049L41.5623 50.7348L41.3833 50.9142L41.249 51.1539L41.1239 51.5625L41.0653 51.6933L40.9356 51.8563L40.9006 51.9196L40.8825 51.9958L40.8727 52.15L40.8433 52.2205L40.671 52.3695L39.9392 52.7291L39.7061 52.9102L39.6967 53.0682L39.8527 53.2222L40.1092 53.3914L39.9769 53.4286L39.6346 53.6282L39.494 53.6781L39.0502 53.7155L38.4613 53.665L38.177 53.6972L38.0401 53.8738L38.05 53.9538L38.1281 54.0802L38.1563 54.1482L38.1616 54.208L38.1573 54.296L38.1563 54.3166L38.1871 54.8823L38.1394 55.3372L38.1476 55.8628L38.1548 55.8817L38.5394 56.8983L38.6837 57.1495L39.0138 57.5395L39.1296 57.7748L39.2021 57.8731L39.3259 57.9481L39.3255 57.9549L39.3228 57.994L39.3002 58.0326L39.2617 58.0643L39.2087 58.091L39.1703 58.1177L39.1585 58.1471L39.1721 58.1788L39.2342 58.238L39.2436 58.2653L39.2342 58.2928L39.1518 58.3825L39.1413 58.46L39.1635 58.5434L39.2085 58.6263L39.2457 58.7991L39.2757 59.085L39.3224 59.2394L39.3645 59.3171L39.4007 59.3632L39.4284 59.4137L39.4453 59.505L39.4375 59.5778L39.3627 59.8142L39.362 59.8146L39.2712 59.8951L39.2367 60.0113L39.2272 60.1694L39.2461 60.3285L39.2979 60.4473L39.367 60.4997L39.4099 60.5324L39.8235 60.6707L40.0412 60.8302L40.5962 61.3938L40.7775 61.5022L40.8287 61.5515L40.8558 61.6128L40.8679 61.7375L40.8875 61.7957L40.9863 61.9032L41.2207 62.0292L41.3041 62.1254L41.3163 62.2062L41.3263 62.2726L41.2634 62.3776L41.0754 62.5427L40.9983 62.6833L40.9619 62.8249L40.7956 64.0441L40.8519 64.3399L41.225 64.9187L41.3253 65.0408L41.3695 65.0945L41.4865 65.3529L41.559 65.7222L41.8928 66.3687L42.1997 66.8024L42.408 67.1159L42.4904 67.4113L42.5171 67.8355L42.4082 68.0037ZM5.72124 84.7774L5.48978 84.5953L5.45545 84.538L5.47313 84.4843L5.51568 84.4428L5.56831 84.4175L5.61517 84.415L5.69636 84.4763L5.742 84.5846L5.75269 84.6989L5.72124 84.7774ZM19.0149 83.5778L19.0492 83.7322L18.8893 83.7943L18.7921 83.7478L19.0149 83.5778ZM18.9095 83.0037L18.8817 83.0615L18.8645 83.0746L18.855 83.044L18.8443 82.971L18.8657 82.9737L18.8799 82.9852L18.8918 82.9977L18.9095 83.0037ZM15.7336 105.388L15.8243 105.454L15.8048 105.49L15.7302 105.519L15.5116 105.666L15.3482 105.694L15.1967 105.651L15.0837 105.538L15.2146 105.569L15.2845 105.501L15.3538 105.414L15.4857 105.388H15.4319L15.6718 105.373L15.7336 105.388ZM18.8231 105.815L18.8213 105.883L18.8088 105.926L18.7785 105.958L18.7234 105.993L18.6369 105.866L18.5446 105.555L18.2982 105.325L18.3183 105.226L18.3976 105.139L18.47 105.038L18.4854 104.964L18.4675 104.83L18.47 104.783L18.5091 104.738L18.5613 104.714L18.605 104.681L18.624 104.61L18.6346 104.476L18.6649 104.341L18.7111 104.297L18.8821 104.669L18.8805 105.028L18.9952 105.296L19.0562 105.509L19.048 105.611L19.0219 105.693L18.9703 105.73L18.9045 105.74L18.8476 105.756L18.8231 105.815ZM16.8806 100.32L16.9801 100.391L17.1744 100.433L17.233 100.52L17.1364 100.511L17.0463 100.52L16.9664 100.547L16.9053 100.591L16.7992 100.766L16.7193 100.85L16.6821 100.793L16.6792 100.422L16.7355 100.252L16.8806 100.32ZM14.1846 97.5459L14.4084 97.7605L14.4824 97.8053L14.483 98.0676L14.557 98.3371L14.6685 98.5791L14.7852 98.7579L14.658 98.8457L14.4921 98.7499L14.3463 98.5756L14.1581 98.1509L14.135 98.0789L14.1422 97.8259L14.128 97.7034L14.0812 97.6006L14.0995 97.5842L14.1083 97.5788L14.1172 97.5708L14.1348 97.5463H14.1846V97.5459ZM14.8347 97.4497L14.8578 97.5453V97.6861L14.8329 97.8208L14.785 97.9011L14.7217 97.9137L14.6572 97.8958L14.6074 97.8617L14.5866 97.828L14.5683 97.7825L14.5264 97.7533L14.4779 97.7305L14.437 97.7054L14.2553 97.4055L14.4187 97.319L14.6911 97.3618L14.8347 97.4497ZM10.5871 94.1621L10.5859 94.1569L10.9247 94.3504L11.0371 94.4667L11.0951 94.6778L11.1058 95.4762L11.0453 95.6402L10.9339 95.6316L10.8546 95.5237L10.8073 95.3788L10.7837 95.2024L10.7493 95.0943L10.7522 95.0338L10.7872 94.982L10.8344 94.9763L10.877 94.9613L10.8959 94.8832L10.8905 94.8201L10.871 94.7524L10.8332 94.6992L10.7715 94.6776L10.691 94.6616L10.6636 94.6203L10.6542 94.5646L10.56 94.4096L10.5173 94.2819L10.4965 94.1458L10.499 94.0254L10.5316 94.055L10.5559 94.0866L10.5871 94.1621ZM9.69997 95.6402L9.72361 95.6059L9.76801 95.5705L9.79473 95.5397L9.8527 95.6536L9.85393 95.766L9.79596 95.8517L9.56204 95.928L9.53059 96.0314L9.55074 96.292L9.29009 96.1642L9.15627 96.1607L9.09933 96.3196L9.07323 96.5054L9.00457 96.6156L8.90303 96.6394L8.77744 96.5677L8.73961 96.4635L8.70179 95.9915L8.67445 95.9366L8.64013 95.8834L8.61176 95.8213L8.6023 95.741L8.63314 95.7161L8.69172 95.6906L8.73016 95.6404L8.70179 95.5399L8.66027 95.5134L8.53118 95.4739L8.50343 95.4602L8.53591 95.3866L8.60107 95.328L8.64835 95.2735L8.62944 95.2116L8.58915 95.1259L8.61875 95.0511L8.67384 94.9806L8.70158 94.9107L8.69439 94.8289L8.66294 94.6848L8.65061 94.4242L8.65595 94.3775L8.67384 94.3224L8.73016 94.2069L8.75154 94.131L8.76572 93.9773L8.75627 93.8178L8.70179 93.5236L8.73489 93.5284L8.75729 93.539L8.80518 93.5738L8.85781 93.551L8.9205 93.5695L8.98793 93.6167L9.05535 93.6803L9.09625 93.7834L9.15319 94.1306H9.1976L9.27406 94.0597L9.37293 94.1181L9.48537 94.2318L9.60438 94.3269L9.65762 94.2402L9.72875 94.2034L9.79802 94.2283L9.849 94.3269L9.84427 94.4501L9.79638 94.5672L9.69977 94.7325L9.69319 94.7925L9.70922 94.9253L9.69977 94.9833L9.66831 95.0143L9.62391 95.0382L9.58013 95.0723L9.55053 95.1339L9.54581 95.2634L9.5754 95.4049L9.62926 95.5377L9.69997 95.6402ZM11.293 93.6741L11.1759 94.1796L11.1717 94.2716L10.9302 94.1851L10.8716 94.1528L10.8024 94.0593L10.8361 94.0145L10.996 93.9752L10.9639 93.8542L11.0332 93.7456L11.1356 93.6383L11.1948 93.5234L11.2534 93.5384L11.2801 93.5695L11.2895 93.6149L11.293 93.6741ZM8.80518 86.5058L8.89399 86.5954L8.96326 86.7123L9.00232 86.8536L9.00417 87.0137L8.85144 87.1691L8.90468 87.2147L8.79635 87.2692L8.64897 87.3105L8.50385 87.3041L8.40374 87.2145L8.40024 87.1134L8.4613 86.5187L8.46006 86.4692L8.47897 86.44L8.55236 86.4098L8.64239 86.3962L8.70755 86.4202L8.80518 86.5058ZM21.7176 83.2516L21.7591 83.2619L21.8325 83.3394L21.8668 83.4397L21.7897 83.5205L21.7293 83.7295L21.7063 83.9647L21.6499 84.1565L21.4397 84.257L21.4224 84.3059L21.4164 84.3639L21.3951 84.4122L21.3472 84.4375L21.2908 84.4393L21.2329 84.434L20.8888 84.4679L20.8183 84.4932L20.7757 84.3509L20.7461 84.0775L20.6703 83.9342L20.7786 83.8021L20.7673 83.6664L20.7056 83.5314L20.6701 83.4029L20.7428 83.3163L20.9116 83.2937L21.0951 83.3067L21.5246 83.4163L21.6602 83.3926L21.7176 83.2516ZM9.64899 81.9091L9.69401 82.066L9.68579 82.1663L9.55074 82.3673L9.45474 82.2072L9.48907 82.1003L9.57972 82.0012L9.64899 81.8631V81.9091ZM21.4647 81.7075L21.6962 81.8551L21.7838 82.1003L21.8625 82.6699L21.779 82.6068L21.6002 82.504L21.201 82.3371L21.1169 82.2666L21.1585 82.1798L21.1336 82.097L20.9926 81.9369L20.9938 81.8879L21.0873 81.735L21.1169 81.662L21.1916 81.6957L21.2637 81.7023L21.3969 81.6921L21.4647 81.7075ZM39.8655 67.5424L40.0509 67.527L40.1699 67.7165L40.1859 67.9854L40.065 68.2064V68.2571H40.168L40.106 68.3554L40.087 68.4273L40.1144 68.6167H40.0653L40.0155 68.5762L39.9592 68.4559L39.9201 68.4097L39.8515 68.377L39.6175 68.3081L39.6751 68.2273L39.7082 68.191L39.7207 68.1511L39.7173 68.0586L39.6959 67.9887L39.6241 67.8218L39.6175 67.7494L39.7614 67.2123L39.8005 67.1566L39.8657 67.1917L39.8965 67.274L39.9142 67.3574L39.9082 67.4458L39.8655 67.5424ZM38.6687 65.0501L38.7185 65.1008L38.7949 65.239L38.9051 65.3683L38.9851 65.4924L38.9709 65.6135L38.8714 65.6585L38.7511 65.5831L38.5197 65.35L38.4963 65.4369L38.5104 65.5226L38.4975 65.5878L38.3955 65.6135L38.3008 65.6026L38.0224 65.5117V65.5584L38.0438 65.5841L38.0769 65.6602L38.0325 65.6232L37.99 65.5958L37.9396 65.5759L37.8732 65.5584V65.5117L37.9005 65.4106L37.9012 64.9487L37.8319 64.8739L37.6257 64.3896H37.7252L37.6956 64.3376L37.6648 64.2965L37.6257 64.2626L37.576 64.2326L37.6981 64.2371L37.894 64.2891L38.0224 64.2833L38.2545 64.4515L38.3452 64.543L38.4251 64.6435L38.5117 64.8367L38.5733 64.9372L38.6687 65.0044V65.0501ZM5.70747 84.4407L5.55947 84.3162L5.58619 84.1741L5.72124 84.088L5.89185 84.1299L5.92206 84.1758L5.92741 84.2352L5.91322 84.295L5.88836 84.3413L5.83142 84.3449L5.76029 84.3164L5.70705 84.3262L5.70747 84.4407ZM8.75257 87.5428L8.83006 87.595L8.91598 87.7364L8.88761 87.8856L8.79285 88.0571L8.62224 88.4803L8.55708 88.4702L8.49541 88.3282L8.48 88.1765L8.51433 88.0195L8.51556 87.8234L8.48883 87.5977L8.55215 87.4805L8.68597 87.5068L8.75257 87.5428Z" fill="#3867fa26" stroke="#3867FA" strokeWidth="2" strokeLinejoin="round"/>
</svg>
