<svg width="123" height="71" viewBox="0 0 123 71" fill="none" xmlns="http://www.w3.org/2000/svg">
<path d="M121.171 44.8153L121.536 44.9014L121.734 44.9755L121.855 45.0741L121.884 45.2702L121.707 45.5778L121.782 46.2616L121.63 46.6839L121.416 47.1104L121.063 48.5033L120.147 50.0697L119.772 50.9082L119.754 51.0856L119.772 51.245L119.842 51.5696L119.882 51.6426L120.014 51.7817L120.042 51.8529L120.007 51.9955L119.941 52.0899L119.864 52.174L119.809 52.2848L119.682 52.6641L119.646 52.8494L119.661 53.0794L119.725 53.2595L119.908 53.5829L119.946 53.7707L119.856 54.1772L119.497 54.9887L119.271 55.499L119.214 56.6596L118.998 57.1425L118.974 57.2819L118.997 57.4154L119.067 57.5412L119.3 57.7671L119.568 58.361L119.832 58.5312L120.06 58.6373L120.253 58.8178L120.562 59.2522L120.856 59.7891L121.077 60.3687L121.204 60.6242L121.534 61.1274L121.661 61.3854L121.718 61.6699L121.773 62.3811L121.903 63.0357L121.921 63.3481L121.898 63.6612L121.837 63.9896L121.59 64.7144L120.928 66.0218L120.713 66.728L120.605 67.083L120.595 67.2506L120.641 67.4567L120.522 68.1309L120.082 68.9256L119.526 69.5151L119.067 69.5695L118.857 69.3654L118.381 69.0779L118.172 68.8831L118.079 68.7257L117.983 68.4381L117.914 68.3037L117.877 68.3123L117.522 68.0196L117.509 67.9549L117.247 68.0204L116.798 68.4017L116.545 68.4043L116.272 68.2622L116.022 68.172L115.833 68.247L115.734 68.5958L115.627 68.8468L115.411 68.9574L115.166 68.9259L114.969 68.7514L114.728 68.6204L114.41 68.731L114.249 68.8547L113.884 69.1359L113.339 69.3808L112.824 69.2379L111.766 68.6339L111.314 68.5479L110.825 68.5752L110.349 68.7122L109.939 68.958L109.77 69.1945L109.494 69.7872L109.314 69.9445L109.115 69.908L108.495 69.6291L108.301 69.5092L108.168 69.294L108.067 69.0398L107.915 68.8859L107.463 69.0263L106.675 69.1148L106.251 68.9413L105.912 68.4913L105.668 67.939L105.52 67.4572H105.517L105.348 66.6432L105.339 66.3646L105.294 66.0511L105.125 66.0579L104.912 66.236L104.466 66.7027L104.278 66.8457L103.728 67.0382L103.315 67.1829L102.856 67.4561L102.704 67.8265L102.419 68.1524L102.058 68.3916L101.683 68.5006L101.547 68.4751L101.026 68.27L100.824 68.2998L100.714 68.4633L100.616 68.658L100.462 68.7797L100.19 68.7193L99.1603 68.0923L98.166 67.6361L97.8718 67.4574H97.8687L97.6706 67.2232L97.4687 67.041L97.2371 66.9142L96.9506 66.846L96.4988 66.663L95.5967 66.1723L95.1548 66.0112H95.0246L94.7053 66.0529L94.5994 66.0385L94.4966 65.9227L94.4904 65.6892L94.3837 65.5758L94.1338 65.5264L93.8192 65.575L93.2599 65.7677L92.9316 65.979L92.8279 66.0104L92.6732 65.9814L92.5834 65.9123L92.5125 65.8348L92.4143 65.7803L92.191 65.7138L92.0981 65.7022L92.075 65.6992L91.7398 65.7197L91.6484 65.6822L91.5722 65.6131L90.5549 64.9747L90.1077 64.8263L89.582 64.9925L89.2345 65.031L88.9769 65.1818L87.9696 66.0552L87.6511 66.2435L87.4119 66.2827L87.3098 66.1908L87.2823 66.0622L87.2793 65.9174L87.2511 65.7785L87.1345 65.6746L86.9919 65.713L86.8434 65.7735L86.7107 65.7377L85.9153 65.1044L85.7066 64.8469L85.5497 64.2654L85.6586 63.0438L85.5437 62.4797L85.3364 62.2279L84.1805 61.5807L84.0213 61.5252L82.8547 61.9872L82.2093 62.3373L81.6774 62.6266L81.4107 62.7103L81.1402 62.6284L80.8849 62.6148L80.6396 62.8366L80.4348 63.0858L80.4033 63.1241L80.1648 63.3025L79.6535 63.4587L79.431 63.4647L78.0695 63.1029L77.6383 62.6506L77.636 62.0804L77.5843 61.581L77.0068 61.3384L76.6731 61.3742L75.8441 61.7013L75.4692 61.6671L75.4441 61.4451L75.4616 61.1941L75.2078 61.0652L75.0212 61.0395L74.8383 60.9883L74.4984 60.8106L74.3733 60.5115L74.2895 60.1663L74.0755 59.8509L73.744 59.6604L73.0096 59.4132L72.6637 59.2029L72.6614 59.2013L72.5044 58.9421L72.2751 58.8899L72.0329 58.9772L71.8333 59.1311L71.6672 59.1337L69.8912 58.6478L69.7 58.5135L69.6147 58.1576L69.7457 57.7794L69.9544 57.4003L70.0999 57.0416L70.1798 56.3832L70.1479 55.7485L70.0084 55.1299L69.7684 54.5273L69.3943 53.9725L68.9593 53.6648L64.7184 52.8833L64.3985 52.6766L64.1212 52.2801L63.9757 51.9694L63.7769 51.8156L63.3305 51.8878L63.1918 51.8448L63.0334 51.4404L62.8956 51.2875L62.5412 51.1449L62.3828 51.0509L62.2442 50.9087L62.1795 50.6041L61.9197 50.5445L61.6255 50.6664L60.8781 51.594L60.565 51.8087L60.0957 51.8267L59.5075 51.7211L59.317 51.6567L59.3026 51.6609L58.9756 51.7579L58.2921 51.8059L58.0056 51.9209L58.1329 52.1862L58.5527 52.6616L58.5892 52.817L58.6479 52.986L58.6442 53.1215L58.4987 53.1773L58.4134 53.2417L58.3083 53.3987L58.2897 53.3797L58.2107 53.2993L57.5326 53.0521L55.489 51.9502L54.4132 51.5458L52.7994 51.3277L51.4142 51.3157L51.0302 51.453L50.9555 51.6146L50.925 51.8171L50.954 52.0102L51.1773 52.3167L51.1567 52.5167L51.0562 52.7252L50.7377 53.2015L50.4901 53.4544L50.2029 53.6166L49.8722 53.633L49.534 53.5138L49.3854 53.3482L49.2925 53.1149L49.1226 52.7983L48.9405 52.5898L48.2089 51.9684L47.6657 51.7521L45.8623 51.7659L44.9289 51.5345L44.2524 51.1514L43.8836 51.0321L42.0535 50.9088L41.7228 50.5231L41.5628 49.8919L41.421 48.6475L41.2412 48.0071L40.9851 47.5907L40.8997 47.5565L40.5791 47.4284L38.7215 47.9101L37.4614 48.0564L36.8899 47.8774L36.0937 47.0641L34.9508 46.4899L33.1907 45.0264L32.5476 44.7714L32.2961 44.6252L32.0202 44.3299L31.7246 44.0773L31.704 44.0703L31.3649 43.9565L30.6083 43.8806L30.1726 44.0736L29.5782 44.7783L29.2408 45.0126L28.8347 44.9812L28.4248 44.736L28.0165 44.4282L27.2789 44.0014L26.6931 43.3698L26.3768 43.1081L26.0301 42.9813L25.2873 42.8069L24.997 42.5809L24.9933 42.5791L24.8027 42.272L24.504 42.0597L23.1996 41.3846L22.9749 41.2028L22.9131 41.047L22.897 40.8725L22.8276 40.6323L22.6364 40.3252L22.3721 40.0371L22.0582 39.8094L21.7214 39.6889L21.4958 39.72L21.4006 39.8734L21.3388 40.0804L21.2039 40.2761L20.9913 40.3846L20.746 40.4251L20.5859 40.3499L20.6331 40.1123L20.3923 40.0526L20.2994 39.9239L20.3581 39.7868L20.582 39.6952L20.3816 39.2916L19.5259 38.3011L19.3254 37.8349L19.0253 36.8387L18.7206 36.45L18.3761 36.267L16.9125 35.9848L16.2246 35.8522L16.1179 35.6707L16.0905 35.4623L16.0386 35.2825L15.8649 35.1828L15.6363 35.2608L15.3513 35.2538L15.0588 35.1949L14.8219 35.1169L14.5477 34.9168L14.4768 34.681L14.4548 34.4289L14.3351 34.1775L14.1248 34.084L13.5205 34.0822L13.2463 34.0293L12.9995 33.8775L12.4373 33.2864L12.195 33.1233L11.7334 32.992L11.4804 32.871L11.3265 32.6757L11.034 32.1147L10.8465 31.9784L10.2994 31.879L10.0464 31.7923L9.78434 31.6564L9.68526 31.5223L9.69288 31.3656L9.71721 31.2197L9.67002 31.1203L9.35461 31.1101L9.10618 31.102L8.81056 31.2683L8.66429 31.498L8.62473 31.7866L8.74975 32.8554L8.67662 33.0771L8.38716 32.9191L7.76398 32.1641L7.49576 32.0041L7.20014 31.9888L6.91668 32.066L6.63177 32.1069L6.33615 31.9849L6.16847 31.7727L5.76615 30.94L5.65345 30.8445L5.38523 30.7785L5.26491 30.7202L5.15221 30.5947L4.99832 30.3251L4.91448 30.2164L4.66605 30.0612L4.14648 29.9712L3.86465 29.8704L3.65124 29.7017L3.15908 29.0411L2.68217 28.7589L2.55227 28.7325L2.28292 28.6777L2.01163 28.4615L1.92114 27.7772L1.9333 27.4383L1.97449 27.1327L2.07195 26.8485L2.25487 26.5738L2.48352 26.3913L2.73033 26.2642L2.94065 26.0991L3.06568 25.8074V25.8043L3.01849 25.2507L3.14189 24.4986L3.42989 23.8573L3.88556 23.6353L4.13691 23.6696L4.4447 23.6722L4.72815 23.5894L4.91107 23.3661L4.87296 23.1056L4.62615 22.3993L4.70075 22.1539L4.95518 22.1203L5.14102 22.2669L5.28129 22.2997L5.58453 21.1908L5.64404 20.7982L5.60447 20.4798L5.49631 20.3859L5.36075 20.3923L5.23426 20.3701L5.1535 20.195L5.04534 19.5115L4.73302 18.958L4.62632 18.6742L4.68421 18.3738L4.84118 18.2539L5.27091 18.1127L5.35929 17.9573L5.40048 17.7391L5.50101 17.6283L5.63366 17.533L5.76777 17.3583L5.77231 17.356L6.06793 17.1293L6.19442 16.999L6.2995 16.8462L6.30566 16.7599L6.26755 16.6654L6.24615 16.5611L6.2995 16.4437L6.38025 16.378L6.56317 16.2782L6.64701 16.2151L6.97928 15.8402L7.15457 15.4901L7.17744 15.1171L7.04187 14.6739L6.84079 14.2197L6.70052 13.7925L6.69906 13.3614L6.91539 12.8919L7.30246 12.575L8.1817 12.3371L8.49565 12.0728L9.25002 11.1164L9.57759 10.5848L9.77413 9.97219L9.89915 9.6803L10.1186 9.55625L10.6504 9.48765L10.9324 9.39798L11.1199 9.27652L11.5039 8.91052L12.0296 8.5489L12.1759 8.38787L12.6178 7.67582L12.8236 7.45918L13.7104 6.78021L14.003 6.33264L13.8079 5.87794L14.0137 5.67524L14.272 5.36405L14.5075 5.18957L14.6515 5.3994L14.794 5.70086L15.0523 5.76524L16.0451 5.42583L16.1608 5.41886L16.3155 5.55637L16.5061 5.84016L16.6752 6.17324L16.8633 6.72734L17.2016 7.29101L17.3137 7.5508L17.4648 8.30096L17.4706 8.32982L17.6612 8.48728L18.0567 8.38787L18.4034 8.37993L19.0875 8.69939L19.4167 8.63598L19.5706 8.39306L19.5477 7.91598L19.7513 7.77425L20.0104 7.69334L20.1536 7.5842L20.1698 7.54836L20.2304 7.41426L20.2883 7.15091L20.2669 7.03464L20.1466 6.7695L20.1557 6.64448L20.3141 6.52902L20.5434 6.51232L20.7834 6.52545L20.9731 6.49642L21.207 6.32989L21.3807 6.09637L21.4874 5.81794L21.5543 5.28557L21.7395 4.97259L21.7906 4.81043L21.7768 4.664L21.6823 4.38962L21.6602 4.23963L21.6458 3.64222L21.6977 3.37125L21.8538 3.1259L21.9293 2.88931L21.8942 2.61915L21.9331 2.39747L22.2265 2.30731L22.5023 2.42131L23.0433 2.95369L23.342 3.1152L23.7297 3.1752L23.8966 3.11423L24.0626 2.45828L24.1343 2.31785L24.2441 2.24812L24.5245 2.19785L24.7226 2.10607L24.8003 1.96126L24.846 1.81288L24.942 1.7078L25.2727 1.66272L25.5926 1.7644L27.3861 2.58574L27.7054 2.66877L28.0369 2.61315L28.3508 2.49574L28.6693 2.4445L29.3001 2.72082L29.8061 2.68028L30.0972 2.7385L30.2282 2.83385L30.4049 3.08552L30.5071 3.17731L30.6519 3.20196L30.7936 3.15169L30.9368 3.07839L31.0763 3.03169L31.6988 2.99017L32.0432 3.02455L32.2725 3.14633L32.3381 3.40855L32.1743 4.38881L32.2169 4.84124L32.3776 5.13751L32.6481 5.32967L33.0337 5.46897L33.2593 5.68497L33.1899 6.01108L32.8448 6.65696L32.8615 6.88869L32.9575 7.24707L33.0947 7.59312L33.2319 7.78512L33.5329 7.83085L33.7972 7.72869L34.0699 7.67858L34.7343 8.1002L35.033 8.1469L35.3354 8.14869L35.6654 8.23414L35.7874 8.33793L35.9633 8.61863L36.0845 8.71722L36.3267 8.75598L36.5538 8.72079L36.7793 8.72258L37.0057 8.86771L37.1985 9.12198L37.4345 9.35808L37.7019 9.55689L37.9785 9.70284L38.6925 9.92614L38.9516 10.0818L40.0824 11.5001L40.3384 11.6836L40.4938 11.6783L40.797 11.5816L40.9495 11.5922L41.1217 11.7055L41.1248 11.8443L41.0578 12.012L41.0151 12.2157L41.1507 12.5042L42.0437 13.2076L42.3179 13.6349L42.4795 13.7885L42.6562 13.8837L42.8346 13.9438L42.9877 14.0429L43.0882 14.2495L43.2977 14.5578L43.6055 14.4491L43.9392 14.1962L44.2287 14.0721L44.3673 14.1367L44.5822 14.3906L44.7033 14.4835L44.8535 14.5046L45.1811 14.4547L45.3517 14.4863L46.192 15.2252L46.31 15.3979L46.5105 15.8089L46.6644 15.9319L46.88 15.9175L46.9684 15.7352L47.0111 15.4973L47.0834 15.3156L47.1855 15.2726L47.5749 15.1753L47.9193 15.1377L48.0969 15.1456L48.266 15.2118L48.4679 15.3673L48.5213 15.4553L48.5746 15.6801L48.6142 15.7573L48.7285 15.8283L48.9784 15.9146L49.0882 15.9803L49.431 16.332L49.5529 16.555L49.5894 16.8084L49.5392 16.9493L49.4522 17.0421L49.3746 17.1559L49.3517 17.3564L49.5985 17.7245L50.5426 17.521L50.9441 17.9324L50.9822 18.2369L50.9441 18.4871L50.9707 18.7005L51.4165 19.0704L51.4484 19.2575L51.4317 19.4643L51.5034 19.7007L51.6787 19.866L51.8668 19.9604L52.0199 20.0862L52.1532 20.5633L52.3155 20.7066L52.7224 20.873L52.9815 21.0551L53.1232 21.3107L53.2635 21.945L53.294 22.3112L53.3306 22.4818L53.4289 22.6188L53.6094 22.6926L53.9843 22.7432L54.1413 22.8754L54.315 22.9809L54.9138 23.094L55.1326 23.1058L55.3645 23.0103L55.3794 23.0041L55.4884 22.7672L55.5524 22.4714L55.6606 22.1938L55.9616 21.8996L56.319 21.7743L56.697 21.7595L57.0696 21.797L57.4025 21.7547L58.0609 21.4294L58.4113 21.3246L58.518 21.27L58.6437 21.0446L58.7329 20.9559L59.1892 20.831L59.4659 20.7908L59.6488 20.79L59.8317 20.8372L59.9689 20.9105L60.0573 21.0402L60.0954 21.2646L60.2783 21.1668L60.4649 21.1162L60.6363 21.1555L60.769 21.3319L60.9709 21.5372L61.2337 21.491L61.5141 21.3793L61.7747 21.3854L61.9134 21.5479L62.0048 22.0054L62.1084 22.1883L62.3095 22.2363L62.545 22.2022L62.7438 22.2298L62.8352 22.468L62.7401 22.7482L62.5412 23.013L62.4018 23.291L62.4864 23.6142L62.8125 23.9377L62.9024 24.0562L62.9541 24.2171L63.0388 24.7488L63.3739 24.9528L63.7039 25.0608L63.864 25.2786L63.4998 26.7166L63.7735 27.1639L63.9188 27.4013L64.6685 27.8438L65.6711 28.0535L65.8524 28.13L66.004 28.2632L66.2471 28.6754L66.5602 28.9459L66.6845 29.099L66.9069 29.87L67.099 30.1973L67.4662 30.308L67.803 30.2985L68.0546 30.4071L68.2954 30.5535L68.5879 30.6596L69.4047 30.7973L69.5374 30.8736L69.6791 31.1689L69.7796 31.2914L70.0693 31.399L70.3474 31.4568L70.5219 31.5945L70.4448 32.3731L70.6376 32.512L71.3127 32.5449L71.5931 32.692L71.9787 33.1371L72.2348 33.343L72.4237 33.421L72.6004 33.4454L73.4164 33.3933L73.5955 33.4246L73.8377 33.5044L73.9978 33.5269L74.1418 33.4801L74.2592 33.3742L74.4436 32.9795L74.5319 32.8784L74.9716 32.6386L75.1087 32.6013L75.233 32.5405L75.3312 32.4043L75.473 32.1135L75.569 31.9699L75.6695 31.8748L76.0063 31.7972L76.3027 31.9152L76.846 32.2989L77.5699 32.5311L77.6735 32.7294L77.5103 33.5696L77.4632 33.7079L77.3733 33.8602L77.266 33.9425L77.0122 34.0488L76.9246 34.1705L76.9018 34.2685L76.9003 34.5831L76.8103 34.8085L76.4302 35.0394L76.3402 35.2045L76.4599 36.121V36.4474L76.4034 36.9471L76.3791 37.1634L76.485 37.4092L76.8095 37.6079L77.1745 37.6126L77.4755 37.4637L77.7559 37.4058L78.2299 37.8419L78.4981 37.9521L78.7853 38.0152L79.0238 38.0316L79.2234 37.9831L79.6348 37.795L79.8054 37.7665L79.9989 37.8565L80.133 38.0023L80.2885 38.1268L80.5423 38.1532L80.767 38.0477L81.1144 37.6658L81.3185 37.5377L81.5593 37.5273L81.7818 37.6095L82.2101 37.8279L82.5323 37.7691L82.8729 37.7639L83.2128 37.8064L83.5312 37.8904L83.8291 38.0945L84.0273 38.3013L84.217 38.2961L84.6193 37.681L84.7351 37.5837L85.0474 37.4691L85.1496 37.3713L85.1663 37.225L85.1632 37.064L85.2098 36.9273L85.4133 36.8884L85.488 37.2532L85.514 37.9956L85.7472 38.4263L86.0261 38.7917L86.3522 39.0977L86.7378 39.351L87.3886 39.6458L87.704 39.8389L87.9265 40.0995L87.9806 40.2736L88.05 40.6418L88.3061 40.9868L88.3349 41.1436L88.3166 41.3047L88.3257 41.5062L88.4415 41.8935L88.5984 42.1205L89.1151 42.5831L89.3011 42.8921L89.2966 43.2151L89.231 43.5501L89.222 43.8934L89.3911 44.3081L89.6501 44.4115L90.3313 44.3322L90.6993 44.3718L90.7461 44.364L90.8509 44.3467L91.0567 44.251L91.5214 43.7828L91.6052 43.7168L91.5962 43.5422L91.5216 43.4257L91.4241 43.3257L91.351 43.1984L91.3434 43.0142L91.3868 42.8702L91.3883 42.7348L91.2595 42.583V42.5804H91.2581L91.1087 42.476L91.0858 42.3788L91.1141 42.2723V42.1333L91.1788 41.851L91.1901 41.7621L91.1436 41.6313L90.9759 41.3804L90.9545 41.2124L92.2406 39.8789L92.5362 39.9376L92.6839 40.2634L92.7006 40.6786L92.6061 41.012L92.4804 41.2948L92.5132 41.4514L92.6222 41.5779L92.7297 41.7662L92.831 42.2512L92.9346 42.4515L93.1518 42.5783L93.1541 42.5791L93.1609 42.5825L93.4579 42.6688L93.7597 42.7007L94.0409 42.7667L94.2854 42.9556L94.633 43.3995L94.7732 43.5013L94.918 43.5289L95.0369 43.4805L95.1558 43.4158L95.293 43.3943L95.4256 43.4632L95.9231 43.8798L96.2119 43.9978L96.4115 43.9823L96.9517 43.7029L97.2679 43.5313L97.4675 43.2886L97.5605 42.9714L97.5559 42.5825L97.5522 42.29L97.642 42.0984L97.7693 41.9319L97.8791 41.7067L97.9141 41.4563L97.9218 41.1882L97.9644 40.9408L98.1031 40.7546L98.3385 40.7136L98.5389 40.8569L98.7416 41.0496L98.9695 41.1537L99.1882 41.1002L99.5174 40.8044L99.7018 40.7099L99.9684 40.7285L100.257 40.8451L100.523 41.0204L100.73 41.21L100.793 41.4115L100.737 41.911L100.849 42.1359L101.294 42.293L102.334 42.2481L102.742 42.5804V42.583L102.871 42.985L103.109 43.2597L103.428 43.411L103.806 43.4447L104.247 43.3722L104.422 43.3182L104.52 43.2881L104.77 43.3044L105.136 43.5282L105.6 44.0231L106.404 45.0881L106.983 45.4012L107.369 45.4228L108.12 45.3357L108.969 45.563L109.314 45.3545L109.637 45.0581L110.05 44.9098L110.367 45.0071L110.299 45.2337L110.128 45.5128V45.7651L110.389 45.7573L111.698 45.3856L112.272 45.2439L112.524 45.2171L112.815 45.299L112.884 45.3791L112.94 45.5126L113.018 45.6496L113.14 45.7469L113.385 45.7537L113.844 45.5048L114.065 45.4364L114.417 45.4993L114.691 45.6081L115.014 45.7365L115.402 45.7012L115.838 45.491L116.184 45.1732L116.461 44.7725L116.69 44.3139L116.863 44.0535L117.022 44.0241L117.309 44.1863L118.465 44.2414L118.622 44.2914L118.935 44.4508L119.112 44.4879L119.31 44.4525L119.698 44.294L119.872 44.2742L120.209 44.388L120.842 44.7414L121.171 44.8153Z" fill="#E6F7ED" stroke="#3CB371" stroke-width="2" strokeLinejoin="round"/>
</svg>
