<svg width="126" height="104" viewBox="0 0 126 104" fill="none" xmlns="http://www.w3.org/2000/svg">
<path d="M122.056 1.01221L122.335 1.64879L122.215 2.24888L121.678 3.46034L121.644 3.83055L121.734 4.54069L121.706 4.9188L121.587 5.18781L121.255 5.67089L121.155 5.99482L121.133 6.1645L121.047 6.48957L120.77 7.11486L120.562 7.4768L120.271 7.72041L119.824 7.83271L119.675 7.75878L119.589 7.59964L119.454 7.49674L119.155 7.59117L118.971 7.76255L118.9 7.96044L118.864 8.17621L118.798 8.39386L118.326 9.23286L118.159 9.66985L118.116 10.1569L118.167 10.3708L118.37 10.8311L118.436 11.0707L118.432 11.295L118.317 12.1347L117.534 14.3936L117.423 14.9664L117.521 15.2465L117.74 15.4738L117.997 15.8844L118.046 16.3523L117.968 16.8466L117.96 17.3305L118.223 17.7645L118.616 17.9103L119.482 17.8235L119.839 17.9633L119.984 18.1917L119.998 18.4244L119.97 18.6514L119.991 18.8698L120.317 19.5689L120.336 19.6881L120.384 19.9818L120.321 20.2555L120.194 20.5256L120.091 20.9248L120.342 21.6462L120.314 21.859L120.164 22.3707L120.156 22.6197L120.273 22.977L120.712 23.5069L120.932 23.8666L120.979 23.9723L121.509 24.5575L121.915 25.1403L123.825 28.8853L123.996 29.7538L124.139 32.0865L124.057 32.8139L123.316 34.6219L123.009 35.3728L120.67 41.0788L120.729 41.4177L121.09 41.6843L121.147 41.8577L121.154 42.0122L121.098 42.1403L120.979 42.2347L120.841 42.4682L120.801 42.7255L120.853 42.9883L121.114 43.5863L121.2 44.3049L121.293 44.6609L121.453 44.9408L122.101 45.6819L122.416 46.3422L122.478 46.9632L122.457 47.6L122.511 48.3077L123.089 50.92L123.132 51.6898L123.051 52.4069L122.924 52.7092L122.781 52.9648L122.732 53.2218L122.895 53.5301L122.897 53.5326L122.895 54.0868L122.215 56.0168L122.099 56.5977L121.915 57.1357L121.575 57.5624L120.979 57.8094L120.421 58.1958L119.64 59.2592L119.112 59.2885L118.668 58.8961L117.975 57.8156L117.429 57.4819L116.412 57.5723L115.294 57.9226L114.926 58.0381L113.554 58.7165L112.87 59.4449L112.715 59.7786L112.438 60.0365L111.822 60.4727L111.092 61.3806L109.513 62.9675L108.952 63.3498L108.094 63.6844L107.239 63.7834L105.475 63.6477L105.188 63.6728L104.758 63.7102L104.233 64.0289L103.853 64.5832L103.583 65.3513L103.131 65.9557L102.644 66.0914L101.491 65.8287L101.675 66.1841L99.6843 65.9081L98.5771 65.8948L97.8652 66.3978L97.5596 66.3782L97.4354 66.217L97.341 66.0107L97.1331 65.8592L96.8346 65.8128L96.5646 65.8359L96.0223 65.9787L96.055 66.0733L96.242 66.6147L96.9264 67.9025L97.0565 68.4847L96.9969 68.5446L96.6553 69.1023L96.6289 69.2585L96.6146 69.705L96.5836 69.9088L96.4235 70.2455L96.2335 70.5591L96.1094 70.8836L96.1344 71.2568L96.7638 72.3389L96.9602 72.8592L96.9706 72.8865L96.758 73.245L96.457 73.2523L96.1632 73.0926L95.6543 72.7316L95.333 72.6207L95.1048 72.5828L94.8588 72.6084L93.5568 72.9499L93.2511 72.8974L93.0433 72.7279L92.7113 72.207L92.5369 72.0057L92.0843 71.7606L90.4898 71.2568L89.5319 71.2386L88.3304 70.8653L87.2723 70.6861L86.7335 71.257L86.7143 71.584L86.6558 71.9024L86.5245 72.1927L85.8819 72.8697L85.6718 73.3637L85.3922 73.6991L84.7318 73.6651L83.6317 73.2578L83.2376 73.3383L82.7784 73.7319L82.7097 73.7907L82.4063 74.1224L82.1412 74.5381L82.072 75.0075L82.1358 75.1141L82.3705 75.5073L82.6523 75.6597L83.2675 75.7731L83.5231 75.9638L83.6294 76.2291L83.6533 76.5431L83.6031 77.1574L83.9614 78.4029L83.9996 78.7619L83.9351 79.1146L83.6794 79.9158L83.2972 81.6888L83.32 82.0236L83.6149 82.2574L83.9923 82.353L84.298 82.5406L84.36 83.0483V83.0518L84.6014 83.7033L85.0768 84.0632L86.3142 84.3681L86.6558 84.6841L87.2196 85.5722L87.5659 85.9635L88.3733 86.6543L88.6839 87.0382L88.9179 87.5256L89.183 87.0175L89.5389 86.8051L89.9401 86.8683L90.3534 87.1866L90.6209 87.5918L90.9983 88.9414L91.2575 89.4098L91.095 89.5522L90.8534 89.5441L90.3615 89.5277L89.9529 89.5751L89.8777 89.659L89.7464 89.8993L89.7966 89.954L89.768 90.5597L89.7309 90.612L89.8493 90.9939L90.4191 92.0769L91.0139 94.3386L90.499 93.9155L89.8935 93.7624L88.5844 93.633L87.9717 93.4213L87.3291 93.0931L86.7439 92.6693L86.3138 92.1749L86.0988 91.9213L85.3285 91.2913L85.2939 91.6751L85.0777 92.1907L84.8042 92.6559L84.5892 92.8912L84.1114 92.8986L83.703 92.6341L83.3913 92.2552L83.218 91.9189L82.9528 91.0996L82.7887 90.7433L82.0028 89.6534L81.5931 88.9355L81.2048 88.4848L80.5861 88.4197L79.9196 88.6114L79.3821 88.9369L79.3761 88.9404L78.9403 89.222L78.4147 89.4655L78.0693 89.5388L75.905 89.999L74.7551 90.2433L74.5686 90.2215L74.0504 89.9593L73.3959 89.7768L73.2908 89.7232L72.9994 89.9215L72.0607 91.0187L71.3727 92.4236L71.1506 92.6456L70.8065 92.524L70.0134 91.8265L69.6575 91.5942L68.637 91.4031L66.386 90.9813L66.0575 90.8688L65.7923 90.5118L65.7385 90.2034L65.6034 90.1024L65.0923 90.3718L64.7913 90.5859L64.6939 90.6749L64.4749 90.8748L64.2157 91.2161L64.0663 91.587L64.1451 92.4019L64.5071 93.2861L65.3337 94.8205L65.3455 95.5847L64.7842 96.1285L62.5161 97.2856L62.2162 97.5426L61.9474 97.8409L60.9955 99.2996L60.4378 99.8792L59.6148 100.211L58.5756 100.255L57.4334 100.114L56.8835 100.046L55.1476 99.831L54.1538 99.8741L53.7907 99.9555L53.4944 100.184L53.2698 100.526L53.0776 100.898L52.1137 102.314L51.87 102.542L51.5427 102.595L51.1215 102.504V102.5L51.0726 102.364L50.6832 101.878L50.4443 101.737L50.1095 101.882L49.2951 101.037L49.0825 100.904H48.3754L47.9841 101.06L47.7659 101.119L47.5703 101.065L47.3878 100.674L47.3069 99.664L47.0266 99.4602L46.8968 99.3914L46.6203 99.068L46.4642 98.9638L46.2986 98.9926L46.1575 99.0959L46.0127 99.1312L45.8359 98.9638L45.4747 99.4403L44.8765 99.4508L43.6972 99.1389L43.304 99.183L42.7472 99.3312L42.3484 99.2996L40.1365 98.6758L39.7471 98.6423L39.4311 98.5437L38.7934 98.0003L38.7539 97.827L38.246 96.8911L38.1764 96.8738L37.8453 96.8911L37.7625 96.8518L37.77 96.758L37.7926 96.647L37.7719 96.5552L37.7042 96.4144L37.6647 96.0642L37.6007 95.9274L37.4277 96.3926L37.4465 96.8979L37.6007 97.7668L37.518 98.1745L37.3204 98.5821L36.8125 99.2996L36.5416 99.5808L36.2482 99.7243L35.8588 99.774L35.3057 99.7817L35.0066 99.7281L34.8693 99.6019L34.7696 99.4431L34.589 99.2996L34.3576 99.2364L33.9701 99.223L33.7989 99.1387V99.2994L34.2899 99.5654L34.7244 99.9977L34.843 100.404L34.3576 100.583L33.5978 100.535L32.7327 100.729L32.3075 100.744L31.9953 100.594L31.841 100.262L31.7996 99.9309L31.8184 99.7817L31.7469 99.7157L31.6886 99.4057L31.5889 99.2996L31.4065 99.2843L31.3049 99.3541L31.2277 99.4373L31.1149 99.4602L30.9681 99.42L30.7518 99.3205L30.5543 99.1502L30.3699 98.6049L30.1442 98.3541L29.6796 98.0001L29.2958 98.1647L29.1773 97.8614L29.2902 97.4308L29.5949 97.2126L29.7811 97.0375L30.0182 96.6298L30.2213 96.1723L30.3116 95.8403L30.6897 95.289L31.5812 95.0295L33.3888 94.953L33.4057 94.952L33.4942 94.9492V94.9013V94.7893L33.1913 94.6945L33.1123 94.551L33.2477 93.5314L33.3249 93.3427L33.5167 93.18L33.7876 93.0374L34.0642 92.8412L34.273 92.5118L34.3181 92.2419L34.273 91.3282L33.9249 90.4978L33.259 89.3187L32.8188 88.1519L33.1668 87.3537L32.7248 87.0059L32.5028 86.9157L31.8181 86.8411L31.5359 86.7184L31.3327 86.5382L31.0618 85.6947L30.5614 85.2673L29.8936 85.0199L29.194 84.9413L29.2448 85.0237L29.2523 85.0429L29.273 85.0525L29.3633 85.1023L29.0492 85.5835H28.878L28.7708 85.4225L28.6974 85.3583L28.4039 85.2778V85.4225L28.5413 85.7043L28.3983 86.0512L27.9299 86.7241L28.3983 86.5141L28.4434 86.7557L28.2704 87.184L27.6816 88.2619L27.533 88.6998L27.469 89.223L27.2132 89.8398L27.1567 90.1158L27.1737 90.3419L27.2865 90.7136L27.311 90.9924L27.1831 91.3459L26.8689 91.5757L26.4965 91.6563L26.1936 91.5614L26.0958 91.6736L25.9885 91.7501L25.7177 91.8688L25.5277 91.3143L25.0423 90.9819L24.4648 90.7367L23.9851 90.4378L23.0372 91.0154L22.6365 91.3841L22.7212 91.7221L22.3995 91.7116L22.123 91.7595L21.9085 91.8705L21.7618 92.044L21.3141 91.819L20.7798 91.7626L20.5033 91.6476L20.8137 91.2405L20.1028 90.6822L19.9297 90.597L19.783 90.4074L19.8921 90.0031L20.0802 89.6295L20.1818 89.5385L20.131 88.8084L19.9053 87.602L19.8507 86.9581L19.9278 86.7357L20.0877 86.4885L20.2552 86.1723L20.3248 85.7449L20.2947 85.3414L20.2006 85.0596L19.8507 84.4586L19.798 84.2784L19.7717 84.0808L19.7303 83.8871L19.6231 83.7261L19.4707 83.6858L19.0136 83.6781L18.9064 83.6531L18.9515 83.3923L19.2168 83.2332L19.4068 83.0778L19.2224 82.8342V82.6894L19.3973 82.4104L20.0162 81.808L20.6728 81.4053L20.9719 81.7228H21.1148L21.0904 81.3594L20.8665 80.7589L20.8139 80.4212L20.4809 80.5537L20.3285 80.6342L20.1818 80.757L19.8921 80.4655L19.8056 80.2027L19.7924 79.8919L19.7077 79.4555L19.5572 79.1033L19.2149 78.615L19.0644 78.3147L19.2563 78.3723L19.324 78.3838L19.3466 78.4423L19.3955 78.6505H19.5384L19.6852 78.3915L19.9222 78.1891L20.2213 78.0557L20.5768 78.0058L20.8872 78.1364L21.254 78.6958L21.6039 78.8119L20.8741 77.4234L20.6558 77.2018L20.7612 76.9466L20.8139 76.8649H20.6558L20.6032 76.9513L20.4978 77.2018L20.5938 77.389L20.5486 77.6021L20.3962 77.7748L20.1818 77.8315L19.9523 77.7163L19.6795 77.294L19.0644 76.9859L18.8988 76.4763L18.8763 75.885L18.9064 75.4147L18.7483 75.576L18.8236 75.094L18.9064 74.9183L18.6919 74.9096L18.5753 74.8463L18.4323 74.5957L18.4398 75.4136L18.3985 75.7823L18.2743 76.0598H18.1163L17.868 75.9772L17.5406 76.053L17.219 76.2142L16.9989 76.3813L16.5248 75.7238L16.9989 75.4147L17.1174 75.5664L17.4692 75.8986H17.6422L17.5595 75.6662L17.3074 75.3562L17.1682 75.0942V74.1263L17.4315 73.869L17.7551 73.9766L18.1389 74.1581L18.5753 74.1265V73.9508L18.2912 73.9768L18.0598 73.9106L17.8868 73.7828L17.7852 73.6291V73.4679H17.962V73.3065L17.7175 73.4141L17.6422 73.4679H17.4692L17.4428 73.2941L17.3262 72.9839H17.1682V73.4679L16.9989 73.3065V73.8039H16.8521L16.8898 73.15L17.0158 72.6515L17.2585 72.2847L17.6422 72.0177L17.8717 71.9141L18.0749 71.868L18.2743 71.916L18.5057 72.0907L18.7897 72.2222L19.1152 72.1588L19.3955 71.9639L19.5384 71.6949H19.3955L19.1885 71.9946L18.8687 71.9715L18.5301 71.7698L18.2743 71.5335H18.1163L17.1684 72.0176L17.0386 71.8716L16.8749 71.5768L16.7395 71.2397L16.683 70.9707L16.5589 70.7728L16.0171 70.4846L15.246 69.2769H15.103L15.4454 70.0493L16.5758 71.2472L16.8523 72.0176L16.8015 72.4122L16.5307 73.1103L16.525 73.4676L16.7658 74.4777L16.7357 74.8925L16.525 75.4147L16.4799 75.1143L16.2598 74.689L16.209 74.354L16.1243 74.1993L15.718 73.8065L15.5769 73.629L15.9283 73.0911L15.8435 71.7433L15.5818 70.8051L14.9202 69.8095L13.9456 68.4317L12.885 66.3786L12.6545 65.2053L12.283 64.3848L12.143 64.2143L11.8244 63.8266L10.6396 61.9882L10.4605 61.0485L10.9884 57.1764L11.1043 56.7264L11.3492 56.2802L11.9465 55.7555L12.1459 55.4216L12.1141 55.2107L12.0755 54.9545L11.8103 54.6488L11.0661 54.2489L10.7519 53.9077L10.6899 53.7229L10.6517 53.3266L10.5657 53.1321L10.4032 52.9756L9.82753 52.6317L8.0647 50.8414L7.37319 50.3346L6.05939 49.8952L5.92282 49.7913L5.70347 49.6245L5.53868 49.2475L5.47905 48.7418L5.50896 48.2397L5.61882 47.8707L5.9072 47.6145L5.9089 47.6129L6.14649 46.8622L6.17151 46.6314L6.11771 46.3417L6.02929 46.1812L5.91473 46.0348L5.78098 45.788L5.63293 45.2974L5.53737 44.389L5.41904 43.8401L5.2757 43.5773L5.20516 43.3121L5.23864 43.0658L5.50012 42.7808L5.53003 42.6932L5.50012 42.6061L5.30298 42.4179L5.2599 42.3175L5.29696 42.2244L5.41885 42.1397L5.58722 42.0545L5.70912 41.9541L5.78079 41.8314L5.78888 41.7074L5.79019 41.6862L5.39722 41.4478L5.16678 41.1359L4.79883 40.3882L3.75008 39.1498L3.29146 38.352L2.06965 35.123L2.04688 35.0628L2.02055 33.3937L2.17217 31.9488L2.07416 30.1521L2.07736 30.087L2.0909 29.8074L2.07416 29.6176L1.98462 29.4015L1.73612 28.9999L1.70508 28.7463L2.13981 28.1855L3.04277 28.083L4.9132 28.2433L6.32256 28.1247L6.76934 27.9663L7.85627 27.3324L8.27671 27.2144L7.46217 26.6774L6.96648 26.1883L6.99639 25.6862L7.737 25.1109L10.0614 23.9687L10.6084 23.4952L10.7015 23.2714L10.7326 22.7819L10.7899 22.5396L10.9009 22.3385L11.3131 21.8206L11.4993 21.4054L11.897 20.1074L12.3234 19.3463L12.8919 18.7765L14.2225 17.7285L14.5641 17.3327L14.6465 17.028L14.6358 16.6715L14.7135 16.1248L14.8758 15.7524L15.3572 15.0603L15.5233 14.676L15.5794 14.2074L15.5848 13.8934L15.5867 13.7886L15.693 13.4038L16.05 13.0347L16.4394 12.8516L17.2921 12.6046L17.6862 12.3718L17.9654 12.1308L19.5388 10.7726L20.302 10.3572L20.7691 10.2018L22.1642 9.99284L23.1971 9.67267L23.8997 9.45483L25.4643 9.4586L25.9611 9.39765L26.3623 9.21649L27.0061 8.74545L27.3394 8.64932L27.4254 8.70482L27.5473 8.82389L27.7264 8.93488L27.9677 8.96573L28.1374 8.89782L29.0117 8.28871L29.9027 7.83252L30.2921 7.76593L30.7053 7.90721L31.0171 8.11075L31.3527 8.18411L31.8305 7.9405L31.9714 7.75126L32.0073 7.55825L32.0765 7.38556L32.2987 7.25482L32.5327 7.23808L32.7631 7.30524L32.9531 7.42977L33.094 7.58214L33.149 7.82632L33.0987 8.39236L33.1729 8.61001L33.3425 8.67415L34.1356 8.72833L35.4925 9.0754L35.9308 9.12657L36.2329 9.09892L36.4229 9.05208L36.6201 9.0502L36.9532 9.16119L37.2029 9.31168L37.4322 9.48982L37.6901 9.64144L38.0328 9.70917L38.4401 9.66101L38.5607 9.52048L38.6192 9.33124L38.8342 9.13278L40.0859 9.06807L40.7189 9.59818L41.518 9.41872L41.7285 9.31412L41.7438 9.3066L42.3911 8.9853L43.2344 8.7541L43.3717 8.82502L43.4901 8.96799L43.6537 9.09008L43.944 9.09873L44.1184 9.01239L44.6917 8.38239L44.7277 8.25541L44.779 8.18693L44.9784 8.19239L44.9068 8.27873L44.9282 8.49206L45.0595 8.70971L45.3391 8.81261L45.7523 8.69616L46.058 8.45142L46.4068 8.26162L46.9563 8.30977L48.208 8.82145L50.838 9.20803L50.9957 9.2733L51.1486 9.31525L51.2846 9.31262L51.3648 9.31111L51.4925 9.24019L51.6405 9.10644L51.8268 8.97458L52.0728 8.90798L52.4933 8.99056L52.8563 9.15761L53.2337 9.23286L53.6948 9.03985L53.9504 8.75203L54.1726 8.38765L54.4305 8.04923L54.796 7.83535L55.1687 7.82801L55.742 8.07519L56.135 8.05789L56.2819 7.93825L56.5112 7.55844L56.7012 7.47699L56.8899 7.5701L57.0094 7.99562L57.1634 8.12448L57.5122 8.05055L58.2048 7.49937L58.5226 7.33665L58.9059 7.37616L59.2201 7.57048L59.5258 7.81465L59.9031 8.00766L60.0668 8.015L60.5027 7.95085L60.7152 7.9595L60.8932 8.03607L61.2623 8.28269L61.4463 8.37693L61.8494 8.45011L62.7623 8.61565L63.1946 8.74997L63.308 9.03966L63.3141 9.36266L63.2053 10.4438L63.2435 10.6471L63.9781 12.0132L64.3854 12.4771L64.8929 12.723L66.1435 12.3306L66.8553 11.134L67.382 9.94694L68.0593 9.58256L68.0581 10.3358L68.1441 10.8879L68.3627 11.3821L69.7374 13.4767L70.1626 13.8968L70.3215 13.9818L70.6547 14.0872L70.8244 14.1931L71.4145 15.0232L71.6068 15.2036L71.8396 15.2971L72.2147 15.3451L72.8705 15.3524L73.5573 15.2539L74.2024 15.0328L74.7519 14.6664L75.1364 14.5616L75.478 14.3677L76.123 13.9083L76.3093 14.0309L76.4872 14.1756L76.6402 14.3432L76.775 14.5323L77.1249 14.3925L77.5418 14.5753L77.8953 14.9472L78.0661 15.3703L78.428 15.1073L78.6645 15.1209L78.8987 15.2736L79.2702 15.4318L79.6011 15.4687L80.0979 15.3936L80.3487 15.4047L80.996 15.7526L81.3399 16.3355L81.6002 16.9973L81.9921 17.582L83.9784 19.3279L84.4991 19.615L84.5935 19.6671L85.1691 19.7982L85.7376 19.7391L86.311 19.5083L86.8533 19.5316L88.0501 19.8375L88.5112 19.8117L88.8504 19.3958L88.8073 18.2776L89.0868 17.9151L89.42 17.5773L89.8344 17.2996L90.1963 16.99L90.3671 16.5479L90.2537 16.0991L89.9467 15.7512L89.5765 15.4341L89.2637 15.0801L88.6735 13.6654L88.3129 13.2521L87.5198 12.747L87.201 12.4432L87.0063 11.9626L87.0969 11.3704L87.017 10.912L86.7602 10.531L86.3112 10.165L86.2 9.90913L86.169 9.63862L86.206 9.36435L86.3112 9.1023L86.7769 9.18432L87.7947 9.53629L88.1936 9.51785L88.2557 9.4063L88.3131 9.03082L88.3812 8.93338L88.4995 8.92115L88.7492 8.93846L89.1087 8.91626L89.664 9.01483L90.4749 9.06167L90.9168 9.01107L91.2848 8.79097L91.6264 8.28965L91.7816 7.77665L92.0156 6.5334L92.2306 6.1282L92.3668 6.2738L93.7715 7.14459L93.9961 7.20196L94.3125 7.22548L94.6195 7.13913L94.7711 7.11825L96.0146 6.94669L96.6022 6.7012L96.8398 6.23561L96.9318 6.21962L97.1013 6.07647L97.2016 5.91299L96.9341 5.76438L96.9126 5.60392L96.9508 5.43236L97.001 5.33172L97.2161 5.20587L97.4681 5.23427L97.7631 5.31084L98.119 5.33172V5.18367L97.9493 5.12197L97.8491 5.00534L97.7977 4.83434L97.7894 4.60484L97.8276 4.37045L97.9411 4.3031L98.094 4.28899L98.2624 4.20509L98.758 3.74289L98.8954 3.87062L99.1856 4.32549L99.2776 4.62911L99.3995 5.38307L99.4808 5.61126L99.6815 5.73466L100.212 5.85242L100.449 5.99671L100.904 6.69668L101.29 6.91245L101.576 7.07216L103.258 7.58779L103.358 7.67037L103.537 7.86037L103.644 8.01029L103.823 8.36546L104.633 9.52011L105.241 10.1339L105.563 10.3644L105.885 10.4919L106.231 10.5043L107.127 9.99642L107.236 9.89295L107.37 9.82523L107.615 9.8068L107.825 9.87828L108.257 10.1501L108.491 10.1921L108.78 10.1119L108.864 9.98927L108.873 9.84141L109.126 9.23229L109.417 9.16946L109.516 9.11209L109.965 8.40308L110.64 7.56578L110.655 7.44557L110.727 7.42582L111.018 7.55411L111.397 7.85698L111.594 8.14122L111.841 8.26895L112.355 8.10548L113.063 7.63011L113.694 7.05787L113.881 6.68464L114.011 6.27643L114.199 5.992L114.544 5.99332L114.547 5.99464L114.551 5.99708H114.555L114.907 6.0569L115.104 5.94892L115.348 5.46471L115.397 4.98596L115.431 4.82794L115.523 4.71131L115.791 4.5484L115.908 4.44475L116.316 3.86216L116.665 3.548L117.09 3.57886L117.715 4.0324L118.151 4.42914L118.378 4.51736L118.812 4.60992L119.35 4.8524L119.615 4.8635L119.914 4.61801L119.986 4.43478V4.23181L119.958 4.02996L119.971 3.84109L120.039 3.64789L120.205 3.41896L120.283 3.28445L120.467 2.74381L120.617 2.58579L120.976 2.40746L121.742 1.28027L122.056 1.01221ZM35.7083 100.261L36.0356 100.487L36.2049 100.984L36.1805 101.48L35.9453 101.707L35.5672 101.701L35.2323 101.637L34.9577 101.447L34.7602 101.065L34.9521 101.011L35.048 100.944L35.2342 100.743L35.0819 100.462L35.1533 100.29L35.381 100.225L35.7083 100.261ZM24.4454 95.1825L24.5451 95.2724L24.7445 95.3031L24.9176 95.4159L24.9326 95.7529L24.6279 95.8601L24.3551 95.9921L24.135 96.2026L23.9883 96.5548L23.7889 96.3911L23.6836 96.1184L23.6271 95.8638L23.5876 95.7529L23.6046 95.6964L22.8673 95.4159L22.5156 95.1277L22.2447 94.7918L22.1657 94.4453L22.3933 94.1313L22.8598 93.9676L23.2436 94.0777L23.5596 94.3409L23.8305 94.6281L23.8813 94.7056L23.9264 94.8693L23.9885 94.9487L24.1183 94.985L24.2669 94.9735L24.3948 95.0079L24.4454 95.1825ZM18.4359 80.4203L18.5431 80.685L18.6616 80.8865L18.703 81.0573L18.5789 81.226L18.7011 81.5464L18.6842 81.9866L18.5789 82.4113L18.4359 82.6884L18.1199 82.841L17.753 82.8438L17.5329 82.723L17.6458 82.5131L17.3918 82.2561L17.3128 81.7633L17.3298 80.9039L17.1548 79.8968L17.1492 79.3174L17.3298 78.8108L17.3674 78.9135L17.4313 79.0258L17.4727 79.1323L17.7323 78.9077L17.9562 78.8836L18.1368 79.0228L18.4246 79.6167L18.4396 79.8719L18.4133 80.1156L18.4359 80.4203ZM18.2779 77.0246L18.3945 77.2462L18.6541 77.6339L18.7519 77.8298V78.0043L18.6447 78.1702L18.3851 78.6797L18.2779 78.8102L18.0484 78.792L18.0296 78.5559L18.1199 78.0041L17.911 77.6223L17.6082 77.1808L17.4821 76.7451L17.7888 76.3794L18.1876 76.6185L18.2779 76.702L18.3287 76.8239L18.3268 76.9381L18.3004 77.0158L18.2779 77.0246ZM25.3012 98.6419L25.3426 98.6534L25.4103 98.7396V98.9128L25.3125 99.0966L25.2071 99.3568L25.0547 99.5539L24.8064 99.4008L24.3305 98.6604L24.1687 98.2862L24.259 97.9647L24.5694 97.8385L24.8309 97.8069L24.9626 97.8567L25.0096 98.0213L24.7857 98.3438L24.7707 98.4519L24.7613 98.5706L24.8008 98.7563L24.9174 98.8664L25.083 98.8788L25.241 98.7458L25.3012 98.6419Z" fill="#E6F7ED" stroke="#3CB371" stroke-width="2" strokeLinejoin="round"/>
</svg>
