<svg width="114" height="85" viewBox="0 0 114 85" fill="none" xmlns="http://www.w3.org/2000/svg">
<path d="M96.8609 37.8288L96.999 38.375L97.3595 38.6997L97.4705 38.9602L97.6096 39.1712L97.8843 39.2965L98.1784 39.3555L98.3797 39.367L98.2795 39.5921L98.1989 39.7262L98.1642 39.853L98.2073 40.0576L98.3347 40.1645L98.5191 40.208L98.6567 40.3213L98.6398 40.6339L98.5387 40.7979L98.1857 41.1429L98.0517 41.3383L98.0143 41.5294L97.9965 41.7572L97.947 41.9618L97.815 42.0793L97.4723 42.2907L97.3627 42.6133L97.4034 43.0041L97.6164 43.8207L97.6628 44.2011L97.6291 45.0123L97.8626 45.0586L99.5518 45.688L99.6772 45.9329L99.5986 46.1654L99.3309 46.2644L99.4797 46.521L99.6538 46.7533L99.8747 46.9417L100.589 47.2031L100.844 47.3746L101.022 47.6484L101.69 49.2204L101.73 49.6341L101.597 50.392L101.189 51.825L101.187 52.6L101.369 53.0844L101.664 53.3782L102.002 53.6382L102.319 54.0207L102.429 54.3718L102.426 54.7513L102.319 55.5078L102.03 56.3409L101.424 56.9685L99.8778 57.8408L100.127 58.0543L100.371 58.4219L100.744 59.147L100.97 59.8199L101.372 60.4505L101.704 60.8285L102.751 61.5964L102.865 61.7249L103.026 62.0027L103.129 62.1225L103.319 62.2169L103.486 62.238L103.632 62.3007L103.758 62.5169L103.718 62.848L103.459 63.8462L103.502 64.0512L103.661 64.094L104.14 64.3323L104.281 64.4352L104.35 64.5733L104.463 64.9327L104.545 65.0621L104.76 65.2411L104.861 65.2517L104.961 65.1468L105.721 64.5695L105.768 64.2096L105.876 63.828L106.058 63.5181L106.335 63.3689L106.595 63.4065L106.724 63.5538L106.828 63.7363L107.01 63.8801L107.182 63.9023L107.536 63.8272L107.992 63.8103L108.074 63.8917L108.05 64.1568L108.098 64.3416L108.298 64.3642L108.526 64.3055L108.657 64.2444L108.658 64.6496L108.789 65.0109L109.235 65.6349L109.645 66.0005L109.723 66.1799L109.695 66.3838L109.464 66.7191L109.395 66.9201L109.45 67.2533L109.624 67.4817L109.839 67.6812L110.007 67.9274L110.016 68.5778L110.107 68.8792L110.427 68.9546L110.678 69.1065L110.892 69.2704L111.121 69.4098L111.416 69.4863L111.607 69.5621L111.586 69.6929L111.486 69.8346L111.449 69.9418L111.699 70.3036L111.801 70.531L111.872 70.6477L111.944 70.7082L112.101 70.7836L112.073 70.862L111.972 70.9403L111.912 71.0152L111.91 71.1752L111.866 71.5379L111.817 71.723L112.099 71.7768L112.309 71.6894L112.441 71.4776L112.485 71.1542L112.637 71.3157L112.72 71.5063L112.761 71.7192L112.8 72.2024L112.739 72.3138L112.623 72.3844L112.465 72.5131L112.386 72.5151L112.272 72.4517L112.143 72.4085L112.025 72.4719L112.011 72.5858L112.099 72.6866L112.204 72.7817L112.244 72.8802L112.168 73.0689L112.067 73.2609L111.999 73.4535L112.057 73.7556L112.028 73.8358L111.974 73.9136L111.929 74.0164L111.937 74.1312L112.008 74.1744L112.093 74.1859L112.138 74.2013L112.161 74.2182L112.228 74.3036L112.306 74.4371L112.365 74.5931L112.403 74.7827L112.42 75.0045L112.38 75.2066L112.254 75.3415V75.4249L112.445 75.7685L112.479 75.9448L112.331 76.1847L112.08 76.2299L111.841 76.3066L111.649 76.7952L111.508 76.894L111.397 77.0331L111.413 77.3066L111.483 77.3518L111.62 77.4036L111.762 77.5044L111.851 77.6954L111.855 77.8882L111.761 78.4745L111.777 78.6721L111.819 78.7997L111.841 78.9339L111.796 79.147L111.42 79.3226L111.29 79.4396L111.491 79.5097L111.622 79.5941L111.832 79.9624L111.978 80.0928L111.968 79.9557L112.07 79.7582L112.21 79.7034L112.322 79.9998L112.361 80.1561L112.475 80.4602L112.509 80.6269L112.652 80.3987L112.692 80.2932L112.921 80.6145L112.885 81.048L112.762 81.538L112.728 82.0308L112.228 82.0107L111.039 81.5792L110.428 81.5159L108.867 81.6348L108.114 81.7758L106.72 82.2984L106.035 82.4124L104.553 82.3501L104.18 82.2686L103.085 81.8054L103.061 81.7747L103.025 81.7547L102.899 81.7556L102.821 81.7872L102.62 81.9281L101.931 82.3069L101.691 82.3558L101.305 82.3175L100.212 81.9523L99.7627 81.9668L99.4378 82.1269L98.8375 82.678L98.1671 83.0537L95.1071 83.8542L94.8135 83.7048L94.299 82.9111L93.975 82.6762L93.1894 82.3914L92.8088 82.2984L92.4951 82.2841L92.1898 82.3464L91.8359 82.4845L91.3069 82.7768L91.1715 82.817L91.1484 82.8238L90.8899 82.8162L90.8239 82.7443L90.8104 82.6149L90.7135 82.4386L90.2037 81.8681L89.9055 81.6256L89.552 81.4789L89.1798 81.4357L88.0094 81.5018L87.6358 81.4529L87.5291 81.3004L87.451 81.1182L87.1621 80.9782L86.6251 80.9388L86.4519 80.8717L86.2614 80.6963L86.2229 80.538L86.2519 80.4133L86.2598 80.3405L85.81 79.9434L85.1016 79.5731L84.4429 79.5809L84.1396 80.3204L84.0801 80.6782L83.8714 80.8603L83.5746 80.8815L83.2515 80.755L82.9004 80.7943L82.5859 80.7627L82.3186 80.6169L82.1098 80.3177L82.0292 79.957L82.0948 79.6511L82.3645 79.02L82.4334 78.7006L82.453 78.3273L82.3748 77.978L82.1427 77.7247L81.8664 77.6825L81.5532 77.7343L81.2213 77.745L80.895 77.576L80.725 77.7824L80.5813 77.6835L80.462 77.672L80.3341 77.6911L80.1722 77.6902L79.9427 77.7593L79.8698 77.7717L79.7873 77.7295L79.6142 77.5423L79.514 77.4933L79.3773 77.5038L79.0706 77.5902L78.9133 77.6151L78.7554 77.5893L78.5321 77.4435L78.3794 77.4012L78.2202 77.4127L77.6776 77.5278L77.59 77.5576L77.5479 77.6104L77.4983 77.6556L77.3925 77.6632L77.3049 77.6305L77.1491 77.5192L77.0658 77.4838L77.0086 77.4681L76.194 77.2447L70.3321 77.0288L63.9093 77.0019L59.1918 76.9822L57.485 76.975L51.0631 76.9472L49.6058 76.9411L44.6399 76.9203L43.7541 76.9165L43.2344 76.9952L42.7644 77.2102L41.712 77.9703L40.61 78.4778L39.6482 79.1877L39.596 79.2262L35.0221 81.3744L34.3975 81.5058L31.2728 81.3207L31.0931 81.3101L29.6549 81.4127L29.3066 81.3485L28.1736 80.9678L27.5303 80.9104L26.1613 81.1491L26.0386 81.2027L25.96 81.2642L25.8748 81.2987L25.726 81.2728L25.3346 81.1174L25.1408 81.082L24.9507 81.1223L23.6997 81.8032L22.2484 82.5892L21.6997 82.8135L20.7868 82.8212L19.8411 83.058L19.5068 83.0714L17.0508 82.9065L16.385 83.0676L15.9715 83.3551L15.8523 83.1208L15.7667 82.8755L15.687 82.4959L15.5719 82.3698L15.2999 82.1781L14.8833 81.7705L14.6975 81.5304L14.6209 81.2911V80.5187L14.6607 80.351L14.8392 80.1878L14.8798 80.0179L15.0125 79.8223L15.9128 79.2815L16.308 79.268L16.8705 79.3156L17.4766 78.9349L17.6704 78.7725L17.7737 78.6213L17.8526 78.4657L17.9721 78.2903L18.6658 77.7827L18.9991 78.1725L19.2558 78.8766L19.5073 79.0352L19.5184 78.7466L19.7041 78.5201L20.0248 78.4279L20.3809 78.5081L20.9885 78.8555L21.534 79.0066L22.1341 79.2906L22.449 79.3156L22.8051 79.1433L23.2408 78.6017L23.5615 78.4279L23.9833 78.446L24.3422 78.5768L24.7006 78.6153L25.1142 78.3592L25.325 78.2739L25.4658 78.4363L25.572 78.672L25.676 78.8079L27.0871 78.2783L27.4115 78.2012L27.8458 78.174L28.1268 78.0909L28.3612 77.9186L28.6311 77.7796L29.0278 77.7947L29.3455 77.9669L29.8255 78.3499L30.113 78.5804L30.2649 78.7512L30.4758 78.7889L31.637 78.8078L31.7483 78.8892L31.9827 79.1363L32.0697 79.1885L32.2296 79.1666L32.6941 79.0503L32.902 78.921L33.1033 78.6762L33.3599 78.5289L33.7388 78.6936L33.8377 78.6083L33.9528 78.5516L34.07 78.5493L34.3177 78.7298L34.423 78.7117L34.5159 78.6664L34.6163 78.6936L34.7578 78.8575L34.8795 79.1725L34.9768 79.3153L35.094 79.4232L35.2237 79.5018L35.3874 79.5502L35.6071 79.5563L35.8129 79.514L36.6409 79.1711L36.9726 78.8312L37.5293 78.1052L37.7365 77.951L37.9208 77.8558L38.052 77.7266L38.1022 77.4711L37.9982 77.3579L37.7999 77.271L37.6894 77.1705L37.8442 77.0217L37.6672 76.6007L37.5021 76.0354L37.4431 75.4564L37.5979 74.9922L37.8072 74.8653L38.0667 74.8561L38.3388 74.8803L38.5864 74.8539L38.8385 74.7427L39.0103 74.6089L39.1239 74.4388L39.2057 74.2195L39.5781 74.584L39.9186 74.6822L40.1502 74.4864L40.1945 73.9668L39.9142 74.2618L39.6474 74.2527L39.3739 74.1324L39.0812 74.0923L38.8077 74.2141L38.3608 74.5445L38.0357 74.6126L37.8522 74.6133L37.5802 74.6519L37.3339 74.7819L37.2263 75.0556V76.1336L37.4312 76.8304L37.463 77.0217L37.4741 77.3247L37.4609 77.4743L37.4063 77.5982L36.9676 77.9783L36.8282 78.1597L35.9155 78.9929L35.6751 79.1441L35.4598 79.1546L35.2711 79.07L35.1119 78.9349L35.2152 78.3796L34.6652 78.1287L33.3802 77.9203L32.508 78.4778L32.1881 78.5541L32.1263 78.4951L32.0466 78.3644L31.9161 78.2329L31.6993 78.1739L31.4781 78.2139L31.1722 78.3884L30.9517 78.4276L30.7416 78.3687L30.4688 78.2266L30.0176 77.92L29.9961 77.8286L30.0189 77.6971L30.0278 77.5792L29.9599 77.5294L29.7196 77.4968L29.5935 77.4591L29.5117 77.4138L29.3981 77.2596L29.1512 76.7676L29.0849 76.705L29.0016 76.6702L28.9323 76.6052L28.8637 76.2092L28.77 75.996H28.658V76.1336L28.6314 76.2099L28.4368 76.5908L28.3527 76.7109L28.2849 77.3442L27.7792 77.6676L27.0375 77.7945L26.8458 77.8777L26.4727 78.1232L26.3621 78.1739L26.1704 78.1527L25.7318 78.0364H25.0468L24.8434 78.0848L24.4976 78.239L24.3038 78.2903H24.0856L23.5002 78.174L23.3033 78.214L23.0512 78.3886L22.8875 78.4278L22.8256 78.5154L22.7364 78.7149L22.6124 78.9256L22.4494 79.0503L21.7063 78.8078L21.1046 78.4632L20.8236 78.2268L20.7057 77.9782L20.6334 77.9352L20.4676 77.883L20.3002 77.8006L20.2109 77.6676L20.2412 77.4831L20.3563 77.3185L20.5229 77.2007L20.7058 77.1599V77.0215L20.4271 77.0147L20.2509 76.8742L20.1492 76.649L20.0873 76.3875L19.9634 77.92H19.827L19.5874 77.5973L18.9216 77.0193L18.839 76.6534L18.6266 76.8242L18.4866 77.0305L18.3215 77.2028L18.0347 77.2753L17.8179 77.23L17.6712 77.103L17.599 76.9058L17.6122 76.6534L17.8688 76.1683L18.2301 75.804L18.4674 75.3822L18.3554 74.7268L18.2743 75.2303L18.2316 75.3732L18.1343 75.5365L18.0502 75.6167L17.964 75.6703L17.6035 76.0051L17.4501 76.1964L17.3748 76.4368L17.3526 76.8313L17.4823 77.4895L17.444 77.7933L16.8985 78.0282L16.1059 78.6939L15.4977 78.9076L15.1631 78.7082L15.0223 78.2277L14.992 77.5984L15.0908 76.9425L15.3784 76.2894L15.845 75.9236L16.4776 76.1338L16.5064 75.8586L16.2476 75.656L15.8723 75.5805L15.5538 75.6909L15.1807 76.1512L14.9735 76.3008L14.7442 76.2502L14.8518 76.0991L14.8886 75.9388L14.8518 75.7816L14.7442 75.6275L15.1378 75.0755L15.2167 74.8003L15.1275 74.4737H14.9919L14.907 74.6795L14.7831 74.7702L14.6703 74.6992L14.6216 74.4164L14.6659 74.1941L14.7743 73.9566L15.4209 72.9901L15.4866 72.7541L15.4682 72.5166L15.3828 72.0809L15.3628 71.8676L15.4034 71.4786L15.5819 70.7061L15.6218 70.2104L15.5938 69.9062L15.5157 69.7504L15.5433 69.3219L15.6089 69.1138L15.724 68.9619L16.0104 68.6783L16.0676 68.4995L16.3353 68.0447L16.9674 67.9029L17.7557 67.9106L20.7417 67.938L23.4944 67.9629L27.5029 67.9994L29.8643 68.0206L31.0293 68.0315L31.5123 68.0361L32.1912 68.0419L32.313 67.952L32.3467 66.6262L32.3534 66.3358L32.3841 65.0156L32.4562 64.7528L32.666 64.6364L33.9292 64.5141L34.7429 64.2534L34.9714 64.2476L36.1934 64.3674L36.4893 64.3376L37.0342 64.1542L37.4528 63.9247L37.877 63.7644L38.4426 63.7895L40.4192 64.2129L41.0868 64.212L41.6767 64.1029L42.2703 63.8819L42.7909 63.5341L43.1636 63.046L43.273 62.531L43.3414 61.3784L43.5952 60.9642L44.005 60.5367L44.3826 60.1427L44.7965 59.9752L45.2946 60.3013L46.1083 61.0694L47.0081 61.7257L47.0109 61.7266L47.0147 61.7295L47.0174 61.7314L48.2018 62.3399L48.8143 62.5012L49.508 62.5581L49.7805 62.6385L50.3862 63.0121L50.7186 63.1208L51.0894 63.192L51.2833 63.3122L51.6485 63.8248L52.1542 64.2785L52.7599 64.5359L53.4219 64.6152L54.0932 64.5359L54.6802 64.3876L54.8872 64.4617L55.4058 64.947L55.5735 65.1039L55.8142 65.2415L56.0763 65.318L56.6465 65.3411L56.8876 65.4094L57.0903 65.6206L57.2288 65.8077L57.4002 65.9627L57.592 66.0949L58.2527 66.4389L58.7264 66.574L59.2166 66.6125L60.247 66.5211L61.2306 66.7068L61.755 66.6885L62.1511 66.4918L63.0214 65.8319L63.2929 65.7092L63.6066 65.713L64.3843 65.4296L65.1145 65.4209L65.8421 65.2242L67.2111 65.1059L68.1086 64.7113L68.6245 63.9207L68.6943 62.9679L68.2599 62.0869L68.0768 61.9349L67.6657 61.6908L67.5384 61.5814L67.5004 61.5487L67.4063 61.3918L67.2906 61.0383L67.1969 60.876L66.8936 60.627L66.4586 60.4046L65.9984 60.2432L65.6178 60.1768L65.3748 60.2163L65.006 60.4345L64.793 60.5298L64.6038 60.5596L64.2888 60.5327L64.094 60.5394L63.7265 60.6319L62.8885 61.0638L61.843 61.3018L61.4994 61.4515L60.4952 62.0813L59.431 62.4635L59.1169 62.5395L58.7859 62.4933L58.3504 62.2878L57.0359 61.3414L56.8884 61.2353L56.7053 61.0345L56.5878 60.7845L56.3457 59.9749L56.1735 59.6185L55.9287 59.3097L55.5781 59.0269L54.7999 58.6608L54.0546 58.6039L53.3205 58.8019L52.2082 59.4277L51.9844 59.4999L51.7306 59.4079L50.9862 58.9545L50.8608 58.8124L50.5088 57.6024L50.3469 57.2588L50.1174 56.9407L49.8214 56.6997L49.4779 56.4201L48.8159 56.1989L46.9864 56.116L45.9078 55.7043L45.5201 55.685L44.199 56.1738L42.8338 57.0515L42.448 57.1435L42.2945 57.0269L41.9434 56.5578L41.7739 56.3959L40.9892 56.2696L40.1502 56.5892L39.3842 57.1551L38.8195 57.7686L38.6182 58.0862L38.4309 58.4765L38.2886 58.8865L38.2664 59.0137L38.2221 59.2662L38.1856 60.0065L37.901 60.1029L37.0143 60.1L35.8898 60.0951L34.7635 60.0913L33.6389 60.0865L32.5124 60.0827L31.387 60.0778L30.2625 60.074L29.1362 60.0691L28.0107 60.0653L27.6242 60.0643L26.8862 60.0623L25.7608 60.0574L24.6363 60.0536L23.5098 60.0488L22.3844 60.045L21.2599 60.0401L20.1344 60.0363L18.9994 60.0316L18.9973 60.0281L18.8188 59.7543L18.7274 59.5593L18.7393 59.0359L19.049 58.7453L19.5047 58.5086L19.964 58.1473L19.8674 58.0935L19.6809 57.9532L19.5813 57.9046L19.8113 57.6839L19.9809 57.3993L19.9506 57.1732L19.5813 57.1283L19.63 57.4266L19.5415 57.7879L19.349 58.0413L19.0873 58.0208L18.9575 58.4123L18.6759 58.6772L18.3206 58.7774L17.9733 58.6681L17.6555 58.3327L17.5752 57.9889L17.7256 57.2557L17.761 56.795L17.8089 56.6091L17.9733 56.3638L18.6169 55.5971L18.7274 55.3336L18.8335 55.4026L19.1167 55.5363L19.2214 55.6001L19.1808 55.5151L19.0872 55.206L19.716 55.0914L19.747 55.4604L19.8775 55.8096L20.0832 56.0207L20.3464 55.9713L20.2092 55.5454L20.1782 55.0739L20.1008 54.7011L19.8273 54.569L19.9239 54.3169L20.3169 52.5789L20.3464 52.2757L19.9505 52.8592L19.7846 53.2238L19.6415 53.9964L19.4557 54.4581L19.2161 54.765L18.9736 54.6967H18.8393L18.6579 54.9473L18.338 55.0444L17.962 55.0946L17.6126 55.2062L17.418 55.3702L17.3531 55.5252L17.3228 55.6839L17.2307 55.8556L17.1319 55.9466L16.924 56.0666L16.8045 56.1683L16.6239 56.5115L16.4868 56.636L16.3032 56.5503L16.2458 56.3689L16.2442 56.1381L16.2103 55.9399L16.0445 55.8557L15.8137 55.6917L15.7192 55.3226L15.7436 54.9308L15.8696 54.697L15.7591 54.4419L15.6824 54.1518L15.6219 53.5501L15.6396 53.2334L15.7015 53.0519L15.8135 52.9287L16.2301 52.5944L16.4425 52.5123L16.6747 52.5016L17.2077 52.5632L17.4606 52.643L17.6332 52.7934L17.6125 53.0411L17.8661 52.8116L18.0659 52.5358L18.318 52.3846L18.7271 52.5313L18.7204 52.1202L18.8627 51.9363L19.092 51.8223L19.3441 51.6278L19.1185 51.7069L18.8729 51.7586L18.6444 51.713L18.4674 51.5108L19.2865 50.9993L19.5807 50.734L20.0511 50.1532L20.3084 49.9297L20.8901 49.7594L21.1717 49.4005L21.3914 49.3184L21.5425 49.3899L21.6877 49.5267L21.8381 49.6088L22.0158 49.5161L22.1257 49.4325L22.4192 49.2911L22.5623 49.1907L21.421 49.1474L20.9314 48.9596L20.9638 48.5543L20.6778 48.704L20.5717 48.9741L20.6278 49.257L20.8299 49.4463L20.605 49.5725L20.4184 49.5581L20.2371 49.4889L20.0254 49.4463L19.8728 49.5041L19.8078 49.6455L19.7709 49.8173L19.7155 49.9686L19.2503 50.7965L19.0867 50.9896L18.9009 51.0747L18.5086 51.1682L18.2933 51.3134L18.1341 51.5187L17.9085 51.9526L17.725 52.1373L17.318 52.2742L16.9332 52.1966L16.5416 52.0598L16.1059 52.021L16.5313 51.2527L16.5445 51.1174L16.8497 51.0292L17.3525 50.4668L17.11 50.5391L16.8755 50.904L16.6742 50.9899L16.2739 51.002L16.1153 51.0385L15.9818 51.1176L16.1948 51.3669L16.1772 51.5342L15.869 51.8936L15.8159 52.0373L15.7696 52.3047L15.6774 52.4613L15.3177 52.8746L15.2395 53.0417L15.157 53.5659L15.2395 55.3348H15.1275L15.0198 51.7516L14.9292 51.2105L14.6291 50.3113L14.2988 49.6461L14.1374 49.4469L13.9006 49.3359L13.4289 49.2295L13.249 49.0653L13.1553 48.796L13.0013 47.7883L12.8833 47.4688L12.7374 47.2338L12.3945 46.8838L12.2374 46.7971L12.1181 46.7713L12.0399 46.6937L12.012 46.4488L12.0342 46.257L12.1255 45.8896L12.147 45.6758L12.0585 45.3668L11.8395 45.0349L11.2704 44.4564L9.97427 43.8412L9.77525 43.6265L9.67201 43.3798L9.03206 42.4134L8.55434 41.1253L7.82301 40.1119L7.30241 39.6295L6.99133 39.4137L6.63524 39.2475L6.24221 39.1813L5.94877 39.0982L5.18049 38.6927L5.06251 38.5539L4.46376 38.5615L3.94331 38.4975L3.48916 38.5281L3.0829 38.8208L3.23555 39.0006L3.45373 39.0662L3.31811 39.3391L3.0829 39.4504L3.14478 39.5098L3.25608 39.6454L3.31796 39.7049L3.2059 39.9731L3.14463 39.9913L3.08275 40.1003L2.84465 39.945L1.62663 38.4274L1.33911 38.1591L4.33026 37.3554L5.21501 36.6293L7.91788 35.4706L8.53944 34.9663L11.4191 31.5114L11.9957 30.6484L13.258 29.2358L15.7779 24.7394L17.0372 23.0576L19.406 19.0583L19.4901 18.8698L19.4591 18.6759L19.344 18.4092L19.7537 17.7021L19.9316 16.6634L19.9746 14.6115L20.0823 14.3953L20.3322 13.5622L20.6468 12.8021L20.7274 11.5253L20.8585 11.1461L21.1226 10.917L21.7911 10.7561L22.0739 10.5689L22.1881 10.3767L22.2658 10.1554L23.0073 6.95987L23.1019 6.20619L23.2386 5.85178L23.4894 5.49737L23.8238 5.17017L24.2095 4.93283L24.6225 4.8489L25.2217 4.96415L25.4248 4.97875L25.6308 4.94165L25.8152 4.85468L26.348 4.47275L26.5558 4.37513L26.774 4.33606L27.0025 4.38106L27.1692 4.48354L27.3031 4.62327L27.5222 4.95138L27.8294 5.27858L28.1964 5.45723L28.6055 5.50512L29.0381 5.44354L29.1673 5.3508L29.2957 5.28344L29.4314 5.26003L29.5823 5.29621L29.8164 5.39002L29.9306 5.40082L30.0645 5.37452L30.7828 5.05218L31.0384 5.02284L31.6713 5.17716H31.824L32.2707 5.09612L32.56 5.11072L33.3794 5.38121L33.9675 5.41435L34.1211 5.46027L34.5489 5.66538L34.8326 5.73866L35.1107 5.723L35.3785 5.63223L35.6284 5.47213L36.0292 5.10205L36.2436 4.96826L36.5199 4.92432L37.298 5.08548L37.5658 5.05918L37.7811 4.95168L37.9552 4.78656L38.3952 4.15163L38.6199 3.95048L38.8829 3.83127L39.1572 3.85575L39.3276 3.99746L39.4316 4.18994L39.5553 4.36677L39.7791 4.46347L40.0459 4.45769L40.3006 4.39323L41.0637 4.07287L41.3465 4.01129L41.9279 3.99077L42.7856 4.12761L43.0777 4.11681L45.0234 3.80816L45.4054 3.66357L45.5234 3.58542L45.6011 3.47792L45.6077 3.33728L45.5478 3.21717L45.2546 2.9289L45.147 2.67574L45.1835 2.43141L45.3408 2.2447L45.5993 2.17339L45.8605 2.25261L46.0244 2.43627L46.1667 2.65324L46.3559 2.83493L46.486 2.87796L46.6209 2.86519L46.7492 2.81045L46.8616 2.72546L46.9505 2.60915L46.9908 2.48706L47.048 2.2222L47.165 2.0472L47.3513 1.92206L47.7557 1.75299L47.9617 1.85851L48.1986 2.11364L48.2154 2.14694L48.3531 2.42153L48.5413 2.66099L48.8755 2.71284L49.4279 2.57996L52.5224 2.80468L52.7312 2.77928L53.3435 2.61812L53.5232 2.61325L53.6824 2.65826L54.1917 2.90153L54.3912 2.93665L54.5916 2.92981L55.3505 2.71391L55.5439 2.70904L56.2784 2.86352L56.4745 2.86747L56.6684 2.84497L56.8575 2.79312L57.0368 2.71011L57.5119 2.42274L57.6855 2.35432L58.0409 2.33182L59.1893 2.78826L59.3293 2.88495L59.4052 3.0256L59.3977 3.23268L59.3022 3.59226L59.3331 3.73686L59.5026 3.81409L60.1968 3.7516L60.3725 3.83568L60.4337 3.98225L60.4576 4.32025L60.5517 4.46682L60.7404 4.55576L61.1748 4.58602L61.3813 4.62312L61.5283 4.711L61.8359 5.11726L61.9647 5.23737L62.394 5.54404L63.0092 6.26656L64.0855 7.24861L64.6871 7.59891L64.8098 7.7131L65.1264 8.09473L65.2874 8.20009L65.6437 8.33967L65.8103 8.43242L65.9189 8.56029L65.9315 8.69195L65.8173 8.98266L65.7835 9.14261L65.8205 9.26546L65.9988 9.50052L66.0783 9.6702L66.0849 9.82924L65.9921 10.1677L66.0595 10.469L66.368 10.6378L67.0786 10.8475L67.2279 10.9363L67.5135 11.1548L67.6328 11.2844L67.7227 11.4376L67.8758 11.9454L67.9619 12.1257L68.076 12.2914L68.2197 12.4318L68.3841 12.535L68.5372 12.5739L68.6842 12.5593L68.827 12.5067L69.1238 12.3342L69.4159 12.1081L69.5395 11.9715L69.861 11.5017L69.9977 11.3691L70.1513 11.2794L70.3109 11.2346L70.4789 11.2258L70.6521 11.2463L70.6152 11.488L70.5122 11.8046L70.4312 12.0535L70.4893 12.2513L70.575 12.305L70.7628 12.379L70.8448 12.4394L70.8648 12.4716L70.893 12.5388L70.9164 12.566L70.9603 12.5923L71.0713 12.6352L71.1213 12.6626L71.2402 12.7678L71.2801 12.7921L71.4064 12.8145L71.5248 12.7824L72.0211 12.5154L72.1256 12.493L72.4659 12.4911L72.5295 12.4842L72.6667 12.4423L73.2163 12.2025L74.1704 11.9978L74.4172 11.8964L74.5174 11.8653L74.6208 11.8613L74.7406 11.8856L74.7739 12.1488L74.4701 12.7219L74.4368 13.0142L74.6208 13.1409L75.2814 12.8808L75.5543 12.8876L75.6442 12.9879L75.7898 13.2423L75.8792 13.3524L76.3778 13.6905L76.4868 13.826L76.5322 13.9712L76.5505 14.3014L76.5753 14.4467L76.8272 15.0817L76.9438 15.2776L77.0805 15.4577L77.2397 15.6233L77.6971 15.9739L77.8029 16.119L77.8427 16.2757L77.8315 16.4364L77.7621 16.7548V16.9096L77.8011 17.0361L77.8783 17.1491L78.2066 17.5345L78.3676 17.8246L78.4547 18.1457L78.4599 18.5097L78.4196 18.6683L78.3592 18.8278L78.3189 18.9874L78.3428 19.148L78.4364 19.2765L78.5632 19.3767L78.8404 19.5401L78.9856 19.654L79.1074 19.7854L79.3139 20.0899L79.3916 20.2465L79.4121 20.3846L79.3803 20.5226L79.1065 20.9535L79.0401 21.1062L79.0204 21.2734L79.0466 21.4318L79.2179 21.8995L79.4904 21.8918L80.034 21.7955L80.2981 21.8101L80.4282 21.8636L80.7635 22.1072L80.8959 22.1612L81.3131 22.2749L81.5396 22.4081L81.7335 22.5875L81.8641 22.8086L81.9067 23.0735L81.8047 23.7809L81.8069 23.9447L81.8407 24.1045L81.9044 24.2769L82.0084 24.3576L82.5631 24.5014L82.8229 24.4678L83.0967 24.2974L83.3365 24.1031L83.6029 23.9539L83.8866 23.915L84.1741 24.0491L84.2883 24.1885L84.3439 24.3518L84.4169 24.8717L84.4768 24.9994L84.659 25.2408L84.7405 25.3816L84.7747 25.5273L84.7774 26.1566L84.8463 26.463L84.9956 26.7518L85.2156 26.9902L86.2948 27.7305L86.5256 27.9756L86.6431 28.2829L86.5452 28.5435L86.2446 28.5925L85.6257 28.5279L85.4412 28.668L85.5503 28.9025L85.9646 29.3192L86.1224 29.4448L86.2834 29.502L86.4566 29.5053L86.8438 29.4243H87.0353L87.2179 29.4768L87.3827 29.5917L87.4777 29.7208L87.5232 29.8649L87.527 30.0193L87.4291 30.4956L87.4412 30.6435L87.4969 30.8138L87.518 30.8643L87.9744 31.0112L88.1181 31.1506L88.6542 31.6708L89.1388 31.8778L89.1519 31.8762L89.3387 31.8517L89.9118 31.6756L90.1903 31.6329L90.3594 31.6925L90.5022 31.836L90.7363 32.1333L91.7345 32.7262L92.0509 32.9666L92.2434 33.0805L92.6676 33.1793L92.861 33.287L93.0173 33.4658L93.1035 33.6485L93.5257 35.1449L93.536 35.347L93.786 35.4972L94.3974 36.2292L94.7162 36.4984L95.8562 37.039L96.8609 37.8288Z" fill="#3867fa26" stroke="#3867FA" stroke-width="2" strokeLinejoin="round"/>
</svg>
