<svg width="64" height="123" viewBox="0 0 64 123" fill="none" xmlns="http://www.w3.org/2000/svg">
<path d="M10.2398 74.4111L10.2113 74.1259L10.2939 73.8033L10.901 72.5804L11.0797 72.3013L11.5759 71.8147L11.7721 71.5683L11.9285 71.2874L12.0626 70.9568L12.1052 70.6861L12.1079 70.3067L12.0457 70.0122L11.892 69.9906L11.8189 69.7444L11.779 69.6825L11.7196 69.6479L11.6004 69.6415L11.5462 69.6221L11.4339 69.5227L11.3237 69.3859L11.239 69.2313L11.2058 69.0796L11.2383 68.9602L11.3974 68.6568L11.4618 68.5632L11.5288 68.4382L11.5558 68.2909L11.5462 67.9884L11.5273 67.8986L11.4974 67.8189L11.4778 67.7349L11.4894 67.6322L11.5286 67.5918L11.6734 67.4998L11.7222 67.4459L11.7641 67.2799L11.7844 67.1443L11.8508 67.0516L12.0341 67.0186L12.1444 66.8649L12.1112 66.5187L11.9439 65.9337L11.8194 65.6532L11.6603 65.3921L11.2657 65.0075L11.2056 64.9051L11.1405 64.6161L10.9821 64.3287L10.2153 63.3226L10.0705 63.0368L10.0137 62.736L10.0705 62.2227L10.1828 61.9485V61.4089L10.1761 61.3875L10.1409 61.3231L10.1313 61.2888L10.1462 61.2287L10.2166 61.1578L10.2396 61.1099L10.2911 60.8918L10.2964 60.8061L10.2612 60.5314L10.0623 59.9187L9.66703 58.8355L9.07265 58.003L8.53395 57.2194L8.46824 56.9599L8.4689 55.2175L8.14275 53.517L8.12916 52.942L8.37555 51.8581L8.41744 51.47L8.37266 51.3399L8.17371 51.1524L8.05786 50.7538L7.53187 50.0052L7.48508 49.7952L7.48843 49.524L7.56016 48.9873L7.64749 48.7327L8.0719 48.0347L8.22072 47.6725L8.27285 47.6477L8.3711 47.6981L8.4239 47.6328L8.50031 47.3804L9.13391 46.3881L9.27004 46.2478L9.33085 46.121L9.35648 45.9978L9.38232 45.5856L9.61513 45.5921L9.81808 45.2593L10.1004 44.5118L10.1578 44.4211L10.3846 44.1848L10.4294 44.1119L10.4978 43.9145L10.5573 43.8268L10.6927 43.6713L10.793 43.5086L10.9527 43.1466L11.1706 42.8242L11.4609 42.5032L11.7026 42.1606L11.7784 41.7711L11.7323 41.6029L11.5821 41.2329L11.5456 41.0549L11.5874 40.8459L11.6841 40.7485L11.7701 40.7909L11.7781 41.0027L11.9094 40.7768L11.9744 40.5376L11.9704 40.2954L11.8913 40.0548L11.5785 39.5805L11.4527 39.3187L11.4324 39.038L11.4689 38.9286L11.534 38.8052L11.6117 38.6873L11.6904 38.5985L11.7472 38.5053L11.7674 38.3904L11.7917 37.9025L11.8187 37.7842L11.8864 37.706L12.0245 37.6672L12.3015 37.6659L12.5864 37.618L14.4003 37.7949L14.6251 37.7421L14.728 37.7492L14.9297 37.9176L15.0751 38.0001L15.2253 38.041L15.3425 38.0023L15.4209 37.9007L15.4724 37.8169L15.5338 37.745L15.6497 37.6766L15.7649 37.6449L16.0046 37.6068L16.1142 37.5583L16.0465 37.499L16.531 37.2671L16.7721 37.112L16.9352 36.9028L17.2188 36.4259L17.4057 36.1906L17.591 36.011L17.8165 35.878L18.3282 35.6564L18.653 35.4318L18.7119 35.4853L18.7308 35.6105L18.7431 35.8849L18.8885 36.3659L18.8965 36.4083L18.9012 36.4885L18.8965 36.5497L18.8498 36.7251L18.8388 36.8723L18.8524 36.9851L18.9148 37.059L19.046 37.0851L19.1732 37.0428L19.2559 36.9483L19.3263 36.8369L19.4156 36.7545L19.6986 36.6466L19.8164 36.5642L19.8719 36.429L19.851 36.3537L19.6888 36.2906L19.5901 36.187L19.5223 36.0413L19.5183 35.9315L19.5941 35.8618L20.9526 35.7138L21.0101 35.6962L21.0709 35.6673L21.1799 35.5955L21.2416 35.837L21.3053 35.9273L21.3365 35.9484L21.3487 35.9807L21.3507 36.1033L21.2607 36.3539L21.2661 36.4412L21.4116 36.3686L21.4684 36.5368L21.5292 36.5172L21.6105 36.3686L21.5252 35.9228L21.5501 35.827L21.6829 35.6925L21.748 35.5953L21.7406 35.5735L21.748 35.3545L21.7649 35.2785L21.7934 35.2146L21.8137 35.1471L21.8097 35.0591L21.7446 34.9492L21.6553 34.8739L21.6072 34.7973L21.6673 34.6783L21.9353 34.3914L22.2094 34.2127L22.296 34.2072L22.4341 34.262L22.5587 34.2943H22.6859L22.8084 34.3083L23.109 34.5017L23.2959 34.4743L23.8029 34.1766L23.9072 34.1385L24.0195 34.1167L24.148 34.1089L24.328 34.135L24.3904 34.2109L24.3755 34.4972L24.3822 34.6329L24.4127 34.7033L24.4811 34.7356L24.6016 34.763L24.672 34.7692L24.8168 34.7581L24.8872 34.763L25.1133 34.8862L25.3056 34.8933V34.8399L25.2243 34.7336L25.1702 34.5859L25.2054 34.493L25.2811 34.4177L25.3446 34.3241L25.3459 34.1728L25.1456 34.2769L24.9507 34.4288L24.8384 34.4823L24.8872 34.2909L25.0077 34.094L25.1797 33.9146L25.3753 33.7607L25.5669 33.6411L25.7565 33.5644L25.9555 33.5257L26.3683 33.5243L26.5775 33.5517L26.6744 33.5863L26.7149 33.6446L26.7156 33.746L26.7272 33.8367L26.7604 33.9195L26.8275 33.9955L26.7314 34.1517L26.6922 34.2896L26.6347 34.4128L26.481 34.5268L26.6624 34.6768L26.7949 34.8118L26.9005 34.9702L27.1928 35.5748L27.3269 35.7381L27.5096 35.891L27.5176 35.8065L27.5116 35.696L27.519 35.5933L27.5664 35.5363L27.6335 35.5574L27.7268 35.7221L27.7926 35.7727L27.9576 35.7346L28.0274 35.5846L28.0214 35.3966L27.9632 35.2411L28.1824 35.2199L28.3422 35.3754L28.4863 35.5817L28.655 35.7134L28.7416 35.6459L28.6509 35.4171L28.452 35.0589L28.2876 34.9849L27.9432 34.6598L27.736 34.5861L27.468 34.6024L27.3949 34.5861L27.2432 34.4939L27.2581 34.4362L27.357 34.3798L27.4573 34.2911L27.6778 33.9436L27.7144 33.7747L27.6237 33.6411L27.5323 33.6313L27.4187 33.6468H27.3234L27.2828 33.5822L27.3098 33.4423L27.431 33.2062L27.5237 32.8905L27.6807 32.7247L28.0517 32.4282L28.5763 31.8338L28.7692 31.6906L28.7835 31.7349L28.8018 31.7708L28.8167 31.8109L28.8207 31.8677L28.9134 31.8151L29.1388 31.6001L29.4922 31.341L29.5909 31.247L29.7865 31.1136L30.0077 31.0911L30.2269 31.0946L30.4158 31.0378L30.3062 30.9634L30.0482 30.8919L30.0177 30.8084L30.1071 30.715L30.5863 30.5972L31.4431 29.9725L32.0705 29.3957L32.4218 29.2925L32.6533 29.1662L32.7825 29.1375L32.8359 29.1662L32.8609 29.2328L32.8718 29.3128L32.8705 29.54L32.8841 29.587L32.9857 29.8009L33.0514 29.888L33.1407 29.9618L33.2706 30.0369L33.5549 30.1547L33.695 30.2487L33.6963 30.3554L33.6137 30.4677L33.4878 30.6867L33.3842 30.7752L33.255 30.8607L33.1697 30.9514L32.7994 31.7006L32.6998 31.9913L32.7261 32.1952L32.8154 32.2148L32.8769 32.094L32.9527 31.8102L33.0503 31.7218L33.202 31.6719L33.4978 31.6275L33.7801 31.5208L34.0428 31.3802L34.3014 31.3052L34.5708 31.3972L34.8726 31.282L35.0039 31.1913L35.031 31.0376L34.9985 30.9884L34.9444 30.9757L34.8767 30.9701L34.8036 30.9489L34.7325 30.9055L34.702 30.8669L34.5625 30.6065L34.4476 30.0591L34.4502 30.0043L34.4233 29.9783L34.3184 29.972L34.2446 29.9867L34.0036 30.0954L33.9806 29.9861L33.9915 29.8878L34.0706 29.6788L33.9577 29.6942L33.867 29.6915L33.8046 29.6508L33.7532 29.4754L33.6117 29.3934L33.5549 29.3197L33.5386 29.1248L33.6117 28.939L33.8385 28.6193L34.1154 28.3718L34.4734 28.1347L34.7849 27.8585L34.9649 27.349L35.0812 27.1955L35.5002 26.7976L35.6749 26.6953L35.8625 26.6309L36.0587 26.6093L36.1664 26.5149L36.1913 26.3146L36.1372 26.1368L36.0017 26.1103L35.9104 26.1874L35.8616 26.3259L35.7689 26.3749L35.6404 26.3827L35.5617 26.3344L35.4332 26.1397H35.4846L35.735 25.7378L36.7734 24.6312L36.89 24.5452L36.9441 24.5789L36.9766 24.674L37.0294 24.7782L37.2001 24.9756L37.211 25.0659L37.1745 25.593L37.2056 25.7233L37.2408 25.7569L37.2956 25.7759L37.3484 25.8151L37.3747 25.9046L37.3531 25.9285L37.2611 26.1399L36.7832 26.7015L36.6574 26.9041L36.5727 27.1611L36.4874 28.2138L36.5152 28.3176L36.6317 28.3842L36.7307 28.3633L37.0034 28.2118L37.0867 28.1488L37.2368 27.9139L37.3152 27.6736L37.4235 27.4465L37.659 27.2567L37.7524 27.3289L37.7809 27.2498L37.7729 27.027L37.8196 26.8833L38.4147 25.7398L38.4595 25.4892L38.496 25.3827L38.7667 25.1042L38.7903 25.0329L38.7896 24.8776L38.8208 24.8119L38.8845 24.7622L39.0267 24.6929L39.0741 24.6615L39.2617 24.4432L39.3368 24.3166L39.368 24.1977L39.4261 24.0662L39.5493 23.9963L39.6672 23.9103L39.7044 23.7278L40.0577 24.2251L40.2201 24.3679L40.3291 24.412L40.5897 24.4848L40.6797 24.5506L40.7232 24.6535L40.7136 24.8529L40.7319 24.9607L40.8531 24.8235L40.862 24.6325L40.7936 24.4583L40.6797 24.3681L40.9105 24.1827L41.1304 24.2079L41.2962 24.3884L41.3606 24.6655L41.3483 25.2499L41.3938 25.413L41.5319 25.196L41.5787 24.9433L41.576 24.59L41.5003 24.2759L41.3332 24.1395L41.2215 24.1016L41.1173 24.0114L40.9333 23.8143L40.7769 23.7296L40.6517 23.7492L40.391 23.9045L40.2834 23.9486L40.1758 23.9702L40.0615 23.9437L39.9363 23.8401L39.8693 23.7198L39.8178 23.5953L39.761 23.5498L39.5262 23.8764L39.4206 23.9778L39.3372 24.0219L39.2864 23.9548L39.1138 23.6443L39.0746 23.5478L39.0915 23.5128L39.1762 23.4275L39.1931 23.3716L39.1768 23.2892L39.145 23.2401L39.1078 23.1996L38.9663 22.9017L38.9696 22.85L39.0042 22.822L39.0191 22.7968L38.9251 22.7235L38.9095 22.6977L38.9231 22.3272L38.9759 22.0378L39.0795 21.7673L39.2501 21.5488L39.4484 21.428L39.5099 21.3574L39.5335 21.2204L39.5444 20.9648L39.579 20.8726L39.6527 20.7819L39.849 20.7198L40.2362 21.0012L40.5069 20.9858L40.6178 20.9564L40.7829 20.9793L40.8499 20.9564L40.9224 20.8615L40.9752 20.7218L41.0083 20.5739L41.0206 20.4558L40.9901 20.2595L40.9074 20.0236L40.7809 19.8191L40.6185 19.7219L40.7274 19.6047L40.9061 19.6551L41.2478 19.9028L41.3149 19.9385L41.3866 19.9663L41.4544 20.004L41.5058 20.0724L41.5167 20.184L41.4633 20.2664L41.3942 20.3466L41.361 20.4556L41.3338 20.6741L41.2133 21.1175L41.1864 21.3396L41.185 21.4171L41.1973 21.5512L41.2487 21.6582L41.361 21.6602L41.4165 21.5911L41.4205 21.494L41.4096 21.3935L41.4176 21.3139L41.4827 21.2609L41.5896 21.1932L41.6743 21.1177V21.0444L41.6085 20.9675L41.5441 20.8697L41.4954 20.7637L41.4791 20.6645L41.5392 20.4761L41.764 20.1675L41.8155 19.9846V19.7856L41.7926 19.588L41.7188 19.4359L41.3891 19.3229L41.2051 19.1933L40.9019 18.9023L41.5341 18.571V18.463L41.134 18.2001L40.7989 18.0649L40.7056 17.9902L40.4877 17.5796L40.3592 17.0193L40.4255 16.5412L40.7891 16.3768L40.7005 16.2445L40.5982 16.1957L40.5205 16.1177L40.5042 15.9039L40.53 15.7241L40.5964 15.4692L40.7087 15.293L40.8765 15.3487L41.001 15.3585L41.0694 15.1468L41.1059 14.7639L41.177 14.6984L41.2663 14.644H41.3537L41.418 14.7345L41.3828 14.7881L41.2989 14.8592L41.2474 14.9552L41.3049 15.0853L41.3517 15.0595L41.433 15.0428L41.4798 15.0267L41.435 15.1306L41.4532 15.2259L41.5196 15.2718L41.6179 15.2286L41.6504 15.1575L41.6524 15.0822L41.6863 15.0134L41.8162 14.9633L41.6631 14.7962L41.6522 14.7329L41.9608 14.7342L42.088 14.8318L42.1454 15.0504L42.176 15.2856L42.2185 15.436L42.4493 15.3302L42.5765 15.4019L42.6402 15.5775L42.6774 15.7864L42.8216 16.1745L42.8432 16.318V16.3766L42.8499 16.4345L42.8757 16.4804L43.0056 16.5285L42.986 16.594L42.9 16.6979L42.992 16.8701L43.2092 17.0325L43.4563 17.1537L43.6403 17.1996L43.8758 17.139L44.1149 16.9821L44.2291 16.7732L44.091 16.5515L44.1492 16.4185L44.1532 15.9671L44.2 15.8286L44.3523 15.5527L44.3822 15.4364L44.2008 15.135L44.1643 14.9826L44.3254 14.9102L44.4214 14.959L44.6651 15.3197L44.7077 15.1609L44.7801 15.0076L44.8654 14.8795L44.9481 14.7933L45.055 14.7543L45.2114 14.7278L45.3651 14.7209L45.4654 14.7347L45.4634 14.6921L45.468 14.6037L45.4654 14.5605L45.6576 14.7296L45.7557 14.7832L45.8347 14.7636L45.8165 14.6886L45.671 14.3894L45.6053 14.1514L45.4591 13.9581L45.403 13.8607L45.378 13.7453L45.3734 13.627L45.4032 13.3933L45.5331 13.4231L45.6088 13.5018L45.667 13.5985L45.7496 13.6854L45.7537 13.8246L45.906 13.9275L46.3467 14.1029L46.4238 14.1202L46.5071 14.1078L46.6067 14.0619L46.7103 14.0367L46.8152 14.0534L46.9135 14.0826L47.0035 14.0931L47.3053 14.0075L47.6086 13.83L47.8806 13.5934L48.0878 13.3289L47.943 13.1591L48.0621 12.9156L48.3723 12.538L48.3451 12.4331L48.2232 12.2341L48.1969 12.1007L48.2016 11.8198L48.2205 11.6765L48.4081 11.0037L48.5184 10.766L48.7492 10.4548L48.8136 10.3227L48.8631 10.1852L48.8833 10.0783L48.9239 9.9818L49.0215 9.85481L49.1344 9.74498L49.2244 9.70265L49.1879 9.48677L49.3198 8.93538L49.338 8.70702L49.2899 8.59808L49.1226 8.39824L49.0535 8.29487L49.0001 8.17769L48.9675 8.08189L48.9241 7.69959L48.8929 7.60446L48.769 7.42067L48.7169 7.38814L48.6715 7.40062L48.6302 7.39371L48.5937 7.30482L48.5964 7.21882L48.6369 7.16892L48.6837 7.12726L48.7122 7.06688L48.7062 6.99604L48.6588 6.892L48.6554 6.83363L48.7488 6.62488L48.769 6.6006L48.706 6.49856L48.6106 6.48809L48.4935 6.53376L48.3716 6.60037L48.3676 6.34996L48.2938 6.20716L48.0258 5.96031L47.8966 5.61366L47.8269 5.49781L47.8033 5.66423L47.4635 5.49581L47.5638 5.41405L47.7099 5.18191L47.8033 5.17277L47.9035 5.22L47.9929 5.24629L48.2 5.25743L48.4843 5.31491L48.6603 5.46818L48.9114 5.95541L49.0027 6.00532L49.1326 5.96588L49.2585 5.87855L49.3376 5.78699L49.3721 5.65956L49.3944 5.20485L49.4127 5.15495L49.5074 4.97204L49.508 4.92838L49.4924 4.80785L49.5074 4.73923L49.5811 4.63118L49.6874 4.54808L49.8052 4.51689L49.9101 4.56613L49.9649 4.41374L50.0516 4.34178L50.1532 4.27807L50.2515 4.15331L50.374 4.30569L50.4823 4.1894L50.5885 3.98087L50.7057 3.85834L50.8425 3.9733L50.967 3.92763L51.0617 3.78906L51.1085 3.6311L51.0983 3.56538L51.0697 3.50367L51.0455 3.43438L51.0515 3.34015L51.0969 3.24524L51.1604 3.19199L51.2268 3.15323L51.2829 3.10199L51.3649 3.08751L51.3852 3.04184L51.3351 2.92889L51.2633 2.84579L51.2079 2.83198L51.1448 2.83754L51.0515 2.81126L51.0103 2.77517L50.9824 2.72526L50.9465 2.67402L50.8808 2.63236L50.7895 2.61721L50.4829 2.63236L50.5945 2.47663L50.9289 2.36858L51.0515 2.22533L51.1773 2.314L51.4487 2.69608L51.5055 2.63236L51.567 2.69608L51.5759 2.53144L51.5122 2.34742L51.389 2.2035L51.2217 2.16763L51.2542 2.08186L51.3063 2.02371L51.3598 1.97804L51.3963 1.9366L51.481 1.89918L51.5053 1.87712L51.4944 1.85016L51.4658 1.79826L51.4509 1.73744L51.4765 1.67506L51.7256 1.40103L51.8704 1.31348L52.0206 1.34801L52.1059 1.40883L52.3354 1.67305L52.3908 1.79335L52.3922 2.03842L52.4477 2.13934L52.6114 2.35522L52.633 2.56218L52.6101 2.78229L52.6439 3.03649L52.7921 3.35151L52.8104 3.47827L52.7616 3.48251L52.4474 3.12939L52.3703 3.11424L52.3089 3.18754L52.2521 3.28512L52.1906 3.33836L52.0776 3.31007L51.9843 3.2194L51.9228 3.09887L51.9025 2.98525L51.8138 3.02736L51.7481 3.09442L51.704 3.17751L51.6797 3.27442L51.7806 3.32567L51.757 3.42614L51.6182 3.68168L51.7441 3.67878L51.9154 3.7044L52.0678 3.75631L52.1349 3.82894L52.1064 3.88508L51.9865 3.98756L51.9642 4.03457L51.9785 4.10808L52.007 4.18561L52.0495 4.21547L52.1064 4.15108L52.195 3.9987L52.2627 3.96261L52.3298 4.02209L52.4185 4.15086L52.4069 4.19452L52.3703 4.25267L52.3657 4.30324L52.4483 4.32552L52.6141 4.33176L52.6947 4.31728L52.7598 4.27295L52.8072 4.12613L52.6894 3.88641L52.7286 3.77279L52.8803 3.68769L52.975 3.74651L53.216 4.12613L53.2397 4.2246L53.2437 4.32374L53.27 4.44226L53.349 4.57393L53.4344 4.66883L53.4959 4.78312L53.5025 4.97026L53.558 4.85931L53.6298 4.78713L53.7204 4.74837L53.8383 4.73723L53.9642 4.75951L54.0156 4.80651L54.0508 4.87157L54.1943 5.01014L54.2424 5.11685L54.2471 5.2131L54.1834 5.25542L54.0675 5.2278L53.9666 5.18213L53.8746 5.17388L53.7866 5.25565L53.9898 5.42474L54.0967 5.5593L54.1914 5.57178L54.3538 5.37216L54.5853 5.89482L54.6381 6.07505L54.6563 6.30117L54.6354 6.41145L54.555 6.39541L54.4879 6.30117L54.4636 6.19513L54.4663 5.95876L54.4162 6.19023L54.5394 6.67568L54.4946 6.86437L54.4289 6.95304L54.3923 7.04327L54.3863 7.13751L54.4106 7.23954L54.4877 7.38324L54.5465 7.37344L54.6096 7.31373L54.7002 7.30259L54.8248 7.38591L54.9934 7.53585L55.1416 7.70784L55.2053 7.85554L55.2242 7.96448L55.3062 8.14694L55.3245 8.23918L55.3029 8.34879L55.1959 8.53615L55.154 8.64643L55.2285 8.60677L55.3022 8.5914L55.3719 8.60254L55.437 8.6462L55.4871 8.55107L55.5419 8.47889L55.5887 8.40114L55.6313 8.16655L55.6921 8.09236L55.7834 8.07632L55.897 8.12221L55.8578 8.20687L55.8349 8.23873L55.9478 8.26792L56.0594 8.32339L56.159 8.39557L56.3662 8.58984L56.4027 8.64598L56.3662 8.86186L56.3778 8.93961L56.4841 9.16596L56.5618 9.25485L56.6667 9.29161L56.781 9.28404L56.8962 9.29094L56.9753 9.35822L56.9813 9.52977L56.9225 9.57566L56.8298 9.60195L56.7986 9.66589L56.9192 9.81649L57.0315 9.87909L57.1437 9.91585L57.2304 9.98937L57.2643 10.1629L57.3084 10.2866L57.5 10.5165L57.5441 10.5998L57.5603 11.0576L57.4873 11.7458L57.4953 11.8757L57.5352 12.0488L57.5439 12.1851L57.5757 12.293L57.8018 12.626L57.8275 12.7748L57.7976 13.1407L57.8328 13.2672L57.9458 13.334L58.0467 13.3035L58.1387 13.2563L58.2254 13.2674L58.2984 13.3906L58.2891 13.5401L58.2254 13.8268L58.2423 14.0565L58.3621 14.5576L58.4575 14.7902L58.494 14.836L58.5936 14.9147L58.6281 14.9606L58.6397 15.0274L58.6248 15.182L58.6281 15.2531L58.6607 15.4307L58.685 15.4913L58.7059 15.524L58.7337 15.542L58.7663 15.5532L58.8008 15.5559L58.8509 15.5683L58.859 15.6031L58.8576 15.6499L58.8841 15.6993L58.9024 15.7954L58.8353 16.0865L58.8841 16.2244L58.9472 16.3207L59.1394 16.7241L59.2138 17.0064L59.3018 18.7147L59.4683 19.3517L59.4912 19.5987L59.4832 19.9037L59.4061 20.1432L59.3832 20.2974L59.3716 20.5997L59.3912 20.7777L59.448 20.8782L59.6558 21.0709L59.796 21.328L59.802 21.5739L59.6984 22.2336L59.6184 22.4992L59.5988 22.6326L59.6131 22.783L59.7173 23.1927L59.7782 24.1451L60.005 24.6132L60.0286 24.926L59.9568 25.2031L59.7692 25.3103L59.8457 25.4152L60.0678 25.5293L60.1667 25.6041L60.2317 25.7155L60.2852 25.8668L60.3848 26.4157L60.9799 27.7413L61.1322 27.9768L61.5357 28.4731L61.6197 28.6119L61.6888 28.9035L61.7768 28.9933L61.8857 29.0564L61.9893 29.1364L62.1009 29.3469L62.17 29.6274L62.2168 30.1803L62.2087 30.2322L62.1599 30.369L62.0806 30.5031L62.0773 30.5628L62.0962 30.6239L62.1085 30.7103L62.0976 30.7714L62.0178 30.9777L62.0015 31.0641L62.0178 31.149L62.0401 31.2241L62.0461 31.2782L62.0109 31.3457L61.91 31.4518L61.8754 31.5086L61.8186 31.8091L61.6705 32.2404L61.6542 32.3999L61.6008 32.6318L60.8616 34.0427L60.7965 34.2902L60.8805 34.3402L60.8264 34.4549L60.2246 35.2402L60.0344 35.7259L59.9397 35.8357L59.8056 35.8709L59.673 35.852L59.5465 35.8562L59.4239 35.954L59.2562 35.5274L59.114 35.3895L58.9131 35.4169L58.5036 35.058L58.3492 34.8715L58.2875 34.6146L58.2476 34.1715L58.2307 34.1082L58.1311 34.0681L58.0133 33.9739L57.905 33.8601L57.8333 33.7645L57.7778 33.6491L57.7343 33.5127L57.7107 33.3679L57.7147 33.2287L57.7602 33.0874L57.8143 32.9729L57.8246 32.8598L57.7432 32.7283L57.6904 32.6784L57.6423 32.6523L57.5889 32.6412L57.5158 32.6383L57.4772 32.6116L57.2404 32.2981L57.2195 32.1872L57.2647 31.9203L57.2687 31.7686L57.203 31.3317L57.2146 31.2798L57.2444 31.2292L57.2554 31.1702L57.2032 31.0957L57.1627 31.0817L57.0076 31.0663L56.7897 31.1802L56.4865 31.2138H55.9492L55.6785 31.3065L55.4931 31.4772L55.0186 32.1515L55.0266 32.375L55.206 32.8691L55.2155 32.9907L55.206 33.1111L55.1193 33.3472H55.0977L55.1525 33.4548L55.2494 33.5477L55.3414 33.6609L55.4085 33.9507L55.5263 34.2348L55.5831 34.671L55.6664 34.9406L55.7897 35.1727L55.8113 35.2718L55.7841 35.4175L55.7233 35.5632L55.4695 36.0137L55.3944 36.263L55.3904 36.5517L55.4459 36.8391L55.5528 37.0829L55.77 37.2943L56.3123 37.4901L56.552 37.6445L56.7429 37.9236L56.7775 38.1725L56.6008 38.9834L56.5865 39.3205L56.632 39.621L56.7815 39.7509L56.8668 39.8066L56.8878 39.9378L56.8552 40.2725L56.82 40.3974L56.812 40.4638V40.7633L56.7741 40.8742L56.3348 41.6433L56.0944 41.9244L55.7235 42.2254L55.7384 42.6239L55.7979 42.8071L55.9244 42.9958L56.0991 43.1591L56.2784 43.2531L56.476 43.2856L56.6979 43.2629L56.4462 43.405L56.1822 43.5062L55.6947 43.5797L55.4876 43.6935L55.0692 43.7316L54.9027 43.7677L54.7686 43.8626L54.663 43.997L54.1081 45.1243L53.7209 46.2199L53.2958 47.2327L53.2131 47.8538L53.251 47.985L53.5028 48.3943L53.9007 50.5388L53.9468 51.1036L53.8479 51.7071L53.556 52.7459L53.1505 54.0697L53.1396 54.2228L53.1505 54.3738L53.1844 54.4935L53.223 54.5567L53.3156 54.6686L53.3548 54.7327L53.3738 54.8325L53.3236 54.8824L53.239 54.9167L53.1557 54.9715L52.9026 55.4568L52.6954 57.1958L52.6372 57.3079L52.4795 57.5077L52.418 57.6156L52.2191 58.2144L51.7303 59.2385L51.2979 60.8698L50.6516 62.3638L50.3477 62.8314L49.5902 65.5903L48.5405 68.2894L48.2569 69.6818L48.2379 69.8876L48.2419 70.2174L47.9726 71.0167L47.9198 70.9073L47.8175 70.7632L47.7079 70.6841L47.6328 70.7748L47.6674 70.877L47.8697 71.1593L47.9158 71.2934L47.8928 71.4073L47.2064 72.8482L46.7286 74.1384L46.516 74.7982L46.0673 76.1951L45.2368 79.354L45.1488 79.4974L45.0378 79.6374L44.9688 79.7721L45.004 79.9005L45.1129 79.7873L45.1744 79.8198L45.1947 79.9381L45.1798 80.0831L45.1256 80.215L44.9781 80.479L44.947 80.6336L44.9184 80.9384L44.8407 81.241L44.5395 81.9539L44.5096 82.076L44.4934 82.3475L44.3572 83.1126L44.2354 83.4354L44.1195 83.6571L43.0691 87.0699L42.0111 89.545L40.9531 92.0251L40.8379 92.6179L40.5639 93.2207L40.2146 95.6074L40.0542 96.1537L40.008 97.0058L39.7264 98.0099L39.4137 98.8957L39.2114 100.211L38.2251 103.248L38.1291 103.124L38.0816 103.02L38.0342 103L37.9422 103.124L37.8548 103.322L37.9123 103.375L38.0491 103.389L38.1966 103.465L38.2304 103.701L37.8027 105.629L37.3505 106.852L37.2043 107.119L37.1462 107.176L37.0143 107.263L36.9717 107.301H36.9541L36.8675 107.333L36.8579 107.334L36.8031 107.381L36.82 107.408L36.8559 107.437L36.8579 107.487L36.8559 107.511L36.8011 107.741L36.6563 108.044L36.6333 108.107L36.1568 109.432L36.0924 109.491L35.9915 109.457L35.8141 109.373L35.7736 109.428L35.8874 109.927L35.6702 111.403L34.9724 113.181L34.7646 113.512L34.741 113.648L34.7463 113.933L34.6875 114.078L34.2611 114.406L34.1452 114.688L34.2163 115.279L34.1223 115.509L34.037 115.405L33.9802 115.283L33.9523 115.147L33.9517 115.002L33.8786 115.132L33.8712 115.266L33.8908 115.409L33.8948 115.566L33.8596 115.745L33.7988 115.82L33.5544 115.915L33.413 116.006L33.1788 116.225L32.7794 116.714L32.6974 116.763L32.6698 116.723L32.5838 116.517L32.4868 116.502L32.4626 116.512L32.4559 116.539L31.97 116.893L31.788 117.065L31.6986 117.128L31.4556 117.224L31.3609 117.285L31.2437 117.449L31.1584 117.521L31.0913 117.516L31.0087 117.484L30.9227 117.485L30.8414 117.583L30.7623 117.642L30.1924 117.799L30.0625 117.795L29.7856 117.714L28.9328 117.597L27.971 117.624L26.7323 117.931L25.0862 118.663L24.0411 119.211L22.8775 119.863L22.0443 120.657L21.8859 120.774L21.7112 120.846L21.525 120.861L21.1059 121.262L20.532 121.388L18.1658 121.492L18.0386 121.521L17.9167 121.579L17.7909 121.617L17.6487 121.588L17.5703 121.484L17.4917 121.131L17.4213 120.981L17.1675 120.785L16.2802 120.449L16.0311 120.265L15.9228 120.139L15.8192 119.859L15.6791 119.73L15.0638 119.272L14.5032 118.999L14.1742 118.9L13.2949 118.772L12.4204 118.724L11.194 118.469L11.0409 118.384L10.9171 118.029L10.6471 117.721L10.5862 117.52L10.7473 117.588L10.8921 117.718L11.1485 118.019L11.315 118.139L11.4551 118.145L11.5262 118.044L11.489 117.839L11.3564 117.865L11.2428 117.798L11.0303 117.583L10.8928 117.491L10.7663 117.435L10.6321 117.407L10.4724 117.4L10.1801 117.278L9.67795 116.725L9.38276 116.573L9.1181 116.576L9.02408 116.551L8.36085 116.1L8.2655 115.901L8.21203 115.18L8.12938 114.876L7.5263 114.043L7.44165 113.744L7.52229 112.925L7.44165 112.619L7.35765 112.465L7.00164 112.072L6.9611 112.039L6.91922 111.999L6.87443 111.927L6.85149 111.846L6.82587 111.658L6.78933 111.584L6.51308 111.341L5.93495 110.943L5.68187 110.673L5.40027 110.022L5.26214 108.658L5.37309 107.09L5.22761 106.209L5.24387 106.122L5.31695 105.954L5.33655 105.865L5.3272 105.76L5.22761 105.491L5.15788 105.13L5.10374 104.965L5.00015 104.804L5.11867 104.616L5.10174 103.973L5.14028 103.686L5.3243 103.509L5.88349 103.261L6.02763 103.062L6.01203 102.915L5.89975 102.678L5.91401 102.51L6.04189 102.387L6.07976 102.325L6.13122 102.173L6.13523 102.098L6.10828 102.009L6.01894 101.884L5.79705 101.697L5.63798 101.478L5.28464 101.138L5.22783 101.104L5.17503 101.096L5.11889 101.08L5.05251 101.02L5.03223 100.97L5.00037 100.766L4.91304 100.451L4.87784 99.6392L4.76823 98.9635L4.65461 98.5861L4.42781 98.3368L3.85927 97.9146L3.76926 97.7838L3.63247 97.5L3.51395 97.3868L3.36157 97.2736L3.07596 96.9533L2.90263 96.6799L2.80795 96.4845L2.77075 96.3627L2.72596 95.9911L2.62104 95.7458L2.57759 95.2746L2.47867 95.0199L2.42921 94.6994L2.38867 94.6216L2.27572 94.469L2.23027 94.3884L2.17346 94.1787L2.16945 93.9675L2.20198 93.5527L2.11598 92.7235L1.99947 92.2902L1.80186 91.8818L1.79985 91.7925L1.8072 91.7011L1.80453 91.6156L1.74906 91.3939L1.65771 91.1854L1.67866 90.9967L1.85666 90.8577L2.08345 90.8365L2.25879 91.0025L2.31359 90.8621L2.29934 90.7093L2.26614 90.5507L2.25879 90.3885L1.97385 90.384L1.86023 90.0245L1.85688 89.2122L1.87515 89.1128L1.95647 88.9339L1.97474 88.8419V88.628L1.989 88.5376L2.02152 88.4953L2.06006 88.4654L2.08858 88.4166L2.10484 88.4122L2.14071 88.399L2.17858 88.3772L2.2022 88.3496L2.14071 88.1058L2.15363 87.9862L2.19017 87.8782L2.24631 87.7761L2.31671 87.6821L2.41429 87.8111L2.42654 87.9628L2.37308 88.2883L2.54306 88.0461L2.57559 87.626L2.56199 87.1724L2.60054 86.8255L2.69321 86.6593L3.25017 85.9847L3.39298 85.8718L3.55271 85.8499L3.7354 85.9591V83.5731L3.79845 83.3505L3.97311 82.9384L4.02524 82.7182L4.0903 82.8708L4.15668 82.8724L4.31442 82.7185L4.54188 82.5979L4.65149 82.4353L4.68602 82.4092L5.14897 82.4202L5.46042 82.3308L5.61615 82.37L5.76363 82.4353L5.91446 82.4701L6.12164 82.3901L6.36337 82.1976L6.56432 81.9579L6.64764 81.7358L6.69019 81.4738L6.98872 80.6379L7.30285 78.9155L7.82751 77.8872L8.00217 77.7149L8.27419 77.6477L8.42434 77.5151L8.87303 76.6708L8.97663 76.3114L9.05371 75.8906L9.168 75.496L9.38321 75.2093L9.38454 75.2895L9.39813 75.3436L9.44002 75.4521L9.64231 74.9689L9.75815 74.8159L10.1237 74.5291L10.2398 74.4111ZM57.6575 42.8483L57.688 42.7231L57.7023 42.5867L57.7308 42.4524L57.8018 42.3392L57.9034 42.2586L58.2256 42.0721L58.1904 42.282L57.8898 42.9089L57.6706 43.5806L57.2638 44.4755L56.9673 44.8767L56.7318 45.3907L56.5794 45.5841L56.5063 45.3468L56.5489 45.1216L56.7485 44.6876L56.7844 44.5686L56.8027 44.4561L56.8107 44.2126L56.8378 44.064L56.9069 43.948L57.0952 43.7323L57.6575 42.8483ZM44.1521 13.3913L44.2129 13.4588L44.3287 13.5361L44.4263 13.6265L44.4366 13.735L44.3811 13.7976L44.2984 13.8353L44.2071 13.8533L44.1218 13.8589L44.0812 13.8389L44.0534 13.7972L44.0384 13.7555V13.7353L43.9883 13.7451L43.8691 13.7994L43.5673 13.7506L43.4637 13.7034L43.352 13.6199H43.2952V13.7353L43.2587 13.7339L43.2364 13.7179L43.2161 13.6976L43.187 13.6838L43.1063 13.5809L43.0515 13.4006L43.0123 13.0355L43.0448 12.87L43.0909 12.7238L43.0863 12.6167L42.9604 12.5694L43.045 12.4567L43.1676 12.4928L43.2981 12.5525L43.4104 12.5053L43.4659 12.5581L43.545 12.5955L43.6296 12.604L43.6933 12.5692L43.7043 12.503L43.6637 12.4384L43.6123 12.3716L43.5853 12.3028L43.592 12.1277L43.6305 12.0296L43.7232 11.9893L43.8945 11.9811L44.0387 12.0227L44.1057 12.1299L44.0977 12.2731L44.0104 12.4199L44.0834 12.4638L44.1668 12.6392L44.2282 12.8296L44.2356 12.9201L44.3365 12.98L44.2917 13.1213L44.1991 13.2792L44.1521 13.3913Z" fill="#E6F7ED" stroke="#3CB371" stroke-width="2" strokeLinejoin="round"/>
</svg>
