<svg width="92" height="113" viewBox="0 0 92 113" fill="none" xmlns="http://www.w3.org/2000/svg">
<path d="M1.80657 11.1639L2.94669 10.031L4.08559 8.89904L5.22449 7.76603L6.36461 6.63342L7.24995 6.17563L8.03358 5.77041L8.81193 5.38002L9.58033 4.9945L10.6778 4.59395L11.5932 4.24843L12.4513 3.92442L13.375 3.57564L14.408 3.18565L15.3317 2.83688L16.1159 2.54068L16.3155 2.91626L17.1066 2.47775L17.9865 1.99011L18.236 2.29057L17.8119 3.16698H18.9343L19.7825 3.41729L19.2338 4.8193L19.6898 5.64921L20.2316 6.63504L20.2484 6.64093L21.2436 6.98483L21.3055 6.64154L21.3066 6.63565L21.3695 6.16446L21.6839 5.94358L22.1243 5.97525L22.1558 6.63626L23.0052 6.63992L23.7303 6.64296L23.7524 6.83826L23.9017 7.10461L23.9132 7.32265L23.8793 7.54962L23.8759 7.74227L23.9516 7.90225L24.1532 8.02893L24.5903 8.41242L24.8304 8.56874L25.0893 8.63046L25.1341 8.63005L26.7808 8.61645L27.1689 8.56346L27.2879 8.56285L27.3988 8.5929L27.604 8.69217L27.7498 8.71207L29.8457 8.67004L31.6107 8.6337L31.7085 8.65543L31.8752 8.75571L31.9416 8.77175L31.9696 8.77845L34.1437 8.75977L34.8162 8.94594L35.6183 9.35135L36.0788 9.45712L36.1884 9.53975L36.3656 9.83899L36.4485 9.89401L36.6746 9.87695L36.7585 9.90375L36.833 10.0046L36.8772 10.1143L36.9355 10.3656L36.9716 10.4263L37.0299 10.4397L37.0975 10.4379L37.1639 10.4553L37.7747 10.8484L38.8741 11.5571L39.9734 12.266L41.2603 13.0941L42.1742 13.683L43.2082 14.3503L44.3727 15.1005L45.4462 15.7921L46.5711 16.5167L46.9184 16.7404L47.1283 16.9497L47.4152 17.4103L47.589 17.6166L47.7335 17.6966L48.0703 17.8003L48.3304 18.0267L48.4678 18.0498L48.8233 17.9613L49.1765 17.9333L50.3737 18.0691L51.579 18.2049L52.2108 18.1509L52.7855 17.8992L52.7995 17.8344L52.7902 17.7337L52.8135 17.6398L52.9219 17.5957L52.9814 17.6217L53.1948 17.7989L53.2857 17.9067L53.3078 17.996L53.3521 18.0622L53.5094 18.102L53.6564 18.1183L53.7181 18.1097L53.8779 18.0472L53.8988 18.085L53.9104 18.1457L53.9699 18.1848L54.6284 18.2323L54.626 18.155L54.6412 17.9964L54.6366 17.9217L54.9419 18.3247L55.1179 18.504L55.3242 18.6173L56.4375 18.9185L57.278 19.1463L57.5717 19.1416L58.0449 19.0503L58.2338 19.0759L58.4029 19.1386L58.5777 19.1362L59.2259 18.9993L59.3343 19.0257L59.4798 19.0927L60.4955 19.5598L60.935 19.6536L61.3652 19.6425L61.8023 19.3905L61.8746 19.3489L62.0226 19.3576L62.075 19.4748L61.9712 19.6833L63.3793 19.7253L63.7267 19.8424L63.8245 19.9691L63.884 20.1222L63.9691 20.273L64.1485 20.3924L64.5087 20.3735L64.6987 20.0763L64.9447 19.3239L65.2363 18.9735L65.9764 18.2975L66.8636 17.4855L67.0792 17.201L67.2658 16.8527L67.5805 16.0195L67.8019 15.4283L68.0293 15.149L68.9957 14.6808L69.9667 14.2125L71.0601 13.6834L71.5707 13.4293L71.622 13.3629L71.6139 13.2924L71.6245 13.2474L71.7329 13.2579L71.7668 13.2772L71.8007 13.2866L71.8321 13.2847L72.9745 12.8856L73.8639 12.5756L73.9246 12.5184L73.991 12.3356L74.0551 12.2758L75.5124 11.7138L76.7037 11.2554L77.642 10.8945L78.3531 10.4261L78.6014 10.7552L79.2811 11.2172L79.5586 11.5339L79.7474 11.8837L79.8639 11.9982L80.0692 12.1032L80.6078 12.2873L80.7897 12.3959L81.0847 12.6682L81.8086 13.683L82.3098 14.0738L82.8566 14.2961L83.4463 14.3648L84.598 14.299L85.8628 14.2259L86.4294 14.0669L86.7278 14.0505L87.6312 13.827L87.8107 13.8392L88.1091 13.9634L88.2699 13.9932L88.4331 13.9565L88.911 13.6828L89.4472 13.858L89.9437 14.1209L90.4462 14.2194L91 13.9053L90.0558 15.2625L89.1091 16.6192L88.1637 17.9763L87.2171 19.3333L86.6342 20.1689L86.0501 21.0053L85.4673 21.8401L84.8832 22.6761L83.9577 23.5949L83.0297 24.5144L82.1017 25.433L81.175 26.351L80.7891 26.7339L80.6271 27.0474L80.633 27.6519L80.647 29.1071L80.6622 30.6271V31.4643V32.6659V33.8676V35.0688V36.2702V37.6812V39.0913V40.502V41.9126V43.3223V44.7322V44.923V46.1423V47.5525V48.962V50.3721V51.781V53.1915V54.6009V56.0114V57.4207V58.8312L80.675 59.7556L80.6843 60.5168L80.6924 61.2781L80.7087 62.5033L80.7249 63.7263L80.7412 64.9502L80.7574 66.1754L80.768 66.9704L80.7785 67.7654L80.7891 68.6223L81.077 68.9943L81.3626 69.3662L81.6505 69.7369L81.9371 70.1088L82.4954 70.8293L83.0724 71.5766L83.6936 72.3799L84.2088 73.0446L84.7636 73.7616L85.3453 74.5138L85.9141 75.2473L86.4818 75.982L86.9142 76.5417L87.0506 76.7902L87.0914 77.0035L87.0616 77.71L87.0518 77.9355L87.0453 77.942L86.1862 78.8217L85.7805 79.4415L85.7274 79.639L85.4831 79.7897L84.8416 80.3737L84.4396 80.8679L84.2056 81.0075L84.0322 80.7946L83.8221 80.8809L83.6276 80.8606L83.4981 80.731L83.4871 80.4876L83.2614 80.7209L83.2173 80.9909L83.1128 81.2518L82.7869 81.2215L82.3464 81.1178L82.2481 81.1105L82.1095 81.1967L81.8855 81.4428L81.5808 81.5713L81.4633 81.7238L81.3403 81.8504L81.163 81.8413L81.0142 81.7642L80.9068 81.6888L80.8325 81.5804L80.7856 81.4188L80.794 81.2518L80.905 80.9395L80.8977 80.8019L80.8701 80.6458L80.916 80.5061L81.0857 80.2544L80.6863 80.5611L80.6405 81.8882L80.3999 82.1885L80.1906 82.0313L79.9813 81.337L79.7756 81.1799L79.6581 81.1119L79.5544 80.9925L79.4488 80.9503L79.3148 81.1101L79.3883 81.279L79.4214 81.4278L79.3919 81.5711L79.5755 81.4911L79.7204 81.5297L79.8187 81.6564L79.8526 81.8409L79.8286 81.9162L79.7241 81.9769L79.6983 82.0413L79.7358 82.1497L79.8185 82.1755L79.9011 82.1937L79.9368 82.2691L79.9561 83.0921L80.0231 83.5294L80.1681 83.8142L80.269 83.8418L80.392 83.8272L80.5296 83.8337L80.6719 83.9329L80.7822 84.0956L80.7986 84.2186L80.6719 84.5117L80.3938 84.8544L80.1433 84.904L80.1076 84.7763L80.4766 84.5915L80.2822 84.5217L80.126 84.4169L79.8526 84.1284L79.8103 84.0385L79.825 83.9815L79.8177 83.9382L79.6983 83.8913L79.7129 83.9171L79.6368 83.9437L79.4715 83.974L79.1897 84.1283L78.9374 84.4313L78.7005 84.6409L78.4664 84.514L78.4737 84.6104L78.5032 84.7123L78.5636 84.7968L78.6564 84.8299L78.7106 84.8611L78.6895 84.9346L78.6134 85.0568L78.6869 85.2223L79.0062 85.4344L79.0834 85.5924L78.9512 85.8532L78.64 86.1592L78.2884 86.4128L77.7652 86.6285L77.075 87.4499L76.684 87.5987L76.338 87.5234L76.002 87.3718L75.6431 87.2892L75.274 87.3277L74.1341 87.6871L73.666 88.0233L73.3813 88.1134L73.05 88.3201L72.4883 88.775L72.3551 88.9147L72.256 89.0728L72.0478 89.5452L71.711 89.9716L71.6622 90.1618L71.6844 90.2491L71.8522 90.4732L71.865 90.5467L71.8218 90.7195L71.8098 90.8177L71.5969 91.5392L71.5711 91.9095L71.8098 92.0906L71.7512 92.3866L71.888 92.5171L72.1202 92.4942L72.3551 92.3204L72.3643 92.4473L72.2761 92.5815L71.8815 92.9575L71.6456 93.2728L71.5851 93.4088L71.5364 93.9823L71.4647 94.179L71.081 94.7251L71.0727 94.8768L71.1947 95.2877L71.1929 95.4974L71.123 95.6722L71.0229 95.834L70.8918 95.9755L70.7312 96.082L70.1859 96.3303L70.0373 96.4296L69.7665 96.7467L69.6142 96.8681L69.4151 96.9004L69.5032 96.7081L69.6252 96.2769L69.6463 96.1206L69.4435 96.1703L69.3544 96.2806L69.3351 96.4278L69.3379 96.5869L69.327 96.6917L69.2608 96.9702L69.2819 97.0328L69.3241 97.0943L69.3444 97.1615L69.1461 97.4869L68.9167 98.09L68.6156 98.5738L68.4981 99.2241L68.3688 99.488L68.2256 99.6167L68.1274 99.637L67.8831 99.5304L67.8289 99.4973L67.6812 99.3262L67.628 99.3152L67.3279 99.2905L67.3746 99.192L67.3829 99.1469L67.2664 99.0531L67.1783 99.26L67.2095 99.433L67.3454 99.5341L67.5729 99.5304L67.4371 99.6904L67.483 99.8228L67.6418 99.8751L68.0338 99.7152L68.1594 99.8063L68.2311 99.9793L68.2595 100.147L68.2376 100.504L67.3279 103.016L67.0388 103.295L66.7158 103.346L66.4883 103.176L66.4901 102.792L66.2404 102.93L66.1705 103.016L66.2109 103.129L66.2871 103.243L66.3256 103.35L66.3762 103.453L66.4901 103.557L66.7398 103.538L66.8646 103.598L66.8326 103.793L66.5948 104.057L66.5599 104.137L66.5286 104.237L66.4479 104.377L66.3478 104.5L66.2495 104.553L66.1411 104.494L66.0658 104.235L65.9777 104.175L65.9005 104.038L65.9243 103.779L65.9078 103.622L65.7113 103.789L65.4212 103.63L65.2899 103.609L65.166 103.711L65.2781 103.819L65.4113 103.871L65.7115 103.943L65.6271 104.145L65.5207 104.24L65.1664 104.321L65.0507 104.324L64.924 104.312L64.8221 104.324L64.7809 104.402L64.7892 104.642L64.8114 104.754L64.8583 104.87L65.0217 104.649L65.3962 104.623L65.7909 104.739L66.0122 104.947L65.9691 105.219L65.4056 106.189L65.044 107.112L64.6749 108.5L64.5501 108.82L64.4492 108.673L64.3519 108.681L64.2565 108.78L64.1666 108.907L64.1483 108.968L64.1593 109.109L64.1236 109.173L63.963 109.319L63.9281 109.369L63.5425 110.535L63.4709 110.325L63.5058 109.995L63.4654 109.833L63.3204 109.946L63.2396 110.104L63.1716 110.281L63.0799 110.45L63.0248 110.444L62.9451 110.401L62.8734 110.411L62.8432 110.571L62.8651 110.665L63.0413 110.911L62.9274 111.067L62.5474 111.123L62.1178 111.017L61.848 110.682L61.8389 110.748L61.7719 110.914L61.4405 110.814L61.1963 111.049L60.9899 111.371L60.7696 111.533L60.7229 111.548L60.6825 111.552L60.6457 111.568L60.6098 111.617L59.6528 110.924L58.6899 110.23L57.727 109.534L56.7641 108.838L55.8013 108.144L54.8371 107.448L53.8755 106.753L52.9138 106.058L51.9497 105.364L51.875 105.31L50.988 104.669L50.0239 103.975L49.0622 103.279L48.1006 102.585L47.1365 101.89L46.1748 101.195L45.2119 100.5L44.5976 100.058L44.4425 99.8552L44.3294 99.624L44.1335 98.9279L44.0484 98.7539L43.8911 98.6091L43.6777 98.5064L43.44 98.4433L43.1986 98.4222L42.6588 98.4536L42.6261 98.2983L42.7159 98.0777L42.7613 97.8907L42.7043 97.802L42.5189 97.7786L42.4373 97.6958L42.4199 97.5766L42.4489 97.4447L42.5025 97.3186L42.5595 97.2181L42.724 97.036L42.9757 96.8362L43.2439 96.6927L43.4573 96.6763L43.441 96.4743L43.4806 96.3165L43.5925 96.2197L43.7977 96.2045L43.5716 94.8238L43.5472 94.675L43.3478 93.4504L43.1753 93.1725L42.2439 92.6519L40.6865 91.781L39.8227 91.2978L37.4004 89.944L34.9793 88.5913L32.5581 87.2376L30.137 85.8853L27.7146 84.5331L25.2945 83.1798L22.8734 81.8267L20.4523 80.4736L18.0322 79.1207L16.1228 78.0547L15.611 77.7689L13.1887 76.416L10.7676 75.0645L10.1735 74.7328L8.34622 73.7121L5.92387 72.3606L3.50274 71.0081L2.90101 70.672L2.91623 70.6263L2.88294 70.5997L2.82651 70.5763L2.79666 70.4801L2.88294 70.364L3.04901 70.3374L3.16858 70.2941L3.10544 70.1214L2.96273 70.2144L2.78001 70.2576L2.60745 70.2144L2.48788 70.0518L2.72358 70.1049L2.80986 70.0351L2.87624 69.743L3.39088 70.0716L3.57014 70.1214V70.0518L3.47046 69.8292L3.507 69.557L3.64322 69.0854L3.75935 68.9327L3.9784 68.8L4.13106 68.6274L4.03808 68.3517L3.93191 68.2953L3.41402 68.1193L2.94912 67.7973L2.87604 67.7707L2.86934 67.5549L2.8261 67.2461L2.71322 67.0137L2.48747 67.0403L2.6036 66.0341L2.67993 65.878L2.76621 65.8447L2.88233 65.7584L2.98201 65.6555L3.0285 65.5625L2.99866 65.4131L2.91238 65.3069L2.8062 65.214L2.71322 65.1011L2.78286 65.0678L2.94222 65.0546L3.0285 65.0247L3.20776 64.8321L3.22096 64.8022L3.60932 64.8355L3.75874 64.7958L3.88156 64.6396L4.03098 63.8861L4.19704 63.5639L4.57546 63.4843L4.54561 63.5241L4.49913 63.6337L4.82111 63.6437L5.27606 64.0554L5.57489 64.1782L5.5351 64.0984L5.49856 63.9955L5.50181 63.9025L5.57489 63.8692L5.65468 63.9157L5.74765 64.1116L5.80084 64.178L5.9868 64.2078L6.13297 64.1315L6.18941 63.9788L6.11632 63.7862L6.28889 63.7795L6.41841 63.816L6.52458 63.8858L6.62081 63.9888L6.68395 64.085L6.78688 64.3175L6.80677 64.4104L6.75358 64.4902L6.6673 64.5931L6.6606 64.6861L6.84656 64.7227L6.98603 64.6762L7.26152 64.4571L7.39104 64.4106L7.42089 64.3708L7.73961 64.1782L7.76621 64.0785L7.76296 63.9224L7.70327 63.7797L7.21848 63.5838L7.1322 63.2782L7.14885 62.9429L7.1255 62.7072L7.34131 62.6075L7.67993 62.5145L8.00861 62.4613L8.20127 62.4745L8.31739 62.3982L8.40712 62.3915L8.48345 62.4347L8.55979 62.511L8.68261 62.5874L8.78554 62.5841L8.88522 62.5543L8.97819 62.5443L9.48959 62.6905L9.71534 62.7072L10.4159 62.6375L10.5653 62.5878L10.5721 62.4152L10.5057 62.1927L10.5189 62.0401L10.758 62.0865L10.8942 62.0368L11.1931 62.2559L11.4156 62.3222L11.5152 62.2857L11.5749 62.2027L11.6115 62.1229L11.6446 62.0863L11.7043 62.0431L11.618 61.9536L11.5018 61.8738L11.4586 61.8606L11.0735 61.1269L11.0337 61.0073L10.881 60.9509L10.7284 60.8214L10.6023 60.6687L10.526 60.5424L10.4496 60.6287L10.3134 60.3565L10.3102 60.1971L10.3599 60.0377L10.3731 59.7687L10.217 59.8284L9.6725 59.8118L9.61931 59.9147L9.49649 60.0276L9.35702 60.1206L9.10143 60.1937L8.83589 60.3498L8.42742 60.4095L8.25141 60.4858L8.0888 60.5987L7.93938 60.7381L7.76682 60.8411L7.60745 60.8279L7.27208 60.6983H7.10276L6.65451 60.861L6.32259 60.8145L6.12343 60.8244L5.96082 60.9306L5.91758 61.0999L5.97077 61.2792L6.09704 61.3821L6.2696 61.319L6.38572 61.5547L6.44541 61.7938L6.42876 62.0129L6.30919 62.2055L5.73486 62.6503L5.65508 62.8263L5.60534 63.0155L5.48252 63.2047L5.31321 63.2711L5.12055 63.0986L5.13374 63.0488L5.18023 62.9558L5.21008 62.8397L5.19018 62.707L5.13374 62.6406L5.02757 62.5707L4.90799 62.5076L4.80831 62.4743L4.92789 62.3515L4.96118 62.2419L4.89805 62.1722L4.73198 62.169L4.92119 61.7839L4.8747 61.6444L4.6522 61.4751L4.27378 61.2958L4.15096 61.1563L4.18405 60.9306L3.84867 60.9572L3.44366 60.8908L3.12493 60.7048L3.0287 60.3829L3.09184 60.3297L3.36733 60.187L3.45706 60.1604L3.61968 60.1238L3.62637 60.0574L3.51675 60.001L3.33749 60.0042L3.5401 59.6987L3.58658 59.5326L3.45706 59.4596L3.13163 59.4695L2.93248 59.516L2.79626 59.6189H2.87604L2.83625 59.7152L2.80965 59.8014L2.79646 59.8912V60.004L2.71018 59.9476L2.68683 59.8912L2.68013 59.828L2.64359 59.7683L2.68683 59.7915L2.55731 59.6189L2.50412 59.6423L2.37135 59.6455L2.29827 59.5958L2.40444 59.4596V59.3899L2.3413 59.3434L2.26822 59.3168L2.06236 59.3036L2.01912 59.2572V58.9218L1.94949 58.5964L1.94279 58.4967L1.90625 58.3706L1.81327 58.2943L1.71359 58.2311L1.63381 58.1516L1.59401 58.0519L1.57067 57.9489L1.55747 57.7264L1.59056 57.6069H1.6736L1.77328 57.6402L1.86625 57.6036L1.93264 57.4575L1.95578 57.2782L1.94259 56.9463L1.96918 56.7571L2.07881 56.3985L2.1054 56.2558L2.08551 56.1728L2.01587 56.0266L2.523 55.3504L2.92862 55.0357L3.02546 54.8865L3.05692 54.6569L2.92984 54.2454L2.91827 54.0379L2.96841 53.9354L3.1631 53.7046L3.24248 53.5868L3.2774 53.4912L3.54903 52.3779L3.55837 52.3395L3.75184 51.9921L4.08518 51.7636L4.54338 51.5981L4.9082 51.4128L5.17983 51.1212L5.36173 50.6374L5.40619 50.3778L5.43055 50.2363L5.52373 50.1372L6.24767 49.7746L6.44115 49.5986L6.60315 49.1445L6.92837 48.7218L7.22092 47.9989L7.2873 47.7681L7.29441 47.2622L7.35267 47.022L7.44707 46.7924L7.55792 46.5908L7.78874 46.3646L7.97531 46.4083L8.15945 46.5126L8.38175 46.4702L8.39494 46.4678L8.45869 46.3589L8.51614 46.2609L8.53482 46.0067L8.61176 45.8005L9.15847 45.6756L9.54318 45.3059L9.77746 45.1626L10.7054 45.0676L11.0646 44.905L11.2069 44.4468L11.0891 43.9979L10.8932 43.5391L10.8711 43.3272L10.8514 43.1381L11.5217 42.5896L11.7595 41.6785L12.0195 41.2913L12.1326 41.2345L12.3693 41.1862L12.4812 41.1348L12.5967 41.0266L12.6783 40.8987L13.0362 40.1405L13.1038 39.8956L13.1154 37.7025L13.1643 37.5652L13.3752 37.2981L13.4173 37.1771L13.3602 37.0514L13.0957 36.8042L12.9966 36.687L12.9162 36.4893L12.8695 36.2633L12.8555 36.0301L12.873 35.8104L12.9792 35.3071L12.978 35.0887L12.4686 33.8607L12.265 33.3692L11.8287 32.3166L11.7552 31.8732L11.8543 31.5944L12.0583 31.4369L12.2857 31.3074L12.4524 31.1072L12.4826 30.851L12.3789 30.6586L12.0711 30.3423L12.0057 30.1269L11.9416 29.5649L11.8285 29.4108L11.726 29.4267L11.6513 29.5207L11.5603 29.6041L11.4052 29.5925L11.299 29.4886L10.8234 28.4991L10.652 27.5182L10.4224 26.8062L10.377 26.7063L10.3 26.6107L10.2405 26.5961L9.92119 26.4426L9.90028 26.4123L9.87815 26.3918L9.85947 26.3527L9.83491 26.3135L9.79187 26.293L9.76386 26.311L9.71371 26.3991L9.68569 26.419L9.639 26.4418L9.51313 26.5451L9.4433 26.5691L9.28941 26.5283L9.18689 26.4221L9.01778 26.1525L8.65987 25.754L8.54679 25.5573L8.21913 23.8489L8.21832 23.8475L8.08616 23.6106L7.84944 23.4536L7.31796 23.3014L7.08246 23.1513L6.96005 22.8927L6.84819 21.5055L6.70242 21.0548L6.61959 20.934L6.51362 20.8181L6.42511 20.6969L6.39587 20.5617L6.42978 20.4338L6.54286 20.1571L6.56032 20.0499L6.51362 19.9259L6.37496 19.6839L6.36563 19.5615L6.42856 19.4624L6.53108 19.4175L6.64639 19.3871L6.75135 19.3337L6.96593 19.0038L7.07191 18.5509L7.09992 17.6422L7.0242 17.4045L6.85874 17.2975L6.64781 17.2327L6.43546 17.1215L6.06943 16.7301L5.86662 16.6486L5.56007 16.7378L5.44232 16.8482L5.3934 16.9566L5.34102 17.0039L5.21048 16.9298L5.04036 16.4739L4.78964 16.1496L4.78273 16.0944L4.66377 16.1044L4.44005 16.1677L4.21856 16.1823L4.02387 16.2325L3.92825 16.239L3.78493 16.1846L3.85964 16.0973L4.08457 15.9533L3.94348 15.7814L3.76625 15.7148L3.74534 15.6529L4.28393 15.3737L4.40635 15.2213L4.37711 15.0668L4.12761 14.9362L3.90856 14.935L3.46092 15.095L3.28369 15.1301L3.0214 15.0351L3.03764 14.8392L3.18096 14.5785L3.30115 14.2888L3.27313 14.1063L3.14259 13.9764L2.97714 13.8657L2.84315 13.7405L2.75464 13.5608L2.75931 13.4459L2.80823 13.3383L2.85249 13.1808L2.88517 12.9173L2.88172 12.7843L2.84681 12.6532L2.7524 12.5261L2.62654 12.4106L2.52747 12.2867L2.51346 12.1328L2.52868 11.7849L2.38759 11.5226L2.13342 11.3224L1.80657 11.1639ZM81.6267 81.9227L81.7589 81.7731L82.0646 81.7924L82.4024 81.9026L82.6347 82.0348L82.8541 82.3892L82.7697 82.628L82.5622 82.6666L82.4097 82.4205L82.4199 82.5445L82.4034 82.6712L82.3594 82.7658L82.2877 82.8044L82.2546 82.819L82.2335 82.8474L82.2004 82.8759L82.1334 82.8905L82.0555 82.8639L81.9931 82.8115L81.9527 82.7591L81.9408 82.7344L81.7922 82.7565L81.5912 82.8245L81.1707 83.0431L81.068 82.9678L80.9689 82.9861L80.8936 83.0817L80.8624 83.236L80.9229 83.3241L81.0441 83.3958L81.1303 83.4758L81.0871 83.5907L80.9466 83.5888L80.8585 83.5227L80.809 83.4124L80.7868 83.2746L80.5363 83.327L80.5373 83.0708L80.6713 82.7153L80.8256 82.4617L81.0313 82.3468L81.2966 82.2678L81.5278 82.1503L81.6267 81.9227ZM3.71611 63.3714L3.79914 63.3249L3.85233 63.2453L3.95201 62.9398L4.11807 63.1688L4.221 63.2518L4.34382 63.2551L4.40351 63.1852L4.47984 62.9561L4.57607 62.8631L4.51638 63.1885L4.36697 63.3944L3.88217 63.7163L3.7561 63.6798L3.56344 63.6698L3.41402 63.6266V63.4839L3.71611 63.3714ZM1.46185 64.0353L1.51159 63.9323L1.55808 63.8692L1.66101 63.8195L2.01953 63.7862L2.4081 63.6765L2.57416 63.733L2.64379 63.9886L2.67364 64.0716L2.73332 64.1081L2.76316 64.1514L2.71343 64.2476L2.6172 64.3274L2.3681 64.4137L2.25848 64.4933L2.04937 64.4169L1.74729 64.2178L1.52154 64.178L1.4519 64.1347L1.46185 64.0353Z" fill="#3867fa26" stroke="#3867FA" strokeWidth="2" strokeLinejoin="round"/>
</svg>
