<svg width="64" height="132" viewBox="0 0 64 132" fill="none" xmlns="http://www.w3.org/2000/svg">
<path d="M46.5357 77.925L46.5513 77.8032L46.4877 77.7208L46.4022 77.6513L46.3492 77.5679L46.4428 77.4583L46.4015 77.3326L46.3176 77.1981L46.2892 77.0643L46.3556 76.9485L46.7044 76.6097L46.8274 76.4425L46.8511 76.3517L46.7799 76.2779L46.2775 75.8885L46.1463 75.82L46.0474 75.7457L45.9805 75.6501L45.9469 75.5357L45.9593 75.4074L45.9031 75.27L45.9106 75.1527L45.9901 75.0773L46.1463 75.0632L46.3852 74.9915L46.524 74.9499L46.6595 74.9365L46.8883 74.9764L47.0171 74.964L47.1095 74.8694L47.1174 74.7767L47.0405 74.6207L47.0379 74.5357L47.0754 74.4705L47.1941 74.3797L47.2459 74.3293L47.3327 74.2003L47.3788 74.0357L47.3976 73.7526L47.4282 73.6723L47.5073 73.5983L47.5565 73.6208L47.5971 73.6623L47.6516 73.6458L47.6752 73.5928L47.7383 73.1819L47.7361 73.0486L47.6817 72.9285L47.5603 72.7949L47.1879 72.5111L47.0885 72.4007L47.0324 72.2459L47.0142 71.9134L47.003 71.8838L46.9762 71.8128L46.8296 71.7737L46.471 71.8286L46.3148 71.7366L46.2789 71.5818L46.2832 71.3773L46.2608 71.2049L46.1463 71.1456L46.0859 71.1795L46.0379 71.1793L46.0016 71.1451L45.9758 71.0794L45.9299 70.9736L45.8888 70.9643L45.847 70.9956L45.7983 71.0104L45.632 70.9679L45.5721 70.9696L45.488 71.0312L45.4354 71.1088L45.3766 71.1432L45.2739 71.078L44.832 70.2746L44.7245 70.1791L44.406 70.015L44.2668 69.9072L44.1865 69.7856L44.1485 69.6485L44.1105 69.2887L44.0742 69.1636L43.9875 69.0706L43.5279 68.7997L43.4321 68.6719L43.4438 68.4911L43.653 68.02L43.745 67.9259L43.8482 67.9025L43.9338 67.928L44.0109 67.9658L44.0874 67.9787L44.1578 67.9593L44.7376 67.5807L44.8869 67.5224L45.2054 67.4663L45.3262 67.4075L45.4524 67.262L45.6812 66.8473L45.8038 66.74L45.9043 66.618L45.8945 66.5403L45.8375 66.471L45.799 66.3719L45.8088 66.2228L45.8097 66.2064L45.8284 66.1067L45.7899 66.0645L45.6268 66.0697L45.1624 66.1896L44.9199 66.2176L44.6867 66.1471L44.4942 65.9746L44.1843 65.5766L43.9672 65.4302L43.8365 65.3925L43.7199 65.3731L43.6069 65.3411L43.4791 65.2615L43.3759 65.1662L43.3255 65.0984L43.3033 65.0685L43.2546 64.9574L43.1657 64.4909L43.0941 64.3789L42.934 64.2606L42.7794 64.1827L42.7575 64.1758L42.6356 64.1373L42.3093 64.101L42.0243 64.1106L41.9163 64.0972L41.8265 64.0346L41.8057 63.9756L41.7773 63.78L41.7384 63.6944L41.6839 63.6459L41.4794 63.5327L41.3354 63.4125L41.2577 63.305L41.1562 63.0688L41.1273 63.0745L41.0747 63.1034L41.0191 63.1228L40.9859 63.0979V63.0485L41.0052 63.0112L41.0315 62.9828L41.0418 62.9594L41.0771 62.6696L41.0537 62.3194L40.9087 62.0929L40.7097 62.0848L40.5305 62.3887L40.4964 62.5337L40.4027 62.6237L40.1775 62.7687L40.1395 62.8402L40.1378 62.9073L40.1223 62.973L40.1137 62.9797L40.0377 63.0384L39.9548 63.0731L39.8982 63.0767L39.8719 63.0375L39.8729 62.9429L39.6242 62.983L39.4386 62.839L39.3091 62.6089L39.192 62.2647L39.1796 62.1651L39.2186 61.6985L39.1839 61.5999L39.0566 61.5399L38.9448 61.5303L38.7764 61.4618L38.618 61.365L38.4286 61.1539L38.3526 60.9678L38.306 60.7551L38.2933 58.4245L38.2924 58.2322L38.2181 58.0875L37.9868 58.3087L37.7938 58.2497L37.65 58.2244L37.4885 58.1644L37.3469 58.0927L37.2726 58.0313V58.0304L37.2513 57.947L37.2112 57.866L37.07 57.5818L37.0764 57.5426L37.1304 57.4504L37.1352 57.3997L37.0492 57.248L36.6474 56.8706L36.3954 56.4513L36.3493 56.3199L36.3562 56.2287L36.424 56.0894L36.4305 56.0089L36.4006 55.9578L36.285 55.8357L36.2418 55.7755L36.2229 55.6687L36.231 55.576L36.2133 55.5041L36.1137 55.4599L36.0079 55.4654L35.9647 55.5182L35.9444 55.5937L35.9073 55.6666L35.786 55.7913L35.6892 55.8531L35.5679 55.841L35.3853 55.7437L33.9976 54.5443L33.2712 53.658H33.27L33.0944 53.4733L32.5507 52.7622L32.3324 52.5558L32.0612 52.3759L31.6257 52.1833L31.524 52.1004L31.4468 51.9605L31.3414 51.626L31.2645 51.4815L31.0789 51.2273L30.8632 50.8147L30.5392 50.5147L30.4468 50.2178L30.5462 49.5505L30.5244 49.5061L30.4107 49.2742V49.2727L30.2132 49.1628L30.1561 49.1007L30.1245 49.0145L30.094 48.8143L30.049 48.7175L29.9791 48.6492L29.8331 48.5687L29.765 48.5078L29.6276 48.1975L29.5935 48.1719L29.4984 48.1492L29.4599 48.117L29.4669 48.0967L29.4857 48.0627L29.5029 48.0169L29.5003 47.9634L29.433 47.7245L29.3821 47.6456L29.2543 47.5422L29.0868 47.4734L28.9086 47.4617L28.7579 47.5291L28.7086 47.6105L28.6707 47.8055L28.6365 47.8676L28.5601 47.918L28.5366 47.9084L28.518 47.8716L28.4564 47.8408L28.3243 47.8064L28.1719 47.741L28.0359 47.6445L27.9478 47.5166L27.9423 47.417L27.9963 47.2061L27.9834 47.1084L27.9268 47.0143L27.8893 47.0083L27.8482 47.0367L27.6293 47.0606L27.5422 47.0702L27.454 47.0432L27.3983 46.9916L27.325 46.8554L27.277 46.7933L26.8713 46.5386L26.792 46.4237L26.7865 46.2407L26.8389 46.1242L26.8441 46.0176L26.6986 45.8666L26.4359 45.6734L26.2421 45.4851L26.1518 45.24L26.1958 44.8753L26.3231 44.3872L26.4327 44.1259L26.5541 43.9665L26.6559 43.9529L26.7538 43.9852L26.8374 43.9727L26.8991 43.8258V43.7952V43.6873L26.8439 43.613L26.6621 43.4887L26.4246 43.0896L26.321 43.0568L26.2237 43.07L26.1263 43.097L26.0226 43.1046L25.8202 43.0308L25.4012 42.7838L25.2648 42.7568L25.1232 42.7955L24.959 42.8L24.8126 42.7611L24.7249 42.672L24.6425 42.452L24.4215 42.387L23.9411 42.425L23.8262 42.4121L23.5025 42.3122L23.1607 42.2632L23.0632 42.2272L22.9985 42.1708L22.901 42.0222L22.8571 41.9742L22.7742 41.9438L22.6127 41.9307L22.5281 41.9056L22.4029 41.8189L22.1755 41.5865L22.0558 41.4945L21.7754 41.3411L21.677 41.2499L21.3896 40.8122L21.2878 40.7095L21.148 40.6237L20.9909 40.5822L20.7314 40.6094L20.5826 40.5762L20.4782 40.4952L20.2381 40.1304L20.0974 40.0041L19.9636 39.9396L19.8203 39.893L19.6607 39.8206L19.5303 39.716L19.4223 39.6013L19.3019 39.5077L19.2993 39.5069L19.1318 39.4649L18.8901 39.5368L18.8167 39.4623L18.8158 39.3041L18.7857 39.1283L18.6999 39.043L18.365 38.8103L17.4379 38.3913L17.2661 38.3505L17.0908 38.3596L16.9137 38.4353H16.9035L16.6562 38.2556L16.446 38.1446L16.3872 38.1016L16.3449 38.0394L16.2343 37.8285L16.1015 37.8115L15.9496 37.8156L15.865 37.7752L15.9345 37.6223L16.0454 37.5366L16.3449 37.4047L16.4735 37.3075L16.6383 37.0545L16.7367 36.9695L16.9137 36.9279L17.1032 36.828L17.3012 36.7566L17.4242 36.7418L17.4505 36.775L17.4548 36.7709L17.5196 36.646L17.5475 36.5576L17.5822 36.3529L17.6361 36.2578L17.7198 36.2069L17.8096 36.1869L17.882 36.1482L17.9168 36.0435L17.9156 36.0421L17.8199 35.921L17.7926 35.7755L17.7819 35.6233L17.7283 35.4793L17.6335 35.3992L17.3724 35.2409L17.2757 35.1135L17.1113 34.6513L17.0905 34.5414L17.1388 34.4009L17.2164 34.367L17.3122 34.3947L17.7128 34.6023L17.8717 34.6565L18.043 34.6303L18.1094 34.576L18.1703 34.4437L18.2269 34.3856L18.2692 34.3412L18.4517 34.3388L18.8029 34.2425L19.0432 34.1766L19.1533 34.2726L19.4448 34.3727L19.5972 34.63L19.9866 34.3804L20.138 34.341L20.3055 34.3603L20.403 34.4353L20.4823 34.5452L20.6005 34.6661L20.6705 34.7108L20.8819 34.8049L21.3559 35.0918L21.4975 35.1224L21.6927 35.0997L21.7653 35.0686L21.8939 34.9814L21.9689 34.9571L22.0405 34.9755L22.1839 35.0595L22.2615 35.0512L22.3349 34.9568L22.5998 34.2483L22.6688 34.1307L22.7768 34.0113L22.9079 33.9157L23.0123 33.8871L23.1258 33.8737L23.2842 33.825L23.4844 33.6398L23.6889 33.5474L23.8542 33.4236L23.9383 33.1439L23.9533 32.9965L23.9512 32.9158L23.8895 32.8661L23.7312 32.8128L23.4841 32.797L23.4409 32.7478L23.4932 32.5835L23.6506 32.3828L24.1074 32.1093L24.2961 31.9643L24.3733 31.8405L24.3888 31.7641L24.4289 31.7204L24.5883 31.695L24.8351 31.7239L24.9457 31.707L25.029 31.6339L25.0608 31.6062L25.0919 31.4839L25.0773 31.3749L25.051 31.2669L25.0355 31.1024L25.0121 31.0245L25.0147 30.9698L25.0441 30.9483L25.1585 30.9253L25.1857 30.89L25.1227 30.7502L24.8011 30.5374L24.6884 30.3692L24.6762 30.1695L24.7223 30.0742L24.7142 30.0073L23.9722 29.6009L23.6351 29.6184L23.2574 29.7452L22.9005 29.8183L22.6182 29.6745L22.5845 29.5579L22.5759 29.3771L22.5888 29.1958L22.6208 29.0787L22.6915 29.0245L22.7605 29.0281L22.8253 29.0087L22.8819 28.8878L22.8874 28.8081L22.874 28.7039L22.8485 28.6029L22.8174 28.5321L22.696 28.4359L22.3788 28.3109L22.2441 28.2135L22.0525 27.9454L21.9369 27.8809L20.7412 27.9077L20.4003 27.8219L20.1354 27.6521L20.1906 27.4849L20.6688 27.1554H20.6698L20.8468 26.8062L21.0532 26.9708L21.2716 27.0085L21.4796 26.9431L21.6626 26.7964L22.2023 26.0527L22.2594 25.8425L22.2687 25.8079L22.1478 25.6824L21.6729 25.52L21.2422 25.3114L21.1031 25.1674L21.0238 24.8867L20.9108 24.762L20.74 24.7427L20.5492 24.7477L20.38 24.6958L20.3184 24.6299L20.2503 24.4758L20.2054 24.4099L20.1416 24.3654L20.0109 24.3155L19.9414 24.2675L19.8318 24.1349L19.698 23.8602L19.5984 23.7243L19.5367 23.6712L19.4622 23.6194L19.3798 23.5778L19.3043 23.5532L19.2252 23.5592L19.037 23.6125L18.9787 23.6153L18.9493 23.5704L18.8621 23.386L18.8134 23.3162L18.7513 23.2768L18.5133 23.1887L18.4245 23.1753L18.235 23.1715L18.156 23.1581L18.086 23.1235L17.9598 23.0281L17.9025 22.9966L17.6051 23.0179L17.22 23.4718L16.9145 23.5231L16.817 23.5198L16.7324 23.5415L16.565 23.6172L15.9508 23.816L15.8829 23.859L15.7599 23.9708L15.6851 24.0119L15.6006 24.0188L15.4314 23.9952L15.3387 24.0269L15.257 24.1258L15.1703 24.2926L15.1001 24.4737L15.069 24.6177L15.0872 24.8005L15.1156 24.8867L15.0819 24.9476L14.9131 25.0546L14.8098 25.0912L14.7382 25.1007L14.6863 25.1359L14.6457 25.2532L14.656 25.3377L14.7406 25.5112L14.7449 25.5835L14.6966 25.6277L14.6061 25.6743L14.5043 25.709L14.4283 25.719L14.3368 25.7032L14.3015 25.681L14.2747 25.6454L14.0917 25.4839L13.7688 25.1308L13.6066 25.0367L13.0903 24.9254L13.0898 24.9235L13.0053 24.9197L12.9331 24.8984L12.8667 24.8614L12.802 24.8129L12.7122 24.697L12.5593 24.3984L12.4577 24.2964L12.3421 24.252L12.2982 24.2751L12.2726 24.3315L12.2138 24.3869L12.0438 24.4839L12.0289 24.488L11.8175 24.5475L11.7719 24.5465L11.683 24.5346L11.4504 24.456L10.979 24.2011L10.8431 24.1624L10.7681 24.1698L10.6654 24.2008L10.6049 24.2192L10.5075 24.2173L10.4255 24.1882L10.3132 24.1055L10.243 24.0685L10.158 24.0463L10.007 24.0255L9.9186 23.9858L9.86556 23.9462L9.74254 23.8256L9.50389 23.5253L9.34933 23.2632L9.08941 22.6892L8.90093 22.2859L8.77265 22.1352L8.56338 22.0432L8.44131 22.0599L8.37538 22.0313L8.33572 21.9699L8.29678 21.8894L8.23945 21.7324L8.16085 21.3898L8.1587 21.3808L8.06506 21.2307L7.97954 21.1789L7.9105 21.1756L7.85364 21.1588L7.80276 21.069V20.9825L7.8761 20.8043L7.88613 20.7229L7.84337 20.6168L7.76215 20.521L7.65345 20.4441L7.52875 20.3951L7.34481 20.3882L7.18595 20.4049L7.12026 20.3669L7.21605 20.1961L7.35293 20.0886L7.63554 20.0177L7.7373 19.9145L7.7674 19.7635L7.77433 19.3533L7.80921 19.1699L8.08465 18.7188L8.09492 18.6159L7.9793 18.5927L7.81709 18.6701L7.65011 18.7769L7.52398 18.8376L7.90262 18.2105L8.08298 18.0461L8.3964 17.6536L8.56338 17.4917L8.57031 17.4661L8.57341 17.4405L8.57031 17.4145L8.56338 17.3894L8.48001 17.1926L8.4523 16.9747L8.46018 16.3574L8.44465 16.2537L8.41241 16.1558L8.34384 16.0373L8.3006 16.0206L8.25354 16.0559L7.64796 16.3204L7.50343 16.3311L7.40286 16.2234L7.37563 16.0497L7.40119 15.6914L7.33047 15.2805L7.16565 15.1474L7.01896 15.2893L6.99818 16.0127L6.89808 16.3008L6.70984 16.5433L6.45089 16.716L6.36011 16.7372L5.91865 16.7451L5.88544 16.7642L5.86203 16.7509L5.80063 16.6589L5.74616 16.5187L5.70508 16.3151L5.6874 16.1097L5.72753 15.5822L5.64846 15.2146L5.36371 14.5602L5.10642 14.3433L4.73614 14.2196L4.42009 14.054L4.32263 13.7139L4.33051 13.679L4.34508 13.6465L4.36324 13.6181L4.38689 13.592L4.46023 13.4793L4.3329 13.3656L4.12387 13.2445L3.95283 13.1112L3.89502 13.0096L3.81307 12.786L3.75789 12.6905L3.67978 12.6164L3.41771 12.4576L2.81953 11.8684L2.31668 11.6124L2.15566 11.459L2.10215 11.2782L1.98223 11.1616L1.8377 11.0598L1.71635 10.9241L1.70345 10.8687L1.73116 10.7619V10.7134L1.70393 10.6738L1.63154 10.6188L1.60813 10.5866L1.52452 10.3013L1.47483 10.2118L1.41821 10.0861L1.50326 9.9657L1.65519 9.87373L1.80163 9.83359L1.98557 9.87373L2.12747 9.95137L2.24835 9.96761L2.3592 9.82619L2.40363 9.67163L2.45284 9.36657L2.53669 9.20126L3.57514 8.11503L3.63725 7.99487L3.62172 7.97719L3.58948 7.90242L3.54026 7.84198L3.46215 7.79062L3.40315 7.72468L3.3998 7.62316L3.45713 7.55531L3.54432 7.54695L3.64012 7.55244L3.72636 7.52712L3.82908 7.41007L3.89549 7.26172L3.98221 6.94161V6.94041L4.12506 6.76053L4.33433 6.72971L4.55626 6.80401L4.73543 6.94184L4.82333 7.11599L4.84483 7.28035L4.90217 7.38881L5.09089 7.39669L5.15253 7.35512L5.19098 7.2868L5.23972 7.22588L5.32739 7.20534L5.3649 7.23711L5.4896 7.38068L5.54263 7.42703L5.70794 7.48699L6.0412 7.54695L6.21295 7.61814L6.70722 8.02736L6.8687 8.0952L7.22083 8.17738L7.37491 8.25884L7.48623 8.38975L7.55264 8.54168L7.604 8.70389L7.89139 9.27483L7.96568 9.36633L8.10758 9.43871L8.41623 9.52471L8.68808 9.72466L8.85387 9.79059L9.02181 9.79203L9.15559 9.69814L9.18927 9.55099L9.15392 9.40574L9.14842 9.28296L9.2662 9.20173L9.40093 9.17737L9.54163 9.11478L9.96542 8.81903L9.99647 8.74904L9.98788 8.65659L9.88683 8.52998L9.86533 8.45616L9.96327 8.19291L10.1864 8.01708L10.6871 7.75144L10.8247 7.63486L10.8882 7.54552L11.0342 7.14084L11.3658 6.55508L11.4654 6.53287L11.6541 6.59999L11.7621 6.66306L11.8596 6.74357L11.9446 6.83745L12.0163 6.94256L12.135 7.00897L12.1539 7.13534L12.14 7.29253L12.1565 7.45307L12.2117 7.58039L12.5172 8.09162L12.7313 8.33242L12.834 8.40074L12.9859 8.42511L13.0748 8.37136L13.3416 7.97241L13.3808 7.88784L13.3725 7.81666L13.3278 7.43324L13.3493 7.34581L13.5263 7.12579L13.597 6.98222L13.645 6.84677L13.7076 6.73616L13.8228 6.66354L14.1828 6.45499L14.2795 6.50778L14.8466 7.20438L15.413 7.71895L15.5057 7.82788L15.542 7.90648L15.709 8.17403L15.7647 8.23208L15.8304 8.26338L16.0193 8.47933L16.0681 8.49582L16.2019 8.51254L16.2515 8.53547L16.3196 8.63174L16.4388 8.86084L16.5088 8.90623L16.6366 8.93848L16.7222 9.01277L16.7938 9.09734L16.9147 9.02352L17.0095 8.91602L17.0263 8.79825L17.0112 8.66829V8.52616L17.0487 8.38975L17.16 8.12196L17.1942 7.98364L17.2482 7.43348L17.3306 7.17858L17.5055 6.94328L17.5831 6.86564L17.6827 6.68217L17.7441 6.60382L17.8571 6.52331L17.9589 6.4956L18.2023 6.47553L18.9128 6.22016L19.1459 6.22589L19.0786 6.40339L19.0422 6.59689L19.0501 6.79158L19.1096 6.97147L19.2154 7.09593L19.6743 7.31021L19.8483 7.4201L19.973 7.47576L20.1008 7.45522L20.1545 7.41986L20.8819 6.94328L21.046 6.76483L21.5864 6.3162L21.7357 6.14897L21.7551 6.11983L21.8289 6.13488L21.8315 6.17597L21.8193 6.22542L21.8478 6.26579L21.8965 6.29923L21.9297 6.33531L21.9694 6.36612L22.0463 6.38428L22.095 6.36469L22.18 6.2634L22.225 6.23808L22.3855 6.25814L22.6669 6.34725L22.8379 6.33602L22.9846 6.28108L23.1065 6.20105L23.214 6.09212L23.5035 5.6786L23.5981 5.57444L24.0107 5.32146L24.047 5.23044L24.0391 5.04793L23.7961 3.85659L23.9091 3.76008L24.1134 3.72759L24.3253 3.54747L24.3606 3.42134L24.3709 3.27609L24.3986 3.14829L24.4889 3.07399L24.605 3.08642L24.8243 3.21876L24.9418 3.23238L25.0264 3.18197L25.3291 2.90462L25.6153 2.75508L25.8737 2.57328L25.9941 2.52216L26.6735 2.32866L26.7029 2.30191L26.7185 2.26392L26.74 2.22881L26.7839 2.20969L26.8073 2.21949L26.869 2.26679L26.8952 2.27706L26.959 2.29235L27.0078 2.32269L27.0672 2.34299L27.1618 2.32651L27.3009 2.22331L27.3539 2.07472L27.3854 1.90248L27.4545 1.72833L27.5347 1.63373L27.8231 1.37358L27.937 1.30359L28.0916 1.30789L28.1578 1.41228L28.1936 1.57234L28.2595 1.74314L28.358 1.86832L28.4884 1.98323L28.6226 2.07472L28.7378 2.12991L28.8181 2.13492L28.8811 2.11151L28.9463 2.10243L29.0417 2.15045L29.083 2.19966L29.1926 2.40487L29.3627 2.76129L29.442 2.86568L29.8037 3.10887L29.8386 3.15068L29.8966 3.21996L29.9513 3.39482L29.9547 3.73309L29.9552 3.77776L29.992 3.94689L30.0911 4.09023L30.2115 4.14087L30.8032 4.16596L31.0381 4.2381L31.2499 4.23261L31.3367 4.28851L31.495 4.45382L31.5947 4.50255L31.6917 4.53384L31.7874 4.58019L31.8801 4.67288V4.67431L31.8818 4.67574H31.8828L31.9931 4.84846L32.4635 5.38262L32.6154 5.49681L32.6854 5.46862L32.7217 5.40244L32.7511 5.32958L32.8003 5.28276L32.8892 5.26914L33.0316 5.30784L33.1111 5.31788L33.3753 5.28778L33.5122 5.24502L33.6188 5.17693L33.7525 4.89815L33.8297 4.85491L34.484 4.80355L34.9393 4.85826L35.2561 4.93972L35.5263 5.11219L35.6985 5.42609L35.7327 5.75982L35.7905 5.86589L35.9692 5.94926L36.1462 5.98199L36.3115 5.98127L36.4725 5.95691L37.6612 5.63823L37.7929 5.56441L37.8282 5.3604L37.9102 5.30761L38.022 5.34129L38.1536 5.39814L38.5714 5.50373L38.6944 5.58089L38.778 5.71133L38.8402 5.85538L38.9338 5.96527L39.1206 5.99489L39.1801 5.96073L39.2475 5.83746L39.3218 5.81023L39.4106 5.83244L39.4684 5.88715L39.5583 6.00731L39.8069 6.20774L39.9417 6.44328L39.9362 6.46574L40.0592 6.4698L40.2544 6.45141L40.4331 6.4698L40.5074 6.5859L40.4469 6.69674L40.171 6.85895L40.0721 6.94829L40.0131 7.10739L39.9794 7.39143L39.9047 7.55555L39.725 7.83768L39.6634 7.97552L39.5172 8.44063L39.4145 8.53404L39.2346 8.53691L39.0986 8.43442L39.0105 8.27867L38.9111 8.16424L38.747 8.18431L38.6565 8.29706L38.5865 8.48459L38.3953 9.40742L38.3578 9.48219L38.2654 9.61764L38.237 9.71702V9.81186L38.2881 10.0316L38.3005 10.0849L38.3172 10.4191L38.3612 10.5586L38.4742 10.6771L38.6588 10.7438L38.9916 10.76L39.1292 10.8804L39.1784 10.9956L39.3726 11.6578L39.3528 11.7469L39.28 11.8173L39.1784 11.9502L39.2009 12.0835L39.2534 12.1833L39.3155 12.2726L39.359 12.377L39.3602 12.4423L39.3344 12.5885L39.337 12.662L39.359 12.7105L39.4319 12.7999L39.4496 12.8371L39.4565 13.0751L39.4137 13.286L39.2494 13.711L39.2489 13.7872L39.2611 13.8725L39.2905 13.9506L39.3392 14.0055L39.4699 14.011L39.5962 13.9148L39.8686 13.6076L39.9221 13.5954L40.0372 13.6355L40.0855 13.6709L40.1507 13.765L40.1913 13.8051L40.3626 13.8954L40.5093 13.9172L40.8554 13.9083L41.0578 13.9583L41.1588 14.055L41.23 14.1811L41.3423 14.3211L41.5222 14.4184L41.6672 14.3909L41.8009 14.3099L41.9469 14.2485L42.1196 14.2528L42.2656 14.324L42.3561 14.4547L42.364 14.6408L42.2864 14.791L42.1669 14.9236L42.0802 15.0679L42.0967 15.253L42.2118 15.3763L42.3857 15.4343L42.7376 15.5086L42.9799 15.6601L43.6273 16.2349L43.9595 16.323L44.2245 16.2339L44.4648 16.2055L44.7199 16.4716L44.9409 17.1245L44.9736 17.1563L45.0955 17.2745L45.3855 17.0989L45.6117 16.8608L45.746 16.8008L45.9122 16.8467L46.0049 16.9854L46.0381 17.3013L46.1447 17.3533L46.2901 17.4114L46.3747 17.4346L46.4459 17.4322L46.5161 17.382L46.5852 17.2389L46.6396 17.1907L46.7894 17.1711L47.1392 17.2179H47.3092L47.7992 17.1097L47.9528 17.0461L48.2801 16.8015L48.4086 16.7513L48.5364 16.7454L48.6848 16.7654L48.9667 16.8388L49.1399 16.915L49.2024 17L49.2409 17.1113L49.3329 17.2654L49.4351 17.3653L49.6726 17.543L49.9635 17.8591L50.0739 17.8901L50.4666 18.2953L50.2892 18.3839L50.1105 18.5705L49.9528 18.6816L49.8386 18.5399L49.8405 18.4515L49.8821 18.3927L49.9303 18.3521L49.9528 18.3204L49.9432 18.2513L49.9222 18.2031L49.9005 18.167L49.8902 18.1388L49.8611 18.0091L49.7856 17.9283L49.6776 17.883L49.5539 17.8603L49.5694 17.926L49.5598 17.9639L49.4965 18.044H49.4408L49.394 17.8949L49.3369 17.9783L49.2696 18.2281L49.1697 18.2709L49.1107 18.2117L49.0863 18.0855L49.0926 17.9267H49.0417L48.9784 17.9826V18.044L49.0152 18.0824L49.028 18.1101L49.0417 18.2281H48.9784L48.9275 18.1054L48.8704 18.1722L48.8384 17.9914L48.7316 17.9479L48.5928 17.985L48.4705 18.0442V18.1056L48.605 18.1044L48.7056 18.1388L48.7741 18.2162L48.8073 18.3447L48.6931 18.295L48.7115 18.3536L48.7354 18.4814L48.7557 18.5397L48.6659 18.5382L48.5985 18.5638L48.5503 18.6085L48.523 18.6625L48.5787 18.7179L48.4394 18.9632L48.2873 18.9577L48.2132 18.9661L48.1793 18.9967L48.1303 19.0733L48.0183 19.0781L47.9019 19.0344L47.8382 18.9632H47.7756L47.7505 19.0026L47.724 19.0301V19.086L47.7789 19.1945L47.7285 19.2606L47.6184 19.2716L47.4913 19.2143L47.5104 19.2635L47.5097 19.2843L47.5145 19.2996L47.5524 19.3306V19.3977L47.4839 19.4353L47.4595 19.472L47.482 19.5179L47.5527 19.5815L47.4977 19.5896L47.3773 19.6421L47.4105 19.6581L47.422 19.6567L47.4261 19.6634L47.439 19.7035L47.4003 19.6854L47.267 19.6424L47.2283 19.8667L47.1922 19.9718L47.12 20.0155L46.9793 20.0079L46.8835 19.9782L46.815 19.9202L46.7553 19.8261L46.7192 19.7224L46.7008 19.6257L46.6573 19.5537L46.5501 19.5253L46.5474 19.5633L46.5806 19.6519L46.6045 19.7523L46.574 19.8261V19.8927L46.6767 19.9431L46.5864 19.9716L46.4015 19.9749L46.2316 19.9486H46.212L46.1318 19.9274L46.0441 19.8774L46.0032 19.7962L45.9543 19.7769L45.6566 19.7035L45.6043 19.8261L45.6628 19.8841L45.8891 20.0155V20.0714L45.7259 20.1436L45.4588 20.1362L45.257 20.1992V20.2601L45.3059 20.3285L45.2856 20.3789L45.2352 20.4302L45.1999 20.5052L45.1855 20.8294L45.1475 20.9333L45.212 20.9859L45.2842 21.0217L45.359 21.0275L45.4323 20.9947L45.3814 21.3963L45.3243 21.608L45.1999 21.7336L45.2474 21.8108L45.257 21.8609L45.2242 21.892L45.1473 21.9116L45.18 22.0449L45.1977 22.1782L45.2309 22.2864L45.3138 22.3447V22.4008L45.1753 22.5114L45.0924 22.5585L44.976 22.5953L44.7856 22.6003L44.6294 22.606L44.5226 22.65L44.4132 22.6089L44.2364 22.6199L44.0596 22.6631L43.9517 22.7166L43.9944 22.7348L44.0217 22.7527L44.057 22.7668L44.1182 22.7723V22.8335L43.9822 22.8688L43.8028 23.0704L43.8334 23.2052L43.707 23.2133L43.6153 23.2417L43.5317 23.252L43.4338 23.2054V23.2666L43.3052 23.1414L42.8974 23.0824L42.7398 23.0169V22.9615L42.9832 22.6433L43.4338 22.3447V22.2842L43.3236 22.2919L43.2156 22.3141L43.1179 22.3533L43.0358 22.4027L42.9983 22.461L42.9861 22.5236L42.9615 22.5757L42.8888 22.5972L42.8556 22.568L42.8664 22.5035L42.897 22.4376L42.9173 22.4027L42.8805 22.3793L42.8771 22.3722L42.8602 22.3466L42.7928 22.4966L42.7173 22.5659L42.6705 22.5255L42.6889 22.3468H42.6318L42.6359 22.4436L42.6277 22.5274L42.6082 22.5965L42.5749 22.6521L42.5812 22.5243L42.562 22.4249L42.5064 22.3616L42.4037 22.3468V22.403L42.4328 22.43L42.4789 22.4904L42.5176 22.5301L42.4911 22.5334L42.4034 22.5301L42.5176 22.6524L42.3994 22.6512L42.3198 22.6108L42.171 22.4691L42.1514 22.5922L42.3635 22.7713L42.4037 22.897L42.3296 23.0284L42.1977 23.0874L42.0401 23.0977L41.8858 23.086L41.7465 23.0587L41.6208 23.0129L41.5148 22.956L41.4292 22.897L41.2259 22.7102L41.1321 22.6753L41.0824 22.7747L41.0496 22.7248L41.0217 22.7114L40.9679 22.7188L41.2107 23.0026L41.3146 23.0855L41.4906 23.176L41.5382 23.2071L41.5721 23.2668L41.5898 23.3404L41.6244 23.408L41.7142 23.4517V23.5124L41.498 23.5076L41.3683 23.4734L41.2826 23.3824L41.2004 23.2071H41.1392L41.1495 23.2871L41.1739 23.354L41.2066 23.4085L41.2534 23.4515L41.0862 23.6982L41.0188 23.6385L40.955 23.4543L40.7967 23.3291L40.8253 23.283L40.815 23.2699L40.7967 23.2071H40.7396L40.569 23.257L40.3786 23.1631L40.2888 23.0303L40.4254 22.9634L40.5764 22.9536L40.66 22.9228L40.6913 22.8643L40.6825 22.7747L40.6261 22.7336L40.5391 22.6927L40.5078 22.6323L40.6206 22.5301L40.5661 22.4722L40.5028 22.4278L40.4295 22.4035L40.3397 22.4032L40.3581 22.4343L40.3784 22.5009L40.3968 22.5303L40.2044 22.5129L40.0685 22.4302L39.9407 22.3829L39.7694 22.4696V22.5305H39.832V22.5979L39.5193 22.4672L39.3385 22.4278L39.1999 22.4696L39.2721 22.489L39.2883 22.4933L39.5411 22.5977V22.6526L39.4854 22.633L39.3141 22.5977V22.6526L39.3956 22.7346L39.4254 22.8292L39.4417 22.9266L39.4852 23.0191L39.5721 23.0731L39.7828 23.0833L39.9651 23.1669L40.0683 23.1657L40.1438 23.1997L40.1744 23.358L40.1567 23.4737L40.0778 23.5914L40.0547 23.6963H40.0031L39.8318 23.5131L39.683 23.6987L39.7463 23.806L39.908 23.8896L40.0549 24.0016L40.1256 24.2083L40.0943 24.3996L39.989 24.4832L39.832 24.3683L39.8891 24.5277L40.0047 24.709L40.1481 24.8743L40.2888 24.9837L40.3397 24.9173L40.4252 25.0589L40.568 25.5319L40.3946 25.4006L40.3191 25.3217L40.2885 25.2606L40.2436 25.2116L40.1478 25.2486L40.058 25.3141L40.0294 25.3497L39.956 25.3621L39.8968 25.3874L39.8246 25.4091L39.7171 25.4106L39.4785 25.3437L39.3705 25.3494V25.4103L39.5786 25.498L39.7071 25.5852L39.7092 25.6915L39.5406 25.8368L39.4297 25.8984L39.2993 25.9488L39.1612 25.9732L39.0227 25.9579L38.9505 25.907L38.8323 25.7319L38.7372 25.6588L38.7862 25.7942L38.7943 25.8067L38.8425 25.8807L38.967 26.0245L39.0098 26.0575L39.0485 26.0556L39.075 26.0752L39.0853 26.171L39.0771 26.2226L39.0547 26.2713L39.026 26.309L38.8875 26.3623L38.7018 26.5341L38.1674 26.75L38.3144 26.8332L38.4355 26.8262L38.6801 26.6946V26.75L38.5781 26.8934L38.6378 27.0197L38.7181 27.1507L38.6801 27.3093L38.6285 27.3193L38.392 27.4041L38.3676 27.4249L38.3213 27.4536L38.2616 27.5216L38.2066 27.6036L38.1679 27.6741H38.2195L38.3311 27.5945L38.5282 27.5159L38.7164 27.4913L38.8 27.5773L38.7694 27.9645L38.7157 28.1688L38.6232 28.2878L38.5812 28.2022L38.5676 28.1609L38.5702 28.1951L38.5614 28.2168L38.5418 28.2254L38.5105 28.2213L38.6615 28.3726L38.6791 28.4504L38.7124 28.5594L38.7267 28.6991L38.7515 28.8685L38.7859 29.1167L38.6947 29.2168L38.5103 29.0178L38.43 28.907L38.3213 28.8164L38.1935 28.778L38.0494 28.8243H37.9964L38.0373 28.8931L38.0535 28.9206L38.1209 28.9473L38.1842 28.9117L38.2195 28.8241L38.418 28.9736L38.4534 29.0176L38.4806 29.0959L38.5666 29.2443L38.6168 29.3726L38.5941 29.5032L38.4658 29.5684L38.3552 29.5558L38.2573 29.5885L38.0537 29.6363L37.7883 29.653L37.6804 29.6812L37.1359 29.7471V29.6812H37.193V29.6258L37.1333 29.632L37.0953 29.643L37.0165 29.6814V29.7474L37.0769 29.8104L37.0198 29.8587L36.8452 29.9301L36.7874 29.9946L36.6794 30.2335L36.3884 30.6016L36.2062 30.7259L36.0022 31.0226L35.8091 31.1406L35.6066 31.379L35.4821 31.4538L35.5602 31.2562L35.5963 31.2106L35.5344 31.1446L35.4733 31.2698L35.3741 31.535L35.3068 31.6351L35.1804 31.7084L34.8725 31.7889L34.731 31.8778L34.6835 31.7447L34.7093 31.6031L34.7623 31.4475L34.7929 31.271H34.731L34.7052 31.4136L34.5789 31.7992L34.5339 31.878L34.4116 31.847L34.2771 31.7689L34.163 31.6697L34.1032 31.5742H34.0469L34.0019 31.691L33.9061 31.8028L33.5392 32.142L33.4659 32.2292L33.415 32.3637V32.4482L33.4742 32.587L33.4764 32.6719L33.301 32.9146L33.2705 33.0464L33.2719 33.2954L33.2432 33.3997L33.2174 33.3661L33.1298 33.2782L33.0767 33.3711L32.9578 33.4559L32.7301 33.5813L32.7824 33.6477L32.8933 33.5949L33.1319 33.5696L33.2435 33.5204L33.1974 33.6377L33.0478 33.8417L33.0158 33.98L32.9628 34.0409L32.8445 34.0338L32.7263 34.0431L32.6732 34.1594L32.6345 34.3044L32.447 34.6014L32.3837 34.7425L32.3682 34.8811L32.3667 35.1264L32.3259 35.227L32.3137 35.0283L32.1995 35.0015L32.0908 35.0863L32.0982 35.227L32.1314 35.1654L32.1919 35.0911L32.2122 35.04L32.2549 35.1207L32.2767 35.2079L32.2815 35.3027L32.2896 35.3438L32.3257 35.3481L32.3283 35.6783L32.2344 36.351L32.2731 36.684L32.1549 36.6183L32.0407 36.8601L31.9265 36.8049V36.8601L32.0211 36.9389L32.0571 37.039L32.098 37.2884L32.2509 37.5841L32.2733 37.7119L32.098 37.5908L32.1183 37.6773L32.1551 37.7774L32.2162 37.7549L32.2571 37.7774L32.2401 37.9496L32.2191 38.0015L32.2122 38.0194L32.1463 38.0633L32.0715 38.0676L32.0082 38.0848L31.9356 38.3404L31.8288 38.3462L31.7139 38.3292L31.6943 38.3763L31.5923 38.9219L31.5808 39.2434L31.6412 39.4678L31.4298 39.5724L31.3484 39.6266L31.2946 39.7093L31.0669 39.6347L30.8625 39.8483L30.7041 40.1744L30.6157 40.4384L30.6076 40.5537L30.6525 40.6352L30.6728 40.71L30.6823 40.8275L30.7442 41.112L30.787 41.2224L30.8997 41.3734L31.0806 41.5303L31.2858 41.6553L31.4707 41.7102V41.7652L31.3558 41.8906L31.3211 41.8122L31.2722 41.7544L31.2055 41.72L31.1233 41.7102L31.2132 41.9157L31.2375 41.9565L31.2925 41.9737L31.4372 41.9594L31.4991 41.9837L31.6737 42.1777L31.7655 42.3124L31.8123 42.4383L31.6878 42.8022L31.7246 42.8595L31.8001 42.9326L31.813 43.1001L31.7886 43.2826L31.7554 43.4013L31.9164 43.3239L31.915 43.1168L31.8892 42.5829L31.8696 42.553L32.0287 42.6564L32.081 42.908L32.0906 43.1641L32.1267 43.2807L32.1838 43.3779L32.3837 44.0083L32.829 44.7393L33.13 45.0726L33.4155 45.0907L33.4379 45.2548L33.4936 45.4292L33.5684 45.5862L33.6479 45.6975L33.8416 45.8444L33.905 45.9053L34.2196 46.3122L34.6572 46.6836L34.7571 46.811L34.774 46.9223L34.6176 46.9588L34.6997 47.0221L34.8404 46.9932L35.0213 46.9321L35.2217 46.8989L35.3502 46.9505L35.7886 47.2921L35.8464 47.3251L36.0272 47.3924L36.0994 47.4397L36.3333 47.7453L36.6125 47.9574L36.7274 48.0673L36.7941 48.2257H36.7329L36.6515 48.1731L36.5442 48.196L36.4477 48.2653L36.3961 48.3504L36.5048 48.4053L36.5416 48.3778L36.5721 48.3654L36.6801 48.3504L36.6312 48.4548L36.6474 48.5391L36.7332 48.7106L36.7353 48.6019L36.7597 48.4982L36.7984 48.4103L36.8459 48.3501L36.9343 48.305L36.9888 48.3238L37.0459 48.3556L37.1369 48.3499L37.2076 48.3L37.3653 48.105L37.4692 48.1476L37.457 48.2376L37.3653 48.4051L37.4102 48.5924L37.5041 48.7761L38.1689 49.6103L38.2205 49.6752V49.7295L38.0478 49.8415L37.8832 49.9748L37.7988 50.0852L37.7303 50.1967L37.6385 50.2703L37.4795 50.2689V50.3346L37.5712 50.3554L37.6044 50.4117L37.5915 50.4913L37.5365 50.5794L37.6113 50.7407L37.6854 50.9934L37.7635 51.4423L37.8055 51.5405L37.9747 51.7075L37.9971 51.7717L37.9257 51.8424L37.834 51.8343L37.5853 51.7249L37.4751 51.5195L37.3934 51.4726L37.2671 51.4531L36.9654 51.2928L36.3985 51.2347L36.2762 51.1791L36.2191 51.233L36.3388 51.3193L36.5332 51.3964L36.7351 51.4514L37.0165 51.4848L37.4224 51.5923V51.6575H37.3653L37.2002 51.589L37.037 51.6972L37.0084 51.8759L37.2511 52.0164L37.2035 51.9108L37.1804 51.8725L37.1369 51.8372L37.3244 51.7517L37.5955 51.7894L37.8655 51.8964L38.0504 52.0164L38.1381 52.1291L38.3399 52.5008L38.5642 52.7591L38.972 53.4542L39.0659 53.7352L39.1381 53.8773L39.1701 53.8904L39.3351 54.023L39.3433 54.0565L39.38 54.0799L39.4861 54.2352L40.2181 55.0579L41.7441 56.1962L42.2525 56.5736L43.1239 57.2198L43.2524 57.469L43.2028 57.829L43.2973 57.905L43.7481 58.5638L43.8664 58.6348L43.8929 58.6959L43.8664 58.7392L43.8071 58.7671L43.7481 58.8065L43.7216 58.8801L43.6719 58.9167L43.3743 59.0858V59.1455L43.5871 59.1465L43.6851 59.1297L43.7789 59.0858L43.7892 59.0454L43.777 58.9847L43.773 58.931L43.924 58.8206L43.9987 58.7948L44.0565 58.8524L44.1062 58.9319L44.1497 58.9721L44.2727 59.0385L45.3535 59.9692L45.6287 60.173L46.3484 60.705L47.2409 61.5186L47.4965 61.5925V61.6574L47.169 61.5638L46.1468 61.0179L45.8938 61.0626L46.5321 61.425L46.734 61.4761L46.8257 61.5105L46.9012 61.6319L46.9896 61.6553L47.0868 61.6407L47.1542 61.5925L47.2154 61.6854L47.2949 61.7489L47.4968 61.8361V61.9011L47.407 61.855L47.3826 61.8361H47.3241L47.3064 61.8655L47.2928 61.8939L47.2725 61.9606L47.3948 61.9656L47.509 61.9529L47.7292 61.9011L47.6783 61.9565L47.6415 62.0153L47.6177 62.0834L47.611 62.166L47.6415 62.1572L47.702 62.2384L47.7476 62.3366L47.7292 62.377L47.8107 62.3767L47.8534 62.3409L47.884 62.2855L47.9261 62.2255L48.013 62.1777L48.0634 62.2274L48.0973 62.3132L48.1327 62.377L48.4509 62.5946L48.5283 62.6744L48.7199 62.9837L48.8721 63.0869L49.0529 63.3325L49.2161 63.3999L49.1969 63.4255L49.152 63.4484L49.0971 63.4529L49.0433 63.4281L48.991 63.3877L48.9299 63.3504L48.8436 63.3337L48.826 63.4044L48.932 63.8961L48.9748 63.9792L49.0734 64.0518L49.2746 64.1662H49.3317L49.4072 64.1132L49.4786 64.1299L49.5316 64.1937L49.5589 64.285L49.6358 64.2319L49.6786 64.285L49.9843 64.047L50.0211 63.989L49.9662 63.7162L49.958 63.6309L50.0851 63.5994L50.4631 63.8784L50.6432 63.9283L50.7146 63.8748L50.7533 63.7948L50.8023 63.7221L50.9021 63.6904L50.9091 63.7468L50.99 64.047L51.0593 64.1963L51.3326 64.6464L51.094 64.4663L50.9776 64.4238L50.9279 64.5518L50.9939 64.6509L51.1441 64.7121L51.3004 64.7303L51.3895 64.7004H51.4466L51.5983 64.7685L51.8063 64.8163L52.0361 64.8358L52.2502 64.8189L52.2148 64.8636L52.1238 64.9775L51.8336 65.2178L51.7316 65.4132L51.7363 65.6655L51.8792 65.8014L52.0634 65.9089L52.1931 66.0774L52.323 65.9486L52.389 65.9068L52.4501 65.923L52.5201 66.224L52.5359 66.2496L52.4917 66.3807L52.4055 66.5043L52.2987 66.6051L52.1933 66.6708L52.3503 66.6208L52.5032 66.5348L52.6303 66.5009L52.7065 66.6113L52.6248 66.165L52.5643 66.0449L52.5555 65.9166L52.6126 65.7584L52.6092 65.6321L52.4217 65.597V65.5322L52.4876 65.4835L52.5366 65.4278L52.5705 65.3647L52.593 65.2948L52.6541 65.3217L52.6663 65.3416L52.6725 65.3387L52.7065 65.2948H52.7636L52.8369 65.369L52.9348 65.4469L53.0538 65.5078L53.1945 65.5322L53.2014 65.4902L53.2538 65.4092L53.3116 65.3528L53.3395 65.386L53.355 65.4185L53.4537 65.532L53.3598 65.613L53.2681 65.6681L53.1967 65.7314L53.168 65.8344L53.0906 65.7713L52.8785 65.816L52.7636 65.7694L52.7031 66.086L52.7595 66.4288L52.8751 66.7405L52.9016 66.7892L52.9967 66.9667L53.0987 67.0919L53.5392 67.4376L53.6697 67.4997L53.786 67.5855L53.8527 67.7376L53.7616 67.7546L53.6936 67.7952L53.6773 67.8365L53.7385 67.8564L53.7874 67.827L53.846 67.7687L53.9071 67.7243L53.9676 67.7376L54.0084 67.8542L54.0858 68.3898L54.3469 68.8994L55.7112 70.7882L55.9417 70.9215L56.2523 70.8876L56.1775 71.1334L56.1211 71.192L56.0253 71.0706L55.9274 71.1014L55.801 71.1585L55.7303 71.2605L55.797 71.4256L55.9941 71.5723L56.1274 71.4939L56.3149 71.1246H56.3665L56.4128 71.3023L56.4238 71.5171L56.4702 71.5816L56.6701 71.7529L56.715 71.81L56.7544 71.8448L56.9054 71.938L56.9422 71.9612L57.0007 72.0226L57.0143 72.1241L57.0036 72.2271L57.0062 72.3303L57.0578 72.4313L57.0272 72.4758L57.0158 72.5025L57.0007 72.5546H57.0578L57.07 72.5056L57.119 72.3771L57.1775 72.3874L57.2454 72.3905L57.4044 72.3771V72.3179L57.1952 72.2858L57.1312 72.1318L57.1897 71.9507L57.3474 71.8396V71.7803L57.297 71.755L57.2738 71.7299L57.2274 71.6566L57.2927 71.6893L57.349 71.7039L57.3999 71.6936L57.4556 71.6566L57.4991 71.7878L57.5521 72.1303L57.6058 72.2001L57.6711 72.2318L57.8729 72.3933L57.9178 72.4609L57.9028 72.7815L57.9491 72.8936L58.1624 73.0902L58.2645 73.1516L58.3297 73.1728L58.4412 73.1819L58.4928 73.2051L58.4255 73.3207L58.3364 73.4046L58.2262 73.4485L58.0889 73.4418V73.5058L58.1725 73.498L58.2248 73.5078L58.252 73.5465L58.2642 73.6239L58.1445 73.5591L58.1066 73.6573L58.0807 73.9108L58.042 74.0376L57.9076 73.9803L57.7955 73.9886L57.748 74.0505L57.8091 74.1554H57.8607L57.9286 74.1243L57.9967 74.1468L58.0401 74.2173L58.0423 74.3326H58.0891L58.0932 74.2607L58.1054 74.2072L58.1448 74.1009L58.2217 74.8694L58.4173 75.5462L58.9434 76.7631L58.7754 76.7817L58.8149 76.8333L59.0005 76.9081L59.0365 76.985L59.2052 77.2392L59.2597 77.2941L59.5716 77.7072L59.6158 77.8295L59.6906 78.243L59.6206 78.2093L59.5697 78.1563L59.5351 78.0861L59.5425 78.1995L59.5798 78.77L59.624 78.8589L59.6335 78.9179L59.6158 78.9523L59.537 78.9487L59.4902 79.0399L59.4352 79.0808L59.4066 79.1384L59.457 79.2504L59.5115 79.0798L59.5189 79.0101L59.8003 79.7858L59.9472 79.9869L59.9845 80.1059L59.9756 80.5734L59.9926 80.6938L60.0368 80.8369L60.1469 81.0817L60.4121 81.3722L60.4888 81.4886L60.5222 81.607L60.5771 81.9644L60.4914 82.098L60.6111 82.3944L60.8932 82.8519L60.7362 82.8325L60.6729 82.7513L60.6321 82.6455L60.5463 82.5523L60.354 82.5155L60.3385 82.6491L60.4343 82.8237L60.6932 82.9678L60.7795 83.102L61.0071 83.7164L61.1213 84.6796L61.1947 84.8L61.4156 84.9799L61.4639 85.0611L61.4061 85.737L61.4352 86.0683L61.3667 86.0998H61.1498L61.1299 86.0079L61.1782 85.5071L61.064 85.0814L60.9966 84.9357L60.8927 85.0318L60.8688 85.1192L60.8356 85.4429L60.7494 85.6044L60.7398 85.6653L60.8356 85.6247L60.8968 85.8242L60.952 85.8934L61.0592 85.913L60.966 86.0153L60.8621 86.0958L60.7859 86.2033L60.7737 86.3879L60.8743 86.5814L60.8762 86.5903L60.8925 86.6521V86.8896L60.9123 87.0592L60.9639 87.2424L61.0442 87.3894L61.1495 87.4498L61.1557 87.4875L61.2556 87.5652L61.3664 87.6292L61.4058 87.6256L61.4345 87.7056L61.4312 87.7623L61.3862 87.794L61.2917 87.8017V87.8604L61.3284 87.8965L61.3413 87.9228L61.3535 88.036L61.2821 87.9615L61.0965 87.6347L61.0088 87.4235L60.7845 87.1634L60.7212 87.0339H60.66L60.6512 87.1727L60.6968 87.2338L60.7682 87.2694L60.8356 87.332L60.8772 87.4254L60.9111 87.596L60.945 87.6844L61.0537 87.783L61.1299 87.8268L61.1211 87.8779L61.0884 87.9192L61.0592 87.9132L61.117 88.0054L61.2917 88.2173H61.3535L61.3855 88.1703L61.4168 88.1461L61.5207 88.1001L61.4921 88.1839L61.4207 88.2835L61.4058 88.359L61.4331 88.4694L61.5038 88.5403L61.5962 88.5561L61.6913 88.505L61.7334 88.5931L61.6634 88.708L61.6913 88.8041L61.6103 88.9636L61.5566 89.037L61.4634 89.0967L61.3949 89.0052L61.214 88.9696L61.1779 88.8886L61.2188 88.8296L61.3065 88.7928L61.3867 88.7393L61.4058 88.6282L61.3554 88.5699L61.0891 88.3881L61.0088 88.3936L60.9436 88.4237L60.8884 88.4961L60.8354 88.6282L60.8803 88.6985L60.86 88.7656L60.8559 88.8368L60.945 88.9213L60.8805 88.9827L60.8519 89.0687L60.8356 89.214L60.979 89.2864L61.1211 89.483L61.2353 89.5606L61.327 89.472L61.3963 89.4584L61.4637 89.5606L61.4758 89.6576L61.4493 89.7226L61.3855 89.7536L61.2917 89.7469V89.7997L61.3332 89.8384L61.3542 89.8876L61.3612 89.951L61.3538 90.0343L61.3129 90.0033L61.219 89.9543L61.1782 89.9221L61.1395 89.9975L61.1211 90.0028L61.0592 90.0343L61.1734 90.3286L61.2475 90.4512L61.3535 90.5668L61.3413 90.2983L61.3705 90.1946L61.4637 90.1516V90.0981L61.4269 90.0322L61.4331 89.9861L61.4684 89.9808L61.5207 90.0343L61.5535 90.1086L61.5697 90.1889L61.5778 90.365L61.5595 90.4302L61.4637 90.6253L61.4656 90.7111L61.5205 90.8888L61.5002 91.0281L61.4601 91.16L61.4369 91.2947L61.4634 91.4454L61.532 91.562L61.6134 91.6698L61.6638 91.784L61.6388 91.8604L61.7455 91.9294L61.8148 92.0009L61.9875 92.3136L62.2092 92.5627L62.3736 92.8286L62.7236 93.2374L62.7799 93.3293L62.799 93.4633L62.7909 93.6236L62.7625 93.7679L62.7231 93.8558L62.6851 93.8726L62.537 93.9158L62.4954 93.9137L62.4744 93.8537L62.5179 93.8133L62.5776 93.7806L62.6089 93.744L62.628 93.7089L62.6552 93.6731L62.6464 93.6435L62.5566 93.627L62.3812 93.744L62.3547 93.7882L62.3031 93.922L62.2663 93.9729L62.1978 94.0011L62.1249 94.0054L62.1086 94.0092L62.0508 94.0223L61.9768 94.0892L62.0324 94.1599L62.0406 94.2627L62.0339 94.3826L62.0387 94.5039L62.4104 95.2306L62.5396 95.3771L62.666 95.3809L62.8174 95.4958L62.842 95.5295L62.8217 95.5961L62.7728 95.6196L62.7157 95.6348L62.666 95.6788L62.6461 95.8064L62.6748 96.1561L62.666 96.2631L62.5735 96.3157L62.4873 96.2192L62.3812 95.9659L62.3485 95.9249L62.3091 95.9036L62.2778 95.8618L62.2642 95.7691L62.29 95.7531L62.4362 95.6184V95.5651L62.2642 95.2672L62.2486 95.3484L62.2018 95.3902L62.1297 95.4007L62.0365 95.3842L62.0692 95.4604L62.0807 95.5328L62.0692 95.6057L62.0365 95.6819L61.9875 95.5952L61.9304 95.5343L61.8531 95.5015L61.751 95.5013L61.902 95.2856L61.9223 95.2409L61.9584 95.2158L62.0365 95.186L62.1146 95.1387L62.1507 95.0603L62.1216 94.9241L61.9753 94.7297L61.9223 94.6243V94.3639L61.8917 94.3262L61.7993 94.3475L61.7706 94.4005L61.7599 94.4681L61.7205 94.5336L61.4328 94.724L61.3514 94.7999L61.1455 95.0543L61.0272 95.1673L60.9171 95.2146L60.8449 95.2703L60.6056 95.6184L60.6029 95.6998L60.6316 96.0323L60.5683 96.0904L60.5757 96.2215L60.6056 96.3601V96.4413L60.6295 96.4499L60.6498 96.4497L60.6612 96.4602L60.6579 96.4999H60.719L60.7477 96.4124L60.762 96.3128L60.7974 96.2335L60.8906 96.2075V96.1549H60.8335V96.0904L60.9742 96.1394L60.9579 96.2552L60.8805 96.3969L60.8337 96.5257L60.8753 96.6802L60.9773 96.7896L61.3865 97.0593L61.43 97.1308L61.3456 97.3068L61.3523 97.3923L61.3877 97.4626L61.4333 97.4917L61.5563 97.5362L61.7066 97.6391L61.784 97.7574L61.6894 97.8479L61.7513 97.9064L61.6894 97.9642L61.5881 97.8453L61.531 97.9236L61.4761 98.0677L61.3781 98.1448L61.2532 98.1028L61.1682 98.002L61.0573 97.7899L60.6944 97.3828L60.4403 97.2223L60.2016 97.2588L60.2425 97.309L60.2881 97.4017L60.316 97.4396L60.2298 97.4021L60.2018 97.3814H60.1448L60.1863 97.4965L60.3182 97.6377L60.3727 97.7316L60.5344 97.7027L60.6199 97.8362L60.6526 98.0412L60.6588 98.2277L60.6832 98.3001L60.7424 98.3892L60.8098 98.4642L60.9166 98.5352L60.918 98.6107L60.8691 98.6577L60.7726 98.6126H60.7202L60.6882 98.669L60.6068 98.8988L60.4185 98.8156L60.3729 98.7822L60.419 98.8567L60.4952 98.92L60.6591 99.0209L60.606 99.1508L60.6407 99.2509L60.7128 99.3379L60.7726 99.4289L60.553 99.368L60.4672 99.3868L60.4345 99.4874L60.4897 99.4346L60.4871 99.4291L60.602 99.4893L60.6462 99.5557L60.6591 99.6685L60.6746 99.727L60.6713 99.7554L60.6842 99.7903L60.7467 99.8672L60.7895 99.9673L60.7549 100.043L60.6591 100.135L60.6488 100.208L60.6815 100.564L60.7372 100.713L60.9766 101.168L61.0528 101.259L61.2907 101.424V101.477L61.2628 101.628V101.657L61.1201 101.773L61.1161 101.915L61.1574 102.042L61.2403 102.136L61.3523 102.181V102.245L61.2157 102.3L61.0783 102.292L60.9627 102.23L60.8913 102.124L60.8626 102.141L60.8014 102.163L60.7723 102.182L60.7037 101.924L60.7546 101.302L60.6588 101.01H60.72L60.5303 100.506L60.45 100.14L60.3712 100.04L60.2592 100.189L60.3652 100.389L60.4039 100.422L60.4161 100.453L60.3727 100.692L60.4183 100.779L60.6139 100.961L60.6588 101.098L60.6338 101.345L60.5549 101.588L60.4135 101.814L60.2021 102.006L60.0411 102.033L59.946 102.31L59.9943 102.596L60.2594 102.647L60.3003 102.569L60.4226 102.4L60.5482 102.26L60.6068 102.271L60.5736 102.393L60.5165 102.501L60.5062 102.617L60.6068 102.764L60.5979 102.949L60.596 102.984L60.9242 103.401L60.8344 103.585L60.7726 103.521L60.714 103.585L60.6407 103.759L60.4926 103.945L60.4723 104.019L60.4682 104.104L60.4348 104.23L60.3865 104.288L60.2348 104.418L60.2021 104.487L60.1818 104.584L60.1335 104.677L60.0308 104.812H59.9737L59.8738 104.726L59.7515 104.72L59.6108 104.73L59.4551 104.696L59.36 104.587L59.2967 104.291L59.258 104.23L59.0643 104.278L59.0764 104.385L59.1722 104.493L59.2319 104.545L59.215 104.662L59.1844 104.778L59.1789 104.903L59.2319 105.045L59.0559 105.049L58.9988 105.045L59.1273 105.261L59.1314 105.629L59.0559 106.209L59.0824 106.538L59.0456 106.638L58.9417 106.742L58.7336 106.912L58.6113 106.989L58.4909 107.028L58.338 107.019L57.973 106.853L57.8411 106.826L57.693 106.825L57.5421 106.852L57.4021 106.912L57.1228 107.108L57.0167 107.212L56.9412 107.319L56.872 107.474L56.77 107.905L56.7067 108.054L56.634 108.123L56.5349 108.143L56.3935 108.143L56.3091 108.123L56.1317 108.04L56.0237 108.027L55.9401 108.047L55.7709 108.121L55.6811 108.143H55.3651L55.3168 108.17L55.2148 108.285L54.9795 108.363L54.8354 108.487L54.7213 108.639L54.6491 108.777L54.5676 109.123L54.4874 109.215L54.276 109.247L54.21 109.271L53.9131 109.422L53.8254 109.438L53.6854 109.445L53.6228 109.474L53.5724 109.585L53.4645 109.976L53.4236 110.061L53.2585 110.08L53.1768 110.142L53.0483 110.41H52.9953L52.9253 110.15L52.7024 110.078L51.6699 110.283L51.4313 110.364L51.3314 110.502L51.2865 110.586L51.0909 110.791L51.046 110.908L51.0194 111.011L50.9012 111.251L50.8379 111.601L50.528 112.224H50.4709L50.3806 112.17L50.0101 112.06L49.8694 112.04L49.6919 112.049L49.5593 112.075L49.0713 112.284L48.7232 112.578L48.6071 112.642L48.2978 112.747L47.7548 113.037L47.5732 113.063L47.3795 113.132L47.0885 113.294L47.0388 113.322L46.9545 113.39L46.735 113.611L46.6922 113.701L46.6208 113.809L46.4609 113.905L45.9273 114.145L45.777 114.187L45.4017 114.234L45.0706 114.34L44.9801 114.313L44.9122 114.408L44.6669 114.635L44.461 114.951L44.3141 114.947L43.9959 114.755L43.7778 114.724L43.8179 114.649L43.8857 114.622L43.9572 114.603L44.0061 114.551L44.0014 114.475L43.9593 114.398L43.9048 114.338L43.8633 114.313L43.8231 114.284L43.6585 114.11L43.6191 114.119L43.5329 114.118L43.4371 114.106L43.3733 114.081V114.202H43.321L43.2142 114.087L43.0477 114.004L42.8724 113.99L42.7412 114.081H42.6889L42.7126 114.007L42.7173 113.961L42.6887 113.849L42.6105 114.017L42.5501 114.09L42.4555 114.139L42.408 113.977L42.4032 113.907L42.2809 113.969L42.219 114.016L42.1707 114.082H42.1177L42.1421 113.948L42.2235 113.879L42.3072 113.845L42.3222 113.839L42.4032 113.791L42.4624 113.699L42.4746 113.614L42.4555 113.006L42.4311 112.952L42.321 112.834L42.2842 112.747L42.3115 112.768L42.4032 112.805L42.4006 112.77L42.3869 112.591L42.2993 112.452L42.0566 112.225L42.0198 112.349L42.106 112.444L42.2243 112.524L42.284 112.6L42.2106 112.811L42.2092 112.924L42.3126 112.974L42.3982 113.036L42.3783 113.175L42.284 113.385L42.3091 113.448L42.3669 113.493L42.4132 113.544L42.4029 113.618L42.348 113.631L42.2706 113.588L42.1707 113.501L42.2319 113.443L42.1177 113.322V113.269L42.1586 113.195L42.1741 113.093L42.1707 112.858H42.1177L42.0628 113.096L42.0566 113.351L42.1218 113.578L42.2842 113.733L42.219 113.768L42.1421 113.81L41.9565 114.138L41.885 114.202L41.8313 114.16L41.8435 114.085L41.8767 113.995L41.8848 113.908L41.8487 113.819L41.8093 113.779L41.7625 113.745L41.7135 113.67L41.6686 113.505L41.6727 113.353L41.7135 113.064L41.2744 112.69L41.1997 112.626L41.084 112.685L40.9242 112.767L40.757 112.812L40.6815 112.718L40.6366 112.626L40.5286 112.5L40.4641 112.444L40.3996 112.389L40.2881 112.336L40.252 112.35L40.2446 112.353L40.08 112.444L40.0291 112.481L39.9904 112.575L40.0475 112.632L40.1311 112.672L40.1739 112.718L40.1923 112.801L40.2881 113.037L40.2594 113.135L40.2166 113.183L40.1658 113.216L40.1168 113.269L40.0678 113.406L40.0508 113.475L40.0251 113.579L39.9617 113.728L39.8571 113.791L39.5893 113.888L39.452 113.883L39.3705 113.733H39.3134L39.3421 113.859L39.3693 113.909L39.4216 113.965L39.3299 113.985L39.236 114.032L39.1653 114.097L39.1013 114.269L39.0157 114.321L38.9042 114.363L38.7995 114.434L38.805 114.292L38.7819 114.185L38.7405 114.099L38.6801 114.023L38.6963 114.32L38.7372 114.439L38.8263 114.487L38.9766 114.457L39.0989 114.379L39.1935 114.267L39.2568 114.139H39.3139L39.3547 114.257L39.3738 114.395L39.4343 114.492L39.5982 114.487L39.6667 114.42L39.7971 114.19L39.8848 114.139L40.0262 114.191L40.1153 114.314L40.1827 114.46L40.2601 114.577L40.3681 114.702L40.419 114.827L40.4801 115.559L40.4414 115.746L40.3143 115.826L40.1512 115.811L39.7176 115.71L38.8339 115.715L38.2236 115.596L37.909 115.594L37.7458 115.555L37.6147 115.48L37.4923 115.432L37.3645 115.473L37.8485 115.78L39.8578 116.469L39.9027 116.496L40.0372 116.616L40.0869 116.643L40.1311 116.661L40.1705 116.701L40.2276 116.741L40.3146 116.759L40.3989 116.764L40.4615 116.785L40.4988 116.83L40.5109 116.906L40.4947 117.099L40.4457 117.229L39.993 117.704L39.8578 117.782L39.7178 117.749L39.7606 117.683L39.7694 117.605L39.7532 117.525L39.7178 117.454H39.6553L39.6177 117.598L39.5982 117.632L39.4895 117.746L39.4426 117.815L39.4223 117.888L39.4543 117.913L39.5129 117.985L39.5509 118.061L39.5129 118.096L39.3851 118.111L39.3564 118.151L39.3578 118.207L39.2993 118.29L39.279 118.354L39.2573 118.381L39.2233 118.389L38.9106 118.377L38.774 118.326L38.6557 118.239L38.5394 118.126L38.413 118.033L37.9971 117.859L37.7537 117.663L37.5404 117.404L36.843 116.291L36.6037 116.046L36.2762 115.943L36.3211 115.992L36.366 116.014L36.4087 116.03L36.6596 116.228L36.7554 116.34L36.8287 116.665L36.915 116.84L37.6933 117.86L37.8829 118.033L38.5272 118.34L38.9677 118.68L39.4381 118.931L39.57 118.965L39.6529 119.04L39.6271 119.211L39.5372 119.391L39.4223 119.496V119.433L39.4754 119.37L39.4868 119.293L39.4672 119.213L39.4223 119.149H39.3714L39.332 119.447L39.1648 119.638L38.9431 119.714L38.7379 119.664L38.5423 119.505L38.0502 118.965L37.8442 118.808L37.1366 118.381L35.0471 116.224L34.9771 116.173L34.9004 116.132L34.8507 116.122L34.8242 116.143L34.7833 116.176L34.8213 116.219L34.9016 116.256L34.9649 116.296L35.156 116.506L35.2241 116.627L35.2812 116.912L35.3586 117.035L35.4525 117.143L35.634 117.313L35.8956 117.507L36.2028 117.734L36.2762 117.807L36.3278 117.881L36.3985 118.022L36.4474 118.096L36.8743 118.502L36.9219 118.529L37.0858 118.733L37.811 119.335L38.0217 119.571L38.1686 119.844L38.2434 120.18L38.3297 120.273L38.5396 120.307L38.6395 120.376L38.6803 120.534L38.6866 120.709L38.6445 121.142L38.5413 121.432L38.3789 121.681L38.1689 121.868L37.9909 121.977L37.8877 122.002L37.7926 121.96L37.7164 121.937L37.6295 121.973L37.5086 122.052L37.1639 122.044L37.0537 121.992L36.6541 121.683L35.9288 121.29L34.3784 119.823L33.5913 118.835L33.2772 118.542L33.0366 118.363L32.7478 118.288L32.4855 118.121L32.3264 118.096L32.4881 118.338L33.0203 118.87L34.4518 120.3L34.5041 120.446L34.5354 120.596L34.6142 120.766L35.4835 122.052L35.5385 122.173L35.5731 122.304L35.5975 122.654L35.5566 122.762L35.2509 123.093L35.3318 123.176L35.4066 123.209L35.463 123.256L35.4833 123.377L35.4527 123.507L35.3739 123.567L35.1359 123.613L33.99 123.965L32.7373 124.477L31.8326 124.848L29.985 125.538L29.7798 125.713L29.4129 126.108L29.1907 126.281L29.1016 126.393L29.0648 126.541L29.0438 126.564L28.937 126.592L28.895 126.627L28.8881 126.666L28.9009 126.761L28.8947 126.801L28.2746 127.987L28.1172 128.219L27.9339 128.425L27.647 128.657L27.2956 128.707L27.0223 128.822L26.7748 129.118L26.5405 129.505L26.3327 129.723L25.7751 129.876L24.2835 130.304L24.0876 130.273L24.0386 130.244L23.9978 130.206L23.9373 130.172L23.4146 130.091L23.2168 130.017L23.17 129.99L23.1476 129.897L23.2128 129.875L23.3133 129.911L23.4739 129.881L23.8843 129.61L23.9734 129.556L24.0489 129.535L24.1074 129.502L24.1401 129.413L24.0993 129.329L24.0123 129.284L23.977 129.245L24.0878 129.177L24.1946 129.184L24.7464 129.293L24.8647 129.266L25.0032 129.198L25.1201 129.105L25.1764 129.004L24.9772 129.1L24.7113 129.171L24.4497 129.175L24.2589 129.062L24.218 128.969L24.2548 128.921L24.3506 128.899L24.4872 128.884H24.6891L24.7503 128.869L24.891 128.768V128.716L24.8088 128.572L24.7851 128.403L24.8293 128.244L24.2978 128.479L23.9531 128.565L23.7443 128.457L23.6017 128.172L23.692 127.848L23.7825 127.551L23.9118 127.164L23.8857 126.841L23.8728 126.246L23.906 125.51L23.9734 125L24.0271 123.755L24.0317 123.239L24.0876 122.278L24.1115 121.924L24.2863 120.384L24.418 119.918L24.589 119.426L24.9786 119.438L25.2338 119.404L25.2916 119.254L25.4289 119.111L25.9428 118.728L26.1248 118.643L26.2084 118.706L26.2309 118.842L26.4308 119.375L26.4294 119.256L26.379 118.938V118.564L26.3233 118.382L26.2166 118.19L25.8405 117.696L25.5116 117.381L25.3477 117.285L25.1826 117.265L24.8523 117.346L24.6578 117.337L24.3893 117.178L24.1929 116.914L24.0264 116.628L23.8544 116.406L23.5797 116.24L23.3004 116.2L23.04 116.277L22.8227 116.469L22.794 116.55L22.7954 116.624L22.7751 116.679L22.6827 116.701L22.6311 116.737L22.5957 116.9L22.5685 116.937L22.2768 116.921L22.2524 116.937L22.2075 116.861L22.2245 116.806L22.2565 116.743L22.2524 116.643L22.2164 116.587L22.1055 116.459L22.0811 116.379V116.147L22.0506 115.949L21.971 115.831L21.7386 115.652L21.7039 115.707L21.6937 115.73L21.6875 115.768H21.6201L21.6079 115.536L21.5243 115.372L21.3394 115.13L21.3 115.018L21.3243 114.998L21.3841 115L21.4533 114.951L21.5171 114.854L21.5587 114.771L21.5628 114.691L21.5159 114.603H21.4533L21.3867 114.734L21.2997 114.837L21.1896 114.91L21.0537 114.951L20.9204 114.939L20.9163 114.847L20.9388 114.707L20.9015 114.601L21.0537 114.634L21.1719 114.615L21.2601 114.532L21.6084 114.021L21.6779 113.887L21.7591 113.763L21.8661 113.681L21.9973 113.651L22.3563 113.636L22.9837 113.713L23.1824 113.738L23.5952 113.789L23.9708 113.773L24.2682 113.653L24.4698 113.444L24.8138 112.916L24.911 112.809L25.0192 112.716L25.8389 112.298L26.0417 112.101L26.0374 111.825L25.7388 111.27L25.6079 110.951L25.5794 110.656L25.6334 110.522L25.7271 110.399L25.8061 110.327L25.8413 110.295L25.95 110.217L26.1346 110.12L26.1833 110.156L26.2027 110.268L26.2985 110.397L26.4172 110.437L27.2306 110.59L27.5995 110.659L27.728 110.743L28.0147 110.995L28.1389 111.039L28.2192 110.958L28.4678 110.451L28.8071 110.054L28.9124 109.983L28.9504 110.002L29.1869 110.068L29.3742 110.163L29.4416 110.171L29.8572 110.082L30.6393 109.916L30.7643 109.889L30.9542 109.801L31.1119 109.7L31.114 109.698L31.3082 109.581L31.549 109.512L31.7726 109.535L31.9129 109.698L32.061 109.958L32.345 110.352L32.4045 110.481L32.5003 110.777L32.5629 110.898L32.6754 111.035L32.823 111.131L32.9957 111.128L33.0734 111.043L33.1723 110.875L33.2504 110.688L33.2628 110.55L33.5411 110.778L33.6188 110.869L33.774 111.048L33.9855 111.201L34.2177 111.32L34.4391 111.396L34.9121 111.443L35.1309 111.498L35.317 111.651L35.102 110.834L34.8961 110.443L34.8533 110.305L34.8667 110.286L34.877 110.067L34.8588 110.047L34.9064 109.96L34.9336 109.93L35.0812 109.913L35.259 109.919L35.3462 109.922L35.4049 109.87L35.3113 109.701L35.1749 109.213L35.0781 109.067L34.9288 108.952L34.7838 108.929L34.6553 109.005L34.5595 109.189L34.4749 109.013L34.3627 108.874L34.071 108.625L33.9458 108.483L33.742 108.162L33.6185 108.048L33.1713 107.938L32.9996 107.808L32.9124 107.573V107.571L32.8899 107.388L32.7795 107.32L32.6431 107.285L32.5366 107.201L32.5285 107.08L32.6666 106.439L32.759 106.15L32.7824 106.022L32.7686 105.892L32.6391 105.442L32.6572 105.22L32.6486 105.107L32.6102 105.011L32.5177 104.942L32.2953 104.901L32.1936 104.846L32.1087 104.704L32.0858 104.665L32.1109 104.495L32.2067 104.345L32.3163 104.225L32.3412 104.204L32.5072 104.062L32.6496 104.033L33.0471 104.18L33.2858 104.192L33.3868 104.071L33.4628 103.893L33.695 103.648L33.7425 103.543L33.7638 103.428L33.7707 103.31L33.9654 103.103L34.3479 103.168L34.7822 103.303L35.1283 103.31L35.7045 103.492L35.8681 103.581L35.9312 103.653L36.0511 103.841L36.1261 103.903L36.2365 103.922L36.7069 103.798L36.7957 103.789L36.8782 103.802L36.9943 103.843L37.1782 103.973L37.2843 104.031L37.393 104.028L37.4699 103.899L37.4661 103.889L37.3951 103.701L37.1677 103.31L37.1586 103.175L37.2035 103.058L37.2721 102.944L37.3299 102.823L37.3411 102.749L37.3464 102.588L37.3559 102.531L37.4795 102.33L37.5009 102.308L37.4539 102.098L37.2066 101.632L37.139 101.437L37.1273 101.402L37.3232 101.351L37.4207 101.342L37.5287 101.359L37.6037 101.414L37.6378 101.488L37.6827 101.547L37.7933 101.554L38.0506 101.372L38.4508 101.377L39.1703 101.476L39.1039 101.348L39.5203 101.443L39.6963 101.394L39.8595 101.175L39.957 100.898L40.0943 100.697L40.2842 100.582L40.4395 100.569L40.5432 100.56L41.1808 100.609L41.4899 100.573L41.7998 100.452L42.0026 100.314L42.5733 99.7404L42.837 99.4124L43.0597 99.2547L43.1597 99.1616L43.2159 99.0409L43.4629 98.7777L43.9588 98.5326L44.0919 98.4908L44.4956 98.3641L44.8633 98.3314L45.0606 98.4521L45.3109 98.8426L45.4715 98.9843L45.6623 98.9738L45.9447 98.5894L46.1463 98.4499L46.3618 98.3606L46.4848 98.2065L46.5513 98.012L46.5931 97.802L46.8386 97.1045L46.8396 96.9043L46.8386 96.9033L46.7799 96.792L46.7976 96.6991L46.8494 96.6066L46.895 96.4975L46.9244 96.2383L46.9089 95.9602L46.7001 95.0161L46.6807 94.7603L46.6881 94.5302L46.6657 94.3059L46.5522 94.0672L46.3179 93.7995L46.2601 93.6984L46.2264 93.5699L46.1953 93.3102L46.1012 93.094L46.0823 92.9989L46.0969 92.906L46.1466 92.8217L46.1898 92.7875L46.2101 92.7412L46.2075 92.6853L46.1867 92.6227L46.0563 92.5264L46.0348 92.4039L46.88 90.3418L46.9911 90.0704L47.2586 89.417L47.2885 89.1543L47.2366 88.3112L47.175 87.9973L46.4848 86.644L46.3382 86.4333L46.1466 86.2219L46.1299 86.1837L46.0505 86.0537L45.8917 85.8621L45.8494 85.7329L45.8525 85.6428L45.9065 85.4579L45.9168 85.381L45.8262 85.1204L45.8633 84.9761L45.9089 84.8784L45.9318 84.7795L45.9146 84.6734L45.9077 84.6304L45.7899 84.3777L45.782 84.2988L45.7923 84.2167L45.787 84.1326L45.7347 84.0502L45.6057 83.9998L45.2928 84.0311L45.1509 83.9783L45.0556 83.8215L45.0587 83.6467L45.0866 83.468L45.0689 83.2989L44.9763 83.1505L44.8972 83.0683L44.8618 82.967L44.902 82.7602L45.1846 81.9439L45.2264 81.6405L45.2276 81.5595L45.2039 81.4728L45.1306 81.3065L45.1119 81.2294L45.1275 81.0533L45.1879 80.8954L45.3585 80.5922L45.3821 80.5136L45.395 80.4355L45.4208 80.3641L45.4872 80.3022L45.5952 80.2681L45.644 80.3053L45.675 80.3629L45.729 80.3897L45.8905 80.3491L45.9958 80.2611L46.0708 80.1302L46.1709 79.9042L46.202 79.7867L46.2099 79.7253L46.2462 79.6083L46.3661 79.4336L46.4094 79.3364L46.4194 79.1998L46.3871 78.9432L46.3993 78.8094L46.5935 78.3715L46.6368 78.1546L46.5357 77.925ZM35.5968 121.377L35.7028 121.482L36.1699 121.59L36.2759 121.669L36.2652 121.881L36.2129 122.031L36.0925 122.109L35.8763 122.105V122.052L35.9183 121.892L35.7927 121.712L35.6111 121.556L35.4826 121.469L35.4207 121.522L35.5459 121.679L35.6866 121.787L35.7294 121.849L35.5662 121.869L35.4792 121.794L35.193 121.348L34.9843 121.094L34.8892 120.941L34.8505 120.799L34.8199 120.614L34.7451 120.481L34.565 120.244L34.6173 120.191L34.6364 120.235L34.6637 120.261L34.7317 120.307L35.1355 120.886L35.5358 121.282L35.5968 121.377ZM39.8851 115.884L40.0747 115.931L40.1476 115.978L40.1748 116.09L40.1218 116.16L40.0036 116.219L39.8853 116.242L39.8323 116.203L39.7616 116.097L39.5998 116.027L38.511 115.827L38.1113 115.653L38.2398 115.642L38.522 115.763L38.7477 115.814L39.7076 115.825L39.8851 115.884ZM43.6263 114.22L43.8819 114.445L43.9533 114.551L43.9065 114.53L43.8833 114.523L43.8657 114.515L43.8351 114.488H43.778L43.7577 114.593L43.6972 114.637L43.6354 114.674L43.5749 114.844L43.4987 114.892L43.3212 114.951L43.2051 115.058L43.0298 115.319L42.9175 115.421L42.8055 115.001L42.8523 114.845L43.1908 114.757L43.4395 114.628L43.4925 114.577L43.4987 114.49L43.5212 114.381L43.5613 114.282L43.6263 114.22ZM41.6571 114.435L41.8365 114.551L41.9297 114.629L41.9997 114.725L41.5919 114.824L41.4254 114.898L41.3146 115.015H41.2534V114.86L41.2133 114.743L41.1657 114.646L41.1392 114.551L41.1617 114.396L41.2902 114.214L41.3148 114.082H41.2537V114.203L41.1822 114.004L41.257 113.878L41.4106 113.798L41.584 113.739L41.756 113.859L41.7166 114.118L41.5387 114.551H41.6005L41.6571 114.435ZM41.4288 113.644L41.3798 113.734L41.2697 113.703L41.1514 113.621L41.0821 113.555L41.07 113.529L40.9863 113.395L40.9679 113.386L40.9863 113.31L41.0637 113.242L41.0821 113.181L41.1141 113.005L41.0862 112.924L40.9679 112.858V112.806L41.0597 112.781L41.1677 112.768L41.2532 112.777L41.2675 112.838L41.4613 112.967L41.5026 113.038L41.5394 113.059L41.5795 113.075L41.5998 113.09L41.606 113.154L41.5828 113.187L41.553 113.209L41.5379 113.238L41.559 113.331L41.595 113.424L41.6017 113.503L41.5379 113.554L41.4937 113.526L41.4457 113.444L41.3717 113.27H41.3146L41.3356 113.375L41.4125 113.531L41.4288 113.644ZM61.6368 99.2547L61.7028 99.2829L61.7518 99.3235L61.7857 99.373L61.8081 99.4294L61.7709 99.4623L61.6798 99.5251L61.6371 99.5459L61.5922 99.4895L61.5384 99.4575L61.4758 99.4554L61.4037 99.4874L61.4281 99.5056L61.4388 99.5041L61.4469 99.5096L61.4613 99.5457L61.2962 99.5304L61.1433 99.4473L61.0203 99.341L60.9429 99.2545V99.196L60.9985 99.2136L61.1189 99.2349L61.176 99.2545L61.1727 99.2241L61.176 99.1324L61.3289 99.194L61.6368 99.2547ZM39.3712 128.832L39.1756 128.851L39.1782 128.944L39.2632 129.068L39.3141 129.177L39.208 129.136L39.1204 129.14L39.0368 129.164L38.941 129.178L38.8676 129.213L38.8521 129.295L38.8576 129.391L38.8521 129.466L38.8595 129.505L38.8738 129.542L38.8425 129.57L38.7093 129.582L38.6679 129.545L38.5375 129.373L38.511 129.322L38.606 129.118L38.8318 128.895L39.1044 128.707L39.3361 128.605L39.3714 128.618L39.4001 128.634L39.4185 128.664L39.4226 128.716L39.3987 128.721L39.3144 128.716L39.3564 128.768L39.3645 128.793L39.3712 128.832ZM37.9969 119.086L38.2721 119.368L38.3815 119.537L38.3108 119.612L38.1885 119.539L37.9866 119.222L37.7501 119.094L37.3648 118.733V118.681L37.4028 118.706L37.5361 118.733L37.8963 118.989L37.9969 119.086ZM17.8172 115.015L17.8459 115.16V116.058L17.5217 116.882L17.4116 117.349L17.5604 117.575L17.4993 117.755L17.5014 117.857L17.5334 117.949L17.5607 118.096L17.4233 118.021L17.3906 117.98L17.2207 117.905L17.1092 117.531L16.9957 116.816L16.7733 116.18L16.6075 115.906L16.3676 115.711L16.0487 115.549L15.9412 115.44L15.8746 115.104L15.8461 115.012L15.8903 114.987L16.4159 115.064L16.5791 115.054L16.6491 114.983L16.6674 114.943L16.757 114.811L16.7917 114.783L16.8657 114.749L16.8937 114.667L16.9066 114.571L16.9338 114.488L16.9935 114.41L17.075 114.343L17.1715 114.335L17.2747 114.435L17.2135 114.377L17.8172 115.015ZM41.1392 114.256L41.004 114.223L40.8905 114.175L40.7885 114.154L40.6825 114.203L40.7293 114.226L40.7415 114.226L40.7537 114.214L40.7964 114.202L40.9249 114.322L41.0167 114.498L41.0105 114.657L40.8535 114.724L40.6557 114.644L40.4491 114.453L40.2737 114.223L40.1746 114.024L40.144 113.889L40.1407 113.787L40.1746 113.555L40.1636 113.55L40.1438 113.49L40.1173 113.354L40.1459 113.328L40.2859 113.306L40.3397 113.27L40.4008 113.058L40.3418 112.862L40.1175 112.51L40.3079 112.508L40.3867 112.535L40.4615 112.607L40.5377 112.732L40.5867 112.784L40.8136 112.848L40.9183 112.952L40.9679 113.083V113.206L40.9089 113.26L40.8702 113.318L40.854 113.415L40.8736 113.451L40.966 113.588L40.9988 113.618L41.0845 113.673L41.1192 113.79L41.0573 113.894L40.854 113.908V113.966L40.9866 113.972L41.0532 114.03L41.1395 114.203V114.256H41.1392ZM42.8602 24.4338L42.901 24.4629L42.9254 24.4878L42.9744 24.5503L42.8757 24.5329L42.816 24.4732L42.7412 24.3117L42.7114 24.3877L42.714 24.4531L42.746 24.5081L42.8031 24.5503V24.6115L42.693 24.6528H42.6108L42.5382 24.6172L42.456 24.5503L42.4976 24.7393L42.7524 24.8869L42.8033 25.0439H42.7415V24.9832H42.6891L42.649 25.1375L42.5749 25.2931V25.0991L42.5138 25.1215L42.4892 25.1375L42.456 25.166V25.0991L42.4037 25.166L42.3669 25.1201L42.3418 25.0991V25.0439H42.5179V24.9832L42.4846 24.9631L42.4772 24.9545L42.4751 24.944L42.456 24.9168H42.4037V24.9832H42.3418L42.3134 24.9419L42.2618 24.8943L42.2326 24.8559H42.1715L42.209 24.9519L42.2329 24.9834V25.0441L42.0656 24.9271L41.876 24.6617L41.772 24.5503L41.5308 24.397L41.4376 24.2723L41.4622 24.1082L41.6579 24.0386L41.715 24.0011L41.7455 23.9414L41.7434 23.876L41.7563 23.8098L41.8337 23.7515L41.7718 23.8181L41.886 23.9364L42.1435 23.9753L42.2326 24.0623H42.2849L42.2938 23.9125L42.3793 23.8817L42.4901 23.9254L42.5752 24.0014V24.0625L42.5487 24.1579L42.6485 24.2245L42.7825 24.2568L42.8607 24.2458H42.9178L42.9498 24.3062L42.987 24.3576L43.0319 24.4001L43.089 24.4342L42.9144 24.3924L42.8607 24.3681V24.4338H42.8602ZM40.8538 23.724L40.8994 23.8478L41.2004 24.2455L41.2412 24.4725L41.1333 24.5315L40.9885 24.5016L40.9156 24.462L40.8743 24.3162L40.7071 23.9598L40.6827 23.7517L40.6378 23.8291L40.6249 23.9077L40.6411 23.9863L40.6827 24.0623H40.6208L40.5133 23.994L40.3841 23.9698L40.274 23.9142L40.2319 23.7515L40.2986 23.4995L40.3972 23.2685L40.7243 23.4082L40.8194 23.5224L40.8538 23.724ZM46.5775 23.4519L46.7794 23.0422L46.81 22.897L46.8365 22.9254L46.8494 22.9534L46.8616 23.0188L46.8119 23.2226L46.7426 23.3729L46.347 23.9624L46.2961 24.0621L46.2371 24.2436L46.1752 24.3079L46.0637 24.3115L46.2003 23.9952L46.2147 23.8533L46.1208 23.7515V23.6958L46.2942 23.6889L46.4125 23.6567L46.5001 23.5828L46.5775 23.4519ZM48.4129 22.4691L48.5209 22.5012L48.8111 22.7188V22.7744L48.7242 22.7396L48.697 22.7188H48.6454L48.6876 22.8946L48.6272 23.0322L48.5049 23.1352L48.3561 23.2073L48.5137 22.9089L48.5273 22.8053L48.4824 22.751L48.3988 22.7025L48.3506 22.6206L48.4129 22.4691ZM46.6387 22.4691L46.7529 22.3373L46.8018 22.3074L46.8527 22.3387L46.8207 22.4567L46.6915 22.7744L46.606 23.0886L46.551 23.2181L46.4633 23.3294L46.3451 23.3977L46.2106 23.4316L46.0066 23.4517L45.6313 23.5484L45.4884 23.568V23.5124L45.7331 23.4065L45.9574 23.2756L46.1504 23.1261L46.2959 22.9634L46.2734 22.8638L46.3021 22.7262L46.4048 22.4691L46.4409 22.494L46.5307 22.5301L46.5546 22.4503L46.6389 22.2864V22.4691H46.6387ZM47.3783 21.6111L47.4368 21.5738L47.4688 21.5857L47.4667 21.6474L47.1669 22.2993L47.1138 22.5766L47.0302 22.8002L46.8616 22.7744L46.9507 22.7396L46.9621 22.6839L46.9404 22.6053L46.9242 22.4997L46.9507 22.4109L47.0682 22.2943L47.0954 22.1937L47.1091 21.9933L47.126 21.9176L47.1525 21.8523L47.1831 21.8084L47.3783 21.6111ZM47.0383 20.7518L47.2273 20.6861L47.2524 20.7028L47.2137 20.8129L47.1198 20.9211L46.8446 21.1118L46.7591 21.2467H46.6917L46.5673 21.2176L46.4 21.3992L46.1208 21.7917L46.0283 21.8423L45.825 21.9209L45.7211 21.9806L45.4356 22.2245L45.3038 22.1168L45.3601 21.9164L45.4825 21.6935L45.551 21.5165L45.5673 21.4133L45.642 21.1607L45.6829 20.8889L45.7393 20.8882L45.8004 20.9618L45.8248 20.9553L45.8336 20.8796L45.8738 20.8299L45.9492 20.8132L45.9125 20.7513L45.9043 20.6132L45.9187 20.3832L45.9397 20.274L45.9614 20.219L45.992 20.1811L46.024 20.1672L46.0568 20.1658L46.0907 20.1739L46.126 20.1921L46.2118 20.2611L46.4048 20.5079L46.4605 20.5475L46.5161 20.5585L46.5589 20.5829L46.5773 20.661L46.5794 20.7339L46.5876 20.7878L46.6074 20.8296L46.6387 20.8691H46.6917L46.7488 20.8351L47.0383 20.7518ZM48.9839 19.4204L49.0015 19.4419L49.0233 19.478L49.0328 19.5124L49.0137 19.5277L48.9492 19.5401L48.1315 19.8951L48.1559 19.8722L48.2517 19.7525L48.7371 19.4577L48.8737 19.403L48.9839 19.4204ZM49.4447 19.155L50.5276 19.0325V19.0884L50.2034 19.3008L50.0756 19.3521L50.0089 19.2776H49.9566L49.8933 19.3115L49.3243 19.5107L49.2149 19.5275L49.2352 19.435L49.2732 19.3325L49.3181 19.4224L49.3302 19.4611L49.367 19.388L49.416 19.334L49.4793 19.2972L49.3073 19.2874L49.0959 19.3325V19.2773L49.3732 19.1894L49.4447 19.155ZM58.4142 113.478L58.5516 113.6L58.6113 113.77L58.5664 113.895L58.3944 113.884L58.3108 113.796L58.2754 113.663L58.3046 113.539L58.4142 113.478ZM62.1798 95.9996L62.2444 96.1633L62.2771 96.2657L62.2369 96.3759L62.101 96.3319L61.7957 96.1167L61.7467 96.0469L61.6959 95.9877L61.5938 95.9609L61.5 95.8931L61.5692 95.776L61.7854 95.75L61.9751 95.7782L62.0941 95.8126L62.1545 95.9L62.1798 95.9996ZM45.2765 24.2061L45.3731 24.2687L45.4003 24.3232L45.3929 24.4438L45.3649 24.4593L45.3234 24.4022L45.2703 24.3731L45.203 24.3848L45.1146 24.3396L45.0465 24.1834L45.0377 24.0568L45.0704 24.0575L45.1717 24.1753L45.2765 24.2061ZM45.3812 23.6524L45.4662 23.681L45.4899 23.7355L45.4696 23.7711L45.4457 23.7962V23.8162L45.4464 23.8351L45.4287 23.8568L45.3172 23.9075L45.2601 23.9159L45.2051 23.9042L45.1473 23.859L45.0582 23.7462L45.0338 23.7637L44.9911 23.7498L44.9665 23.693L44.9775 23.6485L45.0224 23.6297L45.0795 23.6493L45.1237 23.6693L45.1583 23.6588L45.246 23.6471L45.3812 23.6524ZM49.0859 22.4261L49.2232 22.3311L49.3415 22.3519L49.3123 22.4713L49.2423 22.5434L49.1002 22.7472L49.0192 22.7546L49.0097 22.5974L49.0859 22.4261Z" fill="#E6F7ED" stroke="#3CB371" stroke-width="2" strokeLinejoin="round"/>
</svg>
