<svg width="88" height="100" viewBox="0 0 88 100" fill="none" xmlns="http://www.w3.org/2000/svg">
<path d="M2.51711 58.1032V58.0948L2.52947 57.5702L2.50815 57.3106L2.42949 57.0936L2.32791 56.9616L2.18887 56.8173L1.90633 56.5898L1.79596 56.5504L1.43565 56.5022L1.42114 56.5002L1.54083 56.3128L1.64994 55.9055L1.72734 55.7463L1.75851 55.7364L1.87909 55.7167L1.92191 55.7031L2.30067 55.3551L2.51729 55.2073L2.70846 55.1315L2.9093 55.0936L3.09653 55.0222L3.24668 54.8472L3.28 54.7313L3.24668 54.6851L3.19561 54.6623L3.17286 54.6198L3.19364 54.5487L3.23879 54.5002L3.53908 54.3206L3.62221 54.2223L3.80801 53.8157L4.5193 53.0543L4.61605 52.8991L4.74917 52.5035L4.81439 52.3991L4.92637 52.3288L5.1772 52.3046L5.3071 52.2729L5.71524 52.0597L5.8326 51.9712L5.94869 51.8193L6.03398 51.7075L5.84621 51.4428L5.81127 51.3212L5.82865 51.0938L5.81987 50.6671L5.83439 50.5182L5.8971 50.3913L6.08038 50.1625L6.3142 50.0425L7.10271 49.727L7.2593 49.4772L7.18817 49.2803L7.02692 49.1701L6.66196 49.0223L6.37637 48.7062L6.21852 48.609L6.02144 48.6752L5.79318 48.6036L5.71739 48.5968L5.64071 48.6238L5.5049 48.7294L5.42571 48.7634H5.246L5.07866 48.7068L4.92744 48.6118L4.79701 48.4995L4.55334 48.1911L4.39585 47.793L4.09844 47.0409L3.80012 46.29L3.50253 45.5395L3.20386 44.7886L3.11893 44.5734L3.07916 44.3554L3.14115 44.138L3.59515 43.4472L3.63224 43.3051L3.65034 43.1592L3.68617 43.0164L3.77755 42.8856L3.84832 42.8466L4.03985 42.7812L4.08894 42.7489L4.09252 42.6859L4.01154 42.4694L4.05203 42.3523L4.16383 42.2028L4.2991 42.0798L4.53256 41.9986L4.62698 41.7185L4.76297 41.7096L4.92834 41.7209L5.03853 41.6315L5.05483 41.4985L4.88892 41.3349L4.71567 41.0864L4.60225 40.9754L4.18515 40.6625L4.07031 40.5448L3.66718 39.9245L3.55 39.8144L3.39933 39.6726L3.35471 39.5467L3.38589 39.4118L3.50073 39.1396L3.51543 39.0834L3.48568 38.49L3.4959 38.3656L3.55986 38.2674L3.71663 38.1716L4.10578 38.0623L4.21722 37.9971L4.31397 37.7882L4.35841 36.8599L4.44835 36.7192L4.58649 36.7051L4.74559 36.7388L4.8986 36.7433L4.9398 36.6625L4.91938 36.3287L4.94142 36.2038L4.98406 36.1708L5.10356 36.1395L5.15355 36.1147L5.43001 35.7938L5.56617 35.6928L6.02162 35.4371L6.16101 35.3063L6.13037 35.1614L6.03434 35.0172L5.97933 34.8878L5.97199 34.6083L5.98274 34.4685L6.02162 34.3437L6.19846 34.2166L6.43388 34.1561L6.9076 34.0948L7.04269 33.9484L7.01152 33.6953L6.83754 33.2113L6.79365 32.9626L6.75316 32.8507L6.68024 32.7469L6.30506 32.4984L6.21225 32.3664L6.16979 32.1344L6.16871 31.8717L6.1422 31.627L6.02198 31.4435L5.93132 31.1669L5.92289 31.0692L5.94708 30.9529L5.98112 30.868V30.7852L5.90337 30.6779L5.52497 30.3692L5.38109 30.1612L5.47928 29.9973L5.57065 29.9883L5.7844 30.027L5.86431 30.0121L5.92594 29.9331L5.92755 29.8489L5.91412 29.7581L5.93042 29.659L5.98507 29.5762L6.13324 29.4146L6.19362 29.3222L6.25561 29.1493L6.29825 28.9704L6.27227 28.8074L6.35397 27.4011L6.25417 26.835L6.23572 26.5445L6.2884 25.6922L6.27585 25.5888L6.18824 24.8797L6.18573 24.5714L6.22515 24.4094L6.44606 24.2363L6.52095 24.0625L6.60588 23.9281L6.75996 23.9496L6.84847 23.7468L6.95651 23.5976L7.09913 23.5003L7.67712 23.3421L7.73033 23.2783L7.89266 22.9569L7.82243 22.8775L7.59578 22.8144L7.53074 22.7469L7.53916 22.6297L7.60599 22.5258L7.70256 22.4441L7.91165 22.3305L8.01127 22.24L8.09207 22.134L8.14994 22.0249L8.19223 21.8817L8.23308 21.8158L8.30403 21.7846L8.26748 21.7194L8.09404 21.4099L7.36286 20.111L6.63186 18.8129L5.90014 17.5156L5.16914 16.2191L4.43778 14.9236L3.70624 13.6282L2.97578 12.3342L2.24424 11.0419L2.21951 10.9984L2.19425 10.9541L2.16899 10.9091L2.14408 10.8649L2.11918 10.8206L2.09356 10.7771L2.06901 10.7336L2.04357 10.6893L2.56745 10.7106L2.84427 10.6818L3.31691 10.566L3.54732 10.6022L3.78203 10.6687L4.03483 10.7085L4.43223 10.6938L4.98083 10.7594L5.24027 10.8199L5.48268 10.7955L5.5918 10.8154L6.11245 11.0419L6.14399 11.0471H6.20795L6.23912 11.0419L6.40396 11.0331L6.73542 11.1254L6.90437 11.1467L7.08032 11.1046L7.27113 11.0322L7.46051 10.9916L7.67139 11.0543L7.79 11.1148L7.67533 11.2802L7.59363 11.4529L7.55493 11.6375L7.58413 11.9297L7.60527 11.9961L7.66171 12.0338L7.78498 12.0375L8.78438 11.8331L8.97841 11.7342L9.3423 11.4692L9.64223 11.3682L9.75958 11.3497H9.87801L9.99895 11.3703L10.0986 11.3415L10.3213 11.1326L10.4485 11.0654L10.7787 11.0329L10.9 10.9828L11.0437 10.8796L11.1766 10.7445L11.2947 10.5926L11.3911 10.4369L11.5747 10.0164L11.6729 9.88L12.0673 9.45681L12.314 8.98936L12.4136 8.87291L12.577 8.7586L12.7929 8.65325L12.9095 8.61634L13.0279 8.60165L13.2272 8.63479L14.0623 8.59502L14.1666 8.61043L14.2676 8.63909L14.4013 8.71721L14.6768 8.93544L14.8112 8.9899L15.0499 8.92791L15.1661 8.72223L15.2299 8.46423L15.3096 8.25048L15.3856 8.17093L15.5981 7.99409L15.6868 7.88731L15.8247 7.66783L15.903 7.57287L16.0105 7.47558L16.1474 7.43366L16.3981 7.30985L16.6864 7.21185L16.8275 7.1228L16.9503 7.00634L17.0477 6.87448L17.0786 6.79349L17.0811 6.73526L17.0992 6.68151L17.1758 6.61809L17.24 6.59892L17.5496 6.59372L17.6304 6.58046L17.7049 6.55395L17.7578 6.50969L17.7691 6.44125L17.7289 6.28591L17.7402 6.22338L17.8406 6.17178L18.0006 6.14527L18.2913 6.13505L18.4185 6.15422L18.6938 6.22858L18.8133 6.22786L18.9002 6.17698L18.9523 6.09814L18.9928 6.01716L19.0442 5.95893L19.1141 5.93474L19.2615 5.9274L19.3364 5.91342L19.657 5.73085L20.7896 4.56447L21.7149 3.8487L21.8482 3.77811L22.4199 3.55666L22.4894 3.51258L22.5263 3.45453L22.5426 3.37588L22.5675 3.30314L22.6118 3.24652L22.687 3.22072L23.5141 3.07595L23.9414 3.10982L24.0826 3.09136L24.2187 3.04209L24.5099 2.87672L24.6253 2.83193L25.3116 2.72676L25.4403 2.67892L25.6576 2.5363L25.7789 2.48488L26.1657 2.44439L26.1923 2.45765L26.2188 2.48703L26.2492 2.51498L26.287 2.52161L26.3225 2.49581L26.372 2.41053L26.4006 2.3892L26.5056 2.3686L26.5425 2.37666L26.6294 2.4082L26.8154 2.51337L26.9086 2.53756L27.0424 2.50746L27.3558 2.31342L27.4869 2.27525L27.6104 2.26719L27.7089 2.2774L27.9952 2.34567L28.0791 2.34943L28.1635 2.3032L28.2781 2.18191L28.295 2.2319L28.3249 2.29371L28.3618 2.34961L28.401 2.37899L28.4718 2.36788L28.4908 2.30464L28.4895 2.22813L28.4983 2.17528L28.5553 2.03571L28.5969 2.00256L28.6415 2.09662L28.6572 2.16578L28.6755 2.21864L28.7099 2.2568L28.7748 2.2817L29.039 2.17152L29.1478 2.1656L29.1213 2.32721L29.0964 2.41608L29.1258 2.4374L29.1822 2.43077L29.2381 2.43812L29.2571 2.43364L29.3323 2.40641L29.3649 2.40264L29.4094 2.4254L29.4719 2.49886L29.5085 2.53039L29.7159 2.66924L29.8175 2.71923L29.9456 2.7479L30.0307 2.7427L30.063 2.71117L30.0793 2.66405L30.1155 2.61191L30.1243 2.59059L30.1291 2.52071L30.1427 2.49276L30.1789 2.47216L30.2631 2.45675L30.2911 2.44349L30.3717 2.35301L30.441 2.24945L30.4693 2.18334L30.4993 2.07387L30.5439 2.00919L30.8631 1.74169L30.9568 1.63437L31.0221 1.62488L31.2061 1.62703L31.334 1.67397L31.5266 1.84364L31.6278 2.06402L31.6441 2.0882L31.74 2.40569L31.8082 2.48434L31.9045 2.56819L31.9901 2.66154L32.027 2.77244L31.9957 2.93781L31.8439 3.22681L31.7875 3.38125L31.7627 3.66882L31.7902 3.96158L31.8518 4.2323L31.982 4.60228L32.0109 4.75385L32.0274 5.0622L32.0435 5.13584L32.1134 5.30067L32.1275 5.37431L32.1048 5.44132L31.9837 5.62604L31.9118 5.97559L31.8263 6.14043L31.5657 6.2671L31.466 6.40398L31.3894 6.56523L31.3582 6.6937L31.3575 6.69638L31.3691 6.75157L31.3808 6.77522L31.41 6.79797L31.2441 7.10058L31.1428 7.20002L30.9705 7.23532V7.28387L31.055 7.40983L31.0706 7.45695L31.0635 7.49153L31.0301 7.55782L31.023 7.60046L31.0289 7.66084L31.0452 7.73448L31.069 7.79719L31.0964 7.8237L31.1158 7.90039L31.0708 8.25263L31.0704 8.35941L31.1901 8.49271L31.315 8.57083L31.4134 8.67099L31.4531 8.87434L31.4447 8.99958L31.392 9.27155L31.2872 9.59602L31.3225 9.68901L31.5986 9.76283L31.7255 9.85062L31.831 9.96206L31.888 10.0683L31.9313 10.6791L31.95 10.7189L31.9892 10.7579L32.0236 10.8126L32.027 10.9011L31.9998 10.9631L31.953 11.0052L31.8957 11.0435L31.8353 11.0958L31.7265 11.2634L31.7215 11.3902L31.7611 11.5128L31.7873 11.6611L31.733 11.7903L31.4623 12.003L31.3567 12.1248L31.3329 12.3006L31.4236 12.412L31.5418 12.4962L31.6001 12.5922L31.5578 12.7008L31.4698 12.7576L31.3997 12.8373L31.4091 13.0117L31.4986 13.1425L31.6427 13.2482L31.7765 13.3234L31.8351 13.3707L31.8099 13.4616L31.6877 13.6063L31.644 13.6898L31.6368 13.7608L31.6491 13.8199L31.8837 14.4332L32.0734 14.6356L32.318 14.5685L32.4898 14.6616L32.5625 14.7267L32.6093 14.8175V14.8877L32.5559 15.0164L32.5573 15.1103L32.5865 15.2063L32.6195 15.2278L32.6699 15.2285L32.7534 15.2611L32.9039 15.364L32.9497 15.4283L32.7851 15.4829L32.768 15.5487L32.7967 15.7253L32.7822 15.7956L32.7197 15.9036L32.7052 15.9717L32.7084 16.2327L32.748 16.3318L32.8444 16.4384L32.9703 16.5323L33.0612 16.556L33.1169 16.4893L33.1556 16.1415L33.1839 16.0512L33.2269 15.9935L33.3281 15.9647L33.3487 16.0321L33.327 16.194L33.4277 16.2917L33.5549 16.3435L33.6635 16.4123L33.7284 16.6454L33.8194 16.803L33.8534 16.8822L33.8604 16.9517L33.8481 17.0969L33.8533 17.1671L33.8868 17.3196L33.9258 17.3848L33.997 17.4188L34.0208 17.4203L34.0905 17.4529L34.1358 17.5283L34.1473 17.6164L34.1166 17.6867L34.0201 17.8245L34.0081 17.9547L34.0564 18.0679L34.1405 18.1538L34.2387 18.2086L34.3497 18.2374L34.6472 18.2514L34.7921 18.281L34.9392 18.3335L35.0893 18.3578L35.2452 18.3001L35.3309 18.3401L35.4591 18.3654L35.5768 18.4136L35.6281 18.5202L35.6611 18.6653L35.7446 18.8L35.9673 19.0385L35.9155 19.1378L35.9481 19.2162L36.0262 19.254L36.1111 19.2304L36.1296 19.1725L36.1531 18.9821L36.1805 18.9407L36.2958 18.9281L36.32 18.9681L36.3543 19.0874V19.1467L36.3052 19.2349L36.3023 19.2831L36.3236 19.3209L36.3851 19.3816L36.398 19.406L36.4714 19.4771L36.6416 19.5787L36.972 19.7283L37.0587 19.7387L37.242 19.7408L37.2874 19.7505L37.4018 19.8446L37.5463 19.9195L37.5541 19.8972L37.5549 19.8809L37.5647 19.872L37.667 19.8861L37.7011 19.8965L37.8157 19.9951L37.8437 20.0513L37.8499 20.1343L37.8417 20.2936L37.8059 20.4485L37.6797 20.7361L37.6984 20.8585L37.7415 20.8873L37.8956 20.9421L37.9596 20.9785L38.0189 21.0461L38.101 21.1982L38.1535 21.2731L38.2484 21.3718L38.3577 21.4594L38.4906 21.521L38.6558 21.5447L38.94 21.492L39.0448 21.5194L39.1159 21.745L39.1812 21.7606L39.248 21.7457L39.282 21.7316L39.3313 21.6997L39.4092 21.618L39.4734 21.5891L39.623 21.5773L39.7468 21.6129L39.848 21.6789L40.0431 21.8873L40.1164 21.9118L40.1866 21.8435L40.2913 21.6914L40.399 21.8168L40.8195 21.831L40.971 22.0372L41.1018 22.0202L41.3242 21.9371L41.4161 21.9668L41.4813 22.0299L41.558 22.0825L41.6829 22.084L41.7676 22.012L41.8144 21.9482L41.8534 21.8785L42.0896 21.5846L42.0917 21.5445L42.213 21.5282L42.4275 21.4585L42.5228 21.4422L43.5295 21.5891L43.5498 21.6099L43.9311 21.8095L44.2233 22.0521L44.3392 22.11L44.4931 22.1329L44.5821 22.1359L44.6619 22.1485L44.7346 22.1782L44.8016 22.2309L44.8538 22.3095L44.8661 22.3816L44.8704 22.4498L44.8977 22.5204L44.9555 22.5701L45.0179 22.5901L45.0682 22.6213L45.0888 22.7014L45.1154 22.7489L45.3827 22.947L45.5384 22.9855L45.6199 23.0198L45.8234 23.1801L45.911 23.2158L46.4057 23.2113L46.4854 23.1912L46.513 23.1378L46.5786 23.0762L46.7246 22.9709L46.7565 22.9633L46.8388 22.9752L46.8728 22.9707L46.9051 22.9402L46.9362 22.8592L46.9685 22.8236L47.1618 22.739L47.1813 22.7256L47.2628 22.7412L47.4019 22.808L47.6133 22.8614L47.6853 22.9587L47.7339 23.2156L47.7636 23.2616L47.8093 23.2987L47.8348 23.3389L47.7812 23.4227L47.7737 23.4636L47.7812 23.5044L47.8036 23.537L47.9593 23.6737L48.036 23.7599L48.0689 23.8334L48.0895 23.9916L48.1449 24.129L48.223 24.2352L48.3121 24.2999L48.3877 24.3266L48.4532 24.3332L48.5138 24.3169L48.5733 24.2754L48.6374 24.2508L48.6733 24.2999L48.6964 24.3675L49.0647 24.8475L49.0846 24.8942L49.1194 24.9284L49.1973 24.9419L49.2679 24.9464L49.3204 24.9619L49.3537 24.9983L49.365 25.0607L49.3994 25.1773L49.4888 25.2776L49.6119 25.3624L49.7477 25.433L49.7604 25.2902L49.8357 25.2508L49.952 25.2522L50.0871 25.2321L50.1772 25.175L50.2485 25.1178L50.335 25.106L50.4694 25.1877L50.5364 25.2472L50.5825 25.3036L50.6093 25.369L50.6256 25.5399L50.6504 25.5734L51.2606 25.8381L51.6945 25.8253L51.8386 25.8499L51.9343 25.9183L52.1272 26.1473L52.1428 26.1815L52.1514 26.2537L52.1749 26.2679L52.272 26.262L52.2969 26.2679L52.4161 26.3437L52.4711 26.3637L52.7991 26.4017L52.8934 26.3913L52.9708 26.3215L53.1123 26.3795L53.2293 26.3535L53.3307 26.2985L53.5935 26.2301L53.6645 26.2235L53.7387 26.2407L53.9277 26.3707L53.9383 26.2057L54.0089 26.2265L54.1667 26.4153L54.2416 26.4437L54.3025 26.4281L54.343 26.4385L54.3582 26.5433L54.3586 27.0258L54.3799 27.1492L54.4512 27.2474L54.6019 27.3576L54.9111 27.7007L55.0086 27.7514L55.0159 27.7819L55.1238 27.9522L55.1622 27.9782L55.3193 28.0504L55.4384 28.1323L55.7785 28.4666L55.8509 28.5195L55.9881 28.591L56.0413 28.641L56.0675 28.6976L56.2119 29.1795L56.2934 29.2503L56.4502 29.2765L56.5881 29.2482L56.7286 29.1982L56.868 29.1758L57.0027 29.2317L57.1385 29.1491L57.2985 29.0873L57.4723 29.0478L57.9697 29.0016L57.9982 29.0066L58.0331 29.0129L58.2238 29.1932L58.2942 29.2319L58.6262 29.305L58.9392 29.2729L59.2425 29.1604L59.7173 28.9122L59.8248 28.9205L59.9316 28.9644L60.1833 29.0099L60.3318 29.1023L60.4123 29.1337H60.487L60.647 29.0837L61.1091 29.1009L61.1777 29.0591L61.2178 28.9147L61.3219 28.8461L61.6213 28.8015L61.6482 28.7732L61.7327 28.721L61.823 28.7024L61.8648 28.7746V29.0674L61.9997 29.212L62.3089 29.2679L62.6494 29.291L62.8774 29.3394L63.0072 29.4653L63.0602 29.5019L63.5416 29.709L64.077 30.132L64.5876 30.5355L64.8302 30.6659L64.9913 30.7001L65.0366 30.7211L65.0627 30.7539L65.0998 30.8404L65.131 30.8732L65.1946 30.9046L65.7233 31.0328L65.8493 31.1059L65.9009 31.2409L65.9159 31.4349L65.9566 31.6332L66.0163 31.8197L66.0881 31.9756L66.1449 32.036L66.2977 32.1643L66.3112 32.2067L66.277 32.2798L66.3203 32.3246L66.3882 32.3553L66.4307 32.3836L66.4482 32.444L66.4429 32.488L66.383 32.6255L66.2927 32.9644L66.2225 33.1205L66.0978 33.2294L65.9285 33.2773L65.8803 33.3138L65.8436 33.4116L65.8145 33.5759L65.8056 33.7402L65.8283 33.8366L65.9213 33.9988L65.924 34.1826L65.8987 34.3791L65.9079 34.5764L65.9781 34.7086L66.3592 35.0277L66.4194 35.1458L66.5221 35.6003L66.7527 36.1142L66.7903 36.4157L66.5746 36.4897L66.6901 36.7255L67.0313 36.9627L67.1176 37.1215L67.1379 37.561L67.1656 38.1549L67.1936 38.749L67.2219 39.3433L67.2497 39.9378L67.2713 40.4081L67.2352 40.4936L66.4339 40.5033L65.0819 40.5205L65.4517 40.846L65.9374 41.4306L66.6946 42.3413L67.3371 43.1152L67.4356 43.2768L67.4946 43.4541L67.5867 44.5361L67.7116 46.0044L67.8042 47.086L67.8518 47.8683L67.902 48.6948L68.036 49.0071L68.2523 49.0675L68.7387 49.0848L70.073 49.1339L71.4076 49.1823L72.7422 49.2307L74.0766 49.2798L75.4111 49.3281L76.7459 49.3772L78.0796 49.4263L79.4144 49.4747L79.9207 49.4928L80.0782 49.4724L80.2226 49.3991L80.2744 49.3297L80.3719 49.1493L80.4236 49.1138L80.7264 49.1214L80.7977 49.1862L80.8329 49.8972L80.8028 49.9984L80.6383 50.1358L80.6293 50.2627L80.7761 50.5293L80.682 50.7952L79.9827 51.596L79.865 51.8191L79.8118 52.0687L79.8371 52.3854L79.98 52.9376L80.0031 53.2222L79.9879 53.2736L79.9252 53.4038L79.9071 53.4726L79.9096 53.559L79.9791 53.9231L80.0994 54.1449L80.1465 54.2774L80.1862 54.7895L80.2224 54.9024L80.297 55.0312L80.3299 55.1919L80.3402 55.8484L80.3799 56.1259L80.5059 56.3443L80.7684 56.4893L80.9893 56.5181L81.0595 56.5393L81.1287 56.5824L81.2539 56.688L81.3231 56.732L81.3816 56.7503L81.4954 56.77L81.554 56.8033L81.6334 56.9103L81.7468 57.1531L81.8564 57.235L81.9536 57.2608L82.0333 57.2706L82.1101 57.2927L82.2003 57.3527L82.3918 57.5652L82.4681 57.6221L82.7163 57.73L82.8007 57.7771L83.1056 58.0299L83.3066 58.1181L83.5725 58.1849L83.838 58.2032L84.0391 58.1439L84.1994 58.1165L84.3211 58.1347L84.4775 58.1985L84.5735 58.2996L84.6434 58.4637L84.6608 58.6461L84.6516 58.8193L84.6658 58.9394L84.6629 59.2221L84.6774 59.359L84.7331 59.4912L84.8059 59.5885L84.8946 59.6759L84.9963 59.7467L85.1078 59.7938L85.0481 60.028L85.0737 60.1079L85.1997 60.2661L85.3015 60.4449L85.2877 60.5773L85.0682 60.5994L85.7211 61.7412L86.0814 62.6379L86.3225 63.0869L86.602 63.2485H86.7454L86.8588 63.2668L86.9211 63.3385L86.9133 63.4994L86.4302 63.5062L86.303 63.5359L86.2129 63.6214L86.0988 63.9876L85.7693 65.0416L85.4401 66.0957L85.111 67.1506L84.7812 68.2064L84.7022 68.4591L84.9831 68.4827L85.0562 68.5447L85.0859 68.6925L85.1264 69.1313L85.168 69.4531L84.7751 69.4837L84.6552 69.5618L84.4938 69.9014L84.2761 70.3599L83.7959 71.3695L83.3165 72.3798L83.0981 72.8392V72.8399L83.0977 72.8406L83.0115 73.025L82.8229 73.4301L82.6338 73.8361L82.5477 74.0199L82.3033 74.5445L82.3572 74.7537L82.8884 75.2409L83.4537 75.76L84.1595 76.4087L84.0892 76.5042L84.0095 76.6252L83.9081 76.737L83.7517 76.8117L83.5747 76.7662L83.4627 76.7522L83.4123 76.7884L83.3942 76.8531L83.346 76.9109L83.2769 76.9525L83.1968 76.9686L83.0198 77.0412L82.8014 77.3597L82.6188 77.4323L82.572 77.4585L82.4877 77.5873L82.4507 77.6312L82.3613 77.679L82.0637 77.7887L82.0587 77.5943L82.1623 77.1994L82.1736 77.0437L82.1641 76.7291L82.1825 76.5633L82.1594 76.3299L82.0399 75.9031L82.0258 75.6643L82.0471 75.4177L82.0243 75.3115L81.9484 75.2253L81.6739 75.0537L81.0199 74.6466L80.3667 74.2388L79.7131 73.8319L79.0598 73.4245L78.4059 73.018L77.7523 72.6114L77.0983 72.2044L76.4451 71.7975L76.0916 71.578L75.8913 71.4345L75.6813 71.2849L75.5419 71.2496L74.973 71.2573L73.6531 71.275L72.3328 71.2919L71.0129 71.3096L69.6922 71.3265L69.1171 71.3342L68.0616 71.5637L65.6896 72.0795L63.3178 72.5957L60.9462 73.1128L58.5742 73.6293L58.4239 73.6524L58.0928 73.7031L57.7622 73.7538L57.6115 73.7769L56.9877 73.8722L56.8757 73.9192L56.8198 74.0084L56.6876 74.3746L56.4905 74.9209L56.2934 75.4683L56.0963 76.0167L55.8989 76.5646L55.808 76.7574L55.7179 76.9502L55.6737 77.0439L55.6271 77.1422L55.537 77.335L55.42 77.5133L55.3033 77.6907L55.1871 77.8689L55.0704 78.0472L54.7572 78.5019L54.4441 78.9559L54.1305 79.411L53.8173 79.8654L53.6708 80.0784L53.5178 80.3008L53.2624 80.6906L53.2031 80.8902L53.211 81.5712L53.2189 82.2302L53.2275 82.9508L53.2408 84.0434V84.0473L53.2139 84.54L52.9883 85.3117L52.7606 86.0902L52.5148 86.9299L52.2591 87.8061L52.0194 88.605L51.6928 89.6977L51.4374 90.5527L51.1318 91.5779L50.9456 92.2516L50.7487 92.9679L50.5887 93.3457L50.5282 93.3246L50.5083 93.2707L50.4984 93.2026L50.4687 93.1345L50.3857 93.0453L50.0862 92.8294L49.7545 92.6667L49.6556 92.5619L49.6035 92.4282L49.6024 92.189L49.5553 92.0968L49.5745 92.0342L49.5748 91.9592L49.5302 91.6739L49.5092 91.6028L49.4096 91.5786L49.105 91.5207L48.0686 91.577L48.065 91.5777L45.8612 91.5652L43.6575 91.5526L43.388 91.5996L43.2758 91.6626L42.9499 91.9542L42.8702 91.9174L42.5812 91.6589L42.4404 91.5949L41.7868 91.5503L41.5992 91.5854L41.4981 91.6291L41.4747 91.6533L41.4711 91.6979L41.4041 91.8674L41.3788 92.0144L41.3546 92.0746L41.3007 92.1301L41.2471 92.1566L41.1986 92.1715L41.1617 92.1989L41.1004 92.3223L40.9925 92.747L40.7736 93.3054L40.7191 93.39L40.5785 93.4674L40.5269 93.5229L40.006 94.8911L39.8367 95.1396L39.475 95.4845L39.3734 95.6663L39.071 96.8064L39.0667 97.3537L39.0043 97.5013L38.8398 98.086L38.8515 98.1827L38.7211 98.1198L38.6942 97.7645L38.6082 97.6585L38.6619 97.477L38.6381 97.2704L38.5453 97.1016L38.3926 97.0318L38.316 96.9698L38.1298 96.5647L38.0601 96.5106L37.997 96.4862L37.9515 96.4423L37.9338 96.3292L37.941 96.2429L37.9743 96.0945L37.9815 96.0184L38.0087 95.936L38.0667 95.8684L38.1187 95.7908L38.1296 95.6787L37.741 95.2906L37.6401 95.151L37.5988 94.9778L37.5722 94.9323L37.4466 94.8491L37.4076 94.7936L37.4094 94.7167L37.4638 94.5702L37.4549 94.4879L37.3615 94.4041L37.2144 94.3007L37.1223 94.1683L37.192 93.9913L37.2825 93.8816L37.3309 93.7768L37.3273 93.6555L37.2637 93.5006L37.2051 93.4106L37.0183 93.1806L36.9529 93.1336L36.8122 93.1008L36.6551 93.0211L36.5214 92.9209L36.3724 92.8982L36.3136 92.8787L36.2589 92.8889L36.1296 92.946L36.0651 92.9577L35.7888 92.8905L35.2972 92.6113L33.9805 92.3017L32.7883 92.3161L30.9181 92.3385L30.5458 92.2962L30.0594 92.2251L29.9988 92.2313L29.9644 92.2602L29.9333 92.2946L29.8811 92.3204L28.905 92.4338L28.6898 92.3657L28.4849 92.2204L27.5869 91.1524L27.4341 91.0657L26.7891 90.9517L26.7525 90.911L26.6696 90.5443L26.4529 90.3094L26.1493 90.155L25.556 89.9624L25.4331 90.0037L25.1 91.2463L25.0327 91.9516L25.0022 92.0626L24.9594 92.1539L24.9438 92.1625L24.9141 92.1446L24.8257 92.1563L24.7655 92.1937L24.7113 92.2555L24.6679 92.329L24.6394 92.4001L24.4696 92.5323L23.5384 92.8036L22.7225 93.0281L22.6956 93.0641L22.6768 93.1213L22.6555 93.1698L22.6206 93.1793L22.5054 93.1402L22.3681 93.123L22.2907 93.0972L22.2147 93.0903L22.1198 93.1333L21.9584 93.2741L21.8675 93.4244L21.8168 93.6012L21.7339 94.1642L21.6832 94.3356L21.593 94.4485L21.5757 94.5112L21.6181 94.7305L21.6138 94.8088L21.5341 94.8637L20.7479 95.1113L20.561 95.21L20.4191 95.3628L20.3514 95.4664L20.2609 95.5284L20.1531 95.5534L19.9981 95.5386L19.8786 95.5441L19.9372 96.25L19.9212 96.4156L19.8436 96.531L19.3142 96.9526L19.1078 97.2007L18.7489 97.8049L16.5319 98.2883L16.2737 98.3393L15.7852 98.3751L14.7012 98.3099L14.476 98.2336L14.422 98.1802L14.2696 97.9405L14.2352 97.946L13.9661 97.891L13.8908 97.7778L13.86 97.5814L13.8611 96.9947L14.0895 95.8647L14.0863 95.7165L13.8725 95.2908L13.8129 94.9138L13.7516 94.7517L13.4829 94.2527L13.4364 94.1L13.4343 93.949L13.5563 93.4762L13.5479 93.3291L13.4848 93.1476L13.2881 92.862L13.2632 92.7807L13.2863 92.7095L13.375 92.5829L13.3992 92.514L13.375 92.3499L13.291 92.1679L13.1679 92.0077L13.0274 91.9117L12.6874 91.5781L12.5193 91.4235L12.4541 91.3337L12.4247 91.2244L12.345 89.9835L12.1995 89.4003L11.7634 88.6016L11.7084 88.3414L11.7413 86.5089L11.6446 86.1769L10.1815 83.7388L10.071 83.6279L9.91778 83.5883L9.62306 83.6023L9.52344 83.5913L9.37383 83.4976L9.20864 83.3943L9.09057 83.0827L9.08484 82.1118L9.13877 81.9367L9.24304 81.7834L9.72357 81.3638L9.72823 81.2267L9.52326 81.0558L9.34033 80.98L9.01084 80.765L8.29453 80.4192L8.14027 80.3L7.98529 80.1377L7.83783 79.9329L7.73481 79.7041L7.70955 79.4746L7.7891 79.2784L7.94695 79.1534L8.3438 79.012L8.06681 78.5139L7.98672 78.2654L7.99496 77.9737L8.03008 77.76L8.00912 77.6851L7.77942 77.6342L7.56622 77.4977L7.54436 77.3542L7.66386 77.2277L8.52333 76.9632L8.73886 76.9417L8.83956 76.9588L8.91373 76.9819L8.97572 76.9735L9.03879 76.8978L9.07248 76.8215L9.13142 76.5657L9.13966 76.42L9.28192 76.0724L9.30324 75.9653L9.29374 75.9191L9.26544 75.8744L9.23319 75.772L9.22638 75.5518L9.21957 75.4994L9.16636 75.3986L9.09828 75.3486L8.88274 75.2577L8.76144 75.1683L8.54089 74.9313L8.20405 74.6688L8.15478 74.5757L8.17037 74.4395L8.26085 74.2895L8.55307 74.0288L8.67652 73.892L9.05653 73.3167L9.36918 72.8435V72.8427L9.52272 72.6252L9.61983 72.5269L9.90202 72.3993L9.96132 72.3502L9.90954 72.2074L9.78645 72.0593L9.64205 71.9218L8.89313 71.3754L8.64319 71.2802L8.44987 71.1545L8.20351 70.7241L8.04388 70.5469L7.384 69.965L7.16004 69.8071L6.82769 69.6921L6.73148 69.6285L6.653 69.5235L6.48853 69.1335L6.35845 68.8984L6.27245 68.8004L6.16298 68.7284L6.37153 68.442L6.42797 68.305L6.4303 68.1419L6.4079 68.0654L6.01893 67.2384L6.01624 67.233L6.01535 67.2269L6.01624 67.2216L6.06784 67.1221L6.08235 67.0234L6.06569 66.9232L6.01893 66.8278L5.85284 66.5296L5.78977 66.1673L5.79819 65.7861L5.8455 65.4324L5.84908 65.2643L5.79784 65.1124L5.54467 64.6772L5.51618 64.5566L5.53428 64.1544L5.5221 64.0888L5.4189 63.776L5.41137 63.7111L5.41066 63.6341L5.38683 63.4625L5.31462 63.3421L5.10052 63.1125L5.00072 62.7687L5.20748 62.5537L5.46477 62.3471L5.51726 62.0295L5.51332 62.0228L5.44488 61.9069L5.35995 61.91L5.24976 61.9549L5.10285 61.9618L4.9846 61.9245L4.87118 61.8741L4.65887 61.7432L4.49332 61.7021L4.44405 61.6831L4.39657 61.6362L4.25539 61.4687L4.14645 61.4947L4.05938 61.5617L3.97266 61.5586L3.86444 61.3775L3.8012 61.1087L3.79582 60.5669L3.7496 60.3037L3.5733 59.9622L3.32551 59.681L2.75791 59.1753L2.6083 58.9473L2.54524 58.6805L2.51711 58.1032Z" fill="#3867fa26" stroke="#3867FA" stroke-width="2" stroke-linejoin="round"/>
</svg>
