<svg width="114" height="101" viewBox="0 0 114 101" fill="none" xmlns="http://www.w3.org/2000/svg">
<path d="M25.1951 20.9496L25.2286 21.0718L25.2729 21.1242L25.3924 21.2155L25.5203 21.419L25.8722 21.6992L26.0541 21.9065L26.1293 21.9593L26.194 21.977L26.3343 21.9863L26.4036 22.0063L26.9224 22.3239L27.8003 23.0523L27.8727 23.149L28.0855 23.6119L28.2693 23.9044L28.3429 24.0666L28.3325 24.1768L28.2728 24.3025L28.3368 24.4042L28.4632 24.4817L28.5938 24.5329L28.6065 24.7295L28.62 24.7784L28.6628 24.8227L28.7857 24.8863L28.8301 24.9322L28.8447 25.0027L28.8193 25.0486L28.7892 25.0906L28.79 25.1472L28.8181 25.2L28.889 25.2972L28.9172 25.3561L28.9622 25.5901L29.0058 25.6733L29.1183 25.7473L29.3172 25.8375L29.355 25.9068L29.3773 26.0544L29.4798 26.0406L29.4756 26.1034L29.4386 26.1967L29.4436 26.2737L29.511 26.305L29.5727 26.2791L29.6324 26.241L29.6941 26.2387L29.7827 26.3173L29.5812 26.4448L29.5369 26.5639L29.5241 26.774L29.829 27.0472L29.8837 27.2465L29.8417 27.3205L29.6929 27.4126L29.6563 27.4661L29.6775 27.5478L29.7477 27.5737L29.8271 27.586L29.8799 27.6311L29.8841 27.7143L29.8251 27.8773L29.8259 27.9552L29.8814 28.0323L30.0548 28.1197L30.125 28.1783L30.1916 28.3124L30.335 28.8131L30.2625 28.9584L30.2583 29.0277L30.3504 28.9957L30.4179 28.9607L30.4572 28.9645L30.5331 29.0528L30.5346 29.0809L30.7177 29.5303L30.7767 30.1847L30.7612 30.7284L30.7844 30.8707L31.0391 31.325L31.0152 31.4422L30.7215 31.8592L30.5959 32.1521L30.4402 32.4222L30.0479 32.9205L29.8471 33.2982L29.7531 33.4196L29.5523 33.5695L29.5226 33.662L29.4347 34.0682L29.4143 34.2879L29.4347 34.4817L29.4767 34.5742L29.587 34.7326L29.6186 34.8425L29.6074 35.0174L29.4594 35.5327L29.4613 35.7612L29.4983 36.0426L29.5673 36.3177L29.6613 36.5278L29.7033 36.5852L29.7419 36.6245L29.8444 36.6962L29.9111 36.7794L29.9804 37.0211L30.0147 37.0974L30.0336 37.0762L30.1789 36.9698L30.6171 36.7644L30.9339 36.5417L31.1096 36.448L31.4889 36.3983L31.7775 36.5201L32.0508 36.6916L32.9483 36.8954L33.1591 36.8893L33.7511 36.7178L33.8478 36.7162L34.0382 36.7405L34.1338 36.7367L34.7042 36.581L35.0152 36.5706L35.1705 36.5991L35.5046 36.7517L36.0838 36.7667L36.4877 36.8762L36.6319 36.8785L36.7856 36.8187L37.1706 36.5544L37.2963 36.4326L37.3714 36.2981L37.3996 36.159L37.3926 36.0117L37.3313 35.6707L37.3398 35.552L37.4208 35.4718L37.6019 35.4067L37.8162 35.3681L38.4756 35.3635L38.9045 35.2598L39.3034 35.0117L39.646 34.6644L39.9046 34.264L40.1231 33.6624L40.253 33.3903L40.527 33.1075L40.5987 32.9571L40.6596 32.9117L40.9714 32.8562L41.0773 32.82L41.2411 32.7329L41.5957 32.3883L41.8254 32.0445L41.9749 31.9201L42.1903 31.88L42.4986 31.9474L42.615 31.8996L42.7422 31.7008L42.854 31.4387L42.9307 31.3377L43.064 31.2422L43.1299 31.1736L43.1461 31.1566L43.4297 30.7188L43.4355 30.6313L43.4101 30.5554L43.4066 30.4883L43.4791 30.4275L43.6722 30.355L43.7388 30.3064L43.7993 30.2113L43.8325 30.0848L43.8529 29.9068L43.8502 29.738L43.8151 29.6428L43.728 29.5068L43.8005 29.3804L43.9369 29.2609L44.0402 29.1468L44.1134 29.0196L44.1042 28.973L44.0622 28.8647L44.0144 28.7899L43.9743 28.7753L43.9485 28.751L43.9435 28.6466L43.9843 28.4828L44.0749 28.3282L44.3782 27.9691L44.4175 27.8951L44.4352 27.8172L44.4499 27.7097L44.4395 27.628L44.4136 27.5625L44.4221 27.5024L44.5142 27.4307L44.5755 27.3574L44.5439 27.2781L44.4792 27.1979L44.4398 27.1239L44.4441 27.0599L44.463 26.9983L44.5165 26.8823L44.6522 26.4163L44.6977 26.3423L44.8703 26.2722L44.9439 26.1836L45.053 25.891L45.1093 25.7985L45.1675 25.7342L45.2384 25.6876L45.3324 25.6455L45.4099 25.5958L45.438 25.5376L45.4534 25.4733L45.4908 25.4066L45.7556 25.1357L45.9163 25.0501L46.0785 25.0732L46.1236 25.1345L46.1533 25.2108L46.1953 25.2498L46.2781 25.2024L46.3429 25.148L46.8535 24.9041L47.1765 24.8077L47.5137 24.7838L47.8852 24.8543L48.1947 24.9738L48.2999 24.9985L48.4205 24.9892L48.6433 24.906L48.7312 24.8898L48.8287 24.9202L48.8892 24.9808L48.9932 25.1407L49.0822 25.2363L49.1505 25.2868L49.3493 25.3792L49.5208 25.4848L50.2384 26.0514L50.2897 26.1261L50.3744 26.2148L50.7545 26.3323L50.8184 26.3897L50.8878 26.547L50.9333 26.614L50.9965 26.653L51.1341 26.698L51.1946 26.7362L51.4524 27.0788L51.7599 27.3031L51.8624 27.4511L51.9915 27.532L52.3426 27.4442L52.4212 27.4588L52.4906 27.5024L52.5615 27.5617L52.5677 27.6234L52.5311 27.6881L52.5411 27.724L52.6864 27.702L53.392 27.5097L53.7489 27.5074L54.0495 27.6812L54.5185 28.2431L54.8049 28.4566L55.1467 28.5144L55.3336 28.4662L55.4701 28.4076L55.6057 28.3907L55.9056 28.5024L56.4208 28.6947L56.7804 28.9418L57.0205 28.9965L57.5161 28.9402L57.7388 28.9911L57.9285 29.0412L58.1343 29.0169L58.5393 28.9086L58.6742 28.8516L59.0785 28.5406L59.3868 28.3911L59.6481 28.3521L59.9101 28.3957L60.2204 28.4932L60.5048 28.5441L61.9226 28.3953L62.4113 28.1513L63.2865 27.4603L63.4334 27.0064L63.732 26.2841L63.8049 26.1088L64.0218 25.1311L64.6161 23.7899L64.7656 23.2904L64.9714 22.927L64.9842 22.648L65.1822 22.1909L65.2539 21.9501L65.2574 21.6483L65.1873 21.1014L65.1969 20.918L65.2354 20.8825L65.2875 20.8733L65.5114 20.7958L65.8601 20.8089L65.9627 20.755L66.1831 20.5919L67.2179 20.2651L67.9848 20.0231L68.3035 19.9776L68.4315 19.99L68.5606 20.02L68.6835 20.0308L68.8357 20.0551L68.838 20.0555L69.2805 19.5969L69.3302 19.5113L69.529 18.9802L69.6998 18.7552L69.8844 18.6026L70.3268 18.3135L70.7388 17.8811L70.7989 17.7701L70.9423 17.6907L71.5419 17.495L71.6845 17.414L71.7928 17.3154L71.8645 17.1851L71.9952 16.5315L72.0086 16.1997L72.4861 14.2245L72.512 14.0241L72.4653 13.8731L72.6588 13.5189L72.6449 13.4592L72.628 13.3871L72.6626 13.2484L72.7945 13.0129L72.9143 12.7077L72.9798 12.6533L73.0507 12.6834L73.0885 12.7739L73.1413 12.8553L73.2577 12.8607L73.3617 12.784L73.3575 12.6776L73.3147 12.5481L73.3039 12.4009L73.3506 12.4225L73.3968 12.4518L73.418 12.3835L73.4573 12.3392L73.5822 12.2487H73.5367L73.5907 12.1589L73.6558 12.1038L73.7309 12.0953L73.8146 12.1473L73.8446 12.059L73.8076 12.0116L73.7514 11.9627L73.7221 11.8717L73.7514 11.8128L73.8207 11.8005L73.8986 11.8309L73.9533 11.8991L73.983 11.8486L74.0335 11.7874L74.0504 11.743L74.0998 11.802L74.1537 11.8297L74.215 11.8282L74.2832 11.7985L74.1869 11.6559L74.2616 11.5684L74.5144 11.4894L74.7753 11.3576L74.8941 11.2698L75.0058 11.1611L75.1657 10.9048L75.2636 10.8239L75.3399 11.0536L75.4089 11.0131L75.4737 10.9268L75.4933 10.884L75.5754 10.8435L75.6752 10.8085L75.7292 10.8231L75.6795 10.9302L75.775 10.9815L75.8417 10.9364L75.8972 10.8516L75.962 10.7788L76.0506 10.7429L76.3327 10.7329L76.4795 10.6886L76.616 10.5977L76.7162 10.4647L76.7547 10.2986L76.7439 10.2496L76.7246 10.1907L76.7139 10.1417L76.7316 10.1217L76.757 10.1094L76.7805 10.0774L76.7952 10.0354L76.801 9.99336L76.8306 9.88006L76.9586 9.73785L77.0183 9.53167L77.0942 9.53398L77.191 9.58138L77.2838 9.61183L77.3629 9.58138L77.6326 9.35979L77.818 9.56828L77.9093 9.61183L78.0076 9.56134L78.0469 9.49274L78.1471 9.20871L78.1575 9.20486L78.2088 9.16362L78.2176 9.1536L78.2496 9.1405L78.2365 9.11082L78.2068 9.07884L78.193 9.05726L78.1795 9.02141L78.1494 8.97016L78.1298 8.91273L78.1467 8.85454L78.22 8.86841L78.366 8.87844L78.4735 8.83874L78.4292 8.70347L78.6878 8.63641L78.9715 8.51733L79.2062 8.35161L79.3148 8.14465L79.2593 7.83172L79.2566 7.6633L79.336 7.59008L79.4667 7.56888L79.6093 7.51531L79.7376 7.44903L79.8297 7.38891L79.9357 7.27676L80.0193 7.12877L80.0482 6.96498L79.99 6.80735L80.002 6.72719L80.1284 6.66784L80.2849 6.62198L80.3858 6.57843L80.4132 6.53334L80.4506 6.42081L80.4795 6.37726L80.535 6.34836L80.6032 6.33217L80.6726 6.30558L80.7342 6.24854L80.7855 6.15258L80.787 6.094L80.7666 6.03696L80.7531 5.94717L80.7666 5.85198L80.8005 5.78184L81.0148 5.50937L81.078 5.46736L81.1516 5.44693L81.3169 5.43036L81.384 5.39144L81.6303 5.09854L81.732 5.01029L81.9817 4.86885L82.2419 4.79794L82.8026 4.75824L83.2312 4.87L83.3402 4.83648L83.4851 4.70968L83.6054 4.68772L83.7387 4.70737L83.9199 4.70814L84.1588 4.62837L84.6502 4.34857L84.945 4.25647L85.0945 4.23296L85.2309 4.19403L85.3284 4.1158L85.3662 3.97513L85.4329 3.87801L85.5878 3.87031L85.8811 3.90538L86.0025 3.81134L86.159 3.51652L86.2264 3.45332L86.2572 3.3666L86.2048 2.85095L86.3644 2.64361L86.4935 2.50718L86.5975 2.44591L86.596 2.41161L86.7378 2.21737L86.7995 2.19078L87.6219 2.14453L87.7425 2.09829L87.8524 2.00117L87.9834 1.91099L88.1611 1.88979L88.5326 1.97034L88.7272 1.98922L88.8532 1.94452L88.8998 1.97573L88.9426 1.98575L89.0428 1.99038L89.1889 1.91137L89.4321 1.76955L89.5731 1.73756L89.913 1.82042L90.0822 1.83776L90.1547 1.76493L90.2125 1.64353L90.3424 1.61385L90.5721 1.63659L90.8241 1.52059L90.9632 1.50055L91.0869 1.58765L91.1675 1.55643L91.6257 1.53292L91.7641 1.573L92.1587 1.83776L92.3907 1.88786L92.5576 1.9765L92.8027 1.99847L92.9017 2.02738L93.0871 2.14261L93.1538 2.16997L93.2998 2.2035L93.3692 2.23857L93.4983 2.37885L93.5076 2.41161L93.523 2.43512L93.7253 2.4594L93.8251 2.50179L94.019 2.64438L94.182 2.72724L94.3015 2.73649L94.6028 2.69487L94.7709 2.70797L94.898 2.74651L94.999 2.80933L95.0946 2.89489L95.3081 3.04596L95.5405 3.103L95.7925 3.09375L96.0685 3.04519L96.1976 3.00357L96.4523 2.88525L96.583 2.8498L96.7113 2.84517L97.1514 2.89681L97.348 2.89527L97.4104 2.91184L97.5141 2.98468L97.5607 2.99971L97.6624 2.96849L97.8451 2.83708L97.9785 2.79469L98.735 2.73379L98.9566 2.64438L99.1551 2.69834L99.5636 2.74304L100.304 2.9184L100.536 3.02168L100.653 3.04519L100.717 3.03093L100.768 3.01937L100.994 2.90992L101.095 2.89489L101.168 2.94036L101.306 3.10878L101.354 3.14616L101.403 3.16042L101.509 3.22863L101.563 3.2506L101.618 3.24366L101.728 3.19665L101.795 3.19973L101.863 3.25523L102.021 3.48916L101.955 3.62134L102.255 4.559L102.605 5.6535L102.955 6.74801L103.235 7.62476L103.702 9.08693L103.744 9.31084L103.601 10.9996L103.643 11.3048L103.77 11.5681L104.422 12.2756L104.556 12.5439L104.819 13.4719L105.094 14.1232L105.189 14.2789L105.317 14.4003L105.756 14.7252L105.837 14.8204L105.873 14.9387L105.878 15.0605L105.922 16.2394L105.966 16.555L106.352 17.3963L106.59 17.915L106.761 18.4877L106.798 19.0646L106.743 19.578L106.748 20.6193L106.755 21.8799L106.76 22.7744L106.766 23.9676L106.776 25.5997L106.66 25.9674L106.632 26.1577L106.624 26.4052L106.649 26.6402L106.72 26.7959L106.76 26.9532L106.823 27.4257L106.824 27.5891L106.795 27.6897L106.749 27.7355L106.683 27.776L106.596 27.86L106.543 27.9513L106.254 28.7082L106.213 28.9171L106.241 29.1433L106.508 30.0128L106.118 30.2074L105.924 30.2536L105.729 30.1943L105.134 29.8066L105.022 29.7341L104.398 29.3283L103.678 28.8609L102.958 28.3938L102.786 28.336L102.586 28.339L102.351 28.4015L102.16 28.4974L101.474 29.1106L100.873 29.6497L100.784 29.8074L100.681 30.2059L100.315 31.0865L99.8538 31.912L99.3608 32.5375L98.7307 33.3391L98.5835 33.9075L98.592 34.7161L98.6024 35.7655L98.6702 36.2877L98.7161 36.4653L98.834 36.4584L98.9469 36.4364L99.0622 36.3721L99.1666 36.2831L99.2445 36.1863L99.2791 36.2884L99.3967 36.6365L99.4865 36.774L99.6811 36.981L99.7536 37.0935L99.7936 37.2446L99.7852 37.4346L99.715 37.734L99.7439 37.924L99.8962 38.1888L100.594 38.8235L100.918 39.3153L101.023 39.4213L101.126 39.4906L101.721 39.6972L101.962 39.7805L102.482 39.9604L103.18 40.2021L103.636 40.2953L104.386 40.3057L105.375 40.3192L106.028 40.3289L106.637 40.337L106.634 40.236L106.614 40.1489L106.58 40.0676L106.534 39.9847L106.496 39.8726L106.479 39.3064L106.474 39.1611L106.46 38.6902L106.58 37.9892L106.686 37.3629L106.801 36.6896L106.786 36.4615L107.242 36.4638L107.35 36.485L107.518 36.6534L107.627 36.7031L107.826 36.7463L108.172 36.7054L108.369 36.7132L108.863 36.7941L109.246 36.8569L110.039 36.8349L110.917 36.8091L111.871 36.7806L112.921 36.749L112.836 37.0596L112.732 38.0539L112.607 38.5395L112.591 38.7052L112.556 38.8648L112.314 39.2055L112.296 39.2714L112.268 39.4922L112.252 39.5573L112.189 39.6749L112.159 39.8756L111.449 41.9013L110.978 44.1492L110.968 44.3211L110.955 44.3997L110.892 44.5816L110.872 44.6641L110.87 44.7578L110.909 44.9023L110.918 44.9844L110.593 46.9021L110.549 47.045L109.978 47.9445L109.939 48.0679L109.913 48.2451L109.837 48.4074L109.72 48.5257L109.568 48.5716L109.593 48.6463L109.618 48.6675L109.653 48.6548L109.707 48.624L109.762 48.8918L109.687 49.1786L109.575 49.4583L109.517 49.7108L109.43 49.846L108.844 50.4507L108.755 50.5212L108.537 50.6284L108.45 50.6877L108.384 50.7733L108.257 50.9957L108.168 51.1109L107.421 51.756L107.235 51.6007L106.966 51.6431L106.811 51.8084L106.961 52.0204L107.016 51.9534L107.106 51.874L107.215 51.8146L107.328 51.8034L107.199 52.0532L106.934 52.2755L106.094 52.7276L105.847 52.7789L105.586 52.7696L105.283 52.7091L105.292 52.7754L105.305 52.8201L105.33 52.8505L105.376 52.8733V52.9214L105.168 53.0506L103.845 54.5713L103.525 54.86L103.417 54.912L103.377 54.9432L103.36 54.9906L103.334 55.1274L103.307 55.1559L103.219 55.2176L102.959 55.586L102.861 55.6716L102.63 55.8173L102.537 55.9009L102.504 55.9776L102.467 56.1406L102.382 56.1926L102.327 56.242L102.276 56.3029L102.222 56.442L101.327 57.6772L100.435 59.4719L100.365 59.7829L100.436 60.0862L100.164 60.0851L100.098 60.1483L100.065 60.3544L100.168 60.2978L100.4 60.2192L100.487 60.1352V60.1937L100.475 60.2485L100.453 60.3032L100.394 60.4026L100.218 60.6157L99.5127 61.2644L99.3138 61.5122L98.987 62.0872L98.6059 62.9847L97.6216 64.7332L97.4844 65.0527L97.459 65.1726L97.4038 65.2847L97.0832 65.6347L95.9282 67.7936L95.7359 68.0719L95.628 68.1852L95.5301 68.2303L95.4387 68.3096L95.2241 68.7756L94.594 69.6223L94.1007 70.2863L93.9084 70.422L93.6887 70.8991L93.3299 71.3245L92.3391 72.2738L92.2173 72.3381L91.7984 72.4587L91.6434 72.532L91.5097 72.6395L91.4534 72.7782L91.0364 73.295L90.8873 73.3594L90.826 73.4033L90.7802 73.5559L90.7331 73.6184L90.68 73.6646L90.643 73.6816L90.4907 73.7205L90.3686 73.8192L90.1508 74.0627L90.0425 74.1271L89.7751 74.2265L89.5993 74.3533L89.5408 74.3668L89.4768 74.3726L89.4047 74.3945L89.3716 74.3984L89.2964 74.3868L89.2656 74.3945L89.224 74.4477L89.2332 74.4894L89.2586 74.5244L89.2652 74.5583L89.1307 74.8582L88.9311 74.9719L88.8933 75.02L88.8655 75.2166L88.7919 75.3218L88.5692 75.4856L88.348 75.7303L88.2428 75.8814L88.1973 76.0097L88.1796 76.086L88.0585 76.3061L87.9857 76.3492L87.9657 76.3654L87.9541 76.3966L87.9321 76.4945L87.9194 76.5238L87.4712 76.7323L87.4053 76.8302L87.3772 76.962L87.309 77.1108L87.1228 77.4044L86.2869 78.3113L85.5874 79.2778L85.2259 79.5036L85.1662 79.5823L84.254 80.4328L84.0987 80.6621L84.0413 80.7138L83.9291 80.7689L83.8678 80.8159L83.6173 81.0814L83.4975 81.2495L83.4454 81.3982L83.4019 81.4946L82.6473 82.0881L82.4735 82.1821L82.2523 82.3706L82.1428 82.4284L82.1212 82.5559L81.9636 82.6808L81.6283 82.8642L81.3088 83.097L81.1065 83.208L80.7311 83.3198L80.5585 83.4843L80.4275 83.7082L80.3762 83.948L80.313 84.1206L80.1654 84.289L79.4698 84.874L79.264 84.9492L79.2031 85.0124L79.1144 85.1434L79.0216 85.1989L79.0104 85.2286L79.0089 85.2702L79.0023 85.3145L78.9753 85.3554L78.6501 85.5057L78.5179 85.6575L78.4419 85.693L78.3105 85.7142L77.9745 85.8402L77.8577 85.9134L77.2499 86.5613L77.0233 86.7497L76.5435 86.9343L76.466 87.0025L76.4352 87.0145L76.2772 87.25L76.2252 87.2796L76.1732 87.2954L76.1161 87.2881L76.0437 87.2496L75.9951 87.4573L75.8325 87.6346L75.4633 87.9325L75.2976 88.0319H75.2698L75.2409 88.0119L75.2189 87.9899L75.2058 87.9814L75.1827 88.0061L75.155 88.0928L74.4312 88.5961L74.3664 88.6755L73.8523 88.926L73.746 89.0108L73.6939 89.0671L73.6708 89.123L73.6577 89.1846L73.62 89.2497L73.5656 89.3002L73.5036 89.3203L73.3641 89.3453L72.7752 89.6664L72.6441 89.6995L72.4804 89.7103L72.3301 89.7581L71.9493 90.0945L71.8117 90.1323L71.4845 90.172L71.2579 90.3088L70.6066 90.5917L70.5249 90.6009L70.4717 90.636L70.427 90.7882L70.3838 90.8241L70.2362 90.8468L69.5861 91.1767L69.3206 91.2499L69.0404 91.2646L68.4631 91.1786L68.2835 91.1859L68.1528 91.2457L68.0334 91.2669L67.8742 91.1983L67.6187 91.0468L66.7146 90.8641L65.7819 90.8137L65.1853 90.9035L64.6281 91.0811L64.1232 91.3312L63.9055 91.5027L63.7289 91.7278L63.5995 91.9933L63.4881 92.4523L63.4704 92.6454L63.5008 92.7348L63.6334 92.7996L63.6638 92.8716L63.6966 92.9217L63.8924 93.0678L64.0188 93.2751L64.0781 93.348L64.0681 93.4119L64.0554 93.4382L64.0315 93.4648L63.8176 93.3961L63.67 93.4447L63.5336 93.5314L63.3567 93.5761L63.1443 93.5515L62.7844 93.4366L62.589 93.4039L62.2506 93.4478L62.0814 93.4486L61.8983 93.3391L61.6567 93.2963L61.4243 93.1237L61.1777 93.0235L60.6011 92.8682L59.9791 92.8547L59.3702 92.9399L58.9721 93.0559L58.8102 93.1437L58.7035 93.2705L58.7991 93.6066L58.7239 93.7707L58.6079 93.9122L58.5362 93.9677L58.2129 94.264L58.1659 94.3881L58.1936 94.4876L58.2576 94.5411L58.3219 94.5812L58.3508 94.6402L58.3277 94.7111L58.2117 94.802L58.1662 94.8649H58.1196L58.0341 94.7419L57.8915 94.693L57.4271 94.681L57.0529 94.5789L56.8964 94.5577L56.4667 94.6406L56.3372 94.6294L55.7499 94.4722L55.4558 94.3172L55.2176 94.101L55.0866 94.0502L54.2596 93.95L54.1412 93.8837L54.0472 93.8162L53.6071 93.6266L52.392 93.5145L52.2455 93.4798L51.953 93.3703L51.2289 93.2956L50.023 93.0108L49.7039 93.0235L48.6101 93.279L48.4641 93.3449L48.3334 93.4328L48.2244 93.5449L48.1585 93.7237L48.2043 93.8871L48.3242 93.9993L48.4791 94.0232V94.0794L46.1313 93.8552L46.0947 93.8023L46.0542 93.5673L46.0373 93.5137L45.8326 93.4975L45.7486 93.464L45.6912 93.4019L45.7155 93.5253L45.766 93.5738L45.8319 93.6L45.9005 93.6559L45.9679 93.77L45.9691 93.8301L45.9236 93.8821L45.8827 93.8401L45.7876 93.8108L45.5995 93.7935L45.512 93.8135L45.4469 93.8428L45.3748 93.864L45.2696 93.854L44.727 93.6848L44.5096 93.5488L44.4221 93.5206L44.3458 93.4698L44.2907 93.3476L44.2757 93.2709L44.2807 93.2135L44.3262 93.1826L44.4302 93.1842L44.3231 93.0921L44.1728 93.0435L43.8729 93.0115L43.9369 93.1349L44.0271 93.2563L44.1339 93.3538L44.2444 93.4039L44.1196 93.4478L43.955 93.415L43.1896 93.1437L43.0536 93.1237L42.8756 93.1298L42.7418 93.1561L42.6312 93.2081L42.279 93.5002L42.0042 93.6463L41.699 93.7164L41.0642 93.6451L40.7794 93.6517L40.1956 93.7958L40.0595 93.8605L39.9485 93.9465L39.7493 94.1669L39.6641 94.3392L39.6938 94.4729L39.7921 94.5704L39.9131 94.6413L39.8202 94.7215L39.6845 94.7697L38.8008 94.9026L38.5488 95.0144L38.3773 95.2029L38.3569 95.3366L38.3916 95.6056L38.3268 95.6973L38.1923 95.9378L38.1526 95.9671L37.751 96.2056L37.4736 96.3101L37.1837 96.3683L36.8885 96.3864L36.1721 96.2392L35.9177 96.0811L35.7674 96.0438L35.6198 96.0711L35.3362 96.191L35.0973 96.2365L35.0491 96.2819L35.0194 96.337L34.9828 96.3868L34.9381 96.423L34.4856 96.6226L34.1931 96.6669L33.8979 96.6423L32.7834 96.2241L32.5113 96.1632L31.8515 96.1031L31.5262 96.1393L31.2553 96.2746H31.305L30.9169 96.3852L30.7909 96.4488L30.9744 96.4797L31.137 96.6041L31.2187 96.7772L31.1624 96.9487L31.0349 97.0003L29.834 96.781L28.8836 96.9117L28.6 97.045L28.3645 97.2335L27.9922 97.7403L27.865 97.8636L27.7356 97.916L27.638 97.9376L27.5914 97.9911L27.5544 98.0636L27.4847 98.1414L27.4265 98.1723L27.206 98.2598L27.0966 98.3364L26.9733 98.4521L26.8727 98.5904L26.831 98.733L26.7582 98.708L26.5925 98.7523L26.3166 98.8741L25.8132 99.244L25.6221 99.5038L25.7134 99.7258V99.7774L25.604 99.8079L25.4263 99.9223L25.3153 99.9474L25.2086 99.932L25.1026 99.8915L25.0043 99.8375L24.5765 99.515L24.4783 99.4132L24.3588 99.3493L23.2697 99.382L23.1714 99.4063L23.0585 99.5208L22.9644 99.5512L22.8916 99.5342L22.8461 99.483L22.8145 99.4252L22.7829 99.382L22.4403 99.1693L21.9216 98.6428L21.574 98.4432L21.4684 98.36L21.3624 98.2282L21.2356 98.1276L21.0729 98.1068L20.9099 98.153L20.7804 98.259L20.7211 98.2154L20.6614 98.2027L20.602 98.2174L20.5434 98.259L20.5689 98.1669L20.9731 97.6061L21.0067 97.5163L20.9735 97.2909L20.8664 97.0273L20.7269 96.7818L20.5943 96.6107L20.4991 96.5382L20.4128 96.5166L19.938 96.6157L19.5218 96.5864L19.4304 96.5594L19.3372 96.4677L19.2134 96.2353L19.1055 96.1617V96.1054L19.2809 96.0734L19.3614 95.9528L19.4069 95.7805L19.4771 95.5936L19.3591 95.6618L19.1988 95.9324L19.1267 95.9914L18.6076 95.9571L18.5205 95.9644L18.3247 96.038L17.6634 96.1505L17.5208 96.2457L17.4938 96.3128L17.4279 96.3317L17.3516 96.3143L17.288 96.2742L17.2245 96.1737L17.2322 96.0931L17.288 95.9925L17.2422 95.7212L17.2383 95.6565L17.2615 95.5655L17.2931 95.5266L17.3328 95.4965L17.3813 95.4264L17.4376 95.2657L17.4276 95.1454L17.3301 94.866L17.3208 94.6964L17.3809 94.6217L17.4738 94.5542L17.5628 94.412L17.2776 93.975L17.1682 93.913L16.7651 93.8135L16.13 93.7526L15.5033 93.7838L15.4031 93.8266L15.3449 93.8667L15.0994 93.9688L14.9823 94.0552L14.926 94.1137L14.8628 94.1978L14.7626 94.3034L14.7329 94.3615L14.7237 94.4729L14.7402 94.5577L14.7745 94.6024L14.8192 94.6379L14.8628 94.6918L14.9557 95.0341L14.9657 95.1142L14.9699 95.189L14.909 95.7335L14.9368 95.9016L15.0528 95.9917L14.9256 96.0307L14.7564 95.9409L14.5949 95.7921L14.492 95.6557L14.3283 95.3293L14.3063 95.2314L14.314 95.1793L14.3448 95.0664L14.3525 95.0021L14.3394 94.972L14.3105 94.9531L14.2778 94.9377L14.2597 94.9211L14.1945 94.7053L14.1394 94.6163L13.9433 94.5489L13.8808 94.4695L13.8643 94.3639L13.8854 94.2482L13.9352 94.1835L13.9984 94.1608L14.0516 94.118L14.0747 93.9958L14.0781 93.8837L14.0916 93.7962L14.1205 93.7153L14.1679 93.6266L14.0685 93.6413L14.0288 93.6551L13.9779 93.6871L13.8812 93.5345L13.872 93.4158L13.9282 93.3079L14.0288 93.1838L14.1232 93.0316L14.1961 92.7391L14.2608 92.5637L14.4813 92.3853L14.7429 92.3918L14.9626 92.3571L15.0539 92.0554L15.0243 91.8997L14.8932 91.6873L14.8639 91.581L14.8474 91.4199L14.6666 90.6969L14.4886 90.3396L14.4508 90.1801L14.3888 90.1481L14.0747 89.7642L13.9629 89.6906L13.9086 89.6421L13.8854 89.5692V89.2328L13.8677 89.0636L13.8207 88.9229L13.6531 88.6458L13.4588 88.435L12.725 87.9186L12.7921 87.7818L12.7524 87.6211L12.5817 87.3024L12.493 87.087L12.3285 86.8623L12.3081 86.7763L12.2433 86.6707L11.9315 86.3682L11.8167 86.3062L11.676 86.2495L11.5816 86.1189L11.5061 85.9697L11.4263 85.8576L11.6001 85.7705L11.7007 85.7454L11.7727 85.7743L11.8259 85.8672L11.8637 85.9551L11.9099 86.0318L11.9874 86.0846L11.957 86.1732L12.0063 86.2399L12.1928 86.3898L12.3185 86.5667L12.4067 86.6603L12.4942 86.6935L12.5994 86.6314L12.5717 86.5401L12.4252 86.3894L12.3894 86.3208L12.3755 86.184L12.3555 86.1293L12.3258 86.1096L12.2495 86.1011L12.2163 86.0846L12.0672 85.9339L12.0113 85.8545L11.9882 85.7739L12.0094 85.4236L11.9882 85.3041L11.8914 85.1465L11.7304 85.0667L11.5334 85.0498L11.3307 85.0825L11.392 85.2105L11.4274 85.2533L11.3446 85.2729L11.2737 85.3084L11.1411 85.4144L11.0671 85.3284L11.0262 85.244L11.0097 85.1689L11.0058 85.1122L10.98 85.0425L10.933 84.97L10.9091 84.8802L10.9561 84.755L10.9233 84.691L10.8405 84.4571L10.7996 84.2778L10.7942 84.2119L10.8174 84.1433L10.8863 84.0566L10.9257 83.958L10.8879 83.8632L10.731 83.6512L10.6933 83.63L10.6674 83.5996L10.6736 83.529L10.7002 83.519L10.7499 83.5294L10.7954 83.5333L10.817 83.5009L10.8386 83.4766L10.943 83.3834L10.9812 83.3629L11.0363 83.3518L11.0486 83.3236L11.0509 83.2808L11.074 83.225L11.079 83.1618L11.0729 82.9124L11.0948 82.8111L11.1881 82.7363L11.3492 82.6692L11.513 82.6311L11.6136 82.6411L11.5635 82.7008L11.6433 82.8203L11.9889 83.1417L12.2818 83.2593L12.5416 83.1922L12.7678 83.0161L13.5899 82.179L13.7479 81.8645L13.8457 81.5767L14.0045 80.9196L14.03 80.5997L13.998 80.0397L13.9587 79.9122L13.8774 79.7314L13.9155 79.6L14.0762 79.3861L14.1078 79.0616L13.845 78.011L13.7687 77.1543L13.648 76.8063L13.6084 76.6325L13.6249 76.2826L13.6149 76.1138L13.5386 75.9511L13.4534 75.8394L13.376 75.7041L13.3351 75.5974L13.3297 75.5257L13.3363 75.4621L13.3297 75.3769L13.186 74.8189L13.0711 74.5529L12.9085 74.2809L12.5917 73.8735L12.5412 73.7606L12.5269 73.7008L12.2167 73.2453L11.8922 72.9023L11.8413 72.7786L11.7982 72.6333L11.6941 72.5115L11.4702 72.3111L11.2055 71.8953L11.012 71.7431L10.9445 71.5461L10.8632 71.1708L10.7788 71.0713L10.5017 70.847L10.4416 70.7638L10.405 70.6605L10.0373 70.052L10.0038 70.0273L9.93406 69.8323L9.90823 69.7814L9.82037 69.6454L9.67662 69.2897L9.60647 69.1563L9.1336 68.4831L8.75631 67.7235L8.72085 67.6109L8.66458 67.3211L8.58172 67.0436L8.18246 66.4925L8.00017 66.1507L8.02561 65.852L7.85874 65.6586L7.47836 64.9525L7.41747 64.7698L7.2926 64.6161L6.85634 63.8538L6.82589 63.7736L6.8047 63.5697L6.7465 63.32L6.71837 63.2545L6.70295 63.0452L6.3457 62.4182L6.25398 62.1565L6.22854 61.8505L6.07053 61.2212L5.64467 60.218L5.60036 59.9509L5.58533 59.912L5.55373 59.8719L5.52212 59.8172L5.50709 59.7355L5.50208 59.6527L5.32249 59.0079H5.3645L5.33135 58.9065L5.33251 58.6965L5.32249 58.5859L5.15446 58.1354L5.15793 58.0521L5.06775 57.9785L5.02112 57.8093L4.99298 57.5137L4.7922 56.9565L4.7421 56.8694L4.49121 56.0971L4.4623 56.047L4.33089 55.9028L4.30159 55.8261L4.28232 55.7899L4.15861 55.6396L4.01486 55.1698L3.97633 55.0989L3.90541 55.0234L3.87574 54.9567L3.88229 54.7783L3.85724 54.7043L3.79365 54.5871L3.73739 54.4071L3.71195 54.2248L3.74509 54.098L3.64104 53.9215L3.20748 53.5365L3.14428 53.439L3.04099 53.1392L2.98858 53.0332L2.68296 52.6035L2.22512 52.2069L2.15151 52.0389L2.08291 51.7637L2.04553 51.4901L2.06634 51.3286L2.03859 51.277L1.98001 51.1433L1.96961 51.0855L1.94379 51.045L1.88675 51.0311L1.82316 51.0269L1.78 51.0111L1.63509 50.6835L1.52333 50.5941L1.35183 50.4087L1.33911 50.3671L1.40925 50.3166L1.45242 50.2025L1.46783 50.0796L1.45511 50.0021L1.5796 49.9439L1.75726 49.8225L1.94456 49.725L2.20431 49.641L2.71919 49.1273L2.78933 49.1003L2.84984 49.1377L2.8799 49.2256L2.89955 49.3238L2.92768 49.3959L3.0406 49.4079L3.17626 49.2911L3.29843 49.1265L3.37281 48.9947L3.39169 48.8645L3.40017 48.688L3.43524 48.5338L3.53506 48.4667L3.60751 48.4035L3.55972 48.2621L3.4152 48.0405L3.36664 47.9218L3.33928 47.7638L3.36895 47.6258L3.48958 47.5661L3.54855 47.5938L3.61599 47.6439L3.68459 47.6678L3.74856 47.6193L3.76205 47.5222L3.72274 47.4304L3.67149 47.3522L3.65106 47.2979L3.67842 47.2254L3.71581 47.1969L3.86033 47.1977L3.96438 47.173L3.96169 47.1171L3.84221 46.9633L3.8241 46.9229L3.83759 46.8766L3.87882 46.8431L3.90618 46.855L3.93509 46.8774L4.04801 46.8743L4.08308 46.9021L4.11276 46.9059L4.16247 46.8284L4.21296 46.2168L4.23685 46.196L4.35286 46.0631L4.39409 46.0295L4.44766 46.0438L4.51587 46.1274L4.58408 46.1401L4.6654 46.1082L4.76252 46.0041L4.84114 45.9825L5.02228 46.0295L5.24927 45.86L5.32596 45.8203L5.46007 45.7867L5.52867 45.7883L5.60537 45.8203L5.70017 45.9347L5.77802 46.0924L5.86705 46.2323L5.99885 46.2928L6.16957 46.3459L6.23124 46.4797L6.2297 46.6531L6.21159 46.8273L6.24473 47.188L6.38886 47.3672L6.60661 47.4088L7.03786 47.3059L7.21359 47.2963L7.29029 47.3329L7.31765 47.4181L7.32767 47.516L7.35349 47.59L7.41515 47.6848L7.43481 47.7638L7.44175 47.8428L7.46834 47.9376L7.51535 48.0166L7.62365 48.1619L7.65872 48.249L7.67259 48.4143L7.6564 48.6267L7.59937 48.8086L7.49107 48.8868L7.37661 48.9165L7.25868 48.994L7.17005 49.0969L7.14346 49.2078L7.19895 49.3477L7.38278 49.589L7.42209 49.7647L7.47489 49.895L7.72346 49.9879L7.79784 50.1582L7.75506 50.4623L7.6699 50.7841L7.68261 51.0172L7.9362 51.0581L8.2368 50.9853L8.51852 50.9517L8.65688 50.9174L8.78598 50.8565L8.90121 50.8311L9.00373 50.9039L9.04034 51.0681L9.03456 51.2585L9.06539 51.4154L9.21222 51.4809L9.43112 51.5441L9.51822 51.5387L9.58335 51.5075L9.71824 51.4146L9.79185 51.3803L10.0107 51.361L11.1449 51.6142L11.3912 51.7183L11.6209 51.8659L12.0337 52.2123L12.2942 52.3488L12.8649 52.5499L12.9913 52.5522L13.2338 52.4671L13.8315 52.3796L13.9833 52.3908L14.2693 52.4975L14.4358 52.5264L14.568 52.4702L14.6208 52.4359L14.6952 52.4127L14.8277 52.3912L14.8651 52.3792L14.9241 52.3407L14.9618 52.3333L14.9919 52.3511L15.0748 52.4289L15.1056 52.4443L15.2517 52.3977L15.4979 52.2613L16.8005 52.069L18.2195 52.2767L18.3324 52.3842L18.5039 52.6563L18.5756 52.7395L18.6234 52.7565L18.8616 52.7869L18.9367 52.8128L18.9683 52.8448L19.0836 52.9966L19.3456 52.982L19.6266 52.8879L20.0135 52.6817L20.069 52.6247L20.1434 52.5014L20.185 52.4725L20.4082 52.454L20.4883 52.4043L20.4918 52.3106L20.2382 51.8705L20.1931 51.7013L20.2178 51.5394L20.3357 51.3151L20.4128 51.2126L20.4991 51.1375L20.5974 51.1294L20.7596 51.2624L20.8321 51.2751L20.9304 51.2319L21.4815 51.0893L21.6206 51.0253L21.7385 50.9286L21.8094 50.8165L22.0052 50.1956L22.0464 50.1285L22.1116 50.1023L22.1543 50.075L22.2118 49.9328L22.2484 49.8696L22.3089 49.7944L22.349 49.732L22.3925 49.6784L22.4634 49.6322L22.5232 49.6129L23.2049 49.5609L23.3221 49.4992L23.4562 49.3921L23.6107 49.3377L23.9387 49.3146L24.1376 49.2572L24.4416 48.9801L24.6208 48.8787L24.6968 48.8691L24.9164 48.898L24.9866 48.8907L25.1978 48.8371L25.2082 48.6082V48.3033V47.8709V47.4381V47.0061L25.2074 46.5745L25.2066 46.1421V45.7101V45.2807V44.8491V44.4178V43.9881V43.5573V43.1264L25.2059 42.6967V42.2666V41.8365V41.4076V40.9794V40.5501V40.1211L25.2051 39.693L25.2043 39.2644V38.8359V38.4085V37.9811V37.5533V37.1263L25.2035 36.6989V36.2723V35.8453V35.4194V34.9928L25.2028 34.5673L25.202 34.1418V33.716V33.2909V32.8654V32.4407V32.0156L25.2012 31.5913V31.1666V30.7427V30.3192V29.8948L25.2005 29.4709L25.1997 29.0481V28.6246V28.2022V27.7802V27.4553V27.3582V26.9354V26.5131V26.0914L25.1989 25.6694V25.2482V24.8274V24.4058V23.9841V23.5637V23.1436L25.1982 22.7228L25.1974 22.3031V21.8826V21.4625V21.0432L25.1951 20.9496ZM86.3389 52.6074L85.9655 52.2231L85.6923 51.7398L85.6052 51.6343L85.5111 51.5522L85.5096 51.551L85.4071 51.4886L85.2999 51.4481L85.2945 51.4462L85.0826 51.4076L85.0263 51.3645L84.829 50.9907L84.7288 50.9059L84.4274 50.8978L84.3557 50.7887L84.3064 50.4711L84.2648 50.3193L84.2031 50.1914L84.1125 50.0819L83.9842 49.9867L83.8832 49.9994L83.4963 50.2634L83.3614 50.2962L82.4157 50.3594L82.2766 50.418L82.1444 50.5509L81.9605 50.8685L81.8299 50.9876L81.6931 51.0404L81.5358 51.0612L81.3794 51.0442L81.2426 50.9833L81.157 50.9918L80.7897 51.0288L80.7281 51.0049L80.6606 51.1009L80.5701 51.2138L80.3828 51.4909L80.3612 51.5356L80.0598 51.8585L79.8027 52.2023L79.7738 52.264L79.7762 52.3241L79.7677 52.37L79.7072 52.3877H79.5226L79.4459 52.3484L79.3827 52.2667L79.3017 52.1919L79.1738 52.1757L79.0747 52.2328L79.02 52.3353L78.9772 52.4578L78.914 52.575L78.7329 52.6567L77.9591 52.6039L78.0088 52.7345L77.9359 52.7947L77.8288 52.8317L77.7733 52.8933L77.7725 53.0008L77.7656 53.0633L77.7498 53.1049L77.7348 53.1299L77.7274 53.1538L77.727 53.2109L77.7159 53.2429L77.6885 53.2406L77.6561 53.2301L77.6303 53.2398L77.4989 53.4302L77.4156 53.52L77.3309 53.5577L77.223 53.5874L77.2542 53.6591L77.339 53.7466L77.3979 53.8236L77.3548 53.8317L77.2919 53.8637L77.2584 53.8764L77.2118 53.8236L77.1659 53.8764L77.1914 54.0202L77.1991 54.0634L77.0453 54.3528L76.6564 54.8322L76.6071 54.8596L76.5377 54.8862L76.4691 54.927L76.424 54.9964L76.4206 55.0711L76.463 55.2523L76.4742 55.3425L76.4063 55.4003L76.3504 55.4188L76.0733 55.5097L75.9608 55.5814L75.9404 55.6442L75.9269 55.8254L75.9099 55.8955L75.844 55.9857L75.7808 56.0204L75.7184 56.0412L75.6575 56.0913L75.6413 56.1452L75.6687 56.1903L75.7088 56.2385L75.7284 56.2998L75.7184 56.3988L75.6918 56.4454L75.6467 56.4794L75.3646 56.7896L75.2895 56.9114L75.2606 57.0517L75.2239 57.0848L75.0644 57.0775L75.0278 57.1056L75.0143 57.195L74.9808 57.2775L74.9357 57.3469L74.9206 57.3627L74.889 57.3962L74.6678 57.5269L74.5233 57.5881L74.3322 57.6278L74.2108 57.6949L74.1418 57.7207L73.9425 57.7419L73.751 57.8194L73.7144 57.8444L73.4947 58.078L73.4639 58.0999L73.4084 58.0756L73.3906 58.0271L73.3695 57.9866L73.3028 57.9882L73.2662 58.0213L73.2141 58.1473L73.1679 58.2063L73.1039 58.1134H73.0322L72.981 58.187L72.9783 58.313L72.8946 58.5069L72.9494 58.5335L73.0465 58.6129L73.1355 58.663L73.2261 58.7439L73.4242 59.0437L73.482 59.1601V59.1609H73.4827L74.0439 60.5032L74.2304 60.9503L74.3603 61.1036L74.6863 61.38L74.7831 61.538L74.8752 61.9103L74.9206 62.0205L75.0047 62.1511L75.0675 62.1762L75.1519 62.1558H75.3029L75.407 62.185L75.471 62.2378L75.4652 62.3157L75.3634 62.4197L75.2151 62.7901L75.2278 63.0152L75.3793 63.4387L75.3681 63.5617L75.4417 63.5705L75.4463 63.5717L75.5816 63.6102L75.6506 63.6206L75.6984 63.6125L75.8425 63.5524L75.9516 63.5539L76.0013 63.6052L76.051 63.7979L76.1242 63.9174L76.231 64.0068L76.4788 64.1216L76.5038 64.2099L76.5258 64.287L76.7034 64.4627L76.8672 64.6947L76.8896 64.7648L76.8931 64.8358L76.9042 64.9067L76.947 64.9733L77.3609 65.2905L77.7278 65.7106L77.9321 65.8412L78.1687 65.9156L78.4539 65.9541L78.5221 65.9426L78.652 65.8782L78.7109 65.8686L78.7896 65.8956L78.8474 65.9414L78.9006 65.9954L78.9653 66.0466L79.101 66.1152L79.2435 66.1619L80.0463 66.232L80.2097 66.3037L80.2113 66.1495L80.1943 66.0231L80.1897 65.8952L80.2286 65.736L80.2725 65.6628L80.3292 65.6219L80.387 65.59L80.441 65.5433L80.4953 65.4716L80.5184 65.4235L80.6337 65.0566L80.6421 64.9922L80.6205 64.914L80.5411 64.7756L80.5265 64.7136L80.5797 64.6199L81.157 64.1632L81.2468 64.0565L81.2946 63.8865L81.2765 63.7066L81.1971 63.6364L81.0973 63.5902L81.0229 63.4838L81.0375 63.3374L81.142 63.2187L81.2846 63.1316L81.409 63.0811L81.6087 63.0518L81.6742 63.0225L81.7212 62.9755L81.8056 62.8518L81.8688 62.804L81.9752 62.6968L82.09 62.4783L82.1478 62.3689L82.2823 62.2502L82.4457 62.2244L82.7737 62.2721L82.9417 62.212L83.2366 62.0344L83.3468 62.0078L83.4605 62.0209L83.7904 62.1492L84.0201 62.1507L84.6301 61.9176L85.0795 61.8201L85.5169 61.639L86.307 61.1175L86.5752 60.9503L87.1074 60.6184L87.1903 60.5811L87.3702 60.5275L87.4481 60.4886L87.4916 60.4215L87.4755 60.3444L87.4011 60.1937L87.3864 60.0835L87.3907 60.0138L87.3718 59.9579L87.2862 59.8908L87.1872 59.7509L87.1907 59.5632L87.2315 59.3563L87.2404 59.1821L87.2415 59.1609L87.3683 58.9273L87.4543 58.7057L87.5645 58.5104L87.7618 58.3535L88.2848 58.1913L88.3615 58.0934L88.3599 57.9643L88.3703 57.8425L88.4813 57.7658L88.3846 57.6448L88.338 57.4582L88.3383 57.4274L88.3403 57.2582L88.3896 57.0944L88.533 56.9476L88.7245 56.8628L88.9268 56.8L89.106 56.721L89.1831 56.6628L89.2402 56.5934L89.2718 56.5063L89.2671 56.3934L89.2798 56.2709L89.4055 56.0905L89.4305 55.9768L89.4093 55.9317L89.3188 55.8415L89.2887 55.7941L89.2818 55.7379L89.2879 55.6188L89.2818 55.5714L89.2132 55.403L89.0236 55.1448L88.9492 54.8704L88.8979 54.7386L88.8047 54.6333L88.6983 54.552L88.622 54.4588L88.5877 54.0109L88.3811 53.9242L88.1094 53.9169L87.8855 53.8487L87.3251 53.2544L87.0912 53.1469L86.9382 53.1061L86.8484 53.0444L86.8091 52.9457L86.8072 52.7931L86.7451 52.7153L86.5987 52.6455L86.4388 52.6016L86.3389 52.6074Z" fill="#E6F7ED" stroke="#3CB371" stroke-width="2" strokeLinejoin="round"/>
</svg>
