<svg width="148" height="51" viewBox="0 0 148 51" fill="none" xmlns="http://www.w3.org/2000/svg">
<path d="M135.346 25.41L135.297 25.3682L134.905 25.0255L134.876 24.935L134.931 24.8372L135.064 24.7445L135.216 24.6722L135.331 24.6375L135.469 24.6457L135.736 24.7337L135.87 24.7555L135.951 24.7926L136.022 24.8773L136.12 25.0346L136.19 25.1037L136.254 25.1432L136.327 25.1612L136.428 25.1657L136.771 25.2771L136.804 25.3505L136.805 25.3517L136.851 25.4601L136.448 25.456H135.938H135.601L135.346 25.41ZM19.6492 9.84453L19.8383 9.9818L20.234 10.2491L20.3191 10.2915L20.4925 10.2473L20.5268 10.1607L20.4636 10.1014L20.3432 10.1393L20.4263 10.0226L20.5853 10.0287L21.4449 10.3447L21.6112 10.4445L21.9203 10.7722L22.8082 12.5255L22.9629 12.7166L23.1202 12.8429L23.1829 12.8927L23.5739 13.1359L23.7443 13.2712L23.89 13.4516L23.9865 13.6926L24.0617 13.8083L24.2636 13.8984L25.5899 14.9504L25.9043 15.1065L26.2103 15.1688L26.3295 15.2487L26.7144 15.5894L27.4005 16.364L28.1566 17.5548L28.415 18.1864L29.1499 19.4183L29.5843 20.2136L29.6283 20.3564L29.6566 20.4084L29.7868 20.561L29.8264 20.6356L29.8305 20.7209L29.7758 20.94L29.7866 21.1089L29.8594 21.419L29.9847 22.5407L29.9751 22.7112L29.9022 22.8508L29.8516 22.9979L29.9425 23.33L29.9274 23.4384L30.1677 24.1253L30.1846 24.351L30.166 24.4319L30.0654 24.6923L30.0063 24.7814L29.9582 24.827L29.8533 24.9527L29.8262 25.0098L29.8292 25.0742L29.8767 25.2675L29.8304 25.3442L29.7875 25.37L29.7736 25.3782L29.7133 25.4006L29.653 25.4428L29.5 25.6457L29.435 25.761L29.4266 25.892L29.4773 26.1241L29.752 26.8089L29.7249 26.9944L29.5568 26.8911L29.4315 27.1058L29.3526 27.4373L29.3255 27.681L29.3327 27.9553L29.3111 28.0893L29.1823 28.0926L29.1089 28.1874L29.0474 28.3157L29.0173 28.4174L29.024 28.5647L29.0637 28.689L29.3492 29.3143L29.3763 29.4072L29.5046 29.5904L29.7575 29.8294L29.9309 30.0792L29.826 30.2956L30.079 30.2449L29.7176 31.0116L29.6786 31.3172L29.8003 32.2337L29.8516 32.3802L29.8859 32.5286L29.7269 34.3222L29.7756 34.6166L30.0159 35.1434L30.3606 35.603L31.2358 36.4692L31.2498 36.4753L31.3372 36.5146L31.4511 36.5375L31.5813 36.5438L31.621 36.5656L31.7317 36.667L31.8112 36.6958L31.8829 36.6846L32.0595 36.599L32.174 36.6412L32.1859 36.6943L32.1667 36.7573L32.1885 36.827L32.4452 37.0269L32.5355 37.1408L32.7258 37.5605L32.662 37.7321L32.6565 37.8753L32.7107 38.0128L33.2564 38.7028L33.3208 38.7625L33.4834 38.8819L33.5347 38.9308L33.5673 39.0086L33.569 39.1563L33.5853 39.2392L33.6342 39.3205L33.7642 39.4815L33.7913 39.5699L33.775 39.6388L33.7028 39.7849L33.6859 39.8729L33.7377 40.0235L34.0847 40.4524L34.2739 40.9168L34.4099 41.1016L34.4962 41.287L34.5449 41.3671L34.7002 41.5455L34.7471 41.625L34.8068 41.7886L34.8176 41.9323L34.7978 42.2542L34.8322 42.407L34.9146 42.567L35.0164 42.6521L35.1049 42.581H35.1519L35.3579 42.939L35.4241 43.2785L35.5619 43.471L35.5998 43.5803L35.6106 43.8307L35.654 43.9338L35.742 44.0363L35.8011 44.131L35.7614 44.2082L35.8109 44.3081L35.8639 44.6166L36.0146 45.0216L36.0863 45.3615L36.0935 45.5471L36.0429 45.6284L35.9814 45.6956L36.0024 46.02L35.9651 46.1333H35.6856L35.6489 46.158L35.5711 46.2653L35.535 46.29L35.2008 46.2749L35.0556 46.2448L34.7562 46.1248L34.6984 46.0752L34.6912 45.9996L34.6967 45.8584L34.657 45.7519L34.5684 45.6736L34.4667 45.6048L34.3933 45.5314L34.3522 45.2596L34.5509 45.1298L34.8245 45.0214L35.0052 44.815L34.8665 44.783L34.7352 44.8173L34.6116 44.8902L34.3622 45.0764L34.3074 45.1045L34.2809 45.0542L34.2375 44.9201L34.0027 44.4338L33.8273 44.1709L33.6604 44.0564L33.6176 44.1455L33.6928 44.3468L33.9734 44.7902L33.9757 44.893L33.9373 45.0999L33.9541 45.1966L33.9862 45.303L34.0042 45.4157L33.9844 45.5314L33.723 45.7447L33.3681 45.6567L32.7254 45.3246L32.5375 45.3397L32.2399 45.4941L32.0846 45.5314L31.7853 45.5059L31.6738 45.5167L31.554 45.5821L31.1738 46.0587L30.9521 46.2362L30.6901 46.1889L30.6756 46.1551L30.622 46.0785L30.5654 46.0243L30.5383 46.0604L30.5462 46.1435L30.5817 46.2537L30.589 46.3145L30.5703 46.397L30.4372 46.5928L30.3323 46.8505L30.2414 46.7061L29.9818 46.4838L29.8769 46.3399L29.8137 46.1926L29.5739 45.389L29.4366 45.1035L29.2294 44.8666L28.9162 44.6671L28.0356 44.3333L26.7851 43.555L26.4832 43.4113L26.3189 43.3651L26.149 43.3486L26.0261 43.3178L25.9418 43.2412L25.8201 43.045L25.6773 42.8765L25.5008 42.7235L25.2936 42.5912L25.0628 42.4841L24.9442 42.5279L24.5768 42.5839L24.4515 42.5806L24.2852 42.4891L24.1876 42.3437L24.0466 42.0287L23.9242 41.8856L23.3188 41.4003L23.2357 41.309L23.1827 41.2149L23.2465 41.202L23.2555 41.1778L23.2404 41.147L23.2331 41.1136L23.1399 41.0205L23.0079 40.9229L22.7279 40.7595L21.6888 40.3369L20.4997 39.845L20.2503 39.7022L20.0479 39.5418L19.4876 38.9226L19.4063 38.8837L19.2466 38.8521L19.1009 38.7688L19.0123 38.6539L19.0249 38.5253L18.902 38.4951L18.7839 38.4493L18.566 38.3185L18.436 38.4047L18.2011 38.4193L18.1108 38.5253L18.0583 38.3407L18.0438 38.1041L18.0059 37.8996L17.8812 37.8125L17.8305 37.7871L17.7588 37.7274L17.6516 37.6102L17.5022 37.1815L17.4383 37.1021L17.339 37.0611L16.9867 37.0279L16.8946 36.9719L16.8205 36.8924L16.6915 36.8007L16.283 36.7292L16.1318 36.6595L15.8824 36.6173L15.7204 36.5485L15.4276 36.3402L15.2566 36.1357L14.8903 35.5765L14.6607 35.3793L14.3349 35.3039L14.0048 35.2719L13.8259 35.1525L13.9524 34.8178L13.7861 34.7955L13.8012 34.6965L14.1692 34.2432L14.2758 34.1458L14.3825 34.1048L14.4655 34.0209V33.8285L14.4078 33.4722L14.3603 33.3766L14.1476 33.2099L14.1001 33.1158L13.9526 32.1492L13.9092 32.0027L13.8026 31.8823L13.5484 31.6663L13.519 31.61L13.4937 31.543L13.4508 31.4872L13.302 31.4499L13.2291 31.4156L13.1688 31.3749L13.1435 31.3396L13.0917 31.2202L12.7399 30.7555L12.5086 30.525L12.4629 30.4586L12.402 30.2887L12.2557 30.0766L12.1834 29.7455L12.1292 29.5863L12.0063 29.4272L11.469 29.0556L11.2871 28.9775L11.2149 28.928L11.1732 28.8736L11.0581 28.67L10.8661 28.4306L10.7414 28.344L10.3956 28.2843L10.3166 28.2063L10.3239 28.0787L10.4016 27.9056L10.5336 27.7821L10.5619 27.7263L10.4776 27.7032L10.3133 27.7267L10.2302 27.7521L10.1958 27.7817L10.1139 27.8149L9.93072 27.757L9.7422 27.6659L9.63929 27.6018L9.55622 27.4907L9.51106 27.3733L9.49122 27.2372L9.49476 26.8662L9.53266 26.7448L9.62476 26.6908L10.091 26.712L10.2373 26.6891L10.3547 26.543L10.4824 26.4856L10.633 26.4587L10.7547 26.4833L10.6813 26.3238L10.5085 26.3413L10.3319 26.4298L10.25 26.4833L10.0603 26.4646L10.026 26.3487L10.0537 26.1742L10.0487 25.9815L9.97353 25.8825L9.58863 25.6219L9.46746 25.5039L9.32116 25.3977L9.15679 25.3657L8.98692 25.4699L8.91288 25.3187L8.84238 25.0772L8.81174 24.8543L8.85868 24.7561L8.74792 24.7198L8.71414 24.6292L8.70865 24.513L8.67919 24.3969L8.59494 24.3138L8.52149 24.2977L8.49007 24.2549L8.52798 24.0927L8.59671 23.904L8.62027 23.8029L8.62931 23.6619L8.66132 23.5641L8.80291 23.4604L8.83551 23.3579L8.85534 23.1519L8.98731 22.6682L9.08314 22.4667L8.96983 22.5121L8.83728 22.4763L8.72652 22.3785L8.67958 22.2383L8.70491 22.089L8.77424 21.9512L8.87184 21.886L8.98751 21.9543L9.03876 21.8499L9.0965 21.7636L9.1615 21.6969L9.23612 21.6509L9.05958 21.6183L8.89698 21.6784L8.77718 21.6812L8.73025 21.4754L8.7055 21.1075L8.77483 21.0111L8.98751 20.9958V20.9404L8.94469 20.933L8.8357 20.8899L8.89285 20.7853L8.87478 20.7372L8.73025 20.6867L8.65503 20.6773L8.60653 20.6991L8.56921 20.6891L8.52758 20.5842L8.51973 20.4821L8.57825 20.357V20.2802L8.53485 20.2549L8.46258 20.2505L8.39817 20.2226L8.37578 20.1233L8.30057 20.1635L8.22103 20.1796L8.04508 20.1787L7.96377 20.1468L7.99991 20.0815L8.0763 20.0253L8.11852 20.0219L8.11361 19.9222L8.08651 19.8892L8.03054 19.8652L7.94374 19.7934L7.86971 19.757L7.78841 19.7749L7.71437 19.8218L7.6637 19.8745L7.57278 19.771L7.52997 19.6724L7.50464 19.5716L7.46124 19.4638L7.2788 19.2547L7.23304 19.0984L7.12228 18.8458L7.06023 18.7412L7.0023 18.5713L7.01251 18.5102L7.03902 18.5047L7.07397 18.5143L7.10716 18.4949L7.18238 18.4124L7.26545 18.3437L7.33162 18.2563L7.38524 18.0114L7.49364 17.781L7.51112 17.6283L7.49187 17.5452L7.42137 17.3961L7.40507 17.3512L7.42196 17.2608L7.49541 17.1247L7.51112 17.0425L7.48696 16.9468L7.30924 16.6087L7.15567 16.3964L7.11836 16.2941L7.10697 16.1262L7.15331 15.4869L7.1052 15.312L6.9371 15.015L6.90096 14.855L6.8503 14.2224L6.91844 14.2515L7.00524 14.2715L7.08968 14.2666L7.15351 14.2224L7.16431 14.1492L7.10775 14.1038L7.03666 14.0712L7.0023 14.0378L7.08536 13.1685L6.88839 11.6671L6.82516 11.5387L6.71676 11.3963L6.62819 11.2357L6.49622 10.9013L6.22875 10.4148L6.13901 10.1179L6.02569 10.0028L5.78415 9.83333L5.59621 9.59512L5.43537 9.27502L5.32147 8.92802L5.27454 8.60851L5.24626 8.4679L5.30753 8.35302L5.37253 8.19022L5.40317 8.00464L5.40003 7.93963L5.37587 7.81022L5.38235 7.74365L5.43204 7.66569L5.49704 7.61011L5.54142 7.5455L5.5265 7.43985L5.46719 7.26703L5.45914 7.13998L5.50843 6.83794L5.51805 6.66945L5.53867 6.58461L5.58639 6.52275L5.69204 6.48878L5.7594 6.52962L5.77825 6.5526L5.81223 6.59384L5.87566 6.6288L5.98779 6.63115V6.61642L6.09993 6.54612L6.16729 6.54003L6.25291 6.54808L6.33166 6.57597L6.38213 6.63056L6.65686 7.46675L6.74072 7.60795L6.88564 7.73579L7.09931 7.83909L7.17138 7.87385L7.33634 7.92471L7.46104 7.93492L7.65232 7.91273L7.76248 7.93983L7.99893 8.11049L8.13404 8.17313L8.58571 8.30451L8.83885 8.41684L8.97238 8.44964L9.10357 8.43196L9.58057 8.09006L9.70724 8.08889L9.71863 8.13484L9.71627 8.30098L9.73611 8.36323L9.79836 8.40977L9.86729 8.41959L9.94349 8.41841L10.0277 8.43078L10.1984 8.53035L10.2673 8.67292L10.2883 9.02699L10.3052 9.11262L10.338 9.19411L10.4264 9.34513L10.4405 9.4068L10.4248 9.47533L10.4014 9.53837L10.3989 9.54524L10.3851 9.61162L10.3897 9.82666L10.4075 9.8891L10.47 9.99928L10.5022 9.99535L10.5426 9.94507L10.6338 9.91542L10.7325 9.92858L11.0409 10.0058L11.1801 9.96982L11.3745 9.76126L11.5161 9.73161L11.7545 9.92701L11.8772 9.96707L12.217 9.89362L12.311 9.92642L12.3599 10.0228L12.3802 10.1744L12.3664 10.3555L12.2987 10.4187L12.2015 10.4635L12.1019 10.588L12.095 10.7597L12.2136 10.8714L12.3513 10.9753L12.4041 11.123L12.3651 11.4144L12.3537 11.838L12.3016 12.0811L12.2894 12.2215L12.2329 12.3578L12.0982 12.4079L11.9421 12.4391L11.8197 12.5177L11.5159 13.1355L11.4674 13.2187L11.4493 13.3057L11.4635 13.3906L11.5022 13.4513L11.5583 13.5394L11.6451 13.7144L11.696 13.7735L11.7683 13.8024L11.9091 13.7959L11.9825 13.8104L12.1488 13.9222L12.2893 14.0844L12.4018 14.2711L12.4866 14.4571L12.6105 14.5148L12.8163 14.4497L13.1633 14.2401L13.2776 14.1307L13.3717 13.9992L13.4351 13.8489L13.4577 13.6834L13.5492 13.3462L13.7764 13.2268L14.0671 13.1744L14.3528 13.0381L14.6126 12.8692L15.4088 12.5597L15.6639 12.4605L15.8359 12.4208L15.9942 12.4582L16.1112 12.6143L16.1456 12.6983L16.1854 12.7576L16.2428 12.793L16.3292 12.8073L16.3995 12.8358L16.4019 12.8971L16.3789 12.9713L16.3749 13.0381L16.5199 13.3786L16.635 13.5055L16.7887 13.5381L16.8622 13.5003L16.8692 13.4939L16.9965 13.3766L17.0856 13.3501L17.1836 13.3807L17.2418 13.455L17.2885 13.5451L17.3527 13.6249L17.5102 13.7101L17.6312 13.6967L17.7184 13.6027L17.7773 13.445L17.8164 13.3996L18.033 13.267L18.0782 13.2013L18.1035 13.1349L18.1402 13.072L18.2225 13.0186L18.4638 12.8083L18.511 12.5236L18.5145 12.206L18.6255 11.8973L18.8079 11.675L19.356 11.2522L19.5526 11.0556L19.636 10.8184L19.6019 10.2369L19.6492 9.84453ZM116.416 19.8774L116.539 19.8809L116.653 19.8658L116.736 19.8108L116.806 19.5636L116.893 19.497L116.994 19.5072L117.077 19.6113L117.1 19.6634L117.139 19.6773L117.3 19.6665L117.371 19.6789L117.446 19.7087L117.504 19.7496L117.584 19.8949L117.714 19.9397L117.867 19.942L117.987 19.92L118.075 19.8599L118.32 19.6115L118.353 19.5667L118.648 19.3071L118.885 19.0045L118.977 18.9568L119.127 18.9314L119.27 18.8664L119.387 18.7834L119.457 18.6987L119.501 18.5801L119.552 18.2787L119.563 18.0087L119.579 17.9372L119.659 17.785L119.72 17.7215L119.785 17.6778L119.814 17.6218L119.765 17.5222L119.485 17.6534L119.211 17.6461L118.959 17.5409L118.3 16.9684L118.281 16.8991L118.298 16.8357L118.293 16.7885L118.215 16.7705L118.182 16.7872L118.038 16.9132L117.996 16.8225L118.018 16.7167L118.063 16.602L118.111 16.3591L118.164 16.2605L118.216 16.1831L118.24 16.1265L118.327 16.0476L118.712 15.8214L118.8 15.6702L118.883 15.5586L119.406 15.1831L119.666 14.6181L119.811 14.472L119.914 14.6427L119.659 15.1215L119.811 15.3353L119.849 15.2582L119.882 15.0561L119.917 14.9759L120.17 15.1947L120.323 15.2636L120.977 15.31L121.191 15.297L121.386 15.2342L121.615 15.036L121.806 14.7434L121.953 14.4169L122.044 14.117L122.1 13.7906L122.143 13.6468L122.223 13.5261L122.331 13.4379L122.996 13.0652L123.112 12.9361L123.16 12.7661L123.182 12.4226L123.227 12.2785L123.681 11.5407L123.786 11.2184L123.67 10.999L123.504 11.0572L123.446 10.9602L123.52 10.8207L123.745 10.7493L123.876 10.6656L124.226 10.1393L124.384 9.99594L124.478 9.9492L124.603 9.93113L124.69 9.96118L124.801 10.013L124.893 10.0303L124.933 9.95666L124.902 9.70883L124.812 9.68821L124.671 9.75675L124.483 9.77913V9.7324L124.685 9.62635L124.801 9.49909L124.832 9.47356L124.886 9.46453L125.034 9.47356L125.104 9.42879L125.119 9.40385L125.119 9.36202L125.183 9.1244L125.202 9.07707L125.24 9.0156L125.309 8.93568L125.965 8.43471L126.077 8.32258L126.211 8.21928L126.35 8.15585L126.46 8.07455L126.504 7.91548L126.509 7.78096L126.534 7.63878L126.59 7.52665L126.688 7.48109L126.818 7.38034L127.277 6.76391L127.388 6.65747L127.465 6.55378L127.51 6.4222L127.525 6.2323L127.513 5.97976L127.525 5.90356L127.555 5.84465L127.646 5.72093L127.676 5.64454L127.663 5.3588L127.689 5.23351L127.898 5.13434L127.96 5.01789L128.03 4.7239L128.039 4.56012L128.057 4.49551L128.11 4.469L128.14 4.44328L128.22 4.32368L128.26 4.23413L128.324 4.17227L128.404 4.12495L128.489 4.11257L128.513 4.14242L128.589 4.3117L128.894 4.51103L128.939 4.59449L129.04 5.131L128.903 5.05186L128.824 5.02731L128.787 5.05736L128.74 5.29027L128.737 5.33485L128.822 5.40947L128.939 5.45012L129.045 5.5163L129.091 5.67046L129.062 5.96385L128.982 6.15945L128.737 6.5149L128.603 6.77451L128.498 7.09657L128.538 7.35678L128.838 7.43042L128.994 7.35364L129.109 7.21578L129.198 7.08302L129.272 7.02391L129.373 6.98091L129.702 6.66277L129.944 6.48897L129.991 6.39746L130.02 6.13961L130.056 6.10799L130.105 6.09346L130.157 6.05222L130.258 5.84897L130.526 5.57443L130.566 5.46426L130.521 5.3101L130.354 4.98372L130.363 4.82602L130.423 4.7404L130.482 4.73156L130.551 4.75709L130.642 4.77497L130.705 4.75002L130.754 4.69661L130.773 4.64221L130.745 4.61766L130.689 4.58251L130.674 4.50396L130.689 4.41932L130.718 4.36748L130.795 4.35196L130.884 4.37494L130.968 4.40714L131.025 4.41834L131.09 4.38181L131.202 4.28441L131.249 4.28892L131.307 4.32172L131.495 4.40282L131.556 4.41834L131.58 4.44779L131.964 4.68149L132.006 4.71664L132.036 4.77497L132.042 4.90281L131.995 5.261L131.962 5.33504L131.86 5.39022L131.827 5.51984L131.842 5.67301L131.884 5.79791L132.15 6.14845L132.192 6.28317L132.212 6.74604L132.243 6.86642L132.327 7.02372L132.424 7.07949L132.723 7.06987L132.837 7.10679L132.936 7.19378L133.097 7.37936L133.282 7.55061L133.41 7.64389L133.531 7.68474L133.652 7.65567L133.733 7.57378L133.91 7.27764L134.026 7.13762L134.088 7.13742L134.112 7.25172L134.117 7.45576L134.147 7.46125L134.319 7.63407L134.29 7.62405L134.271 7.65763L134.263 7.70575L134.268 7.74031L134.296 7.75366L134.39 7.7786L134.42 7.79137L134.531 7.89329L134.603 7.92962L134.699 7.94356L134.802 7.89152L134.881 7.87758L134.953 7.91607L135.131 8.12168L135.21 8.2399L135.284 8.40172H135.335L135.362 8.33711L135.398 8.30922L135.44 8.31531L135.485 8.35086L135.519 8.40329L135.528 8.45906L135.528 8.52544L135.537 8.61008L135.561 8.67921L135.63 8.80882L135.644 8.85968L135.615 8.929L135.564 8.99597L135.53 9.06451L135.606 9.26324L135.537 9.75616L135.489 9.86672L135.378 9.87968L135.133 9.83432L134.995 9.88066L134.862 9.971L134.647 10.1631L134.581 10.2897L134.621 10.4087L134.78 10.5975L134.9 10.8877L135.007 10.934L135.032 10.9761L135.042 11.0493L135.062 11.1057L135.064 11.1675L135.031 11.2579L134.97 11.3209L134.901 11.3433L134.846 11.3757L134.825 11.4656L134.874 11.588L134.98 11.6153L135.084 11.6624L135.133 11.8445L135.089 11.9658L134.983 12.0697L134.724 12.2278L133.786 12.5459L133.607 12.7404L133.739 12.7164L134.163 12.533L134.352 12.4849L134.876 12.4821L135.371 12.4201L135.738 12.4607L135.869 12.4468L135.913 12.3619L135.85 12.1769L135.928 12.1296L136.005 12.1341L136.092 12.1604L136.199 12.1767L136.33 12.1677L136.682 12.0996L136.754 12.0499L136.8 11.956L136.903 11.8627L137.104 11.7198L137.345 11.4065L137.476 11.3394L137.506 11.3027L137.559 11.2812L137.664 11.3082L137.917 11.5672L137.934 11.6408L137.928 11.7225L137.937 11.7895L138.065 11.8561L138.084 11.946L138.073 12.0986L138.111 12.2712L138.42 12.6893L138.461 12.7268L138.466 12.7747L138.25 13.0705L138.14 13.1359L137.975 13.1834L137.802 13.1924L137.665 13.1421L137.54 13.1834L137.081 13.1421L136.956 13.183L136.877 13.2735L136.862 13.3643L136.931 13.4049L136.963 13.4607L137.185 14.0382L137.246 14.0897L137.28 14.0966L137.322 14.0793L137.412 14.0604L137.526 14.0241L137.82 13.8876L137.945 13.8576L138.005 13.8703L138.055 13.9345L138.124 13.9593L138.181 13.9465L138.252 13.9157L138.33 13.9002L138.402 13.9338L138.478 14.0418L138.532 14.0708L138.604 14.0378L138.662 13.9556L138.663 13.889L138.629 13.8112L138.679 13.6804L138.712 13.6294L138.758 13.5762L138.778 13.5151L138.72 13.3782L138.731 13.2993L138.845 13.2119L139.176 13.1791L139.481 13.0428L139.64 13.0773L140.026 13.281L140.062 13.2928L140.099 13.2619L140.181 13.1698L140.244 13.1475L140.319 13.1765L140.387 13.2207L140.433 13.2431L140.58 13.2788L141.338 13.7205L141.597 13.934L141.699 13.9956L141.828 14.0555L141.937 14.1272L141.979 14.2226L141.951 14.2961L141.897 14.3387L141.846 14.366L141.822 14.3933L141.75 14.8155L141.7 14.9756L141.677 15.1329L141.725 15.2884H141.776L141.849 15.0995L141.895 15.015L141.951 14.9514L141.985 14.8766L141.973 14.678L142.003 14.5981L142.196 14.465L142.359 14.4665L142.501 14.5661L142.849 14.9917L142.992 15.1254L143.12 15.1823L143.316 15.2183L143.462 15.3167L143.558 15.4638L143.605 15.644L143.66 15.6028L143.691 15.5659L143.704 15.5162L143.701 15.4406L144.05 15.7057L144.186 15.745L144.34 15.8159L144.466 15.972L144.493 16.1293L144.362 16.2021L144.443 16.2683L144.558 16.3096L144.679 16.3108L144.767 16.2575L144.788 16.1568L144.745 16.079L144.726 16.0142L144.822 15.9531L145.003 15.958L145.354 16.1432L145.576 16.1515L146.154 15.8756L146.343 15.8475L146.458 15.9025L146.567 16.0172L146.743 16.2577L146.903 16.4166L146.972 16.5136L147 16.6363L146.984 16.7976L146.914 17.044L146.899 17.1711L146.935 17.5165L146.919 17.7035L146.749 17.8502L146.389 18.2418L146.096 18.4087L144.743 18.901L143.362 19.3016L143.097 19.4648L142.923 19.54L142.74 19.5944L142.584 19.6113L142.469 19.584L142.236 19.4848L142.024 19.4519L141.87 19.4065L141.776 19.4083L141.687 19.4395L141.469 19.6111L141.308 19.7097L141.236 19.7068L141.14 19.6388L141.098 19.584L140.964 19.3554L140.711 19.0579L140.478 18.9387L140.325 18.8922L140.256 18.9309L140.184 18.9091L140.025 19.0106L139.796 19.2054L139.736 19.1634L139.699 19.1907L139.684 19.2647L139.696 19.3621L139.41 19.2932L139.146 19.4517L138.73 19.9198L138.605 20.0127L138.55 20.072L138.528 20.1506L138.538 20.2407L138.568 20.2721L138.618 20.2882L138.808 20.412L138.857 20.4552L138.9 20.5213L138.983 20.7362L139.16 21.0082L139.364 21.2493L139.594 21.4624L139.851 21.6497L139.947 21.7391L140.008 21.786L140.076 21.8061L140.144 21.8078L140.299 21.8287L140.356 21.8522L140.391 21.8966L140.451 22.0325L140.484 22.0847L140.531 22.1252L140.583 22.1576L140.711 22.211L140.729 22.0849L140.831 22.0578L140.962 22.0944L141.069 22.1601L141.148 22.2607L141.163 22.3534L141.125 22.4453L141.043 22.5407L141.015 22.635L141.08 22.7175L141.17 22.7886L141.216 22.8496L141.277 22.8934L141.413 22.8249L141.625 22.6678L141.708 22.7088L141.888 22.7342L141.978 22.7685L141.937 22.8701L142.023 23.0085L142.316 23.3266L142.32 23.3806L142.256 23.4604L142.175 23.5099L142.111 23.4996L142.037 23.4639L141.923 23.437L141.962 23.5621L141.928 23.6731L141.853 23.7679L141.776 23.8421L141.662 23.9242L141.558 23.9501L141.266 23.9389L141.141 23.9537L140.903 24.0222L140.761 24.0448L140.441 24.0511L140.27 24.0201L140.154 23.9388L140.057 24.0684L140.001 24.1059L139.331 24.294L138.73 24.3492L138.554 24.4054L137.573 24.9028L137.411 24.9063L136.955 24.7732L136.832 24.7541L136.742 24.7147L136.456 24.4501L136.352 24.3891L136.29 24.3606L136.226 24.3492L136.198 24.3172L136.148 24.1779L136.12 24.1463L136.02 24.1363L135.789 24.0448L135.603 24.011L135.537 23.9896L135.374 23.8763L135.29 23.7439L135.223 23.6008L135.105 23.46L134.993 23.4733L134.831 23.5782L134.687 23.7049L134.622 23.7868L134.65 23.8512L134.792 23.9372L134.825 24.0173V24.3242L134.852 24.403L134.964 24.5081L134.976 24.6023L134.942 24.6872L134.878 24.7567L134.724 24.8606L134.675 24.9087L134.639 24.9731L134.594 25.0247L134.571 25.0866L134.599 25.1253L134.729 25.2516L134.78 25.3126L134.705 25.3058L134.641 25.3148L134.336 25.4377L134.271 25.3784L134.151 25.3327L133.947 25.3466L133.827 25.3417L133.574 25.3024L133.369 25.2453L133.194 25.1379L132.777 24.6968L132.178 24.3889L131.904 24.1966L131.845 24.12L131.802 24.0503L131.745 23.9994L131.638 23.9798L131.547 24.0024L131.429 24.1108L131.357 24.1499L129.994 24.1766L129.577 24.0623L129.272 24.0627L128.691 24.1728L128.407 24.1098L128.135 23.9175L128.004 23.9003L127.77 24.0998L127.63 24.1408L127.486 24.1448L127.292 24.069L127.105 24.165L127.006 24.1585L126.683 23.6882L126.601 23.6776L126.551 23.7714L126.395 23.9268L126.336 24.0336L126.34 24.1098L126.377 24.164L126.393 24.2117L126.333 24.2706L126.203 24.3048L126.119 24.2718L126.04 24.2681L125.857 24.4568L125.78 24.4804L125.703 24.4704L125.63 24.4356L125.441 24.1163L125.414 24.022L125.387 23.9845L125.336 23.9662L125.284 23.9735L125.234 23.9712L125.035 23.7771L124.846 23.8143L124.64 23.9199L124.429 23.9796L124.328 23.9666L123.995 23.8771L123.823 23.8675L123.746 23.8539L123.667 23.8103L123.605 23.9712L123.55 24.0611L123.472 24.1249L123.337 24.2068L122.981 24.5613L122.889 24.6123L122.766 24.5689L122.688 24.4782L122.643 24.3604L122.613 24.2371L122.568 24.1834L122.476 24.1326L122.299 24.0666L121.987 24.046L121.839 24.0089L121.77 23.9009L121.736 23.7828L121.671 23.722L121.582 23.7335L121.485 23.8307L121.413 24.0666L121.418 24.3123L121.385 24.5344L121.104 24.7747L121.074 24.87L121.039 24.948L120.937 24.9735L120.865 24.933L120.814 24.8694L120.757 24.8458L120.44 25.1383L120.388 25.2076L120.338 25.2557L120.189 25.2967L120.123 25.3674L120.065 25.5393L120.022 25.6683L119.939 26.3238L119.846 26.6451L119.704 26.9338L119.635 27.016L119.375 27.1584L119.323 27.211L119.319 27.3801L119.436 27.486L119.587 27.571L119.691 27.6786L119.696 27.9239L119.409 28.7866L119.365 29.0776L119.364 29.373L119.394 29.5501L119.578 29.9973L119.586 30.0747L119.571 30.2253L119.573 30.3003L119.599 30.3928L119.721 30.6131L119.78 30.7669L119.784 30.8484L119.742 30.9179L119.664 30.9478L119.598 30.9285L119.532 30.8955L119.459 30.8838L119.3 31.0456L119.166 31.39L118.908 32.5072L118.913 32.6366L119.03 32.7792L119.142 32.8163L119.161 32.8719L118.903 33.2152L118.857 33.3481L118.829 33.6633L118.769 33.8092L118.65 33.8593L118.345 33.8931L117.862 34.1034L117.629 34.1421L117.417 34.041L117.228 33.7597L117.126 33.7291L117 33.9198L116.873 34.1806L116.788 34.2774L116.363 34.5677L116.243 34.6825L116.145 34.8377L116.113 34.9247L116.094 35.0013L116.067 35.0775L116.009 35.1629L115.908 35.2491L115.845 35.2778L115.829 35.3108L115.866 35.4103L116.06 35.6601L116.108 35.8052L116.026 35.9863L115.946 36.0419L115.868 36.0576L115.802 36.0855L115.756 36.1774L115.763 36.2497L115.843 36.3975L115.866 36.4696L115.833 36.6224L115.768 36.7881L115.752 36.9378L115.863 37.0415L115.945 37.0434L116.105 36.9664L116.185 36.9431L116.273 36.9515L116.369 36.9806L116.459 37.0234L116.532 37.0727L116.644 37.1929L116.758 37.3641L116.842 37.5383L116.86 37.6693L116.761 37.8125L116.606 37.8661L116.271 37.8963L116.112 37.9967L115.834 38.312L115.72 38.3794L115.592 38.4358L115.276 38.7064L115.134 38.7983L114.85 38.7745L114.759 38.8246L114.707 38.9866L114.718 39.141L114.74 39.2562L114.693 39.3424L114.494 39.4082L113.921 39.486L113.697 39.6154L113.584 39.9053L113.499 40.3094L113.506 40.4481L113.534 40.5129L113.617 40.6301L113.634 40.7053L113.627 40.9528L113.634 41.0152L113.711 41.1794L113.796 41.1886L113.915 41.1356L114.086 41.115L114.158 41.1635L114.19 41.2617L114.188 41.3744L114.169 41.4677L114.105 41.6195L114.072 41.7446V41.8714L114.103 42.0291L114.091 42.1686L113.996 42.2591L113.581 42.4191L113.181 42.4688L113.108 42.4979L113.03 42.5558L112.963 42.6261L112.923 42.6915L112.902 42.7724L112.912 42.8235L112.935 42.8779L112.958 42.9696L112.967 43.1998L112.885 43.7127L112.747 44.1019L112.555 44.4177L112.446 44.5448L112.186 44.7537L112.102 44.8798V45.0585L112.135 45.2166L112.138 45.376L112.09 45.5196L111.971 45.6311L111.799 45.672L111.639 45.6231L111.052 45.2074L110.881 45.1231L110.708 45.098L110.566 45.1349L109.468 45.5978L109.449 45.6058L109.289 45.7162L109.217 45.738L109.12 45.7062L109.045 45.6359L108.977 45.5546L108.902 45.4886L108.63 45.4033L108.332 45.4079L107.264 45.575L107.127 45.6307L106.957 45.7749L106.513 46.336L105.339 47.1242L105.156 47.1662L104.946 47.0622L104.574 46.6183L104.413 46.5296L104.257 46.5227L104.101 46.5655L103.809 46.6865L103.474 46.6749L102.927 46.2495L102.574 46.1199L102.143 46.031L101.81 46.01L101.705 45.9772L101.462 45.7884L101.19 45.6575L100.905 45.6317L100.616 45.6822L100.333 45.7776L100.222 45.7735L100.2 45.715L100.244 45.6349L100.469 45.4676L100.585 45.3468L100.668 45.2052L100.711 45.0424L100.704 44.8749L100.635 44.773L100.51 44.7034L100.332 44.6318L100.205 44.6133L99.8473 44.6267L99.7027 44.5944L99.5788 44.5516L99.4573 44.5363L99.3204 44.5856L99.2477 44.6512L99.2026 44.7219L99.1505 44.7834L99.0618 44.8246L99.0121 44.8203L98.82 44.7622L96.6113 44.6479L96.4293 44.6891L96.3099 44.7736L96.2074 44.8774L96.0789 44.976L95.9489 45.0177L95.4908 45.0618L95.314 45.1206L94.4617 45.5261L94.3249 45.6335L94.2697 45.8187L94.3064 45.8833L94.4747 45.889L94.5207 45.9526L94.5161 46.0396L94.4908 46.1182L94.2591 46.5828L93.8697 47.7034L93.8168 47.7905L93.7175 47.8341L93.5293 47.8609L92.9317 47.8577L92.4636 48.0058L91.8194 48.7874L91.3735 48.9019L91.1616 48.8394L90.7761 48.6764L90.5771 48.622L90.4448 48.6112L90.3362 48.6258L89.7158 48.8667L89.5422 49.1128L89.4519 49.1576L89.3692 48.9916L89.3393 48.8653L89.2981 48.7548L89.2215 48.6854L89.0915 48.6823L88.7993 48.774L88.6548 48.8031L88.4965 48.7938L88.3313 48.7467L87.3376 48.3072L87.19 48.2927L85.5307 48.7184L85.0657 48.7334L84.8424 48.7717L84.6374 48.8704L84.225 49.2224L84.1516 49.337L84.1455 49.4694L84.1286 49.5295L84.075 49.5658L84.0345 49.5574L83.9595 49.4947L83.9389 49.4826L83.8456 49.5309L83.8387 49.5527L83.6911 49.6104L83.6604 49.6096L83.577 49.5798H83.5379L83.4552 49.6295L83.3175 49.7602L83.2203 49.7962L83.1202 49.7832L83.0544 49.7324L83.0047 49.6742L82.9503 49.6408L82.8662 49.6348L82.838 49.6577L82.8113 49.7135L82.7378 49.8038L82.4258 49.9499L82.0739 49.906L81.7327 49.74L81.4543 49.5201L81.1436 49.0969L81.0213 48.9875L80.9288 48.9496L80.5523 48.8665L80.4453 48.8842L80.3451 48.916L80.2762 48.8918L80.2632 48.7406L80.2249 48.5604L79.8561 48.0225L79.6963 47.7081L79.5869 47.558L79.4522 47.4883L79.0176 47.431L78.8776 47.3789L78.7093 47.2542L78.5531 46.9722L78.4155 46.8467L78.15 46.7193L78.0575 46.639L77.9687 46.4828L77.8263 46.0471L77.7352 45.9267L77.6005 45.8599L77.4575 45.8595L77.3106 45.8772L77.1622 45.8639L77.0337 45.758L76.903 45.444L76.8493 45.3937L76.7085 45.4713L76.6642 45.4591L76.6465 45.2525L76.596 45.174L75.9366 44.6084L75.7942 44.4281L75.7123 44.2767L75.6732 44.132L75.6648 43.7924L75.7137 43.2084L75.6738 43.0668L75.5422 43.0167L75.217 43.0152L75.1198 42.9812L75.0358 42.9101L74.9692 42.82L74.9187 42.7294L74.8812 42.6373L74.8781 42.5819L74.8812 42.5268L74.8345 42.2595L74.8414 42.1472L74.9048 42.0541L75.1748 41.8255L75.2536 41.7342L75.3661 41.5696L75.5611 41.2248L75.6992 40.8283L75.7003 40.8332L75.7335 40.9593L75.7504 41.1232L75.8239 41.4247L75.8346 41.5706L75.8081 41.6894L75.7732 41.7925L75.7683 41.9119L75.8344 42.0767L76.0524 42.385L76.1885 42.523L76.3391 42.6334L76.7957 42.8268L77.0583 42.9998L77.3596 43.1273L77.486 43.2214L77.5752 43.3478L77.6993 43.6049L77.7896 43.7243L77.8933 43.7473L78.2596 43.74L78.3481 43.7243L78.4609 43.6658L78.6211 43.6465L79.5657 43.6534L79.6639 43.6766L79.8084 43.7765L79.8915 43.8001L79.9258 43.7799L80.0397 43.684L80.0939 43.6534L80.1633 43.6285L80.2061 43.6212L80.2495 43.6477L80.4266 43.8441L80.4773 43.8598L80.5134 43.7296L80.5851 43.6424L80.6038 43.5982L80.5983 43.5521L80.5621 43.4771L80.5531 43.447L80.5423 43.2123L80.5531 43.1434L80.644 42.9812L80.7626 42.9077L80.8638 42.9451L80.9209 43.1599L80.9885 43.2502L81.012 43.2952L81.0175 43.3443L81.0055 43.4492L81.0122 43.4971L81.0376 43.5495L81.0707 43.5917L81.1104 43.6249L81.1597 43.6536L81.2127 43.6744L81.2777 43.6889L81.4421 43.6992L81.5175 43.6681L81.6084 43.5289L81.8307 43.4529L81.9657 43.3787L82.0849 43.3641L82.1795 43.4971L82.0886 43.611L82.0236 43.7147L81.9863 43.8292L81.9731 43.9774L81.9454 44.0354L81.814 44.1709L81.7712 44.2555L81.97 44.1732L82.0731 44.1632L82.1797 44.205L82.2502 44.2879L82.27 44.3678L82.2948 44.4309L82.3779 44.4625L82.4454 44.4472L82.599 44.3692L82.6852 44.3613L82.7851 44.3967L83.0888 44.5634L83.5153 44.6915L83.7044 44.7973L83.7971 44.9733L83.7537 45.1583L83.6217 45.292L83.3429 45.474V45.5288L83.5387 45.5233L83.6922 45.4956L83.8283 45.4269L83.9758 45.2989L84.0498 45.1589L84.0408 45.0151L84.0041 44.8804L83.9992 44.7659L84.1967 44.6121L84.5394 44.6596L85.17 44.9173L85.4893 45.1243L86.0519 45.6893L86.3363 45.8782L86.7772 46.0997L86.8705 46.1307L87.0482 46.1052L87.294 45.9772L87.4488 45.9291L87.6892 46.0239L87.9566 46.2444L88.2477 46.3827L88.5658 46.2321L88.4419 46.2285L88.2359 46.1523L88.1353 46.1327L88.1021 46.0864L88.0334 45.8809L87.981 45.8346L87.8635 45.8165L87.6575 45.7437L87.5491 45.7331L87.4623 45.758L87.1949 45.8803L87.034 45.8866L86.8948 45.8454L86.7736 45.7655L86.667 45.6553L86.5339 45.5577L86.2061 45.4267L86.0832 45.3242L85.9494 44.9705L85.8073 44.8325L85.7758 44.7427L85.7668 44.5251L85.7758 44.4648L85.8758 44.2076L85.9367 43.9362L86.0054 43.8403L86.4319 43.7587L86.5951 43.752L86.7397 43.8026L86.8373 43.9352L86.9343 44.1076L87.0535 44.2101L87.2228 44.1341L87.3174 44.1151L87.4205 44.1877L87.5446 44.2522L87.7049 44.2076L87.556 44.163L87.4855 44.1304L87.3535 44.0291L87.2885 44.0212L87.2235 44.0253L87.0772 43.9857L87.0291 43.9892L87.005 43.9702L86.9977 43.8806L86.9129 43.7594L86.8966 43.7263L86.8695 43.6988L86.7357 43.6721L86.6894 43.6556L86.6593 43.6202L86.4883 43.328L86.451 43.228L86.4364 43.1177L86.472 43.0749L86.6377 43.0338L86.6896 42.9887L86.6776 42.9464L86.5663 42.8753L86.5392 42.8145L86.5633 42.6656L86.626 42.5293L86.7909 42.2762L87.0234 41.7941L87.2355 41.1093L87.2501 40.9363L87.2899 40.8997L87.3797 40.9133L87.5271 40.9614L87.7084 40.9469L87.5163 40.7847L87.503 40.6075L87.6055 40.5129L87.7375 40.5235L87.8838 40.5759L88.1536 40.6293L88.2162 40.6166L88.3162 40.5524L88.3643 40.4983L88.5016 40.3063L88.5234 40.2484L88.4547 40.1877L88.3667 40.2158L88.2932 40.2931L88.2324 40.4779L88.1618 40.4932L88.0841 40.4632L87.8816 40.333L87.728 40.3077L87.198 40.3856L87.0931 40.3721L87.0541 40.292L87.0486 40.1219L87.0937 40.0041L87.2065 39.8847L87.3539 39.8142L87.5028 39.844L87.4244 39.7042L87.2852 39.6529L87.1532 39.6276L87.0935 39.5679L87.1061 39.434L87.1947 39.0852L87.2687 38.5662L87.3608 38.3645L87.5487 38.2162L87.6108 38.3411L87.7078 38.4008L87.9572 38.4786L88.0421 38.5518L88.2276 38.7794L88.2891 38.8277L88.3313 38.8501L88.3783 38.8929L88.4307 38.9228L88.4928 38.9063L88.7253 38.7484L88.794 38.7266L89.0434 38.6887L89.0976 38.7013L89.2313 38.8002L89.3776 38.8831L89.3162 38.7496L89.1679 38.5964L88.9264 38.3729L88.8649 38.2822L88.7769 37.9711L88.7198 37.8619L88.9493 37.8755L89.1553 37.9289L89.3325 37.9362L89.4788 37.8119L89.519 37.8299L89.5298 37.8396L89.5418 37.8356L89.5835 37.8119L89.4226 37.7516L89.1426 37.6838L89.0234 37.6096L88.9301 37.5301L88.8555 37.4495L88.8138 37.3347L88.8168 37.1538L88.9476 36.6988L88.9843 36.4083L89.0344 36.3007L89.1145 36.2192L89.6471 35.8113L90.4548 35.3112L90.6818 35.2008L92.0956 34.9227L93.2275 34.8832L95.3321 34.3269L97.3813 33.7865L98.5107 33.5479L98.9661 33.3688L99.0529 33.3705L100.34 32.9687L100.587 32.8393L100.982 32.4169L101.138 32.1343L101.042 31.9695L101.098 31.9043L101.294 31.772L101.65 31.4599L101.729 31.4173L101.759 31.347L102.006 30.9572L102.584 30.4478L102.72 30.2432L102.743 30.1852L102.758 30.1249L102.77 29.9653L102.81 29.8907L102.983 29.7555L103.022 29.709L103.073 29.6299L103.427 29.2302L103.6 28.9307L103.661 28.7636L103.684 28.5904L103.744 28.4528L103.884 28.3371L104.19 28.1623L105.984 26.6119L107.538 24.5894L107.693 24.2306L107.64 23.9386L107.798 23.6921L107.874 23.3777L107.871 23.026L107.705 22.3275L107.753 22.2073L107.922 22.1596L108.407 22.3905L108.812 22.4529L108.968 22.5344L109.21 22.7232L109.392 22.7931L109.479 22.85L109.536 23.0022L109.582 23.0246L109.696 23.0277L109.749 23.0484L109.766 23.0979L109.773 23.1564L109.797 23.2049L109.875 23.2913L109.919 23.3728L109.976 23.5808V23.7877L110.077 23.9401L110.128 24.2716L110.103 24.3429L110 24.4332L109.976 24.4768L109.989 24.5878L110.024 24.6557L110.276 24.6736L110.6 24.7376L110.903 24.6832L111.04 24.6913L111.133 24.7893L111.287 25.2584L111.359 25.4036L111.465 25.5459L111.93 25.9766L112.087 26.0872L112.146 26.1437L112.182 26.2199L112.237 26.4039L112.273 26.4626L112.578 26.498L112.927 26.2947L113.607 25.6435L113.664 25.5347L113.705 25.2284L113.757 25.084L113.926 24.8311L113.98 24.6948L113.955 24.5654L113.724 24.6595L113.719 24.5073L113.763 24.4387L113.809 24.3936L113.988 24.2212L114.067 24.0947L114.122 23.9704L114.19 23.6892L114.207 23.4767L114.152 23.4403L114.043 23.4584L113.898 23.4054L113.765 23.1984L113.721 22.9268L113.685 22.059L113.66 21.8944L113.617 21.7409L113.474 21.4669L113.418 21.3291L113.423 21.2063L113.432 21.1979L113.496 21.139L113.767 21.0249L113.893 20.9455L114.131 20.7171L114.265 20.6329L114.431 20.5871L114.567 20.5944L114.703 20.6174L114.833 20.6142L114.951 20.5416L114.999 20.4281L115.005 20.304L115.029 20.1897L115.197 20.0206L115.277 19.9823L115.347 19.9391L115.407 19.8862L115.45 19.8177L115.501 19.9701L115.508 20.2586L115.552 20.5276L115.553 20.5292L115.502 21.1181L115.531 21.7222L115.596 22.0103L115.837 22.5886L115.924 22.8812L116.013 23.613L116.071 23.7182L116.169 23.784L116.591 23.9407L116.745 23.9741L116.967 23.9519L117.029 23.9741L117.144 24.0713L117.221 24.1041L117.364 24.0984L117.429 24.1226L117.563 24.2121L117.734 24.2871L117.896 24.2932L118.003 24.176L117.985 24.0222L117.878 23.8633L117.618 23.6183L117.447 23.3905L117.35 23.0986L117.309 22.7854L117.312 22.4932L117.372 22.1996L117.383 22.071L117.351 21.8948L116.868 20.4923L116.682 20.2276L116.586 20.1626L116.487 20.1158L116.419 20.0465L116.416 19.8774ZM139.164 12.8366L139.265 12.8694L139.287 12.9411L139.248 13.0121L139.164 13.0445L139.117 13.0518L138.987 13.0989L138.94 13.1029L138.886 13.0989L138.817 13.0799L138.765 13.0447L138.752 12.9937L138.797 12.9246L138.879 12.8682L138.969 12.8429L139.164 12.8366ZM88.7708 38.5506L88.7787 38.5783L88.7854 38.6459L88.7643 38.6905L88.6933 38.6488L88.6198 38.6168L88.5525 38.6484L88.4971 38.7136L88.4639 38.7824L88.3843 38.6838L88.262 38.3818L88.1836 38.3185L88.0403 38.2525L88.0065 38.0986L88.0625 37.7718L88.077 37.4715L87.9392 36.242L87.9537 35.872L88.0609 35.636L88.3164 35.7336L88.467 35.9677L88.5466 36.2775L88.5526 37.5709L88.6159 38.1206L88.7708 38.5506ZM35.5601 35.6277L35.5782 35.9959L35.5601 36.0833L35.4722 36.1503L35.3337 36.1949L35.186 36.2045L35.0776 36.1634L34.9366 36.0126L34.8789 35.9225L34.8754 35.8577L34.8795 35.8166L34.8434 35.691L34.8518 35.6277L34.8862 35.5871L34.9795 35.5388L35.027 35.5032L35.0987 35.3887V35.2789L35.0686 35.1674L35.0505 35.0462L35.0668 34.9685L35.1102 34.8925L35.1752 34.8459L35.2548 34.8555L35.2903 34.8887L35.3017 34.9304L35.3107 35.0203L35.3306 35.0743L35.4246 35.2181L35.471 35.3145L35.5601 35.6277ZM142.915 22.9718L143.082 23.0193L143.165 23.1242L143.136 23.2292L142.966 23.2764H142.69L142.585 23.3789L142.534 23.3824L142.493 23.3583V23.3343L142.484 23.1794L142.449 23.1401L142.36 23.067L142.332 23.0272L142.307 22.9464L142.333 22.9262L142.41 22.925H142.429L142.537 22.9239L142.915 22.9718ZM141.316 21.8061L141.416 21.681L141.607 21.6849L141.816 21.7599L141.978 21.8524V21.9078L141.868 21.9166L141.798 21.9659L141.766 22.0502L141.775 22.1607L141.632 22.0295L141.596 22.0089L141.558 22.0433L141.533 22.1106L141.5 22.1594L141.443 22.1352L141.329 22.0476L141.208 21.9914L141.092 21.9622L140.993 21.9533L140.964 21.9404L140.897 21.876L140.862 21.8524L140.609 21.8063L140.104 21.6499V21.603H140.687L140.768 21.5804L140.82 21.5296L140.863 21.4769L140.917 21.4467L141.063 21.4724L141.13 21.579L141.19 21.7096L141.316 21.8061ZM117.173 16.4816L117.256 16.8539L117.253 17.0336L117.123 17.1713L117.05 17.168L116.905 17.08L116.844 17.0902L116.698 17.2133L116.512 17.3237L116.524 17.2135L116.733 16.6352L116.794 16.5619L117.007 16.3655L117.123 16.3184L117.173 16.4816ZM6.59755 15.8475L6.66197 15.9626L6.77646 16.0246L6.84637 16.0939L6.71146 16.3492L6.67886 16.6373L6.64822 16.7705L6.46755 17.1137L6.44163 17.2459L6.0416 17.1715L5.74762 17.1744L5.73741 17.1907L5.73073 17.2088L5.70834 17.2172L5.66867 17.2021L5.63686 17.1664L5.62901 17.1318L5.73073 17.0725L5.75606 16.9682L5.71934 16.5776L5.73387 16.2296L5.71757 16.1619L5.68321 16.1042L5.64884 16.0584L5.63254 16.0244L5.64884 15.9524L5.67535 15.8952L5.68006 15.8443L5.63254 15.7917L5.72582 15.7564L5.76313 15.7988L5.79318 15.8642L5.86309 15.8976L5.9222 15.8773L5.9656 15.831L6.00174 15.7793L6.0414 15.7452L6.18241 15.7112L6.33303 15.7155L6.47521 15.7593L6.59755 15.8475ZM2.72238 9.96138L2.82705 9.73063L3.00085 9.66111L3.09746 9.57117L3.11828 9.69724L3.0631 9.75969L3.00792 9.84296L3.0087 9.93329L2.99613 9.9818L3.00026 10.1026L3.04778 10.23L3.0197 10.3424L2.94959 10.4476L2.86554 10.483L2.74653 10.3781L2.70608 10.2646L2.63695 10.243L2.58157 10.0957L2.72238 9.96138ZM3.56858 9.04919L3.64438 9.16525L3.67109 9.23241L3.68445 9.29329L3.60923 9.33394L3.5026 9.36457L3.43936 9.43311L3.34569 9.49124L3.31015 9.59846L3.18976 9.52266L3.15402 9.34415L3.01145 9.34847L2.87811 9.39737L2.76303 9.53935L2.6613 9.65463L2.54014 9.65561L2.44607 9.74987L2.35515 9.7917L2.29643 9.81468L2.19824 9.45294L2.24773 9.32314L2.22495 9.13127L2.10476 9.09102L1.9125 9.05115L1.77818 9.06117L1.71436 8.9563L1.68431 8.8259L1.67822 8.51641L1.85752 8.58318L2.00048 8.52053L2.24183 8.52917L2.35358 8.60497L2.60848 8.63581L2.72002 8.61342L2.8404 8.51503L2.92956 8.3811L3.00104 8.37658L3.11396 8.37521L3.079 8.31217L3.06644 8.25581L3.13497 8.26484L3.20194 8.29469L3.25968 8.45749L3.31564 8.56275L3.40303 8.63679L3.55601 8.7067L3.546 8.76856L3.59922 8.80037L3.66245 8.85673L3.63044 8.94707L3.56858 9.04919ZM133.607 6.05124L133.793 6.28415L133.918 6.51607L133.887 6.74564L133.607 6.97187L133.417 7.02706L133.19 7.03314L132.963 7.00015L132.775 6.93653L132.706 6.8837L132.68 6.82007L132.699 6.75448L132.765 6.69989L132.844 6.67436L133.219 6.65766L133.336 6.62742L133.423 6.55889L133.456 6.43516L133.39 6.36957L133.125 6.35563L133.098 6.25489L133.185 6.16514L133.487 6.12508L133.607 6.05124ZM130.157 1.65801L130.262 1.75581L130.306 1.93314L130.288 2.11401L130.212 2.223L130.075 2.09457L129.965 2.14641L129.926 2.28702L130.006 2.42174L129.297 2.60025L129.332 2.67094L129.396 2.71061L129.436 2.75284L129.399 2.83394L129.331 2.86674L129.226 2.87518L129.119 2.863L129.041 2.83394L129.399 2.16723L129.504 2.11872L129.753 2.05922L129.854 2.01425L130.157 1.65801ZM131.404 1.75502L131.96 1.65723L132.136 1.70887L132.224 1.8322L132.234 2.00796L132.162 2.58159L132.08 2.80507L131.966 2.94529L131.838 2.88068L131.699 2.93625L131.269 3.0207L131.177 3.06135L131.135 3.10376L130.938 3.19606L130.87 3.24163L130.819 3.32725L130.788 3.4111L130.747 3.48632L130.667 3.54739L130.612 3.36711L130.555 2.79859L130.591 2.67723L130.62 2.62322L130.612 2.29232L130.639 2.2232L130.68 2.18608L130.797 2.14602L130.87 2.10497L131.047 1.9245L131.213 1.80883L131.305 1.76995L131.404 1.75502ZM13.7134 33.6944L13.6851 33.777L13.628 33.8147L13.5111 33.8446L13.4605 33.7788L13.5153 33.6753L13.6519 33.6211L13.7134 33.6944ZM14.2055 33.6545L14.1965 33.7069L14.2073 33.802L14.1881 33.9718L14.0857 34.0671L13.9436 34.1227L13.8328 34.2002L13.7894 34.2426L13.7466 34.278L13.6906 34.297L13.6781 34.2499L13.6906 34.1712L13.8701 33.7207L13.9707 33.5647L14.1009 33.5117L14.1949 33.5569L14.2055 33.6545Z" fill="#3867FA" fill-opacity="0.15" stroke="#3867FA" stroke-width="2" strokeLinejoin="round"/>
</svg>
