<svg width="1440" height="307" viewBox="0 0 1440 307" fill="none" xmlns="http://www.w3.org/2000/svg">
  <g opacity="0.3">
  <path opacity="0.3" d="M30.3469 307.09C63.0369 332.118 95.9268 356.784 129.197 380.101C248.487 463.606 374.767 516.769 497.827 516.75C541.13 516.858 584.14 509.987 625.027 496.428C795.247 439.738 953.857 287.309 1122.51 169.053C1242.31 85.1586 1369.42 31.4817 1494.07 31.4627C1537.93 31.3537 1581.49 38.3185 1622.91 52.0608C1786.42 106.641 1937.92 247.529 2097.22 362.649V368.504C1936.54 252.738 1784.22 110.785 1621.28 56.4808C1580.38 42.9385 1537.37 36.0737 1494.07 36.1773C1370.99 36.1773 1244.72 89.2839 1125.43 172.827C957.127 290.788 798.487 443.511 626.657 500.867C585.244 514.587 541.682 521.527 497.827 521.389C373.237 521.389 246.087 467.693 126.247 383.836C93.9568 361.185 62.0469 337.26 30.3469 313.059V307.09Z" fill="url(#paint0_linear_121_682)"/>
  <path opacity="0.4" d="M-92.2429 208.406C-60.543 184.167 -28.6331 160.271 3.65698 137.619C123.477 53.7439 250.657 0.0479605 375.227 0.0479605C419.084 -0.064043 462.642 6.90097 504.047 20.6462C675.897 77.9541 834.537 230.715 1002.82 348.667C1122.11 432.21 1248.4 485.336 1371.46 485.316C1414.77 485.429 1457.79 478.564 1498.69 465.013C1661.61 410.728 1813.93 268.746 1974.63 153.009V158.845C1815.33 273.945 1663.83 414.863 1500.32 469.433C1458.89 483.162 1415.32 490.12 1371.46 490.012C1246.87 490.012 1119.72 436.335 999.897 352.441C831.247 234.146 672.637 81.7372 502.437 25.0471C461.546 11.4905 418.533 4.61909 375.227 4.72465C252.157 4.72465 125.897 57.8597 6.58691 141.393C-26.6831 164.7 -59.5629 189.376 -92.2429 214.394V208.406Z" fill="url(#paint1_linear_121_682)"/>
  <path opacity="0.3" d="M727.68 254.413H731.85V428.742H727.68V254.413Z" fill="url(#paint2_linear_121_682)"/>
  <path opacity="0.3" d="M792.92 302.235H797.089V380.93H792.92V302.235Z" fill="url(#paint3_linear_121_682)"/>
  <path opacity="0.3" d="M639.65 206.601H643.819V487.884H639.65V206.601Z" fill="url(#paint4_linear_121_682)"/>
  <path opacity="0.3" d="M551.609 175.224H555.779V505.089H551.609V175.224Z" fill="url(#paint5_linear_121_682)"/>
  <path opacity="0.3" d="M463.579 168.247H467.749V538.824H463.579V168.247Z" fill="url(#paint6_linear_121_682)"/>
  <path opacity="0.3" d="M375.55 158.78H379.72V530.354H375.55V158.78Z" fill="url(#paint7_linear_121_682)"/>
  <path opacity="0.3" d="M287.519 207.599H291.709V486.031H287.519V207.599Z" fill="url(#paint8_linear_121_682)"/>
  <path opacity="0.3" d="M199.479 254.413H203.649V440.699H199.479V254.413Z" fill="url(#paint9_linear_121_682)"/>
  <path opacity="0.3" d="M111.47 294.26H115.64V408.324H111.47V294.26Z" fill="url(#paint10_linear_121_682)"/>
  <path opacity="0.3" d="M1171.98 267.863H1176.15V442.192H1171.98V267.863Z" fill="url(#paint11_linear_121_682)"/>
  <path opacity="0.3" d="M1260.01 208.73H1264.18V490.014H1260.01V208.73Z" fill="url(#paint12_linear_121_682)"/>
  <path opacity="0.3" d="M1348.04 191.526H1352.23V521.391H1348.04V191.526Z" fill="url(#paint13_linear_121_682)"/>
  <path opacity="0.3" d="M1436.07 157.791H1440.24V528.368H1436.07V157.791Z" fill="url(#paint14_linear_121_682)"/>
  </g>
  <path fillRule="evenodd" clipRule="evenodd" d="M1099.13 204.923C1098.04 204.987 1096.94 205.063 1095.85 205.153C1095.21 203.227 1093.31 201.829 1091.08 201.829C1088.41 201.829 1086.24 203.808 1086.09 206.303C1085.13 206.45 1084.18 206.607 1083.22 206.774C1082.32 205.511 1080.8 204.681 1079.08 204.681C1076.59 204.681 1074.52 206.412 1074.14 208.677C1066.39 210.566 1058.55 213.161 1050.62 216.534C1049.71 215.671 1048.46 215.137 1047.08 215.137C1044.32 215.137 1042.08 217.265 1042.08 219.89C1042.08 222.514 1044.32 224.642 1047.08 224.642C1049.84 224.642 1052.08 222.514 1052.08 219.89C1052.08 219.61 1052.05 219.336 1052 219.069C1059.62 215.842 1067.14 213.346 1074.58 211.514C1075.39 213.096 1077.1 214.186 1079.08 214.186C1081.81 214.186 1084.02 212.108 1084.08 209.526C1084.99 209.367 1085.91 209.219 1086.82 209.08C1087.7 210.433 1089.28 211.335 1091.08 211.335C1093.31 211.335 1095.21 209.94 1095.85 208.016C1097.1 207.911 1098.35 207.824 1099.6 207.754C1100.42 209.313 1102.12 210.384 1104.08 210.384C1106.12 210.384 1107.88 209.219 1108.65 207.55C1110.3 207.567 1111.93 207.614 1113.57 207.689C1114.38 209.284 1116.09 210.384 1118.08 210.384C1119.78 210.384 1121.28 209.579 1122.18 208.349C1138.51 210.098 1154.46 214.605 1170.1 221.078C1209.05 237.193 1245.98 265.457 1281.87 293.67C1265.22 305.699 1250.82 316.074 1244.68 320.456C1235.68 326.868 1219.96 337.901 1204.8 347.624C1197.22 352.487 1189.8 357.01 1183.45 360.46C1177.03 363.947 1171.89 366.227 1168.8 366.771L1169.35 369.575C1173.01 368.931 1178.56 366.4 1184.94 362.936C1191.38 359.435 1198.87 354.868 1206.48 349.988C1221.7 340.225 1237.47 329.159 1246.48 322.738C1252.7 318.303 1267.35 307.74 1284.24 295.536C1317.55 321.646 1355.23 346.996 1386.45 367.155C1401.52 376.888 1415.05 385.391 1425.87 392.191L1425.87 392.191L1425.88 392.192L1425.88 392.193L1425.88 392.193L1425.88 392.194L1425.88 392.196L1425.88 392.197C1437.78 399.67 1446.39 405.083 1450.17 407.806L1451.98 405.534C1448.15 402.769 1439.38 397.26 1427.35 389.7L1427.35 389.699L1427.35 389.698C1416.52 382.891 1403.04 374.422 1388.13 364.796C1357.11 344.765 1319.77 319.639 1286.7 293.763C1300.08 284.094 1314.66 273.552 1327.46 264.289C1328.29 264.875 1329.32 265.222 1330.43 265.222C1333.19 265.222 1335.43 263.094 1335.43 260.47C1335.43 259.866 1335.31 259.289 1335.1 258.758C1337.01 257.371 1338.87 256.028 1340.65 254.738C1342.39 256.125 1344.63 256.961 1347.08 256.961C1352.6 256.961 1357.08 252.705 1357.08 247.455C1357.08 242.206 1352.6 237.95 1347.08 237.95C1341.55 237.95 1337.08 242.206 1337.08 247.455C1337.08 249.348 1337.66 251.112 1338.66 252.593C1336.92 253.857 1335.1 255.171 1333.23 256.528C1332.43 256.016 1331.47 255.717 1330.43 255.717C1327.67 255.717 1325.43 257.845 1325.43 260.47C1325.43 260.998 1325.52 261.507 1325.69 261.982C1312.7 271.384 1297.87 282.107 1284.32 291.898C1248.32 263.584 1210.89 234.846 1171.3 218.463C1155.59 211.964 1139.53 207.404 1123.08 205.578C1123.05 202.978 1120.82 200.879 1118.08 200.879C1115.61 200.879 1113.56 202.58 1113.15 204.816C1111.76 204.758 1110.37 204.719 1108.98 204.702C1108.53 202.522 1106.5 200.879 1104.08 200.879C1101.57 200.879 1099.49 202.634 1099.13 204.923ZM-793.923 205.631C-793.923 204.718 -793.674 203.816 -793.197 203.039C-792.719 202.262 -792.026 201.636 -791.19 201.26C-790.352 200.882 -789.42 200.781 -788.519 200.976C-787.619 201.17 -786.814 201.645 -786.196 202.317C-785.578 202.988 -785.17 203.828 -785.005 204.727C-784.841 205.625 -784.924 206.558 -785.249 207.41C-785.574 208.263 -786.133 209.012 -786.872 209.548C-787.613 210.086 -788.501 210.384 -789.423 210.384C-790.663 210.384 -791.82 209.848 -792.65 208.946C-793.477 208.048 -793.923 206.854 -793.923 205.631ZM-788.74 201.902C-788.061 202.049 -787.438 202.411 -786.948 202.943C-786.887 203.009 -786.828 203.078 -786.772 203.149C-786.828 203.078 -786.887 203.01 -786.948 202.943C-787.438 202.411 -788.061 202.049 -788.74 201.903C-789.419 201.756 -790.123 201.831 -790.762 202.119C-790.897 202.179 -791.027 202.249 -791.152 202.326C-791.027 202.248 -790.897 202.179 -790.762 202.119C-790.123 201.831 -789.419 201.756 -788.74 201.902ZM-362.726 228.129C-364.122 228.957 -365.756 229.395 -367.424 229.395C-369.655 229.393 -371.807 228.607 -373.405 227.191C-375.005 225.773 -375.919 223.835 -375.923 221.797C-375.924 220.277 -375.417 218.798 -374.475 217.545C-373.534 216.294 -372.203 215.327 -370.658 214.758C-369.114 214.19 -367.418 214.041 -365.782 214.329C-364.145 214.617 -362.633 215.331 -361.44 216.389C-360.246 217.447 -359.424 218.804 -359.09 220.292C-358.755 221.781 -358.927 223.323 -359.579 224.721C-360.231 226.118 -361.33 227.301 -362.726 228.129ZM-429.431 235.098L-429.432 235.098C-430.67 235.094 -431.823 234.557 -432.651 233.656C-433.476 232.759 -433.921 231.567 -433.923 230.346C-433.923 229.431 -433.674 228.529 -433.196 227.753C-432.718 226.975 -432.025 226.349 -431.189 225.973C-430.35 225.596 -429.417 225.495 -428.516 225.69C-427.617 225.885 -426.812 226.361 -426.193 227.034C-425.576 227.705 -425.168 228.546 -425.004 229.445C-424.841 230.344 -424.925 231.277 -425.251 232.13C-425.578 232.982 -426.137 233.731 -426.877 234.266C-427.619 234.803 -428.508 235.1 -429.431 235.098ZM-528.2 258.176C-528.676 258.953 -528.924 259.855 -528.923 260.769C-528.923 261.377 -528.813 261.981 -528.597 262.547C-528.38 263.114 -528.06 263.636 -527.65 264.082C-527.239 264.527 -526.744 264.888 -526.189 265.137C-525.633 265.386 -525.033 265.516 -524.422 265.515C-523.5 265.515 -522.612 265.217 -521.871 264.679C-521.132 264.142 -520.574 263.393 -520.249 262.54C-519.924 261.687 -519.841 260.754 -520.006 259.855C-520.171 258.957 -520.58 258.116 -521.198 257.446C-521.817 256.774 -522.623 256.299 -523.523 256.106C-524.425 255.912 -525.357 256.015 -526.195 256.393C-527.031 256.77 -527.723 257.398 -528.2 258.176ZM-555.928 276.786V276.92L-554.93 276.922H-554.917H-553.928V276.788C-553.468 276.662 -553.034 276.45 -552.646 276.163C-551.988 275.678 -551.496 275.003 -551.21 274.239C-550.924 273.475 -550.851 272.641 -550.995 271.837C-551.138 271.034 -551.497 270.279 -552.043 269.673C-552.59 269.066 -553.307 268.633 -554.114 268.455C-554.923 268.277 -555.76 268.371 -556.51 268.716C-557.256 269.06 -557.868 269.629 -558.288 270.328C-558.708 271.026 -558.924 271.834 -558.923 272.651C-558.923 273.74 -558.534 274.809 -557.805 275.617C-557.298 276.179 -556.649 276.588 -555.928 276.786ZM-554.622 273.435C-554.729 273.515 -554.837 273.546 -554.93 273.547C-555.054 273.546 -555.209 273.493 -555.35 273.337C-555.495 273.176 -555.598 272.93 -555.599 272.649C-555.599 272.442 -555.543 272.25 -555.451 272.097C-555.359 271.944 -555.243 271.849 -555.136 271.8C-555.033 271.752 -554.932 271.743 -554.836 271.765C-554.737 271.786 -554.622 271.845 -554.516 271.962C-554.409 272.08 -554.323 272.247 -554.286 272.448C-554.25 272.648 -554.269 272.855 -554.337 273.037C-554.404 273.219 -554.511 273.352 -554.622 273.435ZM-525.923 325.399H-524.924L-523.923 325.398V325.472C-523.11 325.592 -522.329 325.857 -521.629 326.257C-520.646 326.819 -519.862 327.628 -519.395 328.594C-518.926 329.562 -518.802 330.634 -519.043 331.669C-519.284 332.703 -519.875 333.637 -520.721 334.361C-521.566 335.083 -522.631 335.565 -523.776 335.759C-524.92 335.953 -526.108 335.853 -527.191 335.468C-528.274 335.083 -529.216 334.426 -529.887 333.566C-530.559 332.704 -530.925 331.679 -530.923 330.62C-530.919 329.201 -530.257 327.864 -529.123 326.895C-528.237 326.138 -527.116 325.65 -525.923 325.473V325.399ZM-523.11 329.21C-523.575 328.813 -524.225 328.576 -524.922 328.576C-525.44 328.577 -525.939 328.709 -526.355 328.948C-526.77 329.186 -527.077 329.514 -527.252 329.879C-527.427 330.242 -527.47 330.634 -527.381 331.011C-527.293 331.389 -527.072 331.752 -526.726 332.046C-526.38 332.341 -525.928 332.551 -525.421 332.637C-524.915 332.722 -524.391 332.676 -523.92 332.509C-523.449 332.341 -523.063 332.063 -522.8 331.726C-522.539 331.389 -522.408 331.007 -522.408 330.625C-522.411 330.115 -522.648 329.604 -523.11 329.21ZM-315.923 306.38C-315.921 305.817 -315.744 305.266 -315.413 304.798C-315.083 304.33 -314.614 303.966 -314.065 303.752C-313.517 303.537 -312.914 303.482 -312.333 303.593C-311.751 303.703 -311.218 303.976 -310.799 304.375C-310.38 304.774 -310.095 305.282 -309.98 305.835C-309.865 306.388 -309.925 306.961 -310.152 307.481C-310.38 308.002 -310.764 308.447 -311.257 308.76C-311.75 309.073 -312.33 309.24 -312.923 309.24C-313.318 309.24 -313.708 309.166 -314.073 309.022C-314.438 308.878 -314.769 308.668 -315.047 308.402C-315.326 308.136 -315.547 307.821 -315.697 307.474C-315.847 307.127 -315.924 306.756 -315.923 306.38ZM-553.25 317.31C-553.742 317.625 -554.321 317.793 -554.914 317.795H-554.917C-555.713 317.795 -556.476 317.495 -557.04 316.961C-557.603 316.427 -557.921 315.702 -557.923 314.946L-556.923 314.943L-557.923 314.943C-557.923 314.38 -557.747 313.829 -557.418 313.36C-557.089 312.891 -556.621 312.526 -556.073 312.31C-555.526 312.094 -554.923 312.037 -554.341 312.146C-553.759 312.255 -553.225 312.526 -552.805 312.924C-552.385 313.322 -552.099 313.829 -551.982 314.382C-551.865 314.935 -551.923 315.508 -552.149 316.029C-552.375 316.55 -552.758 316.996 -553.25 317.31ZM-576.923 257.911C-576.923 256.971 -576.63 256.052 -576.08 255.271C-575.531 254.489 -574.75 253.88 -573.837 253.52C-572.923 253.16 -571.918 253.066 -570.948 253.25C-569.978 253.433 -569.087 253.886 -568.388 254.55C-567.688 255.215 -567.212 256.062 -567.019 256.984C-566.826 257.906 -566.925 258.861 -567.304 259.73C-567.682 260.598 -568.323 261.341 -569.145 261.863C-569.968 262.385 -570.934 262.664 -571.923 262.664C-573.249 262.664 -574.521 262.163 -575.459 261.272C-576.396 260.38 -576.923 259.172 -576.923 257.911ZM-561.923 249.364C-561.924 248.45 -561.677 247.547 -561.2 246.77C-560.723 245.992 -560.031 245.364 -559.195 244.987C-558.357 244.608 -557.425 244.506 -556.523 244.699C-555.623 244.893 -554.818 245.367 -554.198 246.039C-553.58 246.71 -553.171 247.55 -553.006 248.449C-552.841 249.348 -552.924 250.28 -553.249 251.134C-553.574 251.987 -554.132 252.736 -554.871 253.273C-555.612 253.811 -556.501 254.109 -557.423 254.109C-558.662 254.109 -559.818 253.574 -560.648 252.674C-561.475 251.777 -561.921 250.585 -561.923 249.364ZM-355.923 230.346C-355.923 229.431 -355.674 228.529 -355.196 227.753C-354.718 226.975 -354.025 226.349 -353.189 225.973C-352.35 225.596 -351.417 225.495 -350.516 225.69C-349.617 225.885 -348.811 226.361 -348.193 227.034C-347.576 227.705 -347.168 228.546 -347.004 229.445C-346.841 230.344 -346.925 231.277 -347.251 232.13C-347.578 232.982 -348.137 233.731 -348.877 234.266C-349.619 234.803 -350.508 235.1 -351.431 235.098C-352.669 235.096 -353.824 234.559 -354.653 233.657C-355.478 232.76 -355.923 231.567 -355.923 230.346ZM-248.923 279.298C-248.923 278.452 -248.659 277.625 -248.165 276.922C-247.67 276.218 -246.968 275.67 -246.145 275.346C-245.323 275.023 -244.418 274.938 -243.545 275.103C-242.672 275.268 -241.87 275.675 -241.241 276.274C-240.612 276.872 -240.183 277.634 -240.01 278.464C-239.836 279.293 -239.925 280.153 -240.266 280.935C-240.606 281.717 -241.183 282.385 -241.923 282.855C-242.663 283.325 -243.533 283.576 -244.423 283.576C-245.617 283.576 -246.761 283.125 -247.605 282.323C-248.449 281.521 -248.923 280.433 -248.923 279.298ZM-586.923 265.991C-586.923 265.114 -586.61 264.27 -586.044 263.565C-585.479 262.863 -584.692 262.332 -583.795 262.023C-582.898 261.714 -581.917 261.635 -580.971 261.791C-580.026 261.948 -579.142 262.336 -578.436 262.923C-577.729 263.511 -577.229 264.276 -577.025 265.131C-576.82 265.987 -576.927 266.874 -577.324 267.67C-577.719 268.465 -578.378 269.123 -579.196 269.577C-580.013 270.031 -580.962 270.268 -581.923 270.268C-583.209 270.268 -584.465 269.844 -585.41 269.058C-586.359 268.269 -586.923 267.169 -586.923 265.991ZM-609.094 300.916C-609.641 301.702 -609.929 302.625 -609.923 303.567C-609.916 304.819 -609.39 306.018 -608.458 306.902C-607.526 307.787 -606.264 308.285 -604.947 308.29C-603.956 308.294 -602.985 308.018 -602.159 307.498C-601.333 306.977 -600.689 306.234 -600.307 305.364C-599.926 304.495 -599.826 303.537 -600.019 302.613C-600.211 301.688 -600.689 300.839 -601.39 300.174C-602.092 299.508 -602.986 299.055 -603.958 298.874C-604.931 298.692 -605.938 298.789 -606.853 299.153C-607.768 299.516 -608.548 300.13 -609.094 300.916ZM-521.923 227.017C-521.923 226.142 -521.61 225.298 -521.044 224.593C-520.479 223.891 -519.692 223.36 -518.794 223.051C-517.897 222.742 -516.917 222.663 -515.971 222.819C-515.026 222.976 -514.142 223.364 -513.436 223.951C-512.729 224.539 -512.229 225.304 -512.025 226.159C-511.82 227.015 -511.927 227.901 -512.324 228.698C-512.719 229.493 -513.378 230.151 -514.196 230.605C-515.013 231.059 -515.961 231.296 -516.922 231.296C-517.562 231.297 -518.198 231.193 -518.795 230.988C-519.392 230.782 -519.943 230.478 -520.412 230.088C-520.882 229.697 -521.262 229.226 -521.525 228.698C-521.787 228.171 -521.924 227.599 -521.923 227.017ZM-394.923 214.18C-394.922 213.428 -394.686 212.693 -394.245 212.069C-393.805 211.444 -393.179 210.958 -392.448 210.671C-391.717 210.385 -390.912 210.311 -390.136 210.458C-389.361 210.606 -388.649 210.97 -388.09 211.502C-387.532 212.035 -387.152 212.713 -386.999 213.451C-386.846 214.188 -386.926 214.953 -387.23 215.647C-387.534 216.341 -388.048 216.934 -388.706 217.351C-389.365 217.768 -390.138 217.99 -390.93 217.988C-391.455 217.988 -391.975 217.889 -392.46 217.697C-392.945 217.505 -393.385 217.224 -393.756 216.871C-394.127 216.517 -394.421 216.097 -394.621 215.636C-394.821 215.174 -394.924 214.68 -394.923 214.18ZM-211.08 248.617C-211.63 249.398 -211.923 250.317 -211.923 251.257C-211.924 251.881 -211.795 252.499 -211.545 253.076C-211.294 253.654 -210.925 254.178 -210.46 254.62C-209.996 255.061 -209.444 255.412 -208.837 255.65C-208.23 255.889 -207.579 256.011 -206.922 256.01C-205.934 256.01 -204.967 255.731 -204.145 255.209C-203.323 254.687 -202.682 253.945 -202.304 253.076C-201.925 252.208 -201.826 251.252 -202.019 250.33C-202.212 249.408 -202.688 248.561 -203.388 247.897C-204.087 247.232 -204.978 246.779 -205.948 246.596C-206.918 246.413 -207.923 246.507 -208.837 246.866C-209.75 247.226 -210.531 247.835 -211.08 248.617ZM-814.923 208.008C-814.923 207.161 -814.659 206.334 -814.164 205.631C-813.669 204.927 -812.966 204.379 -812.143 204.055C-811.321 203.732 -810.416 203.647 -809.542 203.813C-808.669 203.979 -807.868 204.387 -807.239 204.986C-806.61 205.584 -806.182 206.347 -806.009 207.178C-805.836 208.008 -805.926 208.868 -806.268 209.649C-806.609 210.431 -807.187 211.098 -807.928 211.568C-808.669 212.037 -809.54 212.287 -810.43 212.285C-811.622 212.283 -812.765 211.832 -813.608 211.03C-814.45 210.228 -814.923 209.141 -814.923 208.008ZM-778.923 207.533C-778.923 206.618 -778.674 205.716 -778.196 204.94C-777.718 204.162 -777.025 203.536 -776.189 203.16C-775.35 202.783 -774.417 202.682 -773.516 202.877C-772.616 203.072 -771.812 203.548 -771.193 204.221C-770.576 204.892 -770.168 205.733 -770.004 206.632C-769.841 207.531 -769.925 208.464 -770.251 209.317C-770.578 210.169 -771.137 210.918 -771.877 211.453C-772.619 211.99 -773.508 212.287 -774.43 212.285C-775.669 212.283 -776.824 211.746 -777.653 210.844C-778.478 209.947 -778.923 208.754 -778.923 207.533ZM985.077 256.01C984.225 256.01 983.423 255.807 982.721 255.45L949.97 279.741C950.04 280.058 950.077 280.387 950.077 280.724C950.077 283.349 947.839 285.477 945.077 285.477C944.291 285.477 943.546 285.304 942.884 284.996L931.687 293.301C947.64 305.783 996.591 338.393 1019.93 353.692L1018.23 356.04C994.718 340.629 944.838 307.405 929.265 295.097L875.972 334.624L875.943 334.643C866.847 340.751 852.604 350.054 839.427 358.12C832.84 362.152 826.505 365.884 821.206 368.754C815.972 371.589 811.574 373.684 808.941 374.309L808.213 371.543C810.38 371.028 814.424 369.146 819.72 366.277C824.952 363.443 831.236 359.742 837.803 355.723C850.92 347.693 865.11 338.425 874.183 332.334L926.931 293.212C917.549 285.586 896.871 269.026 873.453 253.07C863.791 246.486 853.698 240.031 843.765 234.354C842.989 234.825 842.067 235.098 841.077 235.098C838.316 235.098 836.077 232.97 836.077 230.346C836.077 230.266 836.079 230.186 836.083 230.107C833.733 228.854 831.401 227.656 829.095 226.521C827.272 228.842 824.359 230.345 821.077 230.345C815.554 230.345 811.077 226.09 811.077 220.84C811.077 220.186 811.147 219.547 811.279 218.931C809.347 218.26 807.456 217.662 805.611 217.144C804.815 218.766 803.084 219.89 801.077 219.89C798.316 219.89 796.077 217.762 796.077 215.137C796.077 212.512 798.316 210.384 801.077 210.384C803.531 210.384 805.572 212.065 805.996 214.281C808.052 214.846 810.161 215.507 812.315 216.256C814.017 213.322 817.303 211.335 821.077 211.335C826.6 211.335 831.077 215.59 831.077 220.84C831.077 221.95 830.877 223.016 830.509 224.006C832.704 225.087 834.919 226.223 837.148 227.406C838.064 226.302 839.483 225.593 841.077 225.593C843.839 225.593 846.077 227.721 846.077 230.346C846.077 230.979 845.947 231.584 845.71 232.137C855.642 237.831 865.667 244.255 875.201 250.752C899.117 267.048 920.173 283.96 929.345 291.422L940.69 283.007C940.299 282.329 940.077 281.551 940.077 280.724C940.077 278.099 942.316 275.971 945.077 275.971C946.388 275.971 947.581 276.451 948.472 277.235L980.612 253.398C980.27 252.755 980.077 252.027 980.077 251.257C980.077 248.632 982.316 246.505 985.077 246.505C987.839 246.505 990.077 248.632 990.077 251.257C990.077 253.882 987.839 256.01 985.077 256.01ZM670.129 225.856C653.244 233.689 636.556 243.514 620.265 254.913L620.264 254.914C604.143 266.216 588.229 278.422 572.448 290.589C530.544 258.514 489.07 226.831 445.444 212.448L445.443 212.448C437.811 209.939 429.975 208.068 422.026 206.85C421.677 204.549 419.594 202.78 417.077 202.78C414.997 202.78 413.214 203.987 412.46 205.704C408.126 205.329 403.77 205.146 399.406 205.157C389.858 205.157 380.264 206.037 370.661 207.71C369.802 206.27 368.174 205.298 366.308 205.298C363.713 205.298 361.579 207.177 361.332 209.582C354.778 211.068 348.227 212.911 341.689 215.083L342.678 217.775C349.099 215.642 355.525 213.834 361.946 212.375C362.802 213.824 364.435 214.803 366.308 214.803C368.91 214.803 371.047 212.914 371.286 210.5C380.696 208.865 390.082 208.008 399.407 208.008L399.411 208.008C403.684 207.998 407.948 208.177 412.19 208.544C412.678 210.683 414.681 212.285 417.077 212.285C419.032 212.285 420.724 211.219 421.547 209.665C429.326 210.857 436.994 212.687 444.461 215.142C487.377 229.291 528.255 260.432 570.064 292.428L569.461 292.893C557.969 301.756 546.545 310.566 535.16 318.959C511.749 336.218 488.395 351.799 464.577 362.805V246.287C466.606 245.681 468.077 243.88 468.077 241.752C468.077 239.127 465.839 236.999 463.077 236.999C460.316 236.999 458.077 239.127 458.077 241.752C458.077 243.88 459.549 245.681 461.577 246.287V364.165C457.821 365.837 454.053 367.392 450.271 368.819L451.378 371.469C480.602 360.441 508.871 341.948 536.998 321.213C548.507 312.729 559.966 303.89 571.462 295.022L572.455 294.257C575.877 296.876 579.306 299.498 582.743 302.116C582.32 302.814 582.077 303.624 582.077 304.487C582.077 307.112 584.316 309.24 587.077 309.24C589.839 309.24 592.077 307.112 592.077 304.487C592.077 301.863 589.839 299.735 587.077 299.735C586.33 299.735 585.622 299.89 584.985 300.169C581.599 297.591 578.217 295.005 574.838 292.419C590.417 280.408 606.08 268.402 622.044 257.209C637.961 246.072 654.232 236.468 670.665 228.782C671.508 230.278 673.167 231.296 675.077 231.296C677.839 231.296 680.077 229.168 680.077 226.543C680.077 223.918 677.839 221.791 675.077 221.791C672.561 221.791 670.479 223.557 670.129 225.856ZM327.86 218.254C326.027 220.411 323.222 221.791 320.077 221.791C314.613 221.791 310.173 217.626 310.078 212.454C298.507 209.479 286.56 207.98 274.549 208.008C260.29 208.094 246.105 209.979 232.361 213.614L231.051 213.961L230.56 212.756C230.449 212.485 230.323 212.219 230.183 211.961L231.664 211.232L231.557 210.867C245.557 207.164 260.007 205.244 274.533 205.157L274.538 205.157C286.686 205.128 298.769 206.627 310.48 209.604C311.698 205.66 315.534 202.78 320.077 202.78C325.6 202.78 330.077 207.036 330.077 212.285C330.077 213.514 329.832 214.688 329.385 215.766C336.669 218.608 343.894 221.913 351.072 225.598C351.984 224.441 353.438 223.692 355.077 223.692C357.838 223.692 360.077 225.82 360.077 228.444C360.077 229.074 359.948 229.675 359.714 230.225C371.51 236.795 383.192 244.311 394.817 252.406C395.692 251.69 396.831 251.257 398.077 251.257C400.838 251.257 403.077 253.385 403.077 256.01C403.077 258.635 400.838 260.763 398.077 260.763C395.315 260.763 393.077 258.635 393.077 256.01C393.077 255.605 393.13 255.212 393.23 254.837C381.45 246.627 369.652 239.041 357.771 232.449C356.994 232.922 356.069 233.197 355.077 233.197C352.315 233.197 350.077 231.069 350.077 228.444C350.077 228.406 350.077 228.368 350.078 228.329C342.715 224.532 335.314 221.144 327.86 218.254ZM139.044 255.986C141.953 253.961 144.872 251.988 147.803 250.067C147.335 248.967 147.077 247.764 147.077 246.505C147.077 241.255 151.554 236.999 157.077 236.999C162.6 236.999 167.077 241.255 167.077 246.505C167.077 251.754 162.6 256.01 157.077 256.01C153.958 256.01 151.172 254.652 149.338 252.525C146.487 254.396 143.646 256.317 140.814 258.289C140.985 258.767 141.077 259.279 141.077 259.812C141.077 262.437 138.838 264.565 136.077 264.565C134.999 264.565 134.001 264.241 133.185 263.689C120.208 272.998 107.402 282.783 94.6562 292.592C96.376 293.916 98.0961 295.241 99.8168 296.567L99.8347 296.581C101.964 298.221 104.094 299.862 106.225 301.502C120.978 312.851 135.796 324.131 150.823 334.63C193.374 364.359 238.242 383.14 281.835 383.128H281.84C297.178 383.171 312.413 380.742 326.894 375.947C336.686 372.64 346.204 368.647 355.371 364.002L356.782 366.518C347.483 371.231 337.827 375.281 327.893 378.636L327.885 378.638C313.083 383.54 297.512 386.023 281.833 385.98H281.831L281.835 384.554L281.836 385.98H281.833C237.353 385.991 191.866 366.844 149.046 336.927C133.958 326.385 119.093 315.069 104.338 303.718C102.227 302.094 100.118 300.47 98.011 298.846L97.9403 298.792L97.9377 298.79L97.6133 298.54L95.9463 297.256L94.4794 296.126C93.7438 295.56 93.0083 294.993 92.2729 294.427L89.4962 296.566L89.4951 296.567L89.4911 296.571C79.7727 304.058 70.0815 311.524 60.3699 318.768C34.0087 338.433 7.57556 356.399 -19.595 368.352L-20.855 365.764C5.98511 353.957 32.1931 336.162 58.5177 316.525C68.1476 309.342 77.804 301.903 87.509 294.426L87.5109 294.425L87.5153 294.421L87.5186 294.419L89.8882 292.593C79.9927 284.988 70.1271 277.474 60.2434 270.264C30.8621 248.833 1.44885 230.196 -29.0621 220.029C-43.7252 215.182 -59.1484 212.724 -74.6775 212.761L-74.6813 212.761C-95.9241 212.761 -117.418 217.194 -138.779 225.088L-139.866 222.431C-118.23 214.435 -96.3662 209.91 -74.6832 209.909C-58.816 209.872 -43.0568 212.383 -28.0742 217.336L-28.0707 217.337C2.90759 227.66 32.6304 246.529 62.0697 268.002C72.1448 275.351 82.2018 283.016 92.2717 290.758C105.195 280.811 118.21 270.861 131.37 261.419C131.18 260.917 131.077 260.376 131.077 259.812C131.077 257.187 133.315 255.059 136.077 255.059C137.188 255.059 138.214 255.404 139.044 255.986ZM326.894 375.947L326.889 375.948L327.391 377.292L326.898 375.946L326.894 375.947ZM8.0769 327.087C8.0769 329.712 10.3154 331.84 13.0769 331.84C15.8384 331.84 18.0769 329.712 18.0769 327.087C18.0769 324.959 16.6055 323.158 14.5769 322.552V262.484C17.1648 261.851 19.0769 259.618 19.0769 256.961C19.0769 253.811 16.3906 251.257 13.0769 251.257C9.76318 251.257 7.0769 253.811 7.0769 256.961C7.0769 259.618 8.98901 261.851 11.5769 262.484V322.552C9.54834 323.158 8.0769 324.959 8.0769 327.087ZM1409.08 246.261V360.569H1406.08V246.261C1404.33 245.674 1403.08 244.09 1403.08 242.227C1403.08 239.865 1405.09 237.95 1407.58 237.95C1410.06 237.95 1412.08 239.865 1412.08 242.227C1412.08 244.09 1410.82 245.674 1409.08 246.261ZM1342.08 314.943C1342.08 313.888 1342.68 312.966 1343.58 312.473V275.865C1341.57 275.433 1340.08 273.729 1340.08 271.694C1340.08 269.331 1342.09 267.416 1344.58 267.416C1347.06 267.416 1349.08 269.331 1349.08 271.694C1349.08 273.373 1348.06 274.827 1346.58 275.527V312.473C1347.47 312.966 1348.08 313.888 1348.08 314.943C1348.08 316.518 1346.73 317.795 1345.08 317.795C1343.42 317.795 1342.08 316.518 1342.08 314.943ZM1231.08 272.169C1231.08 273.225 1231.68 274.146 1232.58 274.639V311.586C1231.1 312.286 1230.08 313.739 1230.08 315.419C1230.08 317.781 1232.09 319.696 1234.58 319.696C1237.06 319.696 1239.08 317.781 1239.08 315.419C1239.08 313.383 1237.58 311.679 1235.58 311.247V274.639C1236.47 274.146 1237.08 273.225 1237.08 272.169C1237.08 270.594 1235.73 269.318 1234.08 269.318C1232.42 269.318 1231.08 270.594 1231.08 272.169ZM1201.58 262.484C1198.99 261.851 1197.08 259.618 1197.08 256.96C1197.08 253.811 1199.76 251.257 1203.08 251.257C1206.39 251.257 1209.08 253.811 1209.08 256.96C1209.08 259.618 1207.16 261.851 1204.58 262.484V321.815C1206.61 322.42 1208.08 324.222 1208.08 326.35C1208.08 328.975 1205.84 331.102 1203.08 331.102C1200.32 331.102 1198.08 328.975 1198.08 326.35C1198.08 324.222 1199.55 322.42 1201.58 321.815V262.484ZM1104.08 224.642C1104.08 226.77 1105.55 228.572 1107.58 229.177V354.866H1110.58V229.177C1112.61 228.572 1114.08 226.77 1114.08 224.642C1114.08 222.017 1111.84 219.89 1109.08 219.89C1106.32 219.89 1104.08 222.017 1104.08 224.642ZM1078.58 354.866V238.721C1081.17 238.087 1083.08 235.854 1083.08 233.197C1083.08 230.047 1080.39 227.494 1077.08 227.494C1073.76 227.494 1071.08 230.047 1071.08 233.197C1071.08 235.854 1072.99 238.087 1075.58 238.721V354.866H1078.58ZM1047.58 247.238V354.866H1044.58V247.238C1042.55 246.632 1041.08 244.831 1041.08 242.703C1041.08 240.078 1043.32 237.95 1046.08 237.95C1048.84 237.95 1051.08 240.078 1051.08 242.703C1051.08 244.831 1049.61 246.632 1047.58 247.238ZM1012.58 266.666C1010.83 266.079 1009.58 264.495 1009.58 262.632C1009.58 260.27 1011.59 258.355 1014.08 258.355C1016.56 258.355 1018.58 260.27 1018.58 262.632C1018.58 264.495 1017.32 266.079 1015.58 266.666V325.617C1017.61 326.222 1019.08 328.024 1019.08 330.152C1019.08 332.777 1016.84 334.905 1014.08 334.905C1011.32 334.905 1009.08 332.777 1009.08 330.152C1009.08 328.024 1010.55 326.222 1012.58 325.617V266.666ZM874.077 274.545C874.077 276.581 875.573 278.285 877.577 278.717V302.91C876.68 303.403 876.077 304.325 876.077 305.38C876.077 306.955 877.42 308.232 879.077 308.232C880.734 308.232 882.077 306.955 882.077 305.38C882.077 304.325 881.474 303.403 880.577 302.91V278.378C882.059 277.678 883.077 276.225 883.077 274.545C883.077 272.183 881.062 270.268 878.577 270.268C876.092 270.268 874.077 272.183 874.077 274.545ZM824.095 243.653C824.915 243.644 825.577 243.009 825.577 242.227C825.577 241.44 824.906 240.801 824.077 240.801C823.249 240.801 822.577 241.44 822.577 242.227C822.577 243.009 823.239 243.644 824.059 243.653H824.095ZM822.577 246.261C820.829 245.674 819.577 244.09 819.577 242.227C819.577 239.865 821.592 237.95 824.077 237.95C826.562 237.95 828.577 239.865 828.577 242.227C828.577 244.09 827.325 245.674 825.577 246.261V352.965H822.577V246.261ZM756.077 230.346C756.077 232.474 757.549 234.275 759.577 234.881V352.965H762.577V234.881C764.606 234.275 766.077 232.474 766.077 230.346C766.077 227.721 763.839 225.593 761.077 225.593C758.316 225.593 756.077 227.721 756.077 230.346ZM699.577 352.965V249.113C701.325 248.526 702.577 246.941 702.577 245.079C702.577 242.716 700.562 240.801 698.077 240.801C695.592 240.801 693.577 242.716 693.577 245.079C693.577 246.941 694.829 248.526 696.577 249.113V352.965H699.577ZM665.577 325.579C662.989 326.212 661.077 328.445 661.077 331.103C661.077 334.252 663.763 336.806 667.077 336.806C670.391 336.806 673.077 334.252 673.077 331.103C673.077 328.445 671.165 326.212 668.577 325.579V265.298C670.606 264.692 672.077 262.891 672.077 260.763C672.077 258.138 669.839 256.01 667.077 256.01C664.316 256.01 662.077 258.138 662.077 260.763C662.077 262.891 663.549 264.692 665.577 265.298V325.579ZM635.577 276.678C633.829 276.091 632.577 274.507 632.577 272.644C632.577 270.282 634.592 268.367 637.077 268.367C639.562 268.367 641.577 270.282 641.577 272.644C641.577 274.507 640.325 276.091 638.577 276.678V312.473C639.474 312.966 640.077 313.888 640.077 314.943C640.077 316.518 638.734 317.795 637.077 317.795C635.42 317.795 634.077 316.518 634.077 314.943C634.077 313.888 634.68 312.966 635.577 312.473V276.678ZM527.577 274.639V310.957C529.325 311.544 530.577 313.129 530.577 314.991C530.577 317.354 528.562 319.269 526.077 319.269C523.592 319.269 521.577 317.354 521.577 314.991C521.577 313.129 522.829 311.544 524.577 310.957V274.639C523.68 274.146 523.077 273.225 523.077 272.169C523.077 270.594 524.42 269.318 526.077 269.318C527.734 269.318 529.077 270.594 529.077 272.169C529.077 273.225 528.474 274.146 527.577 274.639ZM426.077 227.588C426.077 230.245 427.989 232.478 430.577 233.111V365.322H433.577V233.111C436.165 232.478 438.077 230.245 438.077 227.588C438.077 224.438 435.391 221.884 432.077 221.884C428.763 221.884 426.077 224.438 426.077 227.588ZM339.577 245.311C337.829 244.723 336.577 243.139 336.577 241.277C336.577 238.914 338.592 236.999 341.077 236.999C343.562 236.999 345.577 238.914 345.577 241.277C345.577 243.139 344.325 244.723 342.577 245.311V352.965H339.577V245.311ZM301.577 258.244C301.577 260.106 302.829 261.691 304.577 262.278V322.765C302.548 323.371 301.077 325.172 301.077 327.3C301.077 329.925 303.315 332.053 306.077 332.053C308.838 332.053 311.077 329.925 311.077 327.3C311.077 325.172 309.605 323.371 307.577 322.765V262.278C309.325 261.691 310.577 260.106 310.577 258.244C310.577 255.881 308.562 253.966 306.077 253.966C303.592 253.966 301.577 255.881 301.577 258.244ZM277.577 231.799C274.749 231.338 272.597 228.997 272.597 226.178C272.597 223.028 275.283 220.474 278.597 220.474C281.911 220.474 284.597 223.028 284.597 226.178C284.597 228.668 282.918 230.785 280.577 231.563V370.074H277.577V231.799ZM216.577 248.681V343.459H213.577V248.681C211.829 248.094 210.577 246.51 210.577 244.647C210.577 242.285 212.592 240.37 215.077 240.37C217.562 240.37 219.577 242.285 219.577 244.647C219.577 246.51 218.325 248.094 216.577 248.681ZM150.077 314.943C150.077 313.888 150.68 312.966 151.577 312.473V277.874C149.829 277.287 148.577 275.702 148.577 273.84C148.577 271.478 150.592 269.563 153.077 269.563C155.562 269.563 157.577 271.478 157.577 273.84C157.577 275.702 156.325 277.287 154.577 277.874V312.473C155.474 312.966 156.077 313.888 156.077 314.943C156.077 316.518 154.734 317.795 153.077 317.795C151.42 317.795 150.077 316.518 150.077 314.943ZM40.5769 311.385C38.8291 311.972 37.5769 313.556 37.5769 315.419C37.5769 317.781 39.5917 319.696 42.0769 319.696C44.5621 319.696 46.5769 317.781 46.5769 315.419C46.5769 313.556 45.3247 311.972 43.5769 311.385V274.639C44.4736 274.146 45.0769 273.225 45.0769 272.169C45.0769 270.594 43.7338 269.318 42.0769 269.318C40.42 269.318 39.0769 270.594 39.0769 272.169C39.0769 273.225 39.6802 274.146 40.5769 274.639V311.385ZM1406.08 242.227C1406.08 243.015 1406.75 243.653 1407.58 243.653C1408.41 243.653 1409.08 243.015 1409.08 242.227C1409.08 241.44 1408.41 240.801 1407.58 240.801C1406.75 240.801 1406.08 241.44 1406.08 242.227ZM1344.58 273.12C1343.75 273.12 1343.08 272.481 1343.08 271.694C1343.08 270.906 1343.75 270.268 1344.58 270.268C1345.41 270.268 1346.08 270.906 1346.08 271.694C1346.08 272.481 1345.41 273.12 1344.58 273.12ZM1012.58 262.632C1012.58 263.42 1013.25 264.058 1014.08 264.058C1014.91 264.058 1015.58 263.42 1015.58 262.632C1015.58 261.845 1014.91 261.206 1014.08 261.206C1013.25 261.206 1012.58 261.845 1012.58 262.632ZM878.577 275.971C877.749 275.971 877.077 275.333 877.077 274.545C877.077 273.758 877.749 273.12 878.577 273.12C879.406 273.12 880.077 273.758 880.077 274.545C880.077 275.333 879.406 275.971 878.577 275.971ZM698.077 246.505C697.249 246.505 696.577 245.866 696.577 245.079C696.577 244.291 697.249 243.653 698.077 243.653C698.906 243.653 699.577 244.291 699.577 245.079C699.577 245.866 698.906 246.505 698.077 246.505ZM635.577 272.644C635.577 273.432 636.249 274.07 637.077 274.07C637.906 274.07 638.577 273.432 638.577 272.644C638.577 271.857 637.906 271.218 637.077 271.218C636.249 271.218 635.577 271.857 635.577 272.644ZM526.077 316.417C525.249 316.417 524.577 315.779 524.577 314.991C524.577 314.204 525.249 313.565 526.077 313.565C526.906 313.565 527.577 314.204 527.577 314.991C527.577 315.779 526.906 316.417 526.077 316.417ZM339.577 241.277C339.577 242.064 340.249 242.702 341.077 242.702C341.905 242.702 342.577 242.064 342.577 241.277C342.577 240.489 341.905 239.851 341.077 239.851C340.249 239.851 339.577 240.489 339.577 241.277ZM306.077 259.67C305.249 259.67 304.577 259.031 304.577 258.244C304.577 257.456 305.249 256.818 306.077 256.818C306.905 256.818 307.577 257.456 307.577 258.244C307.577 259.031 306.905 259.67 306.077 259.67ZM213.577 244.647C213.577 245.435 214.249 246.073 215.077 246.073C215.905 246.073 216.577 245.435 216.577 244.647C216.577 243.86 215.905 243.221 215.077 243.221C214.249 243.221 213.577 243.86 213.577 244.647ZM153.077 275.266C152.249 275.266 151.577 274.627 151.577 273.84C151.577 273.053 152.249 272.414 153.077 272.414C153.905 272.414 154.577 273.053 154.577 273.84C154.577 274.627 153.905 275.266 153.077 275.266ZM40.5769 315.419C40.5769 316.206 41.2485 316.844 42.0769 316.844C42.9053 316.844 43.5769 316.206 43.5769 315.419C43.5769 314.631 42.9053 313.993 42.0769 313.993C41.2485 313.993 40.5769 314.631 40.5769 315.419ZM1234.58 316.844C1233.75 316.844 1233.08 316.206 1233.08 315.419C1233.08 314.631 1233.75 313.993 1234.58 313.993C1235.41 313.993 1236.08 314.631 1236.08 315.419C1236.08 316.206 1235.41 316.844 1234.58 316.844ZM1200.08 256.96C1200.08 258.535 1201.42 259.812 1203.08 259.812C1204.73 259.812 1206.08 258.535 1206.08 256.96C1206.08 255.386 1204.73 254.109 1203.08 254.109C1201.42 254.109 1200.08 255.386 1200.08 256.96ZM1077.08 236.049C1075.42 236.049 1074.08 234.772 1074.08 233.197C1074.08 231.622 1075.42 230.345 1077.08 230.345C1078.73 230.345 1080.08 231.622 1080.08 233.197C1080.08 234.772 1078.73 236.049 1077.08 236.049ZM664.077 331.103C664.077 332.677 665.42 333.954 667.077 333.954C668.734 333.954 670.077 332.677 670.077 331.103C670.077 329.528 668.734 328.251 667.077 328.251C665.42 328.251 664.077 329.528 664.077 331.103ZM432.077 230.439C430.42 230.439 429.077 229.163 429.077 227.588C429.077 226.013 430.42 224.736 432.077 224.736C433.734 224.736 435.077 226.013 435.077 227.588C435.077 229.163 433.734 230.439 432.077 230.439ZM275.597 226.178C275.597 227.752 276.94 229.029 278.597 229.029C280.254 229.029 281.597 227.752 281.597 226.178C281.597 224.603 280.254 223.326 278.597 223.326C276.94 223.326 275.597 224.603 275.597 226.178ZM1424.08 217.988C1421.32 217.988 1419.08 215.861 1419.08 213.236C1419.08 210.611 1421.32 208.483 1424.08 208.483C1425.22 208.483 1426.27 208.848 1427.12 209.462C1427.65 209.305 1428.19 209.16 1428.75 209.026C1430.91 208.507 1433.35 208.118 1435.82 207.828C1440.75 207.25 1445.86 207.057 1449.08 207.057V209.909C1445.96 209.909 1440.97 210.097 1436.19 210.659C1433.79 210.939 1431.48 211.311 1429.49 211.79C1429.28 211.839 1429.08 211.889 1428.89 211.94C1429.01 212.352 1429.08 212.786 1429.08 213.236C1429.08 215.861 1426.84 217.988 1424.08 217.988ZM13.0769 259.812C11.42 259.812 10.0769 258.535 10.0769 256.961C10.0769 255.386 11.42 254.109 13.0769 254.109C14.7338 254.109 16.0769 255.386 16.0769 256.961C16.0769 258.535 14.7338 259.812 13.0769 259.812Z" fill="url(#paint15_linear_121_682)"/>
  <path fillRule="evenodd" clipRule="evenodd" d="M229.206 218.026C226.721 218.026 224.706 216.111 224.706 213.749C224.706 211.387 226.721 209.472 229.206 209.472C231.691 209.472 233.706 211.387 233.706 213.749C233.706 216.111 231.691 218.026 229.206 218.026Z" fill="#8CC960"/>
  <defs>
  <linearGradient id="paint0_linear_121_682" x1="-234911" y1="440140" x2="-8.92457e+06" y2="440140" gradientUnits="userSpaceOnUse">
  <stop stopColor="#00D4FF"/>
  <stop offset="0.12" stopColor="#0CD5F2"/>
  <stop offset="0.35" stopColor="#2AD8D0"/>
  <stop offset="0.65" stopColor="#5CDC99"/>
  <stop offset="1" stopColor="#9BE252"/>
  </linearGradient>
  <linearGradient id="paint1_linear_121_682" x1="-235033" y1="440152" x2="-8.92469e+06" y2="440152" gradientUnits="userSpaceOnUse">
  <stop stopColor="#00D4FF"/>
  <stop offset="0.12" stopColor="#0CD5F2"/>
  <stop offset="0.35" stopColor="#2AD8D0"/>
  <stop offset="0.65" stopColor="#5CDC99"/>
  <stop offset="1" stopColor="#9BE252"/>
  </linearGradient>
  <linearGradient id="paint2_linear_121_682" x1="865.037" y1="66166.3" x2="-16666.5" y2="66166.3" gradientUnits="userSpaceOnUse">
  <stop stopColor="#00D4FF"/>
  <stop offset="0.12" stopColor="#0CD5F2"/>
  <stop offset="0.35" stopColor="#2AD8D0"/>
  <stop offset="0.65" stopColor="#5CDC99"/>
  <stop offset="1" stopColor="#9BE252"/>
  </linearGradient>
  <linearGradient id="paint3_linear_121_682" x1="930.068" y1="30055.2" x2="-16601.2" y2="30055.2" gradientUnits="userSpaceOnUse">
  <stop stopColor="#00D4FF"/>
  <stop offset="0.12" stopColor="#0CD5F2"/>
  <stop offset="0.35" stopColor="#2AD8D0"/>
  <stop offset="0.65" stopColor="#5CDC99"/>
  <stop offset="1" stopColor="#9BE252"/>
  </linearGradient>
  <linearGradient id="paint4_linear_121_682" x1="777.007" y1="108231" x2="-16754.6" y2="108231" gradientUnits="userSpaceOnUse">
  <stop stopColor="#00D4FF"/>
  <stop offset="0.12" stopColor="#0CD5F2"/>
  <stop offset="0.35" stopColor="#2AD8D0"/>
  <stop offset="0.65" stopColor="#5CDC99"/>
  <stop offset="1" stopColor="#9BE252"/>
  </linearGradient>
  <linearGradient id="paint5_linear_121_682" x1="688.8" y1="124396" x2="-16842.6" y2="124396" gradientUnits="userSpaceOnUse">
  <stop stopColor="#00D4FF"/>
  <stop offset="0.12" stopColor="#0CD5F2"/>
  <stop offset="0.35" stopColor="#2AD8D0"/>
  <stop offset="0.65" stopColor="#5CDC99"/>
  <stop offset="1" stopColor="#9BE252"/>
  </linearGradient>
  <linearGradient id="paint6_linear_121_682" x1="601.062" y1="144938" x2="-16930.7" y2="144938" gradientUnits="userSpaceOnUse">
  <stop stopColor="#00D4FF"/>
  <stop offset="0.12" stopColor="#0CD5F2"/>
  <stop offset="0.35" stopColor="#2AD8D0"/>
  <stop offset="0.65" stopColor="#5CDC99"/>
  <stop offset="1" stopColor="#9BE252"/>
  </linearGradient>
  <linearGradient id="paint7_linear_121_682" x1="512.873" y1="141814" x2="-17019.7" y2="141814" gradientUnits="userSpaceOnUse">
  <stop stopColor="#00D4FF"/>
  <stop offset="0.12" stopColor="#0CD5F2"/>
  <stop offset="0.35" stopColor="#2AD8D0"/>
  <stop offset="0.65" stopColor="#5CDC99"/>
  <stop offset="1" stopColor="#9BE252"/>
  </linearGradient>
  <linearGradient id="paint8_linear_121_682" x1="425.334" y1="107011" x2="-17191.2" y2="107011" gradientUnits="userSpaceOnUse">
  <stop stopColor="#00D4FF"/>
  <stop offset="0.12" stopColor="#0CD5F2"/>
  <stop offset="0.35" stopColor="#2AD8D0"/>
  <stop offset="0.65" stopColor="#5CDC99"/>
  <stop offset="1" stopColor="#9BE252"/>
  </linearGradient>
  <linearGradient id="paint9_linear_121_682" x1="336.92" y1="71857.3" x2="-17194.7" y2="71857.3" gradientUnits="userSpaceOnUse">
  <stop stopColor="#00D4FF"/>
  <stop offset="0.12" stopColor="#0CD5F2"/>
  <stop offset="0.35" stopColor="#2AD8D0"/>
  <stop offset="0.65" stopColor="#5CDC99"/>
  <stop offset="1" stopColor="#9BE252"/>
  </linearGradient>
  <linearGradient id="paint10_linear_121_682" x1="248.785" y1="44585.5" x2="-17282.7" y2="44585.5" gradientUnits="userSpaceOnUse">
  <stop stopColor="#00D4FF"/>
  <stop offset="0.12" stopColor="#0CD5F2"/>
  <stop offset="0.35" stopColor="#2AD8D0"/>
  <stop offset="0.65" stopColor="#5CDC99"/>
  <stop offset="1" stopColor="#9BE252"/>
  </linearGradient>
  <linearGradient id="paint11_linear_121_682" x1="1309.13" y1="68644.8" x2="-16222.1" y2="68644.8" gradientUnits="userSpaceOnUse">
  <stop stopColor="#00D4FF"/>
  <stop offset="0.12" stopColor="#0CD5F2"/>
  <stop offset="0.35" stopColor="#2AD8D0"/>
  <stop offset="0.65" stopColor="#5CDC99"/>
  <stop offset="1" stopColor="#9BE252"/>
  </linearGradient>
  <linearGradient id="paint12_linear_121_682" x1="1397.21" y1="108863" x2="-16135.1" y2="108863" gradientUnits="userSpaceOnUse">
  <stop stopColor="#00D4FF"/>
  <stop offset="0.12" stopColor="#0CD5F2"/>
  <stop offset="0.35" stopColor="#2AD8D0"/>
  <stop offset="0.65" stopColor="#5CDC99"/>
  <stop offset="1" stopColor="#9BE252"/>
  </linearGradient>
  <linearGradient id="paint13_linear_121_682" x1="1485.98" y1="130069" x2="-16130.7" y2="130069" gradientUnits="userSpaceOnUse">
  <stop stopColor="#00D4FF"/>
  <stop offset="0.12" stopColor="#0CD5F2"/>
  <stop offset="0.35" stopColor="#2AD8D0"/>
  <stop offset="0.65" stopColor="#5CDC99"/>
  <stop offset="1" stopColor="#9BE252"/>
  </linearGradient>
  <linearGradient id="paint14_linear_121_682" x1="1573.43" y1="140851" x2="-15958.2" y2="140851" gradientUnits="userSpaceOnUse">
  <stop stopColor="#00D4FF"/>
  <stop offset="0.12" stopColor="#0CD5F2"/>
  <stop offset="0.35" stopColor="#2AD8D0"/>
  <stop offset="0.65" stopColor="#5CDC99"/>
  <stop offset="1" stopColor="#9BE252"/>
  </linearGradient>
  <linearGradient id="paint15_linear_121_682" x1="840.828" y1="323.808" x2="278.754" y2="519.528" gradientUnits="userSpaceOnUse">
  <stop stopColor="#00D4FF"/>
  <stop offset="0.9999" stopColor="#9BC74E"/>
  </linearGradient>
  </defs>
</svg>
