<?xml version="1.0" encoding="iso-8859-1"?>
<!-- Generator: Adobe Illustrator 19.0.0, SVG Export Plug-In . SVG Version: 6.00 Build 0)  -->
<svg version="1.1" id="Layer_1" xmlns="http://www.w3.org/2000/svg" xmlns:xlink="http://www.w3.org/1999/xlink" x="0px" y="0px"
	 viewBox="0 0 496 496" style="enable-background:new 0 0 496 496;" xml:space="preserve">
<g>
	<g>
		<g>
			<path d="M429.56,290.888l45.584-19.536l-6.296-14.704l-47.352,20.296c-7.68-11.08-17.456-20.592-28.752-27.976l22.104-36.848
				l-13.72-8.232l-22.44,37.392C365.656,235.368,351.232,232,336,232h-2.408l33.4-60.12l-13.984-7.768l-37.144,66.864
				c-16.384-2.512-31.128-9.976-42.672-20.864l20.464-20.464l-11.312-11.312l-19.672,19.672C253.464,184.984,248,169.128,248,152
				c0-0.408-0.056-0.808-0.064-1.216l41.376-6.896l-2.624-15.784l-40.312,6.72c-1.816-10.008-5.128-19.496-9.792-28.176l55-27.496
				l-7.16-14.312L227.72,93.192c-4.528-5.824-9.672-11.136-15.4-15.784l25.936-32.416l-12.504-10l-26.72,33.4
				c-6.84-3.864-14.216-6.864-21.96-8.96l6.776-33.864l-15.688-3.136l-6.808,34.04C158.272,56.176,155.152,56,152,56
				c-8.304,0-16.312,1.168-24,3.16V0h-16v64.84c-4.336,2-8.52,4.272-12.488,6.872l-37.36-44.84L49.848,37.128l37.08,44.496
				c-4.68,4.328-8.92,9.096-12.664,14.272L52.44,81.344l-8.872,13.312L66,109.608c-4.072,8.216-6.984,17.064-8.552,26.392H0v16h56v8
				c0,5.824,0.24,11.592,0.592,17.328l-34.16,6.832l3.144,15.688l32.488-6.496c1.32,11.088,3.288,21.984,5.872,32.64l-50.12,14.32
				l4.392,15.392l49.92-14.264c2.072,6.808,4.44,13.48,7.008,20.064L20.44,288.856l7.16,14.312l53.8-26.896
				c3.872,8.456,8.152,16.68,12.824,24.664l-42.64,28.424l8.872,13.312l42.208-28.144c5.664,8.528,11.768,16.728,18.304,24.568
				L99.576,353.36l8.872,13.312l23.24-15.496c5.608,5.992,11.456,11.76,17.568,17.24l-35.392,42.472l12.296,10.248l35.336-42.4
				c6.504,5.2,13.216,10.128,20.168,14.736l-36.44,58.296l13.56,8.488l36.464-58.344c9.096,5.312,18.512,10.136,28.216,14.416
				l-15.056,45.16l15.168,5.064l14.72-44.152c10.36,3.872,21.024,7.104,31.912,9.744l-6.064,30.312l15.688,3.144l6.032-30.152
				c8.584,1.56,17.296,2.728,26.128,3.488V496h16v-56.2c2.672,0.072,5.328,0.2,8.008,0.2c10.056,0,19.752-1.512,28.96-4.184
				l19.88,39.768l14.312-7.16l-19.16-38.32c6.504-3.056,12.624-6.752,18.312-11.032L417.6,444.8l12.8-9.592l-20.008-26.672
				c4.664-4.784,8.864-10.008,12.552-15.616l44.624,29.744l8.872-13.312l-45.776-30.52c3.824-8.408,6.512-17.408,7.976-26.824H496
				v-16h-56C440,319.824,436.176,304.56,429.56,290.888z M336,424C190.432,424,72,305.568,72,160v-8c0-44.112,35.888-80,80-80
				s80,35.888,80,80c0,52.936,43.064,96,96,96h8c48.52,0,88,39.48,88,88C424,384.52,384.52,424,336,424z"/>
			<path d="M160,192c26.472,0,48-21.528,48-48s-21.528-48-48-48s-48,21.528-48,48S133.528,192,160,192z M160,112
				c17.648,0,32,14.352,32,32s-14.352,32-32,32s-32-14.352-32-32S142.352,112,160,112z"/>
			<path d="M144,232c-13.232,0-24,10.768-24,24s10.768,24,24,24s24-10.768,24-24S157.232,232,144,232z M144,264
				c-4.416,0-8-3.584-8-8c0-4.416,3.584-8,8-8s8,3.584,8,8C152,260.416,148.416,264,144,264z"/>
			<path d="M224,312c-17.648,0-32,14.352-32,32s14.352,32,32,32s32-14.352,32-32S241.648,312,224,312z M224,360
				c-8.824,0-16-7.176-16-16c0-8.824,7.176-16,16-16c8.824,0,16,7.176,16,16C240,352.824,232.824,360,224,360z"/>
			<path d="M272,248c-13.232,0-24,10.768-24,24s10.768,24,24,24s24-10.768,24-24S285.232,248,272,248z M272,280
				c-4.416,0-8-3.584-8-8c0-4.416,3.584-8,8-8c4.416,0,8,3.584,8,8C280,276.416,276.416,280,272,280z"/>
			<path d="M352,304c-17.648,0-32,14.352-32,32s14.352,32,32,32s32-14.352,32-32S369.648,304,352,304z M352,352
				c-8.824,0-16-7.176-16-16c0-8.824,7.176-16,16-16c8.824,0,16,7.176,16,16C368,344.824,360.824,352,352,352z"/>
			<path d="M480,96v-1.896c0-5.584-0.616-11.032-1.736-16.288l13.312-6.656l-7.16-14.312l-11.192,5.6
				c-3.456-7.752-8.16-14.816-13.824-21L484.8,22.4l-9.6-12.8l-28,21c-4.256-3.048-8.808-5.68-13.64-7.832l5.6-11.192l-14.312-7.16
				l-6.656,13.312C412.928,16.616,407.488,16,401.896,16H400V0h-16v16.808c-4.408,0.896-8.464,2.656-12.216,4.872l-4.632-9.256
				l-14.312,7.16l6.648,13.288c-2.816,3.944-4.864,8.416-6.104,13.24l-23.448-5.872l-3.872,15.52l26.584,6.648
				c0.744,4.592,2.304,8.864,4.48,12.792l-15.656,5.216l5.064,15.168l22.016-7.336c3.08,2.248,6.488,4,10.136,5.304l-9.344,14.016
				l13.312,8.872l12.976-19.456c2.56,1.328,4.368,3.928,4.368,7.016c0,5.328,1.096,10.4,2.992,15.056l-15.432,10.288l8.872,13.312
				l15.416-10.28c3.48,3.448,7.6,6.24,12.144,8.232V176h16v-32c6.032,0,11.704-1.44,16.84-3.848l17.504,17.504l11.312-11.312
				l-15.888-15.888c4.6-5.168,7.992-11.432,9.424-18.456H496V96H480z M464,104c0,13.232-10.768,24-24,24s-24-10.768-24-24
				s-10.768-24-24-24s-24-10.768-24-24s10.768-24,24-24h9.896C436.144,32,464,59.856,464,94.104V104z"/>
		</g>
	</g>
</g>
<g>
</g>
<g>
</g>
<g>
</g>
<g>
</g>
<g>
</g>
<g>
</g>
<g>
</g>
<g>
</g>
<g>
</g>
<g>
</g>
<g>
</g>
<g>
</g>
<g>
</g>
<g>
</g>
<g>
</g>
</svg>
