<svg width="1440" height="534" viewBox="0 0 1440 534" fill="none" xmlns="http://www.w3.org/2000/svg">
<g clip-path="url(#clip0)">
<rect width="1440" height="534" fill="black"/>
<g opacity="0.3">
<path opacity="0.3" d="M1459.87 565.956C1427.18 592.286 1394.29 618.236 1361.02 642.766C1241.73 730.616 1115.45 786.546 992.39 786.526C949.087 786.639 906.077 779.41 865.19 765.146C694.97 705.506 536.36 545.146 367.71 420.736C247.91 332.476 120.8 276.006 -3.84985 275.986C-47.713 275.871 -91.2778 283.198 -132.69 297.656C-296.2 355.076 -447.7 503.296 -607 624.406V630.566C-446.32 508.776 -294 359.436 -131.06 302.306C-90.1658 288.059 -47.1547 280.837 -3.84985 280.946C119.23 280.946 245.5 336.816 364.79 424.706C533.09 548.806 691.73 709.476 863.56 769.816C904.972 784.25 948.535 791.551 992.39 791.406C1116.98 791.406 1244.13 734.916 1363.97 646.696C1396.26 622.866 1428.17 597.696 1459.87 572.236V565.956Z" fill="url(#paint0_linear)"/>
<path opacity="0.3" d="M1459.87 495.206C1428.17 469.706 1396.26 444.566 1363.97 420.736C1244.15 332.496 1116.97 276.006 992.4 276.006C948.543 275.888 904.985 283.215 863.58 297.676C691.73 357.966 533.09 518.676 364.81 642.766C245.52 730.656 119.23 786.546 -3.82983 786.526C-47.1419 786.644 -90.1611 779.422 -131.06 765.166C-293.98 708.056 -446.3 558.686 -607 436.926V443.066C-447.7 564.156 -296.2 712.406 -132.69 769.816C-91.2678 784.259 -47.6977 791.579 -3.82983 791.466C120.76 791.466 247.91 734.996 367.73 646.736C536.38 522.286 694.99 361.946 865.19 302.306C906.081 288.044 949.094 280.815 992.4 280.926C1115.47 280.926 1241.73 336.826 1361.04 424.706C1394.31 449.226 1427.19 475.186 1459.87 501.506V495.206Z" fill="url(#paint1_linear)"/>
<path opacity="0.3" d="M712.32 436.996H708.15V620.396H712.32V436.996Z" fill="url(#paint2_linear)"/>
<path opacity="0.3" d="M647.08 487.306H642.91V570.096H647.08V487.306Z" fill="url(#paint3_linear)"/>
<path opacity="0.3" d="M800.35 386.696H796.18V682.616H800.35V386.696Z" fill="url(#paint4_linear)"/>
<path opacity="0.3" d="M888.39 353.686H884.22V700.716H888.39V353.686Z" fill="url(#paint5_linear)"/>
<path opacity="0.3" d="M976.42 346.346H972.25V736.206H976.42V346.346Z" fill="url(#paint6_linear)"/>
<path opacity="0.3" d="M1064.45 336.386H1060.28V727.296H1064.45V336.386Z" fill="url(#paint7_linear)"/>
<path opacity="0.3" d="M1152.48 387.746H1148.29V680.666H1152.48V387.746Z" fill="url(#paint8_linear)"/>
<path opacity="0.3" d="M1240.52 436.996H1236.35V632.976H1240.52V436.996Z" fill="url(#paint9_linear)"/>
<path opacity="0.3" d="M1328.53 478.916H1324.36V598.916H1328.53V478.916Z" fill="url(#paint10_linear)"/>
<path opacity="0.3" d="M268.02 451.146H263.85V634.546H268.02V451.146Z" fill="url(#paint11_linear)"/>
<path opacity="0.3" d="M333.26 501.456H329.09V584.246H333.26V501.456Z" fill="url(#paint12_linear)"/>
<path opacity="0.3" d="M179.99 388.936H175.82V684.856H179.99V388.936Z" fill="url(#paint13_linear)"/>
<path opacity="0.3" d="M91.9602 370.836H87.77V717.866H91.9602V370.836Z" fill="url(#paint14_linear)"/>
<path opacity="0.3" d="M3.93018 335.346H-0.239746V725.206H3.93018V335.346Z" fill="url(#paint15_linear)"/>
</g>
<path fill-rule="evenodd" clip-rule="evenodd" d="M2233.92 385.676C2233.92 384.714 2233.67 383.765 2233.2 382.949C2232.72 382.131 2232.03 381.472 2231.19 381.076C2230.35 380.679 2229.42 380.572 2228.52 380.777C2227.62 380.982 2226.81 381.482 2226.2 382.189C2225.58 382.894 2225.17 383.778 2225.01 384.724C2224.84 385.669 2224.92 386.65 2225.25 387.547C2225.57 388.444 2226.13 389.232 2226.87 389.796C2227.61 390.362 2228.5 390.676 2229.42 390.676C2230.66 390.676 2231.82 390.112 2232.65 389.162C2233.48 388.218 2233.92 386.962 2233.92 385.676ZM1802.73 409.344C1804.12 410.215 1805.76 410.676 1807.42 410.676C1809.65 410.674 1811.81 409.847 1813.4 408.357C1815 406.865 1815.92 404.826 1815.92 402.682C1815.92 401.083 1815.42 399.527 1814.48 398.209C1813.53 396.892 1812.2 395.876 1810.66 395.277C1809.11 394.679 1807.42 394.523 1805.78 394.826C1804.15 395.129 1802.63 395.88 1801.44 396.992C1800.25 398.106 1799.42 399.534 1799.09 401.099C1798.76 402.665 1798.93 404.288 1799.58 405.758C1800.23 407.228 1801.33 408.473 1802.73 409.344ZM1869.43 416.676L1869.43 416.676C1870.67 416.671 1871.82 416.106 1872.65 415.158C1873.48 414.214 1873.92 412.961 1873.92 411.676C1873.92 410.714 1873.67 409.765 1873.2 408.948C1872.72 408.13 1872.02 407.471 1871.19 407.075C1870.35 406.679 1869.42 406.572 1868.52 406.778C1867.62 406.983 1866.81 407.484 1866.19 408.191C1865.58 408.898 1865.17 409.783 1865 410.729C1864.84 411.674 1864.93 412.655 1865.25 413.552C1865.58 414.45 1866.14 415.237 1866.88 415.8C1867.62 416.365 1868.51 416.677 1869.43 416.676ZM1968.2 440.954C1968.68 441.772 1968.92 442.721 1968.92 443.683C1968.92 444.322 1968.81 444.957 1968.6 445.553C1968.38 446.149 1968.06 446.699 1967.65 447.167C1967.24 447.636 1966.74 448.016 1966.19 448.278C1965.63 448.54 1965.03 448.677 1964.42 448.676C1963.5 448.675 1962.61 448.362 1961.87 447.796C1961.13 447.231 1960.57 446.443 1960.25 445.545C1959.92 444.648 1959.84 443.666 1960.01 442.721C1960.17 441.775 1960.58 440.891 1961.2 440.186C1961.82 439.479 1962.62 438.98 1963.52 438.776C1964.42 438.572 1965.36 438.68 1966.2 439.079C1967.03 439.475 1967.72 440.136 1968.2 440.954ZM1995.93 460.533V460.673L1994.93 460.676H1994.92H1993.93V460.535C1993.47 460.402 1993.03 460.179 1992.65 459.878C1991.99 459.367 1991.5 458.657 1991.21 457.853C1990.92 457.05 1990.85 456.172 1990.99 455.327C1991.14 454.481 1991.5 453.687 1992.04 453.05C1992.59 452.412 1993.31 451.955 1994.11 451.768C1994.92 451.581 1995.76 451.68 1996.51 452.043C1997.26 452.405 1997.87 453.004 1998.29 453.739C1998.71 454.474 1998.92 455.323 1998.92 456.182C1998.92 457.328 1998.53 458.453 1997.81 459.303C1997.3 459.895 1996.65 460.324 1995.93 460.533ZM1994.62 457.007C1994.73 457.092 1994.84 457.124 1994.93 457.125C1995.05 457.124 1995.21 457.068 1995.35 456.904C1995.5 456.735 1995.6 456.477 1995.6 456.18C1995.6 455.963 1995.54 455.761 1995.45 455.6C1995.36 455.439 1995.24 455.339 1995.14 455.287C1995.03 455.237 1994.93 455.228 1994.84 455.25C1994.74 455.273 1994.62 455.335 1994.52 455.458C1994.41 455.582 1994.32 455.758 1994.29 455.969C1994.25 456.18 1994.27 456.397 1994.34 456.588C1994.4 456.78 1994.51 456.921 1994.62 457.007ZM1965.92 511.676H1964.92L1963.92 511.675V511.752C1963.11 511.878 1962.33 512.157 1961.63 512.578C1960.65 513.169 1959.86 514.021 1959.39 515.037C1958.93 516.055 1958.8 517.183 1959.04 518.272C1959.28 519.36 1959.87 520.342 1960.72 521.103C1961.57 521.863 1962.63 522.37 1963.78 522.574C1964.92 522.778 1966.11 522.673 1967.19 522.268C1968.27 521.863 1969.22 521.172 1969.89 520.267C1970.56 519.36 1970.92 518.282 1970.92 517.168C1970.92 515.675 1970.26 514.269 1969.12 513.25C1968.24 512.453 1967.12 511.939 1965.92 511.753V511.676ZM1963.11 515.685C1963.57 515.267 1964.23 515.018 1964.92 515.018C1965.44 515.018 1965.94 515.158 1966.35 515.409C1966.77 515.66 1967.08 516.005 1967.25 516.388C1967.43 516.77 1967.47 517.183 1967.38 517.579C1967.29 517.977 1967.07 518.359 1966.73 518.668C1966.38 518.979 1965.93 519.2 1965.42 519.289C1964.91 519.379 1964.39 519.331 1963.92 519.155C1963.45 518.978 1963.06 518.686 1962.8 518.331C1962.54 517.978 1962.41 517.575 1962.41 517.173C1962.41 516.637 1962.65 516.099 1963.11 515.685ZM1755.92 491.667C1755.92 491.074 1755.74 490.495 1755.41 490.003C1755.08 489.511 1754.61 489.127 1754.07 488.902C1753.52 488.676 1752.91 488.618 1752.33 488.734C1751.75 488.851 1751.22 489.137 1750.8 489.557C1750.38 489.977 1750.1 490.512 1749.98 491.093C1749.86 491.675 1749.93 492.278 1750.15 492.826C1750.38 493.373 1750.76 493.841 1751.26 494.171C1751.75 494.5 1752.33 494.676 1752.92 494.676C1753.32 494.676 1753.71 494.598 1754.07 494.446C1754.44 494.295 1754.77 494.073 1755.05 493.794C1755.33 493.514 1755.55 493.183 1755.7 492.818C1755.85 492.453 1755.92 492.062 1755.92 491.667ZM1997.92 500.676C1997.92 500.083 1997.75 499.503 1997.42 499.01C1997.09 498.517 1996.62 498.132 1996.07 497.905C1995.53 497.677 1994.92 497.617 1994.34 497.733C1993.76 497.848 1993.22 498.132 1992.8 498.551C1992.39 498.97 1992.1 499.503 1991.98 500.085C1991.87 500.666 1991.92 501.269 1992.15 501.818C1992.37 502.366 1992.76 502.835 1993.25 503.166C1993.74 503.496 1994.32 503.674 1994.91 503.676H1994.92C1995.71 503.676 1996.48 503.36 1997.04 502.798C1997.6 502.236 1997.92 501.474 1997.92 500.678L1996.92 500.676H1997.92ZM2016.92 440.676C2016.92 439.687 2016.63 438.72 2016.08 437.898C2015.53 437.075 2014.75 436.435 2013.84 436.056C2012.92 435.678 2011.92 435.579 2010.95 435.772C2009.98 435.965 2009.09 436.441 2008.39 437.14C2007.69 437.839 2007.21 438.73 2007.02 439.7C2006.83 440.67 2006.93 441.675 2007.3 442.589C2007.68 443.503 2008.32 444.283 2009.15 444.833C2009.97 445.382 2010.93 445.676 2011.92 445.676C2013.25 445.676 2014.52 445.149 2015.46 444.211C2016.4 443.273 2016.92 442.002 2016.92 440.676ZM2001.92 431.683C2001.92 430.722 2001.68 429.772 2001.2 428.954C2000.72 428.136 2000.03 427.475 1999.2 427.079C1998.36 426.68 1997.42 426.572 1996.52 426.776C1995.62 426.98 1994.82 427.479 1994.2 428.186C1993.58 428.891 1993.17 429.775 1993.01 430.721C1992.84 431.666 1992.92 432.648 1993.25 433.545C1993.57 434.443 1994.13 435.231 1994.87 435.796C1995.61 436.362 1996.5 436.676 1997.42 436.676C1998.66 436.676 1999.82 436.113 2000.65 435.165C2001.47 434.222 2001.92 432.968 2001.92 431.683ZM1795.92 411.676C1795.92 410.714 1795.67 409.765 1795.2 408.948C1794.72 408.13 1794.03 407.471 1793.19 407.075C1792.35 406.679 1791.42 406.572 1790.52 406.778C1789.62 406.983 1788.81 407.484 1788.19 408.191C1787.58 408.898 1787.17 409.783 1787 410.729C1786.84 411.674 1786.93 412.656 1787.25 413.553C1787.58 414.45 1788.14 415.237 1788.88 415.8C1789.62 416.365 1790.51 416.677 1791.43 416.676C1792.67 416.673 1793.82 416.108 1794.65 415.16C1795.48 414.215 1795.92 412.96 1795.92 411.676ZM1688.92 463.176C1688.92 462.286 1688.66 461.416 1688.16 460.675C1687.67 459.935 1686.97 459.359 1686.15 459.018C1685.32 458.677 1684.42 458.588 1683.55 458.762C1682.67 458.936 1681.87 459.364 1681.24 459.994C1680.61 460.623 1680.18 461.425 1680.01 462.298C1679.84 463.171 1679.93 464.075 1680.27 464.898C1680.61 465.72 1681.18 466.423 1681.92 466.917C1682.66 467.412 1683.53 467.676 1684.42 467.676C1685.62 467.676 1686.76 467.201 1687.61 466.357C1688.45 465.514 1688.92 464.369 1688.92 463.176ZM2026.92 449.176C2026.92 448.253 2026.61 447.365 2026.04 446.624C2025.48 445.885 2024.69 445.327 2023.79 445.002C2022.9 444.677 2021.92 444.593 2020.97 444.758C2020.03 444.922 2019.14 445.331 2018.44 445.948C2017.73 446.567 2017.23 447.372 2017.02 448.271C2016.82 449.172 2016.93 450.104 2017.32 450.943C2017.72 451.778 2018.38 452.471 2019.2 452.949C2020.01 453.427 2020.96 453.676 2021.92 453.676C2023.21 453.676 2024.47 453.23 2025.41 452.403C2026.36 451.573 2026.92 450.415 2026.92 449.176ZM2049.09 485.918C2049.64 486.745 2049.93 487.716 2049.92 488.707C2049.92 490.024 2049.39 491.285 2048.46 492.216C2047.53 493.146 2046.26 493.671 2044.95 493.675C2043.96 493.68 2042.99 493.39 2042.16 492.842C2041.33 492.294 2040.69 491.513 2040.31 490.598C2039.93 489.683 2039.83 488.675 2040.02 487.703C2040.21 486.731 2040.69 485.838 2041.39 485.137C2042.09 484.437 2042.99 483.961 2043.96 483.769C2044.93 483.578 2045.94 483.68 2046.85 484.063C2047.77 484.446 2048.55 485.092 2049.09 485.918ZM1961.92 408.174C1961.92 407.253 1961.61 406.365 1961.04 405.624C1960.48 404.885 1959.69 404.327 1958.79 404.002C1957.9 403.677 1956.92 403.593 1955.97 403.758C1955.03 403.922 1954.14 404.331 1953.44 404.948C1952.73 405.567 1952.23 406.372 1952.02 407.271C1951.82 408.172 1951.93 409.104 1952.32 409.943C1952.72 410.779 1953.38 411.471 1954.2 411.949C1955.01 412.426 1955.96 412.675 1956.92 412.676C1957.56 412.676 1958.2 412.567 1958.79 412.351C1959.39 412.135 1959.94 411.815 1960.41 411.405C1960.88 410.994 1961.26 410.498 1961.52 409.943C1961.79 409.387 1961.92 408.786 1961.92 408.174ZM1834.92 394.669C1834.92 393.878 1834.69 393.105 1834.25 392.448C1833.8 391.791 1833.18 391.279 1832.45 390.978C1831.72 390.676 1830.91 390.598 1830.14 390.754C1829.36 390.909 1828.65 391.291 1828.09 391.852C1827.53 392.412 1827.15 393.125 1827 393.901C1826.85 394.678 1826.93 395.482 1827.23 396.212C1827.53 396.943 1828.05 397.566 1828.71 398.005C1829.36 398.443 1830.14 398.677 1830.93 398.676C1831.45 398.675 1831.97 398.57 1832.46 398.369C1832.94 398.167 1833.39 397.872 1833.76 397.499C1834.13 397.127 1834.42 396.686 1834.62 396.2C1834.82 395.715 1834.92 395.194 1834.92 394.669ZM1651.08 430.898C1651.63 431.72 1651.92 432.687 1651.92 433.676C1651.92 434.332 1651.8 434.982 1651.54 435.589C1651.29 436.197 1650.93 436.748 1650.46 437.213C1650 437.678 1649.44 438.046 1648.84 438.297C1648.23 438.548 1647.58 438.676 1646.92 438.676C1645.93 438.675 1644.97 438.382 1644.15 437.833C1643.32 437.284 1642.68 436.503 1642.3 435.589C1641.93 434.675 1641.83 433.67 1642.02 432.7C1642.21 431.73 1642.69 430.839 1643.39 430.14C1644.09 429.441 1644.98 428.965 1645.95 428.772C1646.92 428.579 1647.92 428.678 1648.84 429.056C1649.75 429.435 1650.53 430.075 1651.08 430.898ZM2254.92 388.176C2254.92 387.285 2254.66 386.415 2254.16 385.675C2253.67 384.935 2252.97 384.358 2252.14 384.017C2251.32 383.677 2250.42 383.588 2249.54 383.763C2248.67 383.937 2247.87 384.366 2247.24 384.996C2246.61 385.626 2246.18 386.429 2246.01 387.302C2245.84 388.175 2245.93 389.081 2246.27 389.903C2246.61 390.725 2247.19 391.427 2247.93 391.921C2248.67 392.414 2249.54 392.677 2250.43 392.676C2251.62 392.674 2252.77 392.199 2253.61 391.355C2254.45 390.511 2254.92 389.368 2254.92 388.176ZM2218.92 387.676C2218.92 386.714 2218.67 385.765 2218.2 384.948C2217.72 384.13 2217.02 383.471 2216.19 383.075C2215.35 382.679 2214.42 382.572 2213.52 382.778C2212.62 382.983 2211.81 383.484 2211.19 384.191C2210.58 384.898 2210.17 385.783 2210 386.729C2209.84 387.674 2209.93 388.655 2210.25 389.552C2210.58 390.45 2211.14 391.237 2211.88 391.8C2212.62 392.365 2213.51 392.677 2214.43 392.676C2215.67 392.673 2216.82 392.108 2217.65 391.16C2218.48 390.215 2218.92 388.96 2218.92 387.676ZM454.923 438.676C455.775 438.676 456.577 438.462 457.279 438.087L490.03 463.641C489.96 463.975 489.923 464.321 489.923 464.676C489.923 467.437 492.162 469.676 494.923 469.676C495.71 469.676 496.454 469.494 497.116 469.17L508.313 477.907C492.361 491.039 443.41 525.345 420.072 541.441L421.775 543.91C445.283 527.698 495.162 492.745 510.735 479.797L564.029 521.38L564.058 521.401C573.153 527.826 587.396 537.613 600.574 546.099C607.161 550.341 613.496 554.267 618.795 557.287C624.028 560.269 628.426 562.472 631.059 563.131L631.787 560.22C629.62 559.679 625.577 557.699 620.28 554.68C615.049 551.699 608.765 547.806 602.198 543.577C589.081 535.13 574.891 525.38 565.818 518.971L513.069 477.813C522.452 469.79 543.13 452.369 566.547 435.582C576.21 428.656 586.302 421.865 596.235 415.892C597.011 416.388 597.934 416.676 598.923 416.676C601.685 416.676 603.923 414.437 603.923 411.676C603.923 411.591 603.921 411.508 603.917 411.425C606.267 410.107 608.599 408.846 610.905 407.652C612.728 410.094 615.641 411.676 618.923 411.676C624.446 411.676 628.923 407.198 628.923 401.676C628.923 400.987 628.854 400.316 628.721 399.667C630.653 398.961 632.544 398.332 634.39 397.787C635.186 399.493 636.916 400.676 638.923 400.676C641.685 400.676 643.923 398.437 643.923 395.676C643.923 392.914 641.685 390.676 638.923 390.676C636.469 390.676 634.428 392.443 634.004 394.775C631.948 395.369 629.839 396.065 627.685 396.853C625.983 393.766 622.697 391.676 618.923 391.676C613.4 391.676 608.923 396.153 608.923 401.676C608.923 402.843 609.123 403.965 609.491 405.006C607.296 406.143 605.081 407.338 602.852 408.583C601.937 407.421 600.517 406.676 598.923 406.676C596.162 406.676 593.923 408.914 593.923 411.676C593.923 412.342 594.054 412.979 594.291 413.56C584.359 419.551 574.334 426.309 564.799 433.144C540.883 450.288 519.827 468.079 510.656 475.93L499.31 467.077C499.701 466.364 499.923 465.546 499.923 464.676C499.923 461.914 497.685 459.676 494.923 459.676C493.612 459.676 492.42 460.18 491.528 461.005L459.388 435.927C459.73 435.251 459.923 434.486 459.923 433.676C459.923 430.914 457.685 428.676 454.923 428.676C452.162 428.676 449.923 430.914 449.923 433.676C449.923 436.437 452.162 438.676 454.923 438.676ZM99.3495 437.338C101.131 438.694 102.985 440.107 104.902 441.566C104.686 442.125 104.567 442.732 104.567 443.367C104.567 446.129 106.806 448.367 109.567 448.367C110.682 448.367 111.712 448.002 112.544 447.385C125.344 457.13 139.92 468.221 153.303 478.393C120.232 505.615 82.8886 532.049 51.8691 553.123C36.9627 563.25 23.4845 572.16 12.6521 579.321L12.6506 579.322L12.6496 579.322C0.618116 587.276 -8.14903 593.072 -11.9834 595.981L-10.1703 598.371C-6.39307 595.505 2.22512 589.809 14.1224 581.945L14.1233 581.945C24.9457 574.791 38.4815 565.845 53.555 555.604C84.7722 534.396 122.445 507.727 155.757 480.258C172.651 493.097 187.302 504.21 193.523 508.876C202.53 515.631 218.303 527.273 233.522 537.544C241.129 542.678 248.617 547.483 255.062 551.165C261.44 554.81 266.991 557.473 270.65 558.15L271.196 555.201C268.106 554.628 262.969 552.229 256.55 548.561C250.198 544.931 242.78 540.173 235.2 535.057C220.043 524.828 204.317 513.221 195.323 506.476C189.176 501.865 174.785 490.95 158.132 478.295C194.017 448.614 230.952 418.88 269.897 401.926C285.54 395.116 301.492 390.374 317.821 388.535C318.724 389.829 320.225 390.676 321.923 390.676C323.909 390.676 325.625 389.518 326.432 387.84C328.066 387.761 329.705 387.712 331.347 387.694C332.123 389.45 333.88 390.676 335.923 390.676C337.882 390.676 339.578 389.549 340.398 387.908C341.648 387.982 342.9 388.074 344.155 388.185C344.795 390.208 346.688 391.676 348.923 391.676C350.721 391.676 352.297 390.727 353.178 389.303C354.092 389.449 355.007 389.606 355.924 389.772C355.976 392.489 358.194 394.676 360.923 394.676C362.899 394.676 364.608 393.529 365.42 391.865C372.861 393.791 380.385 396.418 387.997 399.812C387.949 400.093 387.923 400.381 387.923 400.676C387.923 403.437 390.162 405.676 392.923 405.676C395.685 405.676 397.923 403.437 397.923 400.676C397.923 397.914 395.685 395.676 392.923 395.676C391.54 395.676 390.287 396.237 389.382 397.145C381.45 393.597 373.611 390.867 365.86 388.879C365.479 386.496 363.413 384.676 360.923 384.676C359.198 384.676 357.677 385.549 356.778 386.878C355.822 386.702 354.868 386.536 353.915 386.382C353.763 383.757 351.586 381.676 348.923 381.676C346.686 381.676 344.791 383.145 344.153 385.172C343.056 385.078 341.961 384.997 340.868 384.93C340.508 382.522 338.431 380.676 335.923 380.676C333.496 380.676 331.474 382.404 331.019 384.697C329.626 384.716 328.237 384.756 326.85 384.818C326.443 382.465 324.392 380.676 321.923 380.676C319.181 380.676 316.954 382.884 316.923 385.619C300.465 387.54 284.405 392.338 268.699 399.175C229.109 416.41 191.682 446.644 155.679 476.431C142.127 466.131 127.301 454.85 114.309 444.958C114.476 444.458 114.567 443.923 114.567 443.367C114.567 440.606 112.329 438.367 109.567 438.367C108.532 438.367 107.571 438.682 106.773 439.22C104.899 437.793 103.083 436.41 101.338 435.081C102.341 433.522 102.923 431.667 102.923 429.676C102.923 424.153 98.4459 419.676 92.9231 419.676C87.4002 419.676 82.9231 424.153 82.9231 429.676C82.9231 435.198 87.4002 439.676 92.9231 439.676C95.37 439.676 97.6116 438.797 99.3495 437.338ZM769.871 406.953C786.757 415.193 803.445 425.53 819.735 437.522L819.737 437.523C835.857 449.413 851.771 462.254 867.552 475.054C909.456 441.309 950.93 407.978 994.556 392.847L994.557 392.846C1002.19 390.207 1010.02 388.239 1017.97 386.957C1018.32 384.536 1020.41 382.676 1022.92 382.676C1025 382.676 1026.79 383.945 1027.54 385.752C1031.87 385.357 1036.23 385.165 1040.59 385.176C1050.14 385.176 1059.74 386.102 1069.34 387.862C1070.2 386.347 1071.83 385.324 1073.69 385.324C1076.45 385.324 1078.69 387.563 1078.69 390.324C1078.69 393.086 1076.45 395.324 1073.69 395.324C1071.09 395.324 1068.95 393.337 1068.71 390.798C1059.3 389.077 1049.92 388.176 1040.59 388.176L1040.59 388.176C1036.32 388.165 1032.05 388.353 1027.81 388.74C1027.32 390.99 1025.32 392.676 1022.92 392.676C1020.97 392.676 1019.28 391.554 1018.45 389.919C1010.67 391.173 1003.01 393.098 995.539 395.681C952.623 410.566 911.745 443.328 869.936 476.988L870.539 477.477C882.031 486.801 893.455 496.07 904.84 504.9C928.252 523.057 951.605 539.449 975.423 551.027V428.447C973.395 427.81 971.923 425.914 971.923 423.676C971.923 420.914 974.162 418.676 976.923 418.676C979.685 418.676 981.923 420.914 981.923 423.676C981.923 425.914 980.452 427.81 978.423 428.447V552.459C982.179 554.217 985.947 555.853 989.729 557.354L988.622 560.143C959.399 548.541 931.129 529.085 903.002 507.271C891.494 498.346 880.035 489.047 868.538 479.718L867.545 478.913C864.123 481.668 860.694 484.427 857.257 487.18C857.681 487.915 857.923 488.767 857.923 489.676C857.923 492.437 855.685 494.676 852.923 494.676C850.162 494.676 847.923 492.437 847.923 489.676C847.923 486.914 850.162 484.676 852.923 484.676C853.67 484.676 854.378 484.839 855.015 485.133C858.401 482.421 861.783 479.699 865.162 476.979C849.584 464.343 833.92 451.712 817.956 439.937C802.039 428.22 785.769 418.117 769.335 410.031C768.493 411.605 766.833 412.676 764.923 412.676C762.162 412.676 759.923 410.437 759.923 407.676C759.923 404.914 762.162 402.676 764.923 402.676C767.439 402.676 769.521 404.534 769.871 406.953ZM1112.14 398.955C1113.97 401.224 1116.78 402.676 1119.92 402.676C1125.39 402.676 1129.83 398.294 1129.92 392.853C1141.49 389.723 1153.44 388.146 1165.45 388.176C1179.71 388.267 1193.9 390.25 1207.64 394.074L1208.95 394.438L1209.44 393.171C1209.55 392.885 1209.68 392.606 1209.82 392.334L1208.34 391.568L1208.44 391.184C1194.44 387.288 1179.99 385.268 1165.47 385.176L1165.46 385.176C1153.31 385.146 1141.23 386.723 1129.52 389.855C1128.3 385.705 1124.47 382.676 1119.92 382.676C1114.4 382.676 1109.92 387.153 1109.92 392.676C1109.92 393.968 1110.17 395.203 1110.61 396.337C1103.33 399.328 1096.11 402.804 1088.93 406.681C1088.02 405.464 1086.56 404.676 1084.92 404.676C1082.16 404.676 1079.92 406.914 1079.92 409.676C1079.92 410.338 1080.05 410.97 1080.29 411.549C1068.49 418.46 1056.81 426.368 1045.18 434.885C1044.31 434.131 1043.17 433.676 1041.92 433.676C1039.16 433.676 1036.92 435.914 1036.92 438.676C1036.92 441.437 1039.16 443.676 1041.92 443.676C1044.68 443.676 1046.92 441.437 1046.92 438.676C1046.92 438.25 1046.87 437.836 1046.77 437.441C1058.55 428.804 1070.35 420.824 1082.23 413.888C1083.01 414.387 1083.93 414.676 1084.92 414.676C1087.68 414.676 1089.92 412.437 1089.92 409.676C1089.92 409.635 1089.92 409.595 1089.92 409.554C1097.29 405.56 1104.69 401.996 1112.14 398.955ZM1300.96 438.651C1298.05 436.52 1295.13 434.444 1292.2 432.423C1292.67 431.266 1292.92 430.001 1292.92 428.676C1292.92 423.153 1288.45 418.676 1282.92 418.676C1277.4 418.676 1272.92 423.153 1272.92 428.676C1272.92 434.198 1277.4 438.676 1282.92 438.676C1286.04 438.676 1288.83 437.247 1290.66 435.009C1293.51 436.977 1296.35 438.998 1299.19 441.073C1299.02 441.576 1298.92 442.115 1298.92 442.676C1298.92 445.437 1301.16 447.676 1303.92 447.676C1305 447.676 1306 447.335 1306.82 446.755C1319.79 456.548 1332.6 466.842 1345.34 477.162C1343.62 478.559 1341.89 479.958 1340.17 481.358L1340.02 481.479C1337.94 483.164 1335.86 484.85 1333.77 486.535C1319.02 498.474 1304.2 510.341 1289.18 521.386C1246.63 552.662 1201.76 572.421 1158.17 572.409H1158.16C1142.82 572.453 1127.59 569.898 1113.11 564.853C1103.31 561.375 1093.8 557.174 1084.63 552.287L1083.22 554.934C1092.52 559.892 1102.17 564.153 1112.11 567.682L1112.12 567.685C1126.92 572.842 1142.49 575.454 1158.17 575.409H1158.17L1158.16 573.909L1158.16 575.409H1158.17C1202.65 575.42 1248.13 555.277 1290.95 523.804C1306.04 512.713 1320.91 500.808 1335.66 488.867C1337.8 487.139 1339.93 485.41 1342.06 483.684L1342.06 483.682C1343.95 482.15 1345.84 480.62 1347.73 479.092L1350.5 481.343L1350.5 481.343L1350.51 481.347C1360.23 489.223 1369.92 497.078 1379.63 504.7C1405.99 525.387 1432.42 544.289 1459.59 556.863L1460.85 554.14C1434.01 541.719 1407.81 522.999 1381.48 502.34C1371.85 494.783 1362.2 486.958 1352.49 479.093L1352.49 479.091L1352.49 479.089L1352.49 479.086L1352.47 479.076L1350.11 477.163C1360.01 469.161 1369.87 461.256 1379.76 453.672C1409.14 431.125 1438.55 411.518 1469.06 400.822C1483.73 395.723 1499.15 393.137 1514.68 393.176L1514.68 393.176C1535.92 393.176 1557.42 397.84 1578.78 406.145L1579.87 403.349C1558.23 394.937 1536.37 390.176 1514.68 390.176C1498.82 390.137 1483.06 392.779 1468.07 397.989L1468.07 397.99C1437.09 408.85 1407.37 428.701 1377.93 451.292C1367.86 459.023 1357.8 467.087 1347.73 475.232C1334.81 464.767 1321.79 454.299 1308.63 444.366C1308.82 443.838 1308.92 443.269 1308.92 442.676C1308.92 439.914 1306.68 437.676 1303.92 437.676C1302.81 437.676 1301.79 438.038 1300.96 438.651ZM1113.11 564.853L1113.11 564.855L1112.61 566.269L1113.1 564.852L1113.11 564.853ZM1431.92 513.451C1431.92 516.213 1429.68 518.451 1426.92 518.451C1424.16 518.451 1421.92 516.213 1421.92 513.451C1421.92 511.213 1423.39 509.317 1425.42 508.68V445.487C1422.84 444.82 1420.92 442.471 1420.92 439.676C1420.92 436.362 1423.61 433.676 1426.92 433.676C1430.24 433.676 1432.92 436.362 1432.92 439.676C1432.92 442.471 1431.01 444.82 1428.42 445.487V508.68C1430.45 509.317 1431.92 511.213 1431.92 513.451ZM30.9231 428.419V548.676H33.9231V428.419C35.6709 427.802 36.9231 426.135 36.9231 424.176C36.9231 421.69 34.9084 419.676 32.4231 419.676C29.9378 419.676 27.9231 421.69 27.9231 424.176C27.9231 426.135 29.1753 427.802 30.9231 428.419ZM97.9231 500.676C97.9231 499.565 97.3198 498.596 96.4231 498.077V459.564C98.4271 459.109 99.9231 457.317 99.9231 455.176C99.9231 452.69 97.9084 450.676 95.4231 450.676C92.9378 450.676 90.9231 452.69 90.9231 455.176C90.9231 456.942 91.9414 458.471 93.4231 459.208V498.077C92.5264 498.596 91.9231 499.565 91.9231 500.676C91.9231 502.332 93.2662 503.676 94.9231 503.676C96.5799 503.676 97.9231 502.332 97.9231 500.676ZM208.923 455.676C208.923 456.786 208.32 457.755 207.423 458.274V497.143C208.905 497.88 209.923 499.409 209.923 501.176C209.923 503.661 207.908 505.676 205.423 505.676C202.938 505.676 200.923 503.661 200.923 501.176C200.923 499.034 202.419 497.242 204.423 496.787V458.274C203.526 457.755 202.923 456.786 202.923 455.676C202.923 454.019 204.266 452.676 205.923 452.676C207.58 452.676 208.923 454.019 208.923 455.676ZM238.423 445.487C241.011 444.82 242.923 442.471 242.923 439.676C242.923 436.362 240.237 433.676 236.923 433.676C233.609 433.676 230.923 436.362 230.923 439.676C230.923 442.471 232.835 444.82 235.423 445.487V507.904C233.395 508.542 231.923 510.437 231.923 512.676C231.923 515.437 234.162 517.676 236.923 517.676C239.685 517.676 241.923 515.437 241.923 512.676C241.923 510.437 240.452 508.542 238.423 507.904V445.487ZM335.923 405.676C335.923 407.914 334.452 409.81 332.423 410.447V542.676H329.423V410.447C327.395 409.81 325.923 407.914 325.923 405.676C325.923 402.914 328.162 400.676 330.923 400.676C333.685 400.676 335.923 402.914 335.923 405.676ZM361.423 542.676V420.487C358.835 419.82 356.923 417.471 356.923 414.676C356.923 411.362 359.609 408.676 362.923 408.676C366.237 408.676 368.923 411.362 368.923 414.676C368.923 417.471 367.011 419.82 364.423 420.487V542.676H361.423ZM365.923 414.676C365.923 416.332 364.58 417.676 362.923 417.676C361.266 417.676 359.923 416.332 359.923 414.676C359.923 413.019 361.266 411.676 362.923 411.676C364.58 411.676 365.923 413.019 365.923 414.676ZM392.423 429.447V542.676H395.423V429.447C397.452 428.81 398.923 426.914 398.923 424.676C398.923 421.914 396.685 419.676 393.923 419.676C391.162 419.676 388.923 421.914 388.923 424.676C388.923 426.914 390.395 428.81 392.423 429.447ZM427.423 449.886C429.171 449.269 430.423 447.602 430.423 445.642C430.423 443.157 428.408 441.142 425.923 441.142C423.438 441.142 421.423 443.157 421.423 445.642C421.423 447.602 422.675 449.269 424.423 449.886V511.904C422.395 512.542 420.923 514.437 420.923 516.676C420.923 519.437 423.162 521.676 425.923 521.676C428.685 521.676 430.923 519.437 430.923 516.676C430.923 514.437 429.452 512.542 427.423 511.904V449.886ZM565.923 458.176C565.923 460.317 564.427 462.109 562.423 462.564V488.016C563.32 488.535 563.923 489.505 563.923 490.615C563.923 492.272 562.58 493.615 560.923 493.615C559.266 493.615 557.923 492.272 557.923 490.615C557.923 489.505 558.526 488.535 559.423 488.016V462.208C557.941 461.471 556.923 459.942 556.923 458.176C556.923 455.69 558.938 453.676 561.423 453.676C563.908 453.676 565.923 455.69 565.923 458.176ZM617.423 428.419C619.171 427.802 620.423 426.135 620.423 424.176C620.423 421.69 618.408 419.676 615.923 419.676C613.438 419.676 611.423 421.69 611.423 424.176C611.423 426.135 612.675 427.802 614.423 428.419V540.676H617.423V428.419ZM615.923 425.676C616.752 425.676 617.423 425.004 617.423 424.176C617.423 423.347 616.752 422.676 615.923 422.676C615.095 422.676 614.423 423.347 614.423 424.176C614.423 425.004 615.095 425.676 615.923 425.676ZM683.923 411.676C683.923 413.914 682.452 415.81 680.423 416.447V540.676H677.423V416.447C675.395 415.81 673.923 413.914 673.923 411.676C673.923 408.914 676.162 406.676 678.923 406.676C681.685 406.676 683.923 408.914 683.923 411.676ZM740.423 540.676V431.419C738.675 430.802 737.423 429.135 737.423 427.176C737.423 424.69 739.438 422.676 741.923 422.676C744.408 422.676 746.423 424.69 746.423 427.176C746.423 429.135 745.171 430.802 743.423 431.419V540.676H740.423ZM774.423 511.865C777.011 512.531 778.923 514.88 778.923 517.676C778.923 520.989 776.237 523.676 772.923 523.676C769.609 523.676 766.923 520.989 766.923 517.676C766.923 514.88 768.835 512.531 771.423 511.865V448.447C769.395 447.81 767.923 445.914 767.923 443.676C767.923 440.914 770.162 438.676 772.923 438.676C775.685 438.676 777.923 440.914 777.923 443.676C777.923 445.914 776.452 447.81 774.423 448.447V511.865ZM804.423 460.419C806.171 459.802 807.423 458.135 807.423 456.176C807.423 453.69 805.408 451.676 802.923 451.676C800.438 451.676 798.423 453.69 798.423 456.176C798.423 458.135 799.675 459.802 801.423 460.419V498.077C800.526 498.596 799.923 499.565 799.923 500.676C799.923 502.332 801.266 503.676 802.923 503.676C804.58 503.676 805.923 502.332 805.923 500.676C805.923 499.565 805.32 498.596 804.423 498.077V460.419ZM912.423 458.274V496.482C910.675 497.1 909.423 498.767 909.423 500.726C909.423 503.211 911.438 505.226 913.923 505.226C916.408 505.226 918.423 503.211 918.423 500.726C918.423 498.767 917.171 497.1 915.423 496.482V458.274C916.32 457.755 916.923 456.786 916.923 455.676C916.923 454.019 915.58 452.676 913.923 452.676C912.266 452.676 910.923 454.019 910.923 455.676C910.923 456.786 911.526 457.755 912.423 458.274ZM1013.92 408.774C1013.92 411.57 1012.01 413.919 1009.42 414.585V553.676H1006.42V414.585C1003.84 413.919 1001.92 411.57 1001.92 408.774C1001.92 405.46 1004.61 402.774 1007.92 402.774C1011.24 402.774 1013.92 405.46 1013.92 408.774ZM1100.42 427.419C1102.17 426.802 1103.42 425.135 1103.42 423.176C1103.42 420.69 1101.41 418.676 1098.92 418.676C1096.44 418.676 1094.42 420.69 1094.42 423.176C1094.42 425.135 1095.68 426.802 1097.42 427.419V540.676H1100.42V427.419ZM1138.42 441.026C1138.42 442.985 1137.17 444.652 1135.42 445.27V508.904C1137.45 509.542 1138.92 511.437 1138.92 513.676C1138.92 516.437 1136.68 518.676 1133.92 518.676C1131.16 518.676 1128.92 516.437 1128.92 513.676C1128.92 511.437 1130.39 509.542 1132.42 508.904V445.27C1130.68 444.652 1129.42 442.985 1129.42 441.026C1129.42 438.54 1131.44 436.526 1133.92 436.526C1136.41 436.526 1138.42 438.54 1138.42 441.026ZM1162.42 413.204C1165.25 412.72 1167.4 410.257 1167.4 407.291C1167.4 403.977 1164.72 401.291 1161.4 401.291C1158.09 401.291 1155.4 403.977 1155.4 407.291C1155.4 409.911 1157.08 412.138 1159.42 412.956V558.676H1162.42V413.204ZM1223.42 430.965V530.676H1226.42V430.965C1228.17 430.348 1229.42 428.681 1229.42 426.721C1229.42 424.236 1227.41 422.221 1224.92 422.221C1222.44 422.221 1220.42 424.236 1220.42 426.721C1220.42 428.681 1221.68 430.348 1223.42 430.965ZM1289.92 500.676C1289.92 499.565 1289.32 498.596 1288.42 498.077V461.677C1290.17 461.06 1291.42 459.393 1291.42 457.433C1291.42 454.948 1289.41 452.933 1286.92 452.933C1284.44 452.933 1282.42 454.948 1282.42 457.433C1282.42 459.393 1283.68 461.06 1285.42 461.677V498.077C1284.53 498.596 1283.92 499.565 1283.92 500.676C1283.92 502.332 1285.27 503.676 1286.92 503.676C1288.58 503.676 1289.92 502.332 1289.92 500.676ZM1399.42 496.932C1401.17 497.549 1402.42 499.216 1402.42 501.176C1402.42 503.661 1400.41 505.676 1397.92 505.676C1395.44 505.676 1393.42 503.661 1393.42 501.176C1393.42 499.216 1394.68 497.549 1396.42 496.932V458.274C1395.53 457.755 1394.92 456.786 1394.92 455.676C1394.92 454.019 1396.27 452.676 1397.92 452.676C1399.58 452.676 1400.92 454.019 1400.92 455.676C1400.92 456.786 1400.32 457.755 1399.42 458.274V496.932ZM33.9231 424.176C33.9231 425.004 33.2515 425.676 32.4231 425.676C31.5947 425.676 30.9231 425.004 30.9231 424.176C30.9231 423.347 31.5947 422.676 32.4231 422.676C33.2515 422.676 33.9231 423.347 33.9231 424.176ZM95.4231 456.676C96.2515 456.676 96.9231 456.004 96.9231 455.176C96.9231 454.347 96.2515 453.676 95.4231 453.676C94.5947 453.676 93.9231 454.347 93.9231 455.176C93.9231 456.004 94.5947 456.676 95.4231 456.676ZM427.423 445.642C427.423 446.471 426.752 447.142 425.923 447.142C425.095 447.142 424.423 446.471 424.423 445.642C424.423 444.814 425.095 444.142 425.923 444.142C426.752 444.142 427.423 444.814 427.423 445.642ZM561.423 459.676C562.252 459.676 562.923 459.004 562.923 458.176C562.923 457.347 562.252 456.676 561.423 456.676C560.595 456.676 559.923 457.347 559.923 458.176C559.923 459.004 560.595 459.676 561.423 459.676ZM741.923 428.676C742.752 428.676 743.423 428.004 743.423 427.176C743.423 426.347 742.752 425.676 741.923 425.676C741.095 425.676 740.423 426.347 740.423 427.176C740.423 428.004 741.095 428.676 741.923 428.676ZM804.423 456.176C804.423 457.004 803.752 457.676 802.923 457.676C802.095 457.676 801.423 457.004 801.423 456.176C801.423 455.347 802.095 454.676 802.923 454.676C803.752 454.676 804.423 455.347 804.423 456.176ZM913.923 502.226C914.752 502.226 915.423 501.554 915.423 500.726C915.423 499.897 914.752 499.226 913.923 499.226C913.095 499.226 912.423 499.897 912.423 500.726C912.423 501.554 913.095 502.226 913.923 502.226ZM1100.42 423.176C1100.42 424.004 1099.75 424.676 1098.92 424.676C1098.09 424.676 1097.42 424.004 1097.42 423.176C1097.42 422.347 1098.09 421.676 1098.92 421.676C1099.75 421.676 1100.42 422.347 1100.42 423.176ZM1133.92 442.526C1134.75 442.526 1135.42 441.854 1135.42 441.026C1135.42 440.197 1134.75 439.526 1133.92 439.526C1133.09 439.526 1132.42 440.197 1132.42 441.026C1132.42 441.854 1133.09 442.526 1133.92 442.526ZM1226.42 426.721C1226.42 427.55 1225.75 428.221 1224.92 428.221C1224.09 428.221 1223.42 427.55 1223.42 426.721C1223.42 425.893 1224.09 425.221 1224.92 425.221C1225.75 425.221 1226.42 425.893 1226.42 426.721ZM1286.92 458.933C1287.75 458.933 1288.42 458.262 1288.42 457.433C1288.42 456.605 1287.75 455.933 1286.92 455.933C1286.09 455.933 1285.42 456.605 1285.42 457.433C1285.42 458.262 1286.09 458.933 1286.92 458.933ZM1399.42 501.176C1399.42 502.004 1398.75 502.676 1397.92 502.676C1397.09 502.676 1396.42 502.004 1396.42 501.176C1396.42 500.347 1397.09 499.676 1397.92 499.676C1398.75 499.676 1399.42 500.347 1399.42 501.176ZM205.423 502.676C206.252 502.676 206.923 502.004 206.923 501.176C206.923 500.347 206.252 499.676 205.423 499.676C204.595 499.676 203.923 500.347 203.923 501.176C203.923 502.004 204.595 502.676 205.423 502.676ZM239.923 439.676C239.923 441.332 238.58 442.676 236.923 442.676C235.266 442.676 233.923 441.332 233.923 439.676C233.923 438.019 235.266 436.676 236.923 436.676C238.58 436.676 239.923 438.019 239.923 439.676ZM775.923 517.676C775.923 519.332 774.58 520.676 772.923 520.676C771.266 520.676 769.923 519.332 769.923 517.676C769.923 516.019 771.266 514.676 772.923 514.676C774.58 514.676 775.923 516.019 775.923 517.676ZM1007.92 411.774C1009.58 411.774 1010.92 410.431 1010.92 408.774C1010.92 407.117 1009.58 405.774 1007.92 405.774C1006.27 405.774 1004.92 407.117 1004.92 408.774C1004.92 410.431 1006.27 411.774 1007.92 411.774ZM1164.4 407.291C1164.4 408.948 1163.06 410.291 1161.4 410.291C1159.75 410.291 1158.4 408.948 1158.4 407.291C1158.4 405.634 1159.75 404.291 1161.4 404.291C1163.06 404.291 1164.4 405.634 1164.4 407.291ZM15.9231 398.676C18.6845 398.676 20.9231 396.437 20.9231 393.676C20.9231 390.914 18.6845 388.676 15.9231 388.676C14.7798 388.676 13.7261 389.059 12.8838 389.705C12.3553 389.54 11.8085 389.388 11.2506 389.246C9.09523 388.701 6.64753 388.291 4.18195 387.987C-0.749307 387.378 -5.8621 387.176 -9.0769 387.176V390.176C-5.95838 390.176 -0.971169 390.373 3.81424 390.964C6.20699 391.26 8.5218 391.65 10.5144 392.155C10.718 392.206 10.917 392.259 11.1113 392.312C10.9887 392.745 10.9231 393.203 10.9231 393.676C10.9231 396.437 13.1617 398.676 15.9231 398.676ZM1426.92 442.676C1428.58 442.676 1429.92 441.332 1429.92 439.676C1429.92 438.019 1428.58 436.676 1426.92 436.676C1425.27 436.676 1423.92 438.019 1423.92 439.676C1423.92 441.332 1425.27 442.676 1426.92 442.676Z" fill="url(#paint16_linear)"/>
<path fill-rule="evenodd" clip-rule="evenodd" d="M1210.79 398.716C1213.28 398.716 1215.29 396.701 1215.29 394.216C1215.29 391.73 1213.28 389.716 1210.79 389.716C1208.31 389.716 1206.29 391.73 1206.29 394.216C1206.29 396.701 1208.31 398.716 1210.79 398.716Z" fill="#8CC960"/>




</g>
<defs>
<linearGradient id="paint0_linear" x1="236401" y1="463286" x2="8.92606e+06" y2="463286" gradientUnits="userSpaceOnUse">
<stop stop-color="#00D4FF"/>
<stop offset="0.12" stop-color="#0CD5F2"/>
<stop offset="0.35" stop-color="#2AD8D0"/>
<stop offset="0.65" stop-color="#5CDC99"/>
<stop offset="1" stop-color="#9BE252"/>
</linearGradient>
<linearGradient id="paint1_linear" x1="236401" y1="463332" x2="8.92606e+06" y2="463332" gradientUnits="userSpaceOnUse">
<stop stop-color="#00D4FF"/>
<stop offset="0.12" stop-color="#0CD5F2"/>
<stop offset="0.35" stop-color="#2AD8D0"/>
<stop offset="0.65" stop-color="#5CDC99"/>
<stop offset="1" stop-color="#9BE252"/>
</linearGradient>
<linearGradient id="paint2_linear" x1="574.963" y1="69778.7" x2="18106.5" y2="69778.7" gradientUnits="userSpaceOnUse">
<stop stop-color="#00D4FF"/>
<stop offset="0.12" stop-color="#0CD5F2"/>
<stop offset="0.35" stop-color="#2AD8D0"/>
<stop offset="0.65" stop-color="#5CDC99"/>
<stop offset="1" stop-color="#9BE252"/>
</linearGradient>
<linearGradient id="paint3_linear" x1="509.931" y1="31788.6" x2="18041.2" y2="31788.6" gradientUnits="userSpaceOnUse">
<stop stop-color="#00D4FF"/>
<stop offset="0.12" stop-color="#0CD5F2"/>
<stop offset="0.35" stop-color="#2AD8D0"/>
<stop offset="0.65" stop-color="#5CDC99"/>
<stop offset="1" stop-color="#9BE252"/>
</linearGradient>
<linearGradient id="paint4_linear" x1="662.993" y1="114032" x2="18194.6" y2="114032" gradientUnits="userSpaceOnUse">
<stop stop-color="#00D4FF"/>
<stop offset="0.12" stop-color="#0CD5F2"/>
<stop offset="0.35" stop-color="#2AD8D0"/>
<stop offset="0.65" stop-color="#5CDC99"/>
<stop offset="1" stop-color="#9BE252"/>
</linearGradient>
<linearGradient id="paint5_linear" x1="751.2" y1="131038" x2="18282.6" y2="131038" gradientUnits="userSpaceOnUse">
<stop stop-color="#00D4FF"/>
<stop offset="0.12" stop-color="#0CD5F2"/>
<stop offset="0.35" stop-color="#2AD8D0"/>
<stop offset="0.65" stop-color="#5CDC99"/>
<stop offset="1" stop-color="#9BE252"/>
</linearGradient>
<linearGradient id="paint6_linear" x1="838.938" y1="152649" x2="18370.7" y2="152649" gradientUnits="userSpaceOnUse">
<stop stop-color="#00D4FF"/>
<stop offset="0.12" stop-color="#0CD5F2"/>
<stop offset="0.35" stop-color="#2AD8D0"/>
<stop offset="0.65" stop-color="#5CDC99"/>
<stop offset="1" stop-color="#9BE252"/>
</linearGradient>
<linearGradient id="paint7_linear" x1="927.126" y1="149363" x2="18459.7" y2="149363" gradientUnits="userSpaceOnUse">
<stop stop-color="#00D4FF"/>
<stop offset="0.12" stop-color="#0CD5F2"/>
<stop offset="0.35" stop-color="#2AD8D0"/>
<stop offset="0.65" stop-color="#5CDC99"/>
<stop offset="1" stop-color="#9BE252"/>
</linearGradient>
<linearGradient id="paint8_linear" x1="1014.67" y1="112749" x2="18631.2" y2="112749" gradientUnits="userSpaceOnUse">
<stop stop-color="#00D4FF"/>
<stop offset="0.12" stop-color="#0CD5F2"/>
<stop offset="0.35" stop-color="#2AD8D0"/>
<stop offset="0.65" stop-color="#5CDC99"/>
<stop offset="1" stop-color="#9BE252"/>
</linearGradient>
<linearGradient id="paint9_linear" x1="1103.08" y1="75765.8" x2="18634.7" y2="75765.8" gradientUnits="userSpaceOnUse">
<stop stop-color="#00D4FF"/>
<stop offset="0.12" stop-color="#0CD5F2"/>
<stop offset="0.35" stop-color="#2AD8D0"/>
<stop offset="0.65" stop-color="#5CDC99"/>
<stop offset="1" stop-color="#9BE252"/>
</linearGradient>
<linearGradient id="paint10_linear" x1="1191.21" y1="47074.9" x2="18722.7" y2="47074.9" gradientUnits="userSpaceOnUse">
<stop stop-color="#00D4FF"/>
<stop offset="0.12" stop-color="#0CD5F2"/>
<stop offset="0.35" stop-color="#2AD8D0"/>
<stop offset="0.65" stop-color="#5CDC99"/>
<stop offset="1" stop-color="#9BE252"/>
</linearGradient>
<linearGradient id="paint11_linear" x1="130.871" y1="72386.1" x2="17662.1" y2="72386.1" gradientUnits="userSpaceOnUse">
<stop stop-color="#00D4FF"/>
<stop offset="0.12" stop-color="#0CD5F2"/>
<stop offset="0.35" stop-color="#2AD8D0"/>
<stop offset="0.65" stop-color="#5CDC99"/>
<stop offset="1" stop-color="#9BE252"/>
</linearGradient>
<linearGradient id="paint12_linear" x1="195.895" y1="32974.2" x2="17728.5" y2="32974.2" gradientUnits="userSpaceOnUse">
<stop stop-color="#00D4FF"/>
<stop offset="0.12" stop-color="#0CD5F2"/>
<stop offset="0.35" stop-color="#2AD8D0"/>
<stop offset="0.65" stop-color="#5CDC99"/>
<stop offset="1" stop-color="#9BE252"/>
</linearGradient>
<linearGradient id="paint13_linear" x1="42.7915" y1="114697" x2="17575.1" y2="114697" gradientUnits="userSpaceOnUse">
<stop stop-color="#00D4FF"/>
<stop offset="0.12" stop-color="#0CD5F2"/>
<stop offset="0.35" stop-color="#2AD8D0"/>
<stop offset="0.65" stop-color="#5CDC99"/>
<stop offset="1" stop-color="#9BE252"/>
</linearGradient>
<linearGradient id="paint14_linear" x1="-45.9807" y1="137007" x2="17570.7" y2="137007" gradientUnits="userSpaceOnUse">
<stop stop-color="#00D4FF"/>
<stop offset="0.12" stop-color="#0CD5F2"/>
<stop offset="0.35" stop-color="#2AD8D0"/>
<stop offset="0.65" stop-color="#5CDC99"/>
<stop offset="1" stop-color="#9BE252"/>
</linearGradient>
<linearGradient id="paint15_linear" x1="-133.427" y1="148350" x2="17398.2" y2="148350" gradientUnits="userSpaceOnUse">
<stop stop-color="#00D4FF"/>
<stop offset="0.12" stop-color="#0CD5F2"/>
<stop offset="0.35" stop-color="#2AD8D0"/>
<stop offset="0.65" stop-color="#5CDC99"/>
<stop offset="1" stop-color="#9BE252"/>
</linearGradient>
<linearGradient id="paint16_linear" x1="599.172" y1="510.002" x2="1167.17" y2="698.002" gradientUnits="userSpaceOnUse">
<stop stop-color="#00D4FF"/>
<stop offset="0.9999" stop-color="#9BC74E"/>
</linearGradient>
<clipPath id="clip0">
<rect width="1440" height="534" fill="white"/>
</clipPath>
<clipPath id="clip1">
<rect width="139.2" height="40" fill="white" transform="translate(60.3894 36.665)"/>
</clipPath>
</defs>
</svg>
