<svg width="320" height="392" viewBox="0 0 320 392" fill="none" xmlns="http://www.w3.org/2000/svg">
<mask id="mask0" style="mask-type:alpha" maskUnits="userSpaceOnUse" x="0" y="0" width="320" height="392">
<rect x="6.10352e-05" width="320" height="391.533" fill="black"/>
</mask>
<g mask="url(#mask0)">
<path fill-rule="evenodd" clip-rule="evenodd" d="M1136.42 282.873C1137 282.219 1137.3 281.35 1137.3 280.46C1137.3 279.795 1137.13 279.138 1136.8 278.573C1136.47 278.007 1135.99 277.551 1135.41 277.277C1134.83 277.003 1134.19 276.929 1133.56 277.07C1132.94 277.212 1132.39 277.558 1131.96 278.047C1131.53 278.535 1131.25 279.147 1131.13 279.801C1131.02 280.456 1131.08 281.134 1131.3 281.755C1131.53 282.376 1131.91 282.921 1132.43 283.311C1132.94 283.703 1133.55 283.92 1134.19 283.92C1135.05 283.92 1135.85 283.53 1136.42 282.873ZM838.916 296.839C839.882 297.441 841.013 297.76 842.167 297.76C843.711 297.759 845.2 297.187 846.306 296.156C847.413 295.123 848.046 293.712 848.049 292.229C848.049 291.122 847.699 290.045 847.047 289.133C846.395 288.222 845.474 287.519 844.405 287.105C843.337 286.691 842.163 286.583 841.031 286.792C839.898 287.002 838.852 287.521 838.026 288.291C837.2 289.062 836.631 290.05 836.4 291.133C836.168 292.217 836.287 293.34 836.739 294.357C837.19 295.374 837.95 296.236 838.916 296.839ZM885.076 301.912L885.077 301.912C885.933 301.909 886.732 301.517 887.305 300.862C887.875 300.208 888.184 299.341 888.185 298.452C888.185 297.786 888.012 297.13 887.682 296.564C887.351 295.998 886.871 295.542 886.292 295.269C885.712 294.994 885.067 294.92 884.443 295.063C883.821 295.205 883.263 295.551 882.836 296.041C882.409 296.53 882.126 297.142 882.013 297.796C881.9 298.451 881.958 299.13 882.184 299.751C882.41 300.371 882.797 300.916 883.309 301.306C883.822 301.697 884.437 301.913 885.076 301.912ZM953.424 318.713C953.754 319.279 953.925 319.935 953.925 320.601C953.924 321.043 953.848 321.483 953.699 321.895C953.549 322.308 953.328 322.688 953.043 323.012C952.759 323.337 952.416 323.599 952.032 323.781C951.648 323.962 951.232 324.057 950.81 324.056C950.172 324.056 949.557 323.839 949.044 323.447C948.533 323.056 948.147 322.511 947.922 321.89C947.697 321.269 947.639 320.59 947.754 319.935C947.868 319.281 948.151 318.669 948.579 318.181C949.008 317.692 949.565 317.346 950.188 317.206C950.812 317.065 951.457 317.139 952.037 317.415C952.615 317.689 953.094 318.146 953.424 318.713ZM972.612 332.262V332.359L971.921 332.36H971.912H971.228V332.263C970.91 332.171 970.609 332.017 970.341 331.808C969.886 331.454 969.545 330.963 969.347 330.407C969.15 329.851 969.099 329.244 969.198 328.659C969.298 328.074 969.546 327.524 969.923 327.083C970.302 326.641 970.798 326.326 971.357 326.196C971.917 326.067 972.496 326.135 973.015 326.387C973.531 326.637 973.955 327.051 974.245 327.56C974.536 328.068 974.685 328.656 974.685 329.251C974.685 330.044 974.416 330.822 973.911 331.41C973.56 331.82 973.111 332.117 972.612 332.262ZM971.708 329.822C971.783 329.88 971.857 329.903 971.922 329.903C972.007 329.903 972.114 329.864 972.212 329.75C972.313 329.633 972.384 329.454 972.385 329.25C972.384 329.099 972.346 328.959 972.282 328.848C972.218 328.736 972.138 328.667 972.064 328.631C971.993 328.597 971.923 328.59 971.856 328.606C971.788 328.621 971.708 328.664 971.635 328.749C971.561 328.835 971.501 328.957 971.476 329.103C971.451 329.249 971.464 329.399 971.511 329.532C971.558 329.664 971.631 329.762 971.708 329.822ZM951.849 367.652H951.157L950.465 367.651V367.705C949.902 367.792 949.361 367.985 948.877 368.276C948.197 368.686 947.654 369.275 947.331 369.978C947.007 370.683 946.921 371.463 947.088 372.217C947.255 372.969 947.663 373.65 948.249 374.176C948.834 374.702 949.571 375.053 950.363 375.194C951.155 375.335 951.976 375.262 952.726 374.982C953.476 374.702 954.128 374.224 954.592 373.597C955.056 372.97 955.31 372.224 955.309 371.453C955.306 370.42 954.848 369.447 954.063 368.741C953.45 368.19 952.674 367.834 951.849 367.706V367.652ZM949.902 370.426C950.224 370.138 950.674 369.965 951.156 369.965C951.515 369.965 951.86 370.062 952.148 370.236C952.435 370.409 952.647 370.648 952.768 370.913C952.889 371.178 952.919 371.463 952.858 371.738C952.797 372.013 952.643 372.277 952.405 372.491C952.165 372.706 951.852 372.859 951.501 372.921C951.151 372.983 950.788 372.95 950.462 372.828C950.136 372.706 949.87 372.504 949.688 372.258C949.507 372.013 949.416 371.734 949.416 371.456C949.418 371.085 949.582 370.713 949.902 370.426ZM806.529 353.806C806.528 353.396 806.405 352.995 806.176 352.655C805.947 352.314 805.622 352.049 805.243 351.893C804.864 351.736 804.446 351.696 804.044 351.777C803.642 351.858 803.272 352.056 802.983 352.346C802.693 352.637 802.496 353.007 802.416 353.409C802.336 353.812 802.378 354.229 802.535 354.608C802.693 354.987 802.959 355.311 803.3 355.539C803.641 355.767 804.042 355.888 804.453 355.888C804.726 355.888 804.996 355.834 805.248 355.73C805.501 355.625 805.73 355.471 805.923 355.278C806.115 355.085 806.268 354.855 806.372 354.603C806.476 354.35 806.529 354.08 806.529 353.806ZM973.381 361.509C973.771 361.12 973.991 360.593 973.993 360.042L973.301 360.04L973.993 360.04C973.993 359.63 973.871 359.229 973.643 358.887C973.415 358.546 973.091 358.28 972.712 358.123C972.333 357.965 971.916 357.924 971.514 358.003C971.111 358.083 970.741 358.28 970.451 358.57C970.16 358.86 969.962 359.229 969.881 359.631C969.8 360.034 969.841 360.451 969.997 360.83C970.153 361.21 970.418 361.534 970.759 361.763C971.1 361.992 971.5 362.115 971.911 362.116H971.913C972.463 362.116 972.991 361.898 973.381 361.509ZM987.141 318.52C987.141 317.836 986.938 317.167 986.557 316.598C986.177 316.029 985.637 315.585 985.005 315.323C984.372 315.061 983.677 314.993 983.006 315.126C982.334 315.26 981.718 315.589 981.234 316.073C980.75 316.557 980.42 317.174 980.287 317.845C980.154 318.516 980.222 319.212 980.484 319.844C980.746 320.476 981.189 321.017 981.758 321.397C982.327 321.777 982.996 321.98 983.68 321.98C984.598 321.98 985.478 321.615 986.127 320.967C986.776 320.318 987.141 319.438 987.141 318.52ZM976.761 312.298C976.762 311.632 976.59 310.975 976.26 310.409C975.93 309.843 975.451 309.386 974.873 309.111C974.293 308.836 973.648 308.761 973.024 308.902C972.401 309.043 971.844 309.388 971.415 309.877C970.987 310.365 970.704 310.977 970.59 311.632C970.476 312.286 970.533 312.965 970.758 313.586C970.983 314.207 971.369 314.753 971.881 315.143C972.394 315.535 973.008 315.752 973.647 315.752C974.504 315.752 975.304 315.363 975.878 314.707C976.45 314.055 976.759 313.187 976.761 312.298ZM834.208 298.452C834.208 297.786 834.036 297.13 833.705 296.564C833.374 295.998 832.895 295.542 832.316 295.269C831.736 294.994 831.09 294.92 830.467 295.063C829.844 295.205 829.287 295.551 828.859 296.041C828.432 296.53 828.15 297.142 828.037 297.797C827.923 298.451 827.982 299.13 828.208 299.751C828.433 300.372 828.82 300.916 829.332 301.306C829.846 301.697 830.461 301.913 831.1 301.912C831.957 301.91 832.756 301.519 833.33 300.863C833.901 300.209 834.208 299.341 834.208 298.452ZM760.165 334.09C760.165 333.474 759.982 332.872 759.64 332.36C759.298 331.848 758.811 331.449 758.242 331.213C757.673 330.977 757.047 330.916 756.443 331.036C755.839 331.156 755.284 331.453 754.849 331.888C754.413 332.324 754.117 332.878 753.996 333.482C753.876 334.087 753.938 334.713 754.174 335.282C754.409 335.851 754.808 336.337 755.32 336.679C755.833 337.021 756.435 337.204 757.051 337.204C757.877 337.204 758.669 336.876 759.253 336.292C759.836 335.708 760.165 334.916 760.165 334.09ZM994.061 324.402C994.061 323.764 993.844 323.15 993.452 322.637C993.062 322.125 992.517 321.739 991.896 321.514C991.275 321.289 990.596 321.231 989.942 321.345C989.288 321.459 988.676 321.741 988.188 322.169C987.698 322.597 987.353 323.154 987.211 323.776C987.069 324.4 987.143 325.045 987.418 325.625C987.692 326.203 988.148 326.683 988.714 327.013C989.279 327.344 989.935 327.516 990.601 327.516C991.491 327.516 992.36 327.208 993.014 326.636C993.67 326.061 994.061 325.26 994.061 324.402ZM1009.4 349.828C1009.78 350.4 1009.98 351.072 1009.98 351.758C1009.97 352.669 1009.61 353.542 1008.96 354.186C1008.32 354.83 1007.44 355.193 1006.53 355.196C1005.85 355.199 1005.18 354.998 1004.6 354.619C1004.03 354.24 1003.59 353.7 1003.32 353.066C1003.06 352.433 1002.99 351.736 1003.12 351.063C1003.26 350.39 1003.59 349.772 1004.07 349.287C1004.56 348.803 1005.18 348.473 1005.85 348.341C1006.52 348.209 1007.22 348.279 1007.85 348.544C1008.49 348.809 1009.02 349.256 1009.4 349.828ZM949.081 296.029C949.081 295.392 948.864 294.777 948.472 294.264C948.082 293.753 947.537 293.367 946.916 293.142C946.295 292.917 945.616 292.859 944.962 292.973C944.308 293.087 943.696 293.369 943.208 293.796C942.719 294.225 942.373 294.782 942.231 295.404C942.09 296.027 942.163 296.673 942.438 297.253C942.712 297.831 943.168 298.31 943.734 298.641C944.299 298.972 944.955 299.144 945.62 299.144C946.063 299.144 946.503 299.069 946.916 298.919C947.329 298.77 947.71 298.549 948.035 298.264C948.36 297.98 948.623 297.637 948.805 297.253C948.987 296.869 949.081 296.453 949.081 296.029ZM858.02 284.653C858.083 284.64 858.146 284.63 858.209 284.624C858.146 284.63 858.083 284.64 858.02 284.652C857.843 284.688 857.672 284.747 857.511 284.826C857.672 284.747 857.843 284.688 858.02 284.653ZM861.197 286.683C861.196 286.136 861.032 285.601 860.728 285.146C860.423 284.692 859.99 284.338 859.484 284.129C858.978 283.92 858.421 283.866 857.884 283.974C857.347 284.082 856.855 284.346 856.468 284.734C856.082 285.122 855.819 285.615 855.713 286.152C855.607 286.689 855.663 287.246 855.873 287.751C856.083 288.257 856.439 288.688 856.894 288.992C857.35 289.295 857.886 289.457 858.433 289.456C858.797 289.455 859.156 289.383 859.492 289.244C859.827 289.104 860.132 288.9 860.389 288.642C860.646 288.385 860.849 288.079 860.988 287.743C861.126 287.407 861.197 287.047 861.197 286.683ZM733.977 311.754C734.358 312.323 734.561 312.992 734.561 313.676C734.561 314.13 734.472 314.58 734.299 315C734.125 315.421 733.87 315.802 733.548 316.124C733.227 316.445 732.845 316.7 732.425 316.874C732.005 317.048 731.555 317.137 731.1 317.136C730.416 317.136 729.747 316.933 729.178 316.553C728.609 316.173 728.166 315.632 727.904 315C727.642 314.368 727.574 313.672 727.707 313.001C727.841 312.33 728.17 311.713 728.654 311.229C729.138 310.746 729.754 310.416 730.426 310.282C731.097 310.149 731.792 310.218 732.425 310.479C733.057 310.741 733.597 311.185 733.977 311.754ZM1148.58 279.772C1148.47 279.779 1148.36 279.793 1148.25 279.815C1147.78 279.909 1147.35 280.14 1147.01 280.479C1146.86 280.63 1146.73 280.801 1146.62 280.985C1146.73 280.801 1146.86 280.63 1147.01 280.479C1147.35 280.14 1147.78 279.909 1148.25 279.815C1148.36 279.793 1148.47 279.779 1148.58 279.772ZM1151.84 282.19C1151.84 281.574 1151.65 280.972 1151.31 280.459C1150.97 279.947 1150.48 279.548 1149.91 279.313C1149.34 279.077 1148.72 279.016 1148.11 279.136C1147.51 279.257 1146.95 279.554 1146.52 279.99C1146.08 280.426 1145.79 280.981 1145.67 281.585C1145.55 282.19 1145.61 282.816 1145.85 283.385C1146.08 283.954 1146.48 284.44 1147 284.782C1147.51 285.123 1148.11 285.305 1148.73 285.304C1149.55 285.303 1150.34 284.974 1150.93 284.39C1151.51 283.806 1151.84 283.015 1151.84 282.19ZM1121.57 282.906L1121.57 282.907C1121.59 282.938 1121.6 282.969 1121.61 283C1121.8 283.465 1122.09 283.863 1122.47 284.148L1122.47 284.148C1122.52 284.186 1122.57 284.221 1122.62 284.255C1122.72 284.319 1122.82 284.375 1122.93 284.422C1123.21 284.548 1123.51 284.613 1123.81 284.612C1124.46 284.611 1125.07 284.319 1125.52 283.8C1125.81 283.476 1126.01 283.079 1126.13 282.648C1126.2 282.39 1126.23 282.119 1126.23 281.844L1121.57 282.906ZM1126.92 281.844C1126.92 281.179 1126.75 280.522 1126.42 279.957C1126.09 279.391 1125.61 278.935 1125.03 278.661C1124.45 278.386 1123.81 278.313 1123.18 278.455C1122.56 278.597 1122 278.944 1121.58 279.433C1121.15 279.922 1120.87 280.534 1120.75 281.189C1120.64 281.843 1120.7 282.522 1120.92 283.143C1121.15 283.764 1121.54 284.309 1122.05 284.699C1122.56 285.09 1123.18 285.305 1123.82 285.304C1124.67 285.303 1125.47 284.912 1126.05 284.255C1126.62 283.602 1126.92 282.733 1126.92 281.844ZM-93.764 317.136C-93.1745 317.136 -92.6194 316.989 -92.1336 316.729L-69.4698 334.413C-69.5183 334.643 -69.5439 334.883 -69.5439 335.128C-69.5439 337.039 -67.9948 338.588 -66.0839 338.588C-65.5396 338.588 -65.0246 338.462 -64.5664 338.238L-56.8182 344.284C-67.8572 353.371 -101.731 377.112 -117.881 388.25L-116.703 389.959C-100.435 378.74 -65.9188 354.552 -55.1422 345.592L-18.2628 374.368L-18.2427 374.382C-11.9488 378.828 -2.09232 385.601 7.02631 391.473C11.5847 394.409 15.9685 397.125 19.6353 399.215C23.2567 401.279 26.3002 402.804 28.1225 403.259L28.626 401.245C27.1267 400.87 24.3285 399.5 20.6631 397.411C17.043 395.348 12.6946 392.654 8.1503 389.728C-0.926727 383.883 -10.7464 377.135 -17.0247 372.701L-53.5269 344.219C-47.0342 338.668 -32.7251 326.612 -16.5201 314.995C-9.83344 310.202 -2.84937 305.503 4.0242 301.37C4.56134 301.713 5.19952 301.912 5.88416 301.912C7.79507 301.912 9.34418 300.363 9.34418 298.452C9.34418 298.394 9.34274 298.336 9.3399 298.278C10.966 297.367 12.5797 296.494 14.1754 295.668C15.4371 297.358 17.4529 298.452 19.7242 298.452C23.546 298.452 26.6442 295.354 26.6442 291.532C26.6442 291.056 26.5961 290.591 26.5045 290.142C27.8412 289.653 29.1501 289.218 30.427 288.841C30.9778 290.022 32.1755 290.84 33.5641 290.84C35.4751 290.84 37.0242 289.291 37.0242 287.38C37.0242 285.469 35.4751 283.92 33.5641 283.92C31.866 283.92 30.4536 285.143 30.1601 286.757C28.7375 287.168 27.2781 287.65 25.7877 288.195C24.6096 286.059 22.3358 284.612 19.7242 284.612C15.9024 284.612 12.8042 287.71 12.8042 291.532C12.8042 292.34 12.9427 293.116 13.1973 293.837C11.6784 294.624 10.1454 295.451 8.60318 296.312C7.9696 295.508 6.98715 294.992 5.88416 294.992C3.97327 294.992 2.42416 296.541 2.42416 298.452C2.42416 298.913 2.51453 299.354 2.67853 299.756C-4.19449 303.902 -11.1317 308.579 -17.7296 313.308C-34.2796 325.172 -48.8504 337.484 -55.197 342.916L-63.0483 336.79C-62.7777 336.297 -62.6239 335.73 -62.6239 335.128C-62.6239 333.217 -64.173 331.668 -66.0839 331.668C-66.9908 331.668 -67.8163 332.017 -68.4333 332.588L-90.674 315.234C-90.4373 314.766 -90.304 314.237 -90.304 313.676C-90.304 311.765 -91.8531 310.216 -93.764 310.216C-95.6749 310.216 -97.224 311.765 -97.224 313.676C-97.224 315.587 -95.6749 317.136 -93.764 317.136ZM-339.821 316.21C-338.588 317.149 -337.305 318.126 -335.979 319.136C-336.128 319.523 -336.21 319.943 -336.21 320.383C-336.21 322.294 -334.661 323.843 -332.75 323.843C-331.979 323.843 -331.266 323.59 -330.69 323.163C-321.832 329.907 -311.746 337.582 -302.485 344.621C-325.37 363.458 -351.212 381.75 -372.677 396.333C-382.992 403.341 -392.319 409.507 -399.815 414.462L-399.817 414.464L-399.819 414.465L-399.819 414.465L-399.82 414.466L-399.822 414.467L-399.825 414.469C-408.147 419.97 -414.211 423.979 -416.863 425.991L-415.609 427.645C-412.995 425.662 -407.031 421.72 -398.798 416.279L-398.797 416.278L-398.796 416.277L-398.789 416.273L-398.788 416.272L-398.787 416.272C-391.3 411.323 -381.937 405.134 -371.511 398.051C-349.908 383.374 -323.838 364.919 -300.787 345.911C-289.096 354.796 -278.958 362.486 -274.653 365.714C-268.42 370.389 -257.505 378.445 -246.974 385.553C-241.709 389.106 -236.528 392.431 -232.068 394.979C-227.655 397.501 -223.813 399.344 -221.281 399.813L-220.903 397.771C-223.042 397.375 -226.596 395.715 -231.038 393.176C-235.434 390.665 -240.567 387.372 -245.812 383.832C-256.301 376.754 -267.184 368.721 -273.407 364.054C-277.661 360.863 -287.619 353.31 -299.144 344.553C-274.311 324.014 -248.752 303.437 -221.802 291.705C-210.977 286.993 -199.938 283.711 -188.639 282.439C-188.013 283.334 -186.975 283.92 -185.8 283.92C-184.426 283.92 -183.238 283.119 -182.68 281.958C-181.549 281.903 -180.415 281.869 -179.279 281.857C-178.742 283.072 -177.526 283.92 -176.112 283.92C-174.756 283.92 -173.583 283.14 -173.015 282.005C-172.15 282.056 -171.284 282.12 -170.416 282.196C-169.973 283.597 -168.663 284.612 -167.116 284.612C-165.872 284.612 -164.782 283.956 -164.172 282.97C-163.539 283.071 -162.906 283.18 -162.271 283.295C-162.236 285.175 -160.7 286.688 -158.812 286.688C-157.444 286.688 -156.262 285.895 -155.7 284.743C-150.551 286.076 -145.344 287.894 -140.077 290.243C-140.11 290.437 -140.128 290.636 -140.128 290.84C-140.128 292.751 -138.579 294.3 -136.668 294.3C-134.757 294.3 -133.208 292.751 -133.208 290.84C-133.208 288.929 -134.757 287.38 -136.668 287.38C-137.625 287.38 -138.492 287.769 -139.118 288.397C-144.607 285.942 -150.032 284.052 -155.396 282.677C-155.659 281.028 -157.089 279.768 -158.812 279.768C-160.006 279.768 -161.058 280.373 -161.68 281.292C-162.342 281.17 -163.002 281.056 -163.662 280.949C-163.767 279.133 -165.273 277.692 -167.116 277.692C-168.664 277.692 -169.975 278.709 -170.417 280.112C-171.176 280.046 -171.934 279.991 -172.69 279.944C-172.939 278.278 -174.376 277 -176.112 277C-177.791 277 -179.191 278.196 -179.506 279.783C-180.469 279.796 -181.431 279.824 -182.391 279.866C-182.672 278.238 -184.091 277 -185.8 277C-187.698 277 -189.239 278.528 -189.26 280.421C-200.649 281.75 -211.762 285.07 -222.631 289.802C-250.027 301.728 -275.927 322.65 -300.841 343.263C-310.219 336.135 -320.478 328.328 -329.469 321.483C-329.353 321.138 -329.29 320.768 -329.29 320.383C-329.29 318.472 -330.839 316.923 -332.75 316.923C-333.466 316.923 -334.132 317.14 -334.684 317.513C-335.981 316.525 -337.237 315.568 -338.445 314.648C-337.751 313.57 -337.348 312.286 -337.348 310.908C-337.348 307.086 -340.446 303.988 -344.268 303.988C-348.09 303.988 -351.188 307.086 -351.188 310.908C-351.188 314.73 -348.09 317.828 -344.268 317.828C-342.575 317.828 -341.024 317.22 -339.821 316.21ZM124.18 295.184C135.865 300.886 147.413 308.039 158.686 316.338L158.687 316.338C169.842 324.566 180.855 333.452 191.776 342.31C220.773 318.959 249.473 295.893 279.662 285.422L279.663 285.422C284.944 283.596 290.367 282.234 295.868 281.347C296.109 279.672 297.55 278.384 299.292 278.384C300.732 278.384 301.966 279.263 302.487 280.513C305.486 280.24 308.501 280.106 311.521 280.114C318.128 280.115 324.767 280.755 331.412 281.973C332.007 280.925 333.133 280.217 334.424 280.217C336.335 280.217 337.884 281.766 337.884 283.677C337.884 285.588 336.335 287.137 334.424 287.137C332.624 287.137 331.145 285.762 330.98 284.005C324.468 282.814 317.973 282.19 311.52 282.19L311.517 282.19C308.56 282.183 305.609 282.313 302.674 282.581C302.336 284.138 300.951 285.304 299.292 285.304C297.94 285.304 296.768 284.528 296.199 283.396C290.816 284.264 285.51 285.597 280.343 287.384C250.645 297.684 222.357 320.355 193.425 343.648L193.841 343.986L193.842 343.987C201.795 350.439 209.7 356.853 217.579 362.964C233.78 375.528 249.94 386.871 266.422 394.884V310.058C265.018 309.617 264 308.305 264 306.756C264 304.845 265.549 303.296 267.46 303.296C269.371 303.296 270.92 304.845 270.92 306.756C270.92 308.305 269.902 309.617 268.498 310.058V395.874C271.097 397.091 273.705 398.223 276.322 399.262L275.556 401.191C255.333 393.163 235.771 379.7 216.307 364.604C208.343 358.428 200.413 351.993 192.458 345.537L191.771 344.98C189.403 346.887 187.03 348.796 184.651 350.702C184.944 351.21 185.112 351.799 185.112 352.428C185.112 354.339 183.563 355.888 181.652 355.888C179.741 355.888 178.192 354.339 178.192 352.428C178.192 350.517 179.741 348.968 181.652 348.968C182.169 348.968 182.659 349.081 183.1 349.284C185.443 347.408 187.783 345.525 190.122 343.642C179.341 334.898 168.502 326.157 157.455 318.009C146.441 309.901 135.181 302.909 123.809 297.314C123.226 298.403 122.078 299.144 120.756 299.144C118.845 299.144 117.296 297.595 117.296 295.684C117.296 293.773 118.845 292.224 120.756 292.224C122.497 292.224 123.938 293.51 124.18 295.184ZM361.03 289.649C355.872 291.754 350.751 294.22 345.655 296.984C345.656 297.012 345.656 297.04 345.656 297.068C345.656 298.979 344.107 300.528 342.196 300.528C341.51 300.528 340.87 300.328 340.332 299.983C332.11 304.782 323.946 310.305 315.794 316.282C315.863 316.555 315.9 316.841 315.9 317.136C315.9 319.047 314.351 320.596 312.44 320.596C310.529 320.596 308.98 319.047 308.98 317.136C308.98 315.225 310.529 313.676 312.44 313.676C313.302 313.676 314.091 313.991 314.697 314.513C322.741 308.619 330.825 303.147 338.988 298.365C338.826 297.964 338.736 297.526 338.736 297.068C338.736 295.157 340.285 293.608 342.196 293.608C343.33 293.608 344.337 294.153 344.968 294.996C349.935 292.313 354.934 289.907 359.975 287.838C359.666 287.053 359.496 286.199 359.496 285.304C359.496 281.482 362.595 278.384 366.416 278.384C369.56 278.384 372.214 280.481 373.057 283.352C381.161 281.185 389.523 280.093 397.929 280.114L397.933 280.114C407.985 280.178 417.984 281.576 427.672 284.272L427.598 284.537L428.623 285.068C428.526 285.256 428.439 285.449 428.362 285.647L428.022 286.524L427.116 286.272C417.605 283.625 407.789 282.253 397.922 282.19C389.61 282.17 381.343 283.261 373.335 285.427C373.27 289.192 370.197 292.224 366.416 292.224C364.24 292.224 362.299 291.22 361.03 289.649ZM491.691 317.119C489.678 315.644 487.658 314.208 485.63 312.81C485.954 312.009 486.132 311.133 486.132 310.216C486.132 306.394 483.034 303.296 479.212 303.296C475.391 303.296 472.292 306.394 472.292 310.216C472.292 314.038 475.391 317.136 479.212 317.136C481.371 317.136 483.299 316.148 484.568 314.599C486.541 315.961 488.507 317.359 490.466 318.795C490.348 319.143 490.284 319.516 490.284 319.904C490.284 321.815 491.833 323.364 493.744 323.364C494.49 323.364 495.181 323.128 495.746 322.727C504.725 329.504 513.588 336.627 522.408 343.768C521.885 344.192 521.362 344.616 520.839 345.039L518.825 346.672L518.824 346.672C517.351 347.866 515.877 349.061 514.402 350.255C504.193 358.517 493.939 366.729 483.54 374.372C454.095 396.015 423.046 409.688 392.88 409.68H392.877C382.262 409.71 371.72 407.942 361.699 404.451C354.923 402.044 348.336 399.137 341.993 395.755L341.016 397.587C347.451 401.018 354.134 403.967 361.007 406.409L361.013 406.411C371.256 409.98 382.032 411.787 392.881 411.756H392.883L392.88 410.718L392.879 411.756H392.881C423.661 411.764 455.138 397.825 484.77 376.045L484.155 375.208L484.77 376.045C495.211 368.37 505.498 360.132 515.708 351.868C517.185 350.673 518.661 349.477 520.135 348.282L520.196 348.232C521.484 347.189 522.771 346.146 524.057 345.104L525.982 346.664L525.984 346.666C532.708 352.116 539.414 357.551 546.134 362.825C564.376 377.141 582.667 390.22 601.469 398.922L602.341 397.038C583.768 388.442 565.632 375.488 547.415 361.192C540.751 355.962 534.068 350.546 527.352 345.102L525.707 343.769C532.555 338.232 539.382 332.762 546.221 327.513C566.553 311.911 586.907 298.343 608.021 290.941C618.168 287.413 628.841 285.624 639.587 285.65L639.589 285.65C654.289 285.65 669.163 288.878 683.945 294.625L684.697 292.69C669.725 286.869 654.595 283.575 639.591 283.574C628.611 283.547 617.705 285.375 607.337 288.981L607.335 288.982C585.898 296.497 565.33 310.234 544.958 325.867C537.986 331.217 531.026 336.797 524.058 342.433C515.115 335.191 506.108 327.947 497.002 321.074C497.133 320.708 497.204 320.314 497.204 319.904C497.204 317.993 495.655 316.444 493.744 316.444C492.976 316.444 492.265 316.695 491.691 317.119ZM361.699 404.451L361.702 404.453L361.355 405.431L361.696 404.45L361.699 404.451ZM582.32 368.881C582.32 370.792 580.771 372.341 578.86 372.341C576.95 372.341 575.4 370.792 575.4 368.881C575.4 367.332 576.419 366.02 577.823 365.579V321.849C576.032 321.388 574.708 319.763 574.708 317.828C574.708 315.535 576.567 313.676 578.86 313.676C581.154 313.676 583.012 315.535 583.012 317.828C583.012 319.762 581.689 321.388 579.898 321.849V365.579C581.302 366.02 582.32 367.332 582.32 368.881ZM-387.172 310.039V393.256H-385.096V310.039C-383.887 309.611 -383.02 308.458 -383.02 307.102C-383.02 305.382 -384.414 303.988 -386.134 303.988C-387.854 303.988 -389.248 305.382 -389.248 307.102C-389.248 308.458 -388.382 309.611 -387.172 310.039ZM-340.808 360.04C-340.808 359.272 -341.226 358.601 -341.846 358.242V331.591C-340.459 331.276 -339.424 330.036 -339.424 328.554C-339.424 326.834 -340.818 325.44 -342.538 325.44C-344.258 325.44 -345.652 326.834 -345.652 328.554C-345.652 329.777 -344.947 330.835 -343.922 331.344V358.242C-344.543 358.601 -344.96 359.272 -344.96 360.04C-344.96 361.187 -344.031 362.116 -342.884 362.116C-341.737 362.116 -340.808 361.187 -340.808 360.04ZM-263.996 328.9C-263.996 329.668 -264.413 330.339 -265.034 330.698V357.596C-264.009 358.105 -263.304 359.164 -263.304 360.386C-263.304 362.106 -264.698 363.5 -266.418 363.5C-268.138 363.5 -269.532 362.106 -269.532 360.386C-269.532 358.904 -268.497 357.664 -267.11 357.349V330.698C-267.731 330.339 -268.148 329.668 -268.148 328.9C-268.148 327.754 -267.219 326.824 -266.072 326.824C-264.925 326.824 -263.996 327.754 -263.996 328.9ZM-243.582 321.849C-241.791 321.388 -240.468 319.763 -240.468 317.828C-240.468 315.535 -242.327 313.676 -244.62 313.676C-246.913 313.676 -248.772 315.535 -248.772 317.828C-248.772 319.763 -247.449 321.388 -245.658 321.849V365.042C-247.062 365.483 -248.08 366.795 -248.08 368.344C-248.08 370.255 -246.531 371.804 -244.62 371.804C-242.709 371.804 -241.16 370.255 -241.16 368.344C-241.16 366.795 -242.178 365.483 -243.582 365.042V321.849ZM-176.112 294.3C-176.112 295.849 -177.13 297.161 -178.534 297.602V389.104H-180.61V297.602C-182.014 297.161 -183.032 295.849 -183.032 294.3C-183.032 292.389 -181.483 290.84 -179.572 290.84C-177.661 290.84 -176.112 292.389 -176.112 294.3ZM-158.466 389.104V304.549C-160.257 304.088 -161.58 302.463 -161.58 300.528C-161.58 298.235 -159.721 296.376 -157.428 296.376C-155.135 296.376 -153.276 298.235 -153.276 300.528C-153.276 302.463 -154.599 304.088 -156.39 304.549L-156.39 389.104H-158.466ZM-137.014 310.75V389.104H-134.938L-134.938 310.75C-133.534 310.309 -132.516 308.997 -132.516 307.448C-132.516 305.537 -134.065 303.988 -135.976 303.988C-137.887 303.988 -139.436 305.537 -139.436 307.448C-139.436 308.997 -138.418 310.309 -137.014 310.75ZM-112.794 324.894C-111.584 324.466 -110.718 323.313 -110.718 321.957C-110.718 320.237 -112.112 318.843 -113.832 318.843C-115.552 318.843 -116.946 320.237 -116.946 321.957C-116.946 323.313 -116.079 324.466 -114.87 324.894V367.81C-116.274 368.251 -117.292 369.563 -117.292 371.112C-117.292 373.023 -115.743 374.572 -113.832 374.572C-111.921 374.572 -110.372 373.023 -110.372 371.112C-110.372 369.563 -111.39 368.251 -112.794 367.81V324.894ZM-16.9519 330.63C-16.9519 332.112 -17.9871 333.352 -19.3738 333.667V351.28C-18.7533 351.639 -18.3358 352.31 -18.3358 353.078C-18.3358 354.225 -19.2653 355.154 -20.4119 355.154C-21.5584 355.154 -22.4879 354.225 -22.4879 353.078C-22.4879 352.31 -22.0704 351.639 -21.4498 351.28V333.42C-22.4752 332.911 -23.1799 331.853 -23.1799 330.63C-23.1799 328.91 -21.7857 327.516 -20.0659 327.516C-18.346 327.516 -16.9519 328.91 -16.9519 330.63ZM17.633 308.14C17.0667 308.132 16.6102 307.67 16.6102 307.102C16.6102 306.529 17.0749 306.064 17.6482 306.064C18.2215 306.064 18.6862 306.529 18.6862 307.102C18.6862 307.67 18.2296 308.132 17.6634 308.14H17.633ZM18.6862 310.039C19.8957 309.611 20.7622 308.458 20.7622 307.102C20.7622 305.382 19.368 303.988 17.6482 303.988C15.9284 303.988 14.5342 305.382 14.5342 307.102C14.5342 308.458 15.4007 309.611 16.6102 310.039V387.72H18.6862L18.6862 310.039ZM64.7042 298.452C64.7042 300.001 63.6859 301.313 62.2822 301.753L62.2822 387.72H60.2062V301.753C58.8024 301.313 57.7842 300.001 57.7842 298.452C57.7842 296.541 59.3333 294.992 61.2442 294.992C63.1551 294.992 64.7042 296.541 64.7042 298.452ZM103.802 387.72V312.115C102.593 311.687 101.726 310.534 101.726 309.178C101.726 307.458 103.12 306.064 104.84 306.064C106.56 306.064 107.954 307.458 107.954 309.178C107.954 310.534 107.088 311.687 105.878 312.115V387.72H103.802ZM127.33 367.783C129.121 368.244 130.444 369.869 130.444 371.804C130.444 374.097 128.585 375.956 126.292 375.956C123.999 375.956 122.14 374.097 122.14 371.804C122.14 369.869 123.463 368.244 125.254 367.783V323.898C123.85 323.457 122.832 322.145 122.832 320.596C122.832 318.685 124.381 317.136 126.292 317.136C128.203 317.136 129.752 318.685 129.752 320.596C129.752 322.145 128.734 323.457 127.33 323.898V367.783ZM148.09 332.183C149.3 331.755 150.166 330.602 150.166 329.246C150.166 327.526 148.772 326.132 147.052 326.132C145.332 326.132 143.938 327.526 143.938 329.246C143.938 330.602 144.805 331.755 146.014 332.183V358.242C145.394 358.601 144.976 359.272 144.976 360.04C144.976 361.187 145.906 362.116 147.052 362.116C148.199 362.116 149.128 361.187 149.128 360.04C149.128 359.272 148.711 358.601 148.09 358.242V332.183ZM222.826 330.698V357.138C221.617 357.565 220.75 358.719 220.75 360.075C220.75 361.794 222.144 363.189 223.864 363.189C225.584 363.189 226.978 361.794 226.978 360.075C226.978 358.719 226.112 357.565 224.902 357.138V330.698C225.523 330.339 225.94 329.668 225.94 328.9C225.94 327.754 225.011 326.824 223.864 326.824C222.718 326.824 221.788 327.754 221.788 328.9C221.788 329.669 222.206 330.339 222.826 330.698ZM293.064 296.444C293.064 298.379 291.741 300.005 289.95 300.465V396.716H287.874V300.465C286.083 300.005 284.76 298.379 284.76 296.444C284.76 294.151 286.619 292.292 288.912 292.292C291.205 292.292 293.064 294.151 293.064 296.444ZM352.922 309.347C354.132 308.919 354.998 307.766 354.998 306.41C354.998 304.69 353.604 303.296 351.884 303.296C350.165 303.296 348.77 304.69 348.77 306.41C348.77 307.766 349.637 308.919 350.846 309.347V387.72H352.922V309.347ZM379.218 318.762C379.218 320.118 378.352 321.272 377.142 321.699V365.734C378.546 366.175 379.564 367.487 379.564 369.036C379.564 370.947 378.015 372.496 376.104 372.496C374.193 372.496 372.644 370.947 372.644 369.036C372.644 367.487 373.663 366.175 375.066 365.734V321.699C373.857 321.272 372.99 320.118 372.99 318.762C372.99 317.042 374.385 315.648 376.104 315.648C377.824 315.648 379.218 317.042 379.218 318.762ZM395.826 299.51C397.783 299.175 399.272 297.47 399.272 295.418C399.272 293.125 397.414 291.266 395.12 291.266C392.827 291.266 390.968 293.125 390.968 295.418C390.968 297.231 392.13 298.773 393.75 299.339V400.176H395.826V299.51ZM438.038 311.801V380.8H440.114V311.801C441.324 311.373 442.19 310.22 442.19 308.864C442.19 307.144 440.796 305.75 439.076 305.75C437.357 305.75 435.962 307.144 435.962 308.864C435.962 310.22 436.829 311.373 438.038 311.801ZM484.056 360.04C484.056 359.272 483.639 358.601 483.018 358.242V333.053C484.228 332.626 485.094 331.472 485.094 330.116C485.094 328.396 483.7 327.002 481.98 327.002C480.26 327.002 478.866 328.396 478.866 330.116C478.866 331.472 479.733 332.626 480.942 333.053V358.242C480.322 358.601 479.904 359.272 479.904 360.04C479.904 361.187 480.834 362.116 481.98 362.116C483.127 362.116 484.056 361.187 484.056 360.04ZM559.83 357.449C561.04 357.877 561.906 359.03 561.906 360.386C561.906 362.106 560.512 363.5 558.792 363.5C557.073 363.5 555.678 362.106 555.678 360.386C555.678 359.03 556.545 357.877 557.754 357.449V330.698C557.134 330.339 556.716 329.669 556.716 328.9C556.716 327.754 557.646 326.824 558.792 326.824C559.939 326.824 560.868 327.754 560.868 328.9C560.868 329.668 560.451 330.339 559.83 330.698V357.449ZM-385.096 307.102C-385.096 307.675 -385.561 308.14 -386.134 308.14C-386.707 308.14 -387.172 307.675 -387.172 307.102C-387.172 306.529 -386.707 306.064 -386.134 306.064C-385.561 306.064 -385.096 306.529 -385.096 307.102ZM-342.538 329.592C-341.965 329.592 -341.5 329.127 -341.5 328.554C-341.5 327.981 -341.965 327.516 -342.538 327.516C-343.111 327.516 -343.576 327.981 -343.576 328.554C-343.576 329.127 -343.111 329.592 -342.538 329.592ZM-112.794 321.957C-112.794 322.53 -113.259 322.995 -113.832 322.995C-114.405 322.995 -114.87 322.53 -114.87 321.957C-114.87 321.384 -114.405 320.919 -113.832 320.919C-113.259 320.919 -112.794 321.384 -112.794 321.957ZM-20.0659 331.668C-19.4926 331.668 -19.0279 331.203 -19.0279 330.63C-19.0279 330.057 -19.4926 329.592 -20.0659 329.592C-20.6391 329.592 -21.1039 330.057 -21.1039 330.63C-21.1039 331.203 -20.6391 331.668 -20.0659 331.668ZM104.84 310.216C105.414 310.216 105.878 309.751 105.878 309.178C105.878 308.605 105.414 308.14 104.84 308.14C104.267 308.14 103.802 308.605 103.802 309.178C103.802 309.751 104.267 310.216 104.84 310.216ZM148.09 329.246C148.09 329.819 147.625 330.284 147.052 330.284C146.479 330.284 146.014 329.819 146.014 329.246C146.014 328.673 146.479 328.208 147.052 328.208C147.625 328.208 148.09 328.673 148.09 329.246ZM223.864 361.113C224.438 361.113 224.902 360.648 224.902 360.075C224.902 359.501 224.438 359.037 223.864 359.037C223.291 359.037 222.826 359.501 222.826 360.075C222.826 360.648 223.291 361.113 223.864 361.113ZM352.922 306.41C352.922 306.983 352.458 307.448 351.884 307.448C351.311 307.448 350.846 306.983 350.846 306.41C350.846 305.837 351.311 305.372 351.884 305.372C352.458 305.372 352.922 305.837 352.922 306.41ZM376.104 319.8C376.678 319.8 377.142 319.335 377.142 318.762C377.142 318.189 376.678 317.724 376.104 317.724C375.531 317.724 375.066 318.189 375.066 318.762C375.066 319.335 375.531 319.8 376.104 319.8ZM440.114 308.864C440.114 309.437 439.65 309.902 439.076 309.902C438.503 309.902 438.038 309.437 438.038 308.864C438.038 308.291 438.503 307.826 439.076 307.826C439.65 307.826 440.114 308.291 440.114 308.864ZM481.98 331.154C482.554 331.154 483.018 330.69 483.018 330.116C483.018 329.543 482.554 329.078 481.98 329.078C481.407 329.078 480.942 329.543 480.942 330.116C480.942 330.69 481.407 331.154 481.98 331.154ZM559.83 360.386C559.83 360.959 559.366 361.424 558.792 361.424C558.219 361.424 557.754 360.959 557.754 360.386C557.754 359.813 558.219 359.348 558.792 359.348C559.366 359.348 559.83 359.813 559.83 360.386ZM-266.418 361.424C-265.845 361.424 -265.38 360.959 -265.38 360.386C-265.38 359.813 -265.845 359.348 -266.418 359.348C-266.991 359.348 -267.456 359.813 -267.456 360.386C-267.456 360.959 -266.991 361.424 -266.418 361.424ZM-242.544 317.828C-242.544 318.974 -243.473 319.904 -244.62 319.904C-245.766 319.904 -246.696 318.974 -246.696 317.828C-246.696 316.681 -245.766 315.752 -244.62 315.752C-243.473 315.752 -242.544 316.681 -242.544 317.828ZM-157.428 302.604C-156.281 302.604 -155.352 301.675 -155.352 300.528C-155.352 299.381 -156.281 298.452 -157.428 298.452C-158.575 298.452 -159.504 299.381 -159.504 300.528C-159.504 301.675 -158.575 302.604 -157.428 302.604ZM128.368 371.804C128.368 372.951 127.439 373.88 126.292 373.88C125.146 373.88 124.216 372.951 124.216 371.804C124.216 370.658 125.146 369.728 126.292 369.728C127.439 369.728 128.368 370.658 128.368 371.804ZM288.912 298.52C290.059 298.52 290.988 297.591 290.988 296.444C290.988 295.298 290.059 294.368 288.912 294.368C287.766 294.368 286.836 295.298 286.836 296.444C286.836 297.591 287.766 298.52 288.912 298.52ZM397.196 295.418C397.196 296.564 396.267 297.494 395.12 297.494C393.974 297.494 393.044 296.564 393.044 295.418C393.044 294.271 393.974 293.342 395.12 293.342C396.267 293.342 397.196 294.271 397.196 295.418ZM-397.552 289.456C-395.641 289.456 -394.092 287.907 -394.092 285.996C-394.092 284.085 -395.641 282.536 -397.552 282.536C-398.343 282.536 -399.072 282.802 -399.655 283.248C-400.021 283.134 -400.399 283.029 -400.785 282.931C-402.277 282.554 -403.971 282.27 -405.677 282.06C-409.089 281.638 -412.627 281.498 -414.852 281.498V283.574C-412.694 283.574 -409.243 283.711 -405.931 284.12C-404.276 284.324 -402.674 284.595 -401.295 284.944C-401.154 284.979 -401.016 285.016 -400.882 285.053C-400.967 285.352 -401.012 285.669 -401.012 285.996C-401.012 287.907 -399.463 289.456 -397.552 289.456ZM578.86 319.904C580.007 319.904 580.936 318.974 580.936 317.828C580.936 316.681 580.007 315.752 578.86 315.752C577.714 315.752 576.784 316.681 576.784 317.828C576.784 318.974 577.714 319.904 578.86 319.904ZM1125.87 280.383C1125.85 280.357 1125.84 280.331 1125.82 280.306C1125.76 280.192 1125.68 280.084 1125.6 279.984C1125.68 280.084 1125.76 280.192 1125.82 280.306C1125.84 280.331 1125.85 280.357 1125.87 280.383ZM1125.87 280.383C1125.88 280.4 1125.89 280.417 1125.89 280.434L1125.87 280.392L1125.87 280.383Z" fill="url(#paint0_linear)"/>
</g>
<defs>
<linearGradient id="paint0_linear" x1="6.05648" y1="366.494" x2="399.113" y2="496.59" gradientUnits="userSpaceOnUse">
<stop stop-color="#00D4FF"/>
<stop offset="0.9999" stop-color="#9BC74E"/>
</linearGradient>
</defs>
</svg>
