<svg width="14" height="14" viewBox="0 0 14 14" fill="none" xmlns="http://www.w3.org/2000/svg">
<path d="M9.35082 6.36393H9.21182C9.14141 6.36393 9.08195 6.31164 9.07296 6.2418L8.7643 3.84297C8.74405 3.68554 8.85894 3.54771 9.01766 3.54969C9.26695 3.5528 9.51388 3.54927 9.67203 3.34592C9.89248 3.06245 10.008 2.69274 9.99432 2.31436C9.98065 1.93597 9.97015 1.71832 9.72999 1.45645C9.48983 1.19458 9.24869 1.04884 8.91624 1.04981H5.04874C4.71629 1.04884 4.53311 1.19458 4.29295 1.45645C4.0528 1.71832 3.98433 1.93597 3.97066 2.31436C3.95699 2.69274 4.0725 3.06245 4.29295 3.34592C4.4511 3.54927 4.69803 3.5528 4.94732 3.54969C5.10604 3.54771 5.22093 3.68555 5.20068 3.84297L4.89202 6.2418C4.88303 6.31164 4.82357 6.36393 4.75316 6.36393H4.61416C4.27225 6.36393 3.76934 6.69365 3.52758 6.96906C3.28581 7.24446 3.11499 7.51299 3.11499 7.90247V8.391C3.11499 8.54564 3.24035 8.671 3.39499 8.671H5.98791C6.02657 8.671 6.05791 8.70234 6.05791 8.741V11.9549C6.05791 12.0319 6.0896 12.1055 6.14553 12.1584L6.79011 12.7679C6.89806 12.87 7.06692 12.87 7.17487 12.7679L7.81945 12.1584C7.87538 12.1055 7.90707 12.0319 7.90707 11.9549V8.741C7.90707 8.70234 7.93841 8.671 7.97707 8.671H10.57C10.7246 8.671 10.85 8.54564 10.85 8.391V7.90247C10.85 7.51299 10.6792 7.24446 10.4374 6.96906C10.1956 6.69365 9.69273 6.36393 9.35082 6.36393Z" fill="black"/>
</svg>
