<svg xmlns="http://www.w3.org/2000/svg" viewBox="0 0 64 63.324999999999996" x="0px" y="0px"><title>Sort Descending</title><g data-name="Layer 2"><g data-name="Layer 4"><path d="M11.11,50.32,11,50.4l-.2.1-.2.06-.17.05a2,2,0,0,1-.78,0l-.17-.05-.2-.06L9,50.4l-.15-.08a2,2,0,0,1-.31-.25l-8-8a2,2,0,0,1,2.83-2.83L8,43.83V2a2,2,0,0,1,4,0V43.83l4.59-4.59a2,2,0,1,1,2.83,2.83l-8,8A2,2,0,0,1,11.11,50.32Z"/><path d="M38,40.66H30a2,2,0,0,0,0,4h8a2,2,0,0,0,0-4Z"/><path d="M46,28.66H30a2,2,0,0,0,0,4H46a2,2,0,0,0,0-4Z"/><path d="M54,16.66H30a2,2,0,0,0,0,4H54a2,2,0,0,0,0-4Z"/><path d="M62,4.66H30a2,2,0,0,0,0,4H62a2,2,0,0,0,0-4Z"/></g></g></svg>