<svg xmlns="http://www.w3.org/2000/svg" viewBox="0 0 64 63.324999999999996" x="0px" y="0px"><title>Sort Ascending</title><g data-name="Layer 2"><g data-name="Layer 4"><path d="M11.11.34,11,.26l-.2-.1-.2-.06L10.39,0a2,2,0,0,0-.78,0L9.44.09l-.2.06L9,.26,8.89.34a2,2,0,0,0-.31.25l-8,8a2,2,0,0,0,2.83,2.83L8,6.83V48.66a2,2,0,0,0,4,0V6.83l4.59,4.59a2,2,0,1,0,2.83-2.83l-8-8A2,2,0,0,0,11.11.34Z"/><path d="M38,10H30a2,2,0,0,1,0-4h8a2,2,0,0,1,0,4Z"/><path d="M46,22H30a2,2,0,0,1,0-4H46a2,2,0,0,1,0,4Z"/><path d="M54,34H30a2,2,0,0,1,0-4H54a2,2,0,0,1,0,4Z"/><path d="M62,46H30a2,2,0,0,1,0-4H62a2,2,0,0,1,0,4Z"/></g></g></svg>